<svg width="149" height="40" viewBox="0 0 149 40" fill="none" xmlns="http://www.w3.org/2000/svg">
<g clip-path="url(#clip0_104_140)">
<path d="M136.268 23.3552V28.299C136.268 32.4795 134.553 36.5914 131.637 39.9958H127.285C130.672 37.0802 133.193 33.0326 133.193 28.299V23.3552C133.193 22.1305 132.707 20.9559 131.841 20.0899C130.975 19.2239 129.8 18.7374 128.575 18.7374C127.351 18.7374 126.176 19.2239 125.31 20.0899C124.444 20.9559 123.958 22.1305 123.958 23.3552V27.1841C123.939 28.6251 123.531 30.0342 122.776 31.2617C122.021 32.4892 120.948 33.4894 119.67 34.156L108.59 39.73V36.2998L118.289 31.4247C119.066 31.0229 119.719 30.4178 120.179 29.674C120.639 28.9303 120.888 28.0757 120.9 27.2013V23.3552C120.9 21.3151 121.711 19.3586 123.153 17.9161C124.596 16.4735 126.553 15.6631 128.593 15.6631C130.633 15.6631 132.589 16.4735 134.032 17.9161C135.474 19.3586 136.285 21.3151 136.285 23.3552H136.268Z" fill="#45B649"/>
<path d="M130.11 23.355V27.7156C130.11 32.7194 127.148 37.1486 121.964 39.867C121.882 39.9142 121.797 39.9528 121.702 39.9999H114.88C117.076 38.8851 119.13 37.8561 120.575 37.1314C124.674 34.9876 127.036 31.5574 127.036 27.6985V23.355C127.057 22.9614 127.228 22.5908 127.514 22.3195C127.8 22.0482 128.179 21.897 128.573 21.897C128.967 21.897 129.347 22.0482 129.633 22.3195C129.919 22.5908 130.09 22.9614 130.11 23.355Z" fill="#45B649"/>
<path d="M142.446 39.9999H135.504L137.249 37.5816C137.395 37.3801 137.583 37.2128 137.8 37.0913C138.017 36.9697 138.258 36.8968 138.506 36.8777C138.754 36.8585 139.004 36.8935 139.237 36.9803C139.47 37.067 139.681 37.2034 139.856 37.3801L142.446 39.9999Z" fill="#45B649"/>
<path d="M111.635 14.4712L127.971 3.25888C128.148 3.13758 128.358 3.07268 128.573 3.07268C128.788 3.07268 128.998 3.13758 129.176 3.25888L145.495 14.4455V29.8255C145.495 30.1644 145.629 30.4896 145.868 30.7302L148.59 33.4443V14.4455C148.591 13.9515 148.471 13.4648 148.241 13.0277C148.011 12.5906 147.677 12.2163 147.27 11.9372L130.912 0.720559C130.222 0.251054 129.406 0 128.571 0C127.736 0 126.92 0.251054 126.23 0.720559L109.894 11.9372C109.486 12.2163 109.153 12.5906 108.923 13.0277C108.693 13.4648 108.573 13.9515 108.573 14.4455V32.8355L111.648 31.2919L111.635 14.4712Z" fill="#45B649"/>
<path d="M148.59 37.4443V40.0169H146.794L141.653 34.8288C140.174 33.3375 139.346 31.3209 139.35 29.2205V18.394C139.35 18.1708 139.295 17.951 139.191 17.7537C139.086 17.5564 138.935 17.3877 138.75 17.2621L131.525 12.2969C130.657 11.7082 129.633 11.3934 128.584 11.3934C127.535 11.3934 126.511 11.7082 125.643 12.2969L118.409 17.2621C118.226 17.3884 118.076 17.5574 117.972 17.7546C117.868 17.9518 117.814 18.1712 117.813 18.394V26.6693C117.81 27.1297 117.679 27.5801 117.436 27.9706C117.192 28.3612 116.845 28.6766 116.433 28.8818L114.718 29.7393V18.394C114.718 17.6717 114.894 16.9603 115.23 16.321C115.566 15.6817 116.052 15.1335 116.647 14.7238L123.88 9.76289C125.261 8.82389 126.893 8.32178 128.563 8.32178C130.232 8.32178 131.864 8.82389 133.245 9.76289L140.469 14.7238C141.065 15.1333 141.552 15.6813 141.889 16.3206C142.226 16.9599 142.402 17.6714 142.403 18.394V29.2205C142.406 30.5053 142.914 31.7374 143.818 32.6507L148.59 37.4443Z" fill="#45B649"/>
<path d="M89.6817 11.4352L79.9872 22.862V28.5732H88.5626C89.3222 28.5732 90.0507 28.8749 90.5879 29.4121C91.125 29.9492 91.4268 30.6777 91.4268 31.4374C91.4268 32.197 91.125 32.9255 90.5879 33.4627C90.0507 33.9998 89.3222 34.3016 88.5626 34.3016H74.2631V11.4352H68.5519V39.9999H88.5626C90.8369 39.9999 93.0181 39.0964 94.6263 37.4882C96.2345 35.88 97.138 33.6988 97.138 31.4245C97.138 29.1502 96.2345 26.969 94.6263 25.3608C93.0181 23.7526 90.8369 22.8491 88.5626 22.8491H87.4049L97.1123 11.4224L89.6817 11.4352Z" fill="#636466"/>
<path d="M43.9704 11.4353L34.2759 22.8621V28.5733H42.8513C43.6087 28.5733 44.335 28.8741 44.8706 29.4097C45.4061 29.9452 45.7069 30.6715 45.7069 31.4289C45.7069 32.1863 45.4061 32.9126 44.8706 33.4481C44.335 33.9837 43.6087 34.2845 42.8513 34.2845H8.56683C7.80948 34.2845 7.08314 33.9837 6.54761 33.4481C6.01208 32.9126 5.71122 32.1863 5.71122 31.4289V11.4353H0V31.4289C0 32.555 0.221809 33.6702 0.652764 34.7106C1.08372 35.751 1.71538 36.6963 2.51168 37.4926C4.11988 39.1008 6.30107 40.0043 8.57541 40.0043H42.8513C45.1257 40.0043 47.3069 39.1008 48.9151 37.4926C50.5233 35.8844 51.4267 33.7032 51.4267 31.4289C51.4267 29.1546 50.5233 26.9734 48.9151 25.3652C47.3069 23.757 45.1257 22.8535 42.8513 22.8535H41.7065L51.4139 11.4268L43.9704 11.4353Z" fill="#636466"/>
<path d="M62.8363 22.8618H57.1251V39.9998H62.8363V22.8618Z" fill="#636466"/>
<path d="M11.4225 17.1509V25.7263C11.4225 26.4836 11.7233 27.21 12.2589 27.7455C12.7944 28.281 13.5207 28.5819 14.2781 28.5819H28.5604V22.8621H17.138V17.1509H11.4225Z" fill="#636466"/>
<path d="M34.2759 19.3935L41.0376 11.4355H39.181L34.2759 17.2068V19.3935Z" fill="#636466"/>
</g>
<defs>
<clipPath id="clip0_104_140">
<rect width="148.573" height="40" fill="white"/>
</clipPath>
</defs>
</svg>
