<svg width="88" height="80" viewBox="0 0 88 80" fill="none" xmlns="http://www.w3.org/2000/svg">
<g clip-path="url(#clip0_104_498)" filter="url(#filter0_d_104_498)">
<path d="M82.6441 27.7965L81.2881 15.7287C81.2881 14.1015 80.0678 12.8812 78.4406 12.8812H71.7966H36.5424V26.9829C36.5424 31.4575 39.661 35.3897 44 36.3389C50.6441 37.8304 57.6949 37.8304 64.3389 36.3389L71.7966 34.5762V56.1356C71.7966 58.0339 71.1186 59.7967 69.7627 61.017L69.2203 61.5594C68.2711 62.5086 67.7288 63.8645 67.7288 65.2204V66.034C67.7288 67.39 68.8135 68.4747 70.1694 68.4747H71.7966H79.9322H81.2881C82.7797 68.4747 84 67.2543 84 65.7628V48.1356L82.6441 27.7965Z" fill="#45B649"/>
<path d="M20.2712 25.0847H5.35594C4.54234 25.0847 4 24.5423 4 23.7287C4 22.9151 4.54234 22.3728 5.35594 22.3728H20.2712C21.0848 22.3728 21.6272 22.9151 21.6272 23.7287C21.6272 24.5423 21.0847 25.0847 20.2712 25.0847Z" fill="#9D9FA2"/>
<path d="M31.1186 30.5084H24.3389C22.0338 30.5084 20.2711 28.7458 20.2711 26.4406V21.0168C20.2711 18.7117 22.0338 16.949 24.3389 16.949H31.1186V30.5084Z" fill="#636466"/>
<path d="M31.1186 41.3559H36.5423V11.5255H31.1186V41.3559Z" fill="#636466"/>
<path d="M39.2542 68.4745H28.4067L29.7627 65.7627V46.7797L27.0508 41.356H40.6102L37.8983 46.7797V65.7628L39.2542 68.4745Z" fill="#9D9FA2"/>
<path d="M74.5084 19.6611H66.3728C65.5592 19.6611 65.0168 19.1188 65.0168 18.3052C65.0168 17.4916 65.5592 16.9492 66.3728 16.9492H74.5084C75.322 16.9492 75.8643 17.4916 75.8643 18.3052C75.8643 19.1188 75.322 19.6611 74.5084 19.6611Z" fill="#636466"/>
<path d="M74.5084 25.0847H66.3728C65.5592 25.0847 65.0168 24.5423 65.0168 23.7287C65.0168 22.9151 65.5592 22.3728 66.3728 22.3728H74.5084C75.322 22.3728 75.8643 22.9151 75.8643 23.7287C75.8643 24.5423 75.322 25.0847 74.5084 25.0847Z" fill="#636466"/>
<path d="M71.7965 34.5762L65.0168 36.2034L67.7287 45.4237H71.7965V34.5762Z" fill="#636466"/>
<path d="M43.322 18.3052V29.1527H54.1695C54.1695 23.7288 48.7458 18.3052 43.322 18.3052Z" fill="#636466"/>
<path d="M78.5763 53.5594C77.7627 53.5594 77.2203 54.1017 77.2203 54.9153C77.2203 55.7289 77.7627 56.2713 78.5763 56.2713H84V53.5594H78.5763Z" fill="#636466"/>
<path d="M78.5763 58.9832C77.7627 58.9832 77.2203 59.5255 77.2203 60.3391C77.2203 61.1527 77.7627 61.695 78.5763 61.695H84V58.9832H78.5763Z" fill="#636466"/>
</g>
<defs>
<filter id="filter0_d_104_498" x="0" y="0" width="88" height="88" filterUnits="userSpaceOnUse" color-interpolation-filters="sRGB">
<feFlood flood-opacity="0" result="BackgroundImageFix"/>
<feColorMatrix in="SourceAlpha" type="matrix" values="0 0 0 0 0 0 0 0 0 0 0 0 0 0 0 0 0 0 127 0" result="hardAlpha"/>
<feOffset dy="4"/>
<feGaussianBlur stdDeviation="2"/>
<feComposite in2="hardAlpha" operator="out"/>
<feColorMatrix type="matrix" values="0 0 0 0 0 0 0 0 0 0 0 0 0 0 0 0 0 0 0.25 0"/>
<feBlend mode="normal" in2="BackgroundImageFix" result="effect1_dropShadow_104_498"/>
<feBlend mode="normal" in="SourceGraphic" in2="effect1_dropShadow_104_498" result="shape"/>
</filter>
<clipPath id="clip0_104_498">
<rect width="80" height="80" fill="white" transform="translate(4)"/>
</clipPath>
</defs>
</svg>
