<svg width="88" height="80" viewBox="0 0 88 80" fill="none" xmlns="http://www.w3.org/2000/svg">
<g clip-path="url(#clip0_24_420)" filter="url(#filter0_d_24_420)">
<path d="M82.6442 27.7967L81.2883 15.7288C81.2883 14.1017 80.068 12.8813 78.4408 12.8813H71.7967H36.5425V26.9831C36.5425 31.4576 39.6611 35.3898 44.0001 36.339C50.6442 37.8306 57.695 37.8306 64.339 36.339L71.7967 34.5763V56.1357C71.7967 58.034 71.1187 59.7968 69.7628 61.0171L69.2205 61.5595C68.2712 62.5087 67.7289 63.8646 67.7289 65.2206V66.0342C67.7289 67.3901 68.8136 68.4748 70.1695 68.4748H71.7967H79.9323H81.2883C82.7798 68.4748 84.0001 67.2545 84.0001 65.7629V48.1357L82.6442 27.7967Z" fill="#45B649"/>
<path d="M20.2712 25.0847H5.35594C4.54234 25.0847 4 24.5423 4 23.7287C4 22.9151 4.54234 22.3728 5.35594 22.3728H20.2712C21.0848 22.3728 21.6272 22.9151 21.6272 23.7287C21.6272 24.5423 21.0847 25.0847 20.2712 25.0847Z" fill="#9D9FA2"/>
<path d="M31.1185 30.5083H24.3388C22.0337 30.5083 20.271 28.7457 20.271 26.4405V21.0168C20.271 18.7116 22.0337 16.949 24.3388 16.949H31.1185V30.5083Z" fill="#636466"/>
<path d="M31.1187 41.3559H36.5424V11.5254H31.1187V41.3559Z" fill="#636466"/>
<path d="M39.2542 68.4745H28.4067L29.7627 65.7627V46.7797L27.0508 41.356H40.6102L37.8983 46.7797V65.7628L39.2542 68.4745Z" fill="#9D9FA2"/>
<path d="M74.5087 19.6611H66.373C65.5594 19.6611 65.0171 19.1188 65.0171 18.3052C65.0171 17.4916 65.5594 16.9492 66.373 16.9492H74.5087C75.3222 16.9492 75.8646 17.4916 75.8646 18.3052C75.8646 19.1188 75.3222 19.6611 74.5087 19.6611Z" fill="#636466"/>
<path d="M74.5087 25.0847H66.373C65.5594 25.0847 65.0171 24.5423 65.0171 23.7287C65.0171 22.9151 65.5594 22.3728 66.373 22.3728H74.5087C75.3222 22.3728 75.8646 22.9151 75.8646 23.7287C75.8646 24.5423 75.3222 25.0847 74.5087 25.0847Z" fill="#636466"/>
<path d="M71.7968 34.5762L65.0171 36.2034L67.729 45.4237H71.7968V34.5762Z" fill="#636466"/>
<path d="M43.3223 18.3052V29.1527H54.1698C54.1698 23.7288 48.746 18.3052 43.3223 18.3052Z" fill="#636466"/>
<path d="M78.5762 53.5593C77.7626 53.5593 77.2202 54.1017 77.2202 54.9153C77.2202 55.7289 77.7626 56.2712 78.5762 56.2712H83.9999V53.5593H78.5762Z" fill="#636466"/>
<path d="M78.5762 58.9832C77.7626 58.9832 77.2202 59.5255 77.2202 60.3391C77.2202 61.1527 77.7626 61.695 78.5762 61.695H83.9999V58.9832H78.5762Z" fill="#636466"/>
</g>
<defs>
<filter id="filter0_d_24_420" x="0" y="0" width="88" height="88" filterUnits="userSpaceOnUse" color-interpolation-filters="sRGB">
<feFlood flood-opacity="0" result="BackgroundImageFix"/>
<feColorMatrix in="SourceAlpha" type="matrix" values="0 0 0 0 0 0 0 0 0 0 0 0 0 0 0 0 0 0 127 0" result="hardAlpha"/>
<feOffset dy="4"/>
<feGaussianBlur stdDeviation="2"/>
<feComposite in2="hardAlpha" operator="out"/>
<feColorMatrix type="matrix" values="0 0 0 0 0 0 0 0 0 0 0 0 0 0 0 0 0 0 0.25 0"/>
<feBlend mode="normal" in2="BackgroundImageFix" result="effect1_dropShadow_24_420"/>
<feBlend mode="normal" in="SourceGraphic" in2="effect1_dropShadow_24_420" result="shape"/>
</filter>
<clipPath id="clip0_24_420">
<rect width="80" height="80" fill="white" transform="translate(4)"/>
</clipPath>
</defs>
</svg>
