<svg width="80" height="80" viewBox="0 0 80 80" fill="none" xmlns="http://www.w3.org/2000/svg">
<path d="M77.1428 58.5714C75.5714 58.5714 74.2856 57.2856 74.2856 55.7142V50.7142C74.2856 35.2856 63.9998 21.5714 49.9998 17.1428V15.5714C49.9998 14.1428 48.7141 12.8572 47.2856 12.8572H32.7142C31.2856 12.8572 30 14.143 30 15.5714V17.1428C16 21.4286 5.71422 34.5714 5.71422 50V55.7142C5.71422 57.2856 4.42844 58.5714 2.85703 58.5714H0V67.1428H80V58.5714H77.1428Z" fill="#FFC20E"/>
<path d="M64.2858 60H15.7142C14.8571 60 14.2856 59.4286 14.2856 58.5714C14.2856 57.7142 14.8571 57.1428 15.7142 57.1428H64.2856C65.1428 57.1428 65.7142 57.7142 65.7142 58.5714C65.7142 59.4286 65.1428 60 64.2858 60Z" fill="#F47920"/>
<path d="M49.9999 25.7142C49.1427 25.7142 48.5713 25.1428 48.5713 24.2856V18.5714C48.5713 17.7142 49.1427 17.1428 49.9999 17.1428C50.8571 17.1428 51.4285 17.7142 51.4285 18.5714V24.2856C51.4285 25.1428 50.8571 25.7142 49.9999 25.7142Z" fill="#F47920"/>
<path d="M29.9999 25.7142C29.1427 25.7142 28.5713 25.1428 28.5713 24.2856V18.5714C28.5713 17.7142 29.1427 17.1428 29.9999 17.1428C30.8571 17.1428 31.4285 17.7142 31.4285 18.5714V24.2856C31.4285 25.1428 30.8571 25.7142 29.9999 25.7142Z" fill="#F47920"/>
<path d="M39.9999 32.8572C39.1427 32.8572 38.5713 32.2858 38.5713 31.4286V14.2858C38.5713 13.4286 39.1427 12.8572 39.9999 12.8572C40.8571 12.8572 41.4285 13.4286 41.4285 14.2858V31.4286C41.4285 32.1428 40.8571 32.8572 39.9999 32.8572Z" fill="#F47920"/>
<path d="M58.1427 21.1428L52.8569 37.1428L68.7141 31.857C65.9999 27.5714 62.4285 23.8572 58.1427 21.1428Z" fill="#F47920"/>
<path d="M21.8571 21.1428L27.1428 37.1428L11.2856 31.8572C13.9999 27.5714 17.5713 23.8572 21.8571 21.1428Z" fill="#F47920"/>
</svg>
