<svg width="80" height="80" viewBox="0 0 80 80" fill="none" xmlns="http://www.w3.org/2000/svg">
<path d="M77.1428 58.5714C75.5714 58.5714 74.2856 57.2856 74.2856 55.7142V50.7142C74.2856 35.2856 63.9998 21.5714 49.9998 17.1428V15.5714C49.9998 14.1428 48.7141 12.8572 47.2856 12.8572H32.7142C31.2856 12.8572 30 14.143 30 15.5714V17.1428C16 21.4286 5.71422 34.5714 5.71422 50V55.7142C5.71422 57.2856 4.42844 58.5714 2.85703 58.5714H0V67.1428H80V58.5714H77.1428Z" fill="#FFC20E"/>
<path d="M64.2858 60H15.7142C14.857 60 14.2856 59.4286 14.2856 58.5714C14.2856 57.7142 14.857 57.1428 15.7142 57.1428H64.2856C65.1428 57.1428 65.7142 57.7142 65.7142 58.5714C65.7142 59.4286 65.1428 60 64.2858 60Z" fill="#F47920"/>
<path d="M50 25.7142C49.1428 25.7142 48.5714 25.1428 48.5714 24.2856V18.5714C48.5714 17.7142 49.1428 17.1428 50 17.1428C50.8572 17.1428 51.4286 17.7142 51.4286 18.5714V24.2856C51.4286 25.1428 50.8572 25.7142 50 25.7142Z" fill="#F47920"/>
<path d="M30 25.7142C29.1428 25.7142 28.5714 25.1428 28.5714 24.2856V18.5714C28.5714 17.7142 29.1428 17.1428 30 17.1428C30.8572 17.1428 31.4286 17.7142 31.4286 18.5714V24.2856C31.4286 25.1428 30.8572 25.7142 30 25.7142Z" fill="#F47920"/>
<path d="M40 32.8572C39.1428 32.8572 38.5714 32.2858 38.5714 31.4286V14.2858C38.5714 13.4286 39.1428 12.8572 40 12.8572C40.8572 12.8572 41.4286 13.4286 41.4286 14.2858V31.4286C41.4286 32.1428 40.8572 32.8572 40 32.8572Z" fill="#F47920"/>
<path d="M58.1428 21.1428L52.857 37.1428L68.7142 31.857C66 27.5714 62.4286 23.8572 58.1428 21.1428Z" fill="#F47920"/>
<path d="M21.8572 21.1428L27.143 37.1428L11.2858 31.8572C14 27.5714 17.5714 23.8572 21.8572 21.1428Z" fill="#F47920"/>
</svg>
