<svg width="86" height="88" viewBox="0 0 86 88" fill="none" xmlns="http://www.w3.org/2000/svg">
<g clip-path="url(#clip0_104_484)" filter="url(#filter0_d_104_484)">
<path d="M51.6897 33.1034H34.3103C31.4137 33.1034 29.0689 30.8966 28.7931 28.138L26.4483 2.75859C26.4483 1.24141 27.6897 0 29.2069 0H56.7931C58.3103 0 59.5517 1.24141 59.5517 2.75859L57.2069 28.138C56.9311 30.8966 54.5862 33.1034 51.6897 33.1034Z" fill="#D3B6D7"/>
<path d="M43 60.6897C40.6552 60.6897 38.8621 58.8965 38.8621 56.5517V46.8965H47.138V56.5517C47.138 58.8965 45.3449 60.6897 43 60.6897Z" fill="#9D9FA2"/>
<path d="M15.4137 12.4137H8.51718C6.17234 12.4137 4.37921 10.6206 4.37921 8.27575C4.37921 5.93091 6.17234 4.13794 8.51718 4.13794H15.4137V12.4137Z" fill="#636466"/>
<path d="M70.5862 4.13794H77.4828C79.8276 4.13794 81.6208 5.93106 81.6208 8.27591C81.6208 10.6208 79.8276 12.4139 77.4828 12.4139H70.5862V4.13794Z" fill="#636466"/>
<path d="M51.6897 33.1035H34.3103C34.0344 33.1035 33.8966 33.1035 33.6206 33.1035L35.6895 44.6897C35.9655 46.0691 37.0689 46.8966 38.4481 46.8966H47.6895C49.0689 46.8966 50.1724 45.9311 50.4481 44.6897L52.517 33.1035C52.2414 33.1035 51.9655 33.1035 51.6897 33.1035Z" fill="#A066AA"/>
<path d="M43 60.6897C41.8966 60.6897 40.9311 60.2759 40.2414 59.5862V75.8622L43 80L45.7586 75.862V59.5862C45.0689 60.2759 44.1034 60.6897 43 60.6897Z" fill="#BCBEC0"/>
<path d="M26.7241 5.51721H15.4138V11.0344H27.1378L26.7241 5.51721Z" fill="#9D9FA2"/>
<path d="M59.2758 5.51721L58.7241 11.0344H70.5861V5.51721H59.2758Z" fill="#9D9FA2"/>
<path d="M44.3794 28.9655H41.6208C40.7931 28.9655 40.2414 28.4138 40.2414 27.5861C40.2414 26.7584 40.7931 26.2067 41.6208 26.2067H44.3794C45.207 26.2067 45.7587 26.7584 45.7587 27.5861C45.7587 28.4138 45.2069 28.9655 44.3794 28.9655Z" fill="#A066AA"/>
<path d="M47.138 23.4483H38.862C38.0344 23.4483 37.4827 22.8965 37.4827 22.0689C37.4827 21.2412 38.0344 20.6895 38.862 20.6895H47.138C47.9656 20.6895 48.5174 21.2412 48.5174 22.0689C48.5174 22.8965 47.9655 23.4483 47.138 23.4483Z" fill="#A066AA"/>
<path d="M49.8966 17.9311H36.1034C35.2758 17.9311 34.7241 17.3794 34.7241 16.5517C34.7241 15.7241 35.2758 15.1724 36.1034 15.1724H49.8966C50.7242 15.1724 51.2759 15.7241 51.2759 16.5517C51.2759 17.3794 50.7241 17.9311 49.8966 17.9311Z" fill="#A066AA"/>
</g>
<defs>
<filter id="filter0_d_104_484" x="-1" y="0" width="88" height="88" filterUnits="userSpaceOnUse" color-interpolation-filters="sRGB">
<feFlood flood-opacity="0" result="BackgroundImageFix"/>
<feColorMatrix in="SourceAlpha" type="matrix" values="0 0 0 0 0 0 0 0 0 0 0 0 0 0 0 0 0 0 127 0" result="hardAlpha"/>
<feOffset dy="4"/>
<feGaussianBlur stdDeviation="2"/>
<feComposite in2="hardAlpha" operator="out"/>
<feColorMatrix type="matrix" values="0 0 0 0 0 0 0 0 0 0 0 0 0 0 0 0 0 0 0.25 0"/>
<feBlend mode="normal" in2="BackgroundImageFix" result="effect1_dropShadow_104_484"/>
<feBlend mode="normal" in="SourceGraphic" in2="effect1_dropShadow_104_484" result="shape"/>
</filter>
<clipPath id="clip0_104_484">
<rect width="80" height="80" fill="white" transform="translate(3)"/>
</clipPath>
</defs>
</svg>
