<svg width="86" height="88" viewBox="0 0 86 88" fill="none" xmlns="http://www.w3.org/2000/svg">
<g clip-path="url(#clip0_24_406)" filter="url(#filter0_d_24_406)">
<path d="M51.6896 33.1034H34.3103C31.4137 33.1034 29.0689 30.8966 28.7931 28.138L26.4482 2.75859C26.4482 1.24141 27.6896 0 29.2068 0H56.7931C58.3103 0 59.5517 1.24141 59.5517 2.75859L57.2068 28.138C56.9311 30.8966 54.5862 33.1034 51.6896 33.1034Z" fill="#D3B6D7"/>
<path d="M42.9998 60.6896C40.6549 60.6896 38.8618 58.8965 38.8618 56.5516V46.8965H47.1378V56.5516C47.1378 58.8965 45.3446 60.6896 42.9998 60.6896Z" fill="#9D9FA2"/>
<path d="M15.4139 12.4137H8.51736C6.17252 12.4137 4.37939 10.6206 4.37939 8.27575C4.37939 5.93091 6.17252 4.13794 8.51736 4.13794H15.4139V12.4137Z" fill="#636466"/>
<path d="M70.5864 4.13794H77.483C79.8278 4.13794 81.621 5.93106 81.621 8.27591C81.621 10.6208 79.8278 12.4139 77.483 12.4139H70.5864V4.13794Z" fill="#636466"/>
<path d="M51.6897 33.1035H34.3103C34.0344 33.1035 33.8965 33.1035 33.6206 33.1035L35.6895 44.6898C35.9654 46.0691 37.0689 46.8966 38.4481 46.8966H47.6895C49.0689 46.8966 50.1723 45.9312 50.4481 44.6898L52.517 33.1035C52.2414 33.1035 51.9655 33.1035 51.6897 33.1035Z" fill="#A066AA"/>
<path d="M42.9998 60.6896C41.8964 60.6896 40.9309 60.2759 40.2412 59.5862V75.8621L42.9998 79.9999L45.7584 75.862V59.5862C45.0687 60.2759 44.1032 60.6896 42.9998 60.6896Z" fill="#BCBEC0"/>
<path d="M26.7239 5.51709H15.4136V11.0343H27.1376L26.7239 5.51709Z" fill="#9D9FA2"/>
<path d="M59.2758 5.51709L58.7241 11.0343H70.5862V5.51709H59.2758Z" fill="#9D9FA2"/>
<path d="M44.3792 28.9655H41.6206C40.7929 28.9655 40.2412 28.4138 40.2412 27.5862C40.2412 26.7585 40.7929 26.2068 41.6206 26.2068H44.3792C45.2068 26.2068 45.7586 26.7585 45.7586 27.5862C45.7586 28.4138 45.2067 28.9655 44.3792 28.9655Z" fill="#A066AA"/>
<path d="M47.1377 23.4482H38.8618C38.0341 23.4482 37.4824 22.8965 37.4824 22.0688C37.4824 21.2412 38.0341 20.6895 38.8618 20.6895H47.1377C47.9654 20.6895 48.5171 21.2412 48.5171 22.0688C48.5171 22.8965 47.9652 23.4482 47.1377 23.4482Z" fill="#A066AA"/>
<path d="M49.8966 17.9311H36.1035C35.2758 17.9311 34.7241 17.3794 34.7241 16.5517C34.7241 15.7241 35.2758 15.1724 36.1035 15.1724H49.8966C50.7243 15.1724 51.276 15.7241 51.276 16.5517C51.276 17.3794 50.7241 17.9311 49.8966 17.9311Z" fill="#A066AA"/>
</g>
<defs>
<filter id="filter0_d_24_406" x="-1" y="0" width="88" height="88" filterUnits="userSpaceOnUse" color-interpolation-filters="sRGB">
<feFlood flood-opacity="0" result="BackgroundImageFix"/>
<feColorMatrix in="SourceAlpha" type="matrix" values="0 0 0 0 0 0 0 0 0 0 0 0 0 0 0 0 0 0 127 0" result="hardAlpha"/>
<feOffset dy="4"/>
<feGaussianBlur stdDeviation="2"/>
<feComposite in2="hardAlpha" operator="out"/>
<feColorMatrix type="matrix" values="0 0 0 0 0 0 0 0 0 0 0 0 0 0 0 0 0 0 0.25 0"/>
<feBlend mode="normal" in2="BackgroundImageFix" result="effect1_dropShadow_24_406"/>
<feBlend mode="normal" in="SourceGraphic" in2="effect1_dropShadow_24_406" result="shape"/>
</filter>
<clipPath id="clip0_24_406">
<rect width="80" height="80" fill="white" transform="translate(3)"/>
</clipPath>
</defs>
</svg>
