<svg width="88" height="83" viewBox="0 0 88 83" fill="none" xmlns="http://www.w3.org/2000/svg">
<g filter="url(#filter0_d_24_457)">
<path d="M54.3448 74.4828H11.5862C7.44828 74.4828 4 71.0345 4 66.8966C4 62.7586 7.44828 59.3103 11.5862 59.3103H54.3448C58.4828 59.3103 61.9311 62.7586 61.9311 66.8966C61.9311 71.0345 58.4828 74.4828 54.3448 74.4828Z" fill="#636466"/>
<path d="M16.4137 66.8965C16.4137 64.9654 14.8965 63.4482 12.9654 63.4482C11.0343 63.4482 9.51709 64.9654 9.51709 66.8965C9.51709 68.8276 11.0343 70.3448 12.9654 70.3448C14.8965 70.3448 16.4137 68.8276 16.4137 66.8965Z" fill="#9D9FA2"/>
<path d="M56.4137 66.8965C56.4137 64.9654 54.8965 63.4482 52.9654 63.4482C51.0343 63.4482 49.5171 64.9654 49.5171 66.8965C49.5171 68.8276 51.0343 70.3448 52.9654 70.3448C54.8965 70.3448 56.4137 68.8276 56.4137 66.8965Z" fill="#9D9FA2"/>
<path d="M75.7242 5.51709H78.4828L84.0002 22.0688L81.2416 52.4137H75.7244L71.5864 15.1722L75.7242 5.51709Z" fill="#FFC20E"/>
<path d="M74.3447 57.931H82.6207V52.4138H74.3447V57.931Z" fill="#F47920"/>
<path d="M75.3103 74.4829H67.4482L75.7242 57.9312H81.2414L83.1725 63.5863C83.7242 65.2415 83.7242 67.1726 83.1725 68.8277C82.0689 72.138 78.8965 74.4829 75.3103 74.4829Z" fill="#FFC20E"/>
<path d="M72.8276 12.4138H43.9999L26.0688 30.3449H37.5171L46.7585 20.6898L71.9999 19.4484L71.5862 15.1724L72.8276 12.4138Z" fill="#F47920"/>
<path d="M49.5173 66.8965C49.5173 65.2414 50.7587 63.862 52.2759 63.4482H32.9656H13.6553C15.1725 63.7242 16.4139 65.1034 16.4139 66.8965C16.4139 68.6896 15.1725 69.9311 13.6553 70.3448H32.9656H52.2759C50.7587 69.9311 49.5173 68.5517 49.5173 66.8965Z" fill="#BCBEC0"/>
<path d="M26.0688 59.3103H39.862V55.1724H26.0688V59.3103Z" fill="#F47920"/>
<path d="M23.3103 33.1033V44.1379H8.27594C5.93109 44.1379 4 46.0688 4 48.4136V55.1722H23.3103H45.3792V38.8964C45.3792 37.793 45.2412 36.6896 44.8275 35.7241C43.5861 32.4138 40.4137 30.3447 36.8275 30.3447H26.0689C24.5517 30.3447 23.3103 31.5861 23.3103 33.1033Z" fill="#FFC20E"/>
<path d="M8.27594 44.1379C5.93109 44.1379 4 46.0688 4 48.4136V49.655H10.8966C13.2414 49.655 15.0345 47.7239 15.0345 45.5171V44.1377H8.27594V44.1379Z" fill="#F47920"/>
<path d="M36.5519 30.3447H30.207V40.1379C30.207 42.4827 31.7242 44.5516 33.9311 45.3793L45.3794 49.5172V38.7586C45.3794 36 44 33.3793 41.6553 31.5863C40.1381 30.7585 38.345 30.3447 36.5519 30.3447Z" fill="#F47920"/>
</g>
<defs>
<filter id="filter0_d_24_457" x="0" y="0" width="88" height="88" filterUnits="userSpaceOnUse" color-interpolation-filters="sRGB">
<feFlood flood-opacity="0" result="BackgroundImageFix"/>
<feColorMatrix in="SourceAlpha" type="matrix" values="0 0 0 0 0 0 0 0 0 0 0 0 0 0 0 0 0 0 127 0" result="hardAlpha"/>
<feOffset dy="4"/>
<feGaussianBlur stdDeviation="2"/>
<feComposite in2="hardAlpha" operator="out"/>
<feColorMatrix type="matrix" values="0 0 0 0 0 0 0 0 0 0 0 0 0 0 0 0 0 0 0.25 0"/>
<feBlend mode="normal" in2="BackgroundImageFix" result="effect1_dropShadow_24_457"/>
<feBlend mode="normal" in="SourceGraphic" in2="effect1_dropShadow_24_457" result="shape"/>
</filter>
</defs>
</svg>
