<svg width="86" height="88" viewBox="0 0 86 88" fill="none" xmlns="http://www.w3.org/2000/svg">
<g filter="url(#filter0_d_24_444)">
<path d="M40.2412 46.8965C39.4135 46.8965 38.8618 46.3448 38.8618 45.5171V35.862C38.8618 32.8274 41.3446 30.3448 44.379 30.3448C55.8273 29.3793 73.3445 27.862 74.4479 27.5862C76.9307 27.0345 78.8617 24.6896 78.8617 22.069V16.5518C78.8617 13.5173 76.3788 11.0346 73.3445 11.0346C72.5168 11.0346 71.9651 10.4829 71.9651 9.65525C71.9651 8.8276 72.5168 8.27588 73.3445 8.27588C77.8962 8.27588 81.6204 11.9999 81.6204 16.5518V22.069C81.6204 26.069 78.8618 29.5173 74.9998 30.3449C73.7584 30.6209 49.3446 32.6898 44.517 33.1035C42.8618 33.1035 41.6204 34.3449 41.6204 35.8621V45.5173C41.6204 46.3448 41.0687 46.8965 40.2412 46.8965Z" fill="#BCBEC0"/>
<path d="M49.8967 45.5171H30.5864L31.9658 52.4137H34.7244V74.4827C34.7244 77.5172 37.2072 79.9999 40.2416 79.9999C43.276 79.9999 45.7588 77.5171 45.7588 74.4827V52.4137H48.5174L49.8967 45.5171Z" fill="#FF0000"/>
<path d="M70.5865 19.3103H11.2762C9.75898 19.3103 8.51758 18.0689 8.51758 16.5517V2.75859C8.51742 1.24141 9.75883 0 11.2762 0H70.5865C72.1037 0 73.3451 1.24141 73.3451 2.75859V16.5517C73.3451 18.0689 72.1037 19.3103 70.5865 19.3103Z" fill="#DCDDDE"/>
<path d="M8.51736 11.0346H5.75877C4.93111 11.0346 4.37939 10.4829 4.37939 9.65525C4.37939 8.8276 4.93111 8.27588 5.75877 8.27588H8.51736C9.34502 8.27588 9.89674 8.8276 9.89674 9.65525C9.89674 10.4829 9.34502 11.0346 8.51736 11.0346Z" fill="#BCBEC0"/>
<path d="M34.7241 68.9654H38.8621V66.2068H34.7241V68.9654Z" fill="#720000"/>
<path d="M34.7241 74.4827H38.8621V71.7241H34.7241V74.4827Z" fill="#720000"/>
<path d="M73.3451 4.13794H62.3105C61.4829 4.13794 60.9312 4.68966 60.9312 5.51731C60.9312 6.34497 61.4829 6.89669 62.3105 6.89669H73.3451V4.13794Z" fill="#BCBEC0"/>
<path d="M73.3447 12.4138H48.5171C47.6894 12.4138 47.1377 12.9655 47.1377 13.7932C47.1377 14.6209 47.6894 15.1726 48.5171 15.1726H73.3447V12.4138Z" fill="#BCBEC0"/>
<path d="M37.4827 4.13794H8.51709V6.89653H37.4827C38.3104 6.89653 38.8621 6.34482 38.8621 5.51716C38.8621 4.6895 38.3102 4.13794 37.4827 4.13794Z" fill="#BCBEC0"/>
<path d="M23.6896 12.4138H8.51709V15.1724H23.6894C24.5171 15.1724 25.0688 14.6207 25.0688 13.793C25.0688 12.9654 24.5171 12.4138 23.6896 12.4138Z" fill="#BCBEC0"/>
</g>
<defs>
<filter id="filter0_d_24_444" x="-1" y="0" width="88" height="88" filterUnits="userSpaceOnUse" color-interpolation-filters="sRGB">
<feFlood flood-opacity="0" result="BackgroundImageFix"/>
<feColorMatrix in="SourceAlpha" type="matrix" values="0 0 0 0 0 0 0 0 0 0 0 0 0 0 0 0 0 0 127 0" result="hardAlpha"/>
<feOffset dy="4"/>
<feGaussianBlur stdDeviation="2"/>
<feComposite in2="hardAlpha" operator="out"/>
<feColorMatrix type="matrix" values="0 0 0 0 0 0 0 0 0 0 0 0 0 0 0 0 0 0 0.25 0"/>
<feBlend mode="normal" in2="BackgroundImageFix" result="effect1_dropShadow_24_444"/>
<feBlend mode="normal" in="SourceGraphic" in2="effect1_dropShadow_24_444" result="shape"/>
</filter>
</defs>
</svg>
