<svg width="80" height="88" viewBox="0 0 80 88" fill="none" xmlns="http://www.w3.org/2000/svg">
<g filter="url(#filter0_d_24_393)">
<path d="M33.1724 71.7241V12.4138H46.9655V71.7241L40.0689 80.0001L33.1724 71.7241Z" fill="#DCDDDE"/>
<path d="M49.724 68.9655L30.2757 67.5862C29.4481 67.5862 28.8963 66.8965 29.0343 66.069C29.0343 65.3793 29.724 64.6896 30.5515 64.8276L49.8618 66.207C50.6895 66.207 51.2412 66.8966 51.1032 67.7241C51.1034 68.4138 50.4137 68.9655 49.724 68.9655Z" fill="#BCBEC0"/>
<path d="M49.724 63.4482L30.2757 62.0688C29.4481 62.0688 28.8963 61.3791 29.0343 60.5516C29.0343 59.7239 29.724 59.1722 30.5515 59.3102L49.8618 60.6896C50.6895 60.6896 51.2412 61.3793 51.1032 62.2068C51.1034 62.8964 50.4137 63.4482 49.724 63.4482Z" fill="#BCBEC0"/>
<path d="M49.724 57.9311L30.2757 56.5517C29.4481 56.5517 28.8963 55.862 29.0343 55.0345C29.0343 54.2069 29.724 53.6551 30.5515 53.7931L49.8618 55.1725C50.6895 55.1725 51.2412 55.8622 51.1032 56.6897C51.1034 57.3794 50.4137 57.9311 49.724 57.9311Z" fill="#BCBEC0"/>
<path d="M49.724 52.4137L30.2757 51.0344C29.4481 51.0344 28.8963 50.3447 29.0343 49.5172C29.0343 48.6895 29.724 48.1378 30.5515 48.2758L49.8618 49.6551C50.6895 49.6551 51.2412 50.3448 51.1032 51.1723C51.1034 51.862 50.4137 52.4137 49.724 52.4137Z" fill="#BCBEC0"/>
<path d="M49.724 46.8967L30.2757 45.5173C29.4481 45.5173 28.8963 44.8276 29.0343 44.0001C29.0343 43.1724 29.724 42.6207 30.5515 42.7587L49.8618 44.1381C50.6895 44.1381 51.2412 44.8277 51.1032 45.6552C51.1034 46.3449 50.4137 46.8967 49.724 46.8967Z" fill="#BCBEC0"/>
<path d="M49.7239 41.3793L30.2757 39.9999C29.4481 39.9999 28.8963 39.3103 29.0343 38.4828C29.0343 37.6551 29.724 37.1034 30.5515 37.2413L49.8618 38.6207C50.6895 38.6207 51.2412 39.3104 51.1032 40.1379C51.1032 40.8276 50.4135 41.3793 49.7239 41.3793Z" fill="#BCBEC0"/>
<path d="M49.724 35.862L30.2757 34.4826C29.4481 34.4826 28.8963 33.7929 29.0343 32.9654C29.0343 32.1378 29.724 31.586 30.5515 31.724L49.8618 33.1034C50.6895 33.1034 51.2412 33.7931 51.1032 34.6206C51.1034 35.3103 50.4137 35.862 49.724 35.862Z" fill="#BCBEC0"/>
<path d="M49.724 30.3449L30.2757 28.9655C29.4481 28.9655 28.8963 28.2758 29.0343 27.4483C29.0343 26.6207 29.724 26.069 30.5515 26.2069L49.8618 27.5863C50.6895 27.5863 51.2412 28.276 51.1032 29.1035C51.1034 29.7932 50.4137 30.3449 49.724 30.3449Z" fill="#BCBEC0"/>
<path d="M42.8277 0V5.51719H37.3105V0C30.2759 0.965469 24.4828 5.93109 22 12.4137H58C55.6552 5.93109 49.862 0.965469 42.8277 0Z" fill="#BCBEC0"/>
</g>
<defs>
<filter id="filter0_d_24_393" x="-4" y="0" width="88" height="88" filterUnits="userSpaceOnUse" color-interpolation-filters="sRGB">
<feFlood flood-opacity="0" result="BackgroundImageFix"/>
<feColorMatrix in="SourceAlpha" type="matrix" values="0 0 0 0 0 0 0 0 0 0 0 0 0 0 0 0 0 0 127 0" result="hardAlpha"/>
<feOffset dy="4"/>
<feGaussianBlur stdDeviation="2"/>
<feComposite in2="hardAlpha" operator="out"/>
<feColorMatrix type="matrix" values="0 0 0 0 0 0 0 0 0 0 0 0 0 0 0 0 0 0 0.25 0"/>
<feBlend mode="normal" in2="BackgroundImageFix" result="effect1_dropShadow_24_393"/>
<feBlend mode="normal" in="SourceGraphic" in2="effect1_dropShadow_24_393" result="shape"/>
</filter>
</defs>
</svg>
