<svg width="88" height="88" viewBox="0 0 88 88" fill="none" xmlns="http://www.w3.org/2000/svg">
<g clip-path="url(#clip0_24_434)" filter="url(#filter0_d_24_434)">
<path d="M33.5622 39.3109L42.7954 29.1131L15.096 1.27567C13.4423 -0.378021 10.6862 -0.378021 9.03247 1.27567L5.31155 4.99658C3.65787 6.65026 3.65787 9.40641 5.31155 11.0601L33.5622 39.3109Z" fill="#1B93D7"/>
<path d="M77.3853 79.1376L84 79.9645L83.0354 73.2119L76.9719 69.0776L73.1133 73.0741L77.3853 79.1376Z" fill="#BCBEC0"/>
<path d="M48.0317 47.8552L73.2507 73.0742L77.1093 69.2156L51.8903 43.9966L48.0317 47.8552Z" fill="#DCDDDE"/>
<path d="M34.389 31.7315C33.9756 31.7315 33.6999 31.5936 33.4244 31.3181L9.99692 7.89065C9.44569 7.33942 9.44569 6.5125 9.99692 5.96127C10.5481 5.41004 11.3751 5.41004 11.9263 5.96127L35.3538 29.3887C35.905 29.94 35.905 30.7669 35.3538 31.3181C35.0781 31.5936 34.8024 31.7315 34.389 31.7315Z" fill="#034EA2"/>
<path d="M48.0321 23.0495C51.2016 19.88 51.6152 14.9188 48.3078 11.6114C41.8307 5.13437 38.11 5.82344 30.8062 5.82344C41.8307 1.00023 49.8236 -0.10223 57.8165 3.61853C61.2617 5.13437 62.6399 6.51252 65.396 9.26866L70.3571 14.2297C71.5974 15.47 72.4242 17.1237 72.6999 18.7774C73.1132 21.3957 72.4242 21.9469 74.2157 23.8763C74.7669 24.4275 75.5939 24.4275 76.1451 23.8763C76.6963 23.3251 77.5232 23.3251 78.0745 23.8763L82.8978 28.6997C84.0003 29.8021 84.0003 31.4558 82.8978 32.5583L73.1134 42.3427C72.0109 43.4452 70.3573 43.4452 69.2548 42.3427L64.7071 37.6572C64.1559 37.106 64.1559 36.279 64.7071 35.7278C65.2583 35.1766 65.2583 34.212 64.7071 33.6607C62.7777 31.7314 62.2265 32.4204 59.6082 32.1449C57.8167 31.8692 56.3008 31.0424 55.0605 29.8021L48.0321 23.0495Z" fill="#9D9FA2"/>
<path d="M48.032 23.0496L5.31134 70.8693C3.65765 72.5229 3.51981 75.2791 5.17349 76.7951L7.10287 78.7245C8.75656 80.3781 11.375 80.2403 13.0287 78.5866L55.8872 30.6292L48.032 23.0496Z" fill="#636466"/>
<path d="M41.2793 46.8906L45.1379 50.7492L54.9223 40.9648L50.5125 36.5549L41.2793 46.8906Z" fill="#1B93D7"/>
</g>
<defs>
<filter id="filter0_d_24_434" x="0" y="0" width="88" height="88" filterUnits="userSpaceOnUse" color-interpolation-filters="sRGB">
<feFlood flood-opacity="0" result="BackgroundImageFix"/>
<feColorMatrix in="SourceAlpha" type="matrix" values="0 0 0 0 0 0 0 0 0 0 0 0 0 0 0 0 0 0 127 0" result="hardAlpha"/>
<feOffset dy="4"/>
<feGaussianBlur stdDeviation="2"/>
<feComposite in2="hardAlpha" operator="out"/>
<feColorMatrix type="matrix" values="0 0 0 0 0 0 0 0 0 0 0 0 0 0 0 0 0 0 0.25 0"/>
<feBlend mode="normal" in2="BackgroundImageFix" result="effect1_dropShadow_24_434"/>
<feBlend mode="normal" in="SourceGraphic" in2="effect1_dropShadow_24_434" result="shape"/>
</filter>
<clipPath id="clip0_24_434">
<rect width="80" height="80" fill="white" transform="translate(4)"/>
</clipPath>
</defs>
</svg>
