<svg width="25" height="25" viewBox="0 0 25 25" fill="none" xmlns="http://www.w3.org/2000/svg">
<g clip-path="url(#clip0_24_103)">
<path fill-rule="evenodd" clip-rule="evenodd" d="M15.9192 2.28447L17.0006 0.317794C17.0582 0.214588 17.0205 0.0828564 16.9162 0.0264457C16.8103 -0.0309264 16.68 0.00849692 16.6243 0.111382L15.5313 2.09761C14.6121 1.69152 13.5832 1.46267 12.4957 1.46363C11.4101 1.46267 10.383 1.69024 9.46675 2.09569L8.37311 0.113626C8.31711 0.00913795 8.18515 -0.0290033 8.08216 0.0280483C7.97723 0.0838179 7.93861 0.214908 7.99687 0.318114L9.07892 2.28287C6.95279 3.37518 5.51671 5.45372 5.518 7.84092L19.4749 7.83964C19.4756 5.45308 18.0421 3.37807 15.9192 2.28447ZM9.32159 5.32327C9.00007 5.32263 8.7384 5.06205 8.7384 4.74058C8.7384 4.4207 9.00007 4.15788 9.32191 4.15788C9.64569 4.15788 9.90736 4.4207 9.90768 4.74058C9.90768 5.06205 9.64569 5.32327 9.32159 5.32327ZM19.4273 8.37522L19.4299 18.3894C19.4295 18.9913 19.1022 19.5115 18.6195 19.799C18.3716 19.9468 18.0852 20.0371 17.7759 20.0368L16.6459 20.0375L16.6468 23.4548C16.6468 24.3067 15.9533 24.9994 15.0972 24.9987C14.9903 24.9987 14.886 24.9881 14.7853 24.9676C14.0801 24.8244 13.5478 24.201 13.5468 23.4564V20.0378H11.4551L11.4561 23.4564C11.4561 24.2016 10.9247 24.8244 10.2186 24.9686C10.1175 24.9891 10.0129 25 9.90607 25C9.15874 25 8.53371 24.4705 8.38952 23.7673C8.36892 23.667 8.35798 23.5631 8.35798 23.4567L8.35669 20.0381H7.23087C6.57945 20.0381 6.02265 19.6615 5.75327 19.1176C5.64416 18.8977 5.57721 18.6535 5.57754 18.391L5.57528 8.37778L19.4273 8.37522ZM3.42438 8.08611C4.28017 8.08611 4.97472 8.77714 4.97472 9.62875V16.091C4.97472 16.1977 4.9641 16.3019 4.9435 16.4025C4.79963 17.1067 4.17492 17.6346 3.42566 17.6355C3.11025 17.6349 2.81737 17.54 2.57244 17.3785C2.1534 17.1025 1.87629 16.6304 1.87597 16.091L1.875 9.62907C1.87532 8.7781 2.56858 8.08611 3.42438 8.08611ZM21.5743 8.08451C22.4305 8.08451 23.124 8.7749 23.124 9.62747L23.125 16.0887C23.1247 16.9426 22.4317 17.632 21.5763 17.632C20.7198 17.6326 20.0266 16.9426 20.0262 16.0894L20.0256 9.62811C20.0253 8.77554 20.7189 8.08387 21.5743 8.08451ZM15.6768 4.15596C15.9977 4.1566 16.261 4.42006 16.261 4.73994C16.261 5.06141 15.9993 5.32199 15.6768 5.32199C15.3543 5.32199 15.091 5.06205 15.0917 4.7393C15.0917 4.42006 15.3537 4.15724 15.6768 4.15596Z" fill="white"/>
</g>
<defs>
<clipPath id="clip0_24_103">
<rect width="25" height="25" fill="white"/>
</clipPath>
</defs>
</svg>
