<svg width="25" height="25" viewBox="0 0 25 25" fill="none" xmlns="http://www.w3.org/2000/svg">
<path fill-rule="evenodd" clip-rule="evenodd" d="M17.6528 5.85278C19.3407 5.85278 21.1287 6.78183 22.4031 8.38776C18.2282 10.7018 18.9065 16.7296 23.125 18.3414C22.5443 19.6418 22.2659 20.223 21.5184 21.3733C20.4754 22.9792 19.0051 24.9786 17.1828 24.9961C15.5635 25.0114 15.1479 23.9305 12.9501 23.9427C10.7527 23.9552 10.2944 25.0148 8.67478 24.9998C6.85247 24.9827 5.45878 23.177 4.41521 21.5714C1.49742 17.0811 1.19272 11.8118 2.99216 9.01119C4.2709 7.01964 6.28789 5.85434 8.18498 5.85434C10.1164 5.85434 11.3305 6.92558 12.9272 6.92558C14.4764 6.92558 15.4198 5.85278 17.6528 5.85278ZM17.1627 0C17.3864 1.51937 16.7703 3.00623 15.9591 4.05872C15.0904 5.18622 13.5935 6.06027 12.147 6.01496C11.8831 4.56091 12.5614 3.06498 13.3827 2.05624C14.2876 0.944682 15.8376 0.0924994 17.1627 0Z" fill="white"/>
</svg>
