<svg width="22" height="22" viewBox="0 0 22 22" fill="none" xmlns="http://www.w3.org/2000/svg">
<path d="M11.9168 2.7508C11.8293 2.75 11.731 2.75 11.6186 2.75H7.51701C6.49025 2.75 5.97648 2.75 5.58431 2.94982C5.23934 3.12559 4.95908 3.40585 4.78332 3.75082C4.5835 4.14299 4.5835 4.65675 4.5835 5.68352V16.3168C4.5835 17.3436 4.5835 17.8568 4.78332 18.2489C4.95908 18.5939 5.23934 18.8746 5.58431 19.0504C5.97611 19.25 6.48925 19.25 7.51402 19.25H14.4863C15.5111 19.25 16.0235 19.25 16.4153 19.0504C16.7602 18.8746 17.0415 18.5939 17.2172 18.2489C17.4168 17.8571 17.4168 17.3447 17.4168 16.32V8.54854C17.4168 8.43605 17.4168 8.33764 17.416 8.25M11.9168 2.7508C12.1786 2.75318 12.3443 2.7627 12.5024 2.80065C12.6895 2.84556 12.8682 2.91982 13.0322 3.02034C13.2172 3.13369 13.376 3.2925 13.6929 3.60938L16.5579 6.4744C16.875 6.79148 17.0327 6.94958 17.146 7.13459C17.2465 7.29863 17.3209 7.47749 17.3658 7.66455C17.4037 7.82261 17.4134 7.9883 17.416 8.25M11.9168 2.7508V5.31667C11.9168 6.34343 11.9168 6.85646 12.1167 7.24862C12.2924 7.59359 12.5727 7.87461 12.9176 8.05038C13.3094 8.25 13.8226 8.25 14.8473 8.25H17.416M17.416 8.25H17.417" stroke="#636466" stroke-linecap="round" stroke-linejoin="round"/>
</svg>
