<svg width="25" height="25" viewBox="0 0 25 25" fill="none" xmlns="http://www.w3.org/2000/svg">
<path d="M15.8203 16.0157C16.8211 16.5774 17.3828 17.5047 17.2851 18.4571C17.2359 19.043 17.2609 19.043 16.5039 19.1407C16.0398 19.1899 13.0859 19.2141 10.0828 19.2141C6.66481 19.2141 3.09997 19.1899 2.832 19.1165C1.83122 18.8477 2.41715 16.9922 3.73512 16.1133C4.78512 15.454 6.90934 14.429 7.49528 14.3063C8.30075 14.1352 8.3984 13.6227 7.49528 12.0844C7.29997 11.718 7.08044 10.668 7.05544 9.54536C7.03122 7.73833 7.3484 6.51802 8.93512 5.90786C9.22809 5.8102 9.57028 5.76099 9.88747 5.76099C10.9375 5.76099 11.914 6.34692 12.3289 7.20161C12.8906 8.34927 12.6218 11.3524 12.0359 12.4508C11.3281 13.6961 11.4007 14.0868 12.1828 14.2821C12.6711 14.404 14.2828 15.161 15.8203 16.0157ZM21.1672 14.4774C21.9484 14.8922 22.3882 15.6493 22.3148 16.3821C22.2906 16.8219 22.2906 16.8461 21.7047 16.9196C21.4117 16.9688 19.8734 16.993 18.0672 16.993C17.75 16.236 17.139 15.5524 16.3093 15.1133C15.357 14.5758 14.2343 14.0149 13.3797 13.6485C13.9414 13.3797 14.4297 13.1602 14.6492 13.111C15.2593 12.9641 15.3328 12.6227 14.6492 11.4016C14.4781 11.1086 14.2828 10.2782 14.2586 9.39927C14.2343 7.98286 14.5515 7.0063 15.7726 6.54302C16.0172 6.46958 16.2851 6.42114 16.5297 6.42114C17.3351 6.42114 18.0922 6.86099 18.4093 7.54458C18.8242 8.44771 18.6289 10.7915 18.1898 11.6704C17.6523 12.6469 17.7015 12.9399 18.3117 13.0868C18.7023 13.1844 19.9476 13.7946 21.1679 14.4782L21.1672 14.4774Z" fill="#636466"/>
</svg>
