<svg width="122" height="36" viewBox="0 0 122 36" fill="none" xmlns="http://www.w3.org/2000/svg">
<path d="M112.102 0.29414L99.9841 14.5776V21.7166H110.703C111.653 21.7166 112.564 22.0938 113.235 22.7652C113.906 23.4366 114.284 24.3473 114.284 25.2968C114.284 26.2464 113.906 27.157 113.235 27.8284C112.564 28.4999 111.653 28.8771 110.703 28.8771H92.829V0.29414H85.6899V36H110.703C113.546 36 116.273 34.8707 118.283 32.8604C120.293 30.8502 121.423 28.1237 121.423 25.2807C121.423 22.4378 120.293 19.7113 118.283 17.7011C116.273 15.6908 113.546 14.5615 110.703 14.5615H109.256L121.39 0.278061L112.102 0.29414Z" fill="#636466"/>
<path d="M54.963 0.294136L42.8449 14.5776V21.7166H53.5642C54.5108 21.7166 55.4188 22.0927 56.0882 22.7621C56.7576 23.4315 57.1337 24.3394 57.1337 25.2861C57.1337 26.2328 56.7576 27.1407 56.0882 27.8101C55.4188 28.4795 54.5108 28.8556 53.5642 28.8556H10.7085C9.76185 28.8556 8.85393 28.4795 8.18451 27.8101C7.5151 27.1407 7.13903 26.2328 7.13903 25.2861V0.294136H0V25.2861C0 26.6938 0.277262 28.0877 0.815955 29.3882C1.35465 30.6887 2.14422 31.8704 3.1396 32.8658C5.14985 34.876 7.87634 36.0054 10.7193 36.0054H53.5642C56.4071 36.0054 59.1336 34.876 61.1438 32.8658C63.1541 30.8555 64.2834 28.129 64.2834 25.2861C64.2834 22.4432 63.1541 19.7167 61.1438 17.7064C59.1336 15.6962 56.4071 14.5668 53.5642 14.5668H52.1331L64.2673 0.283417L54.963 0.294136Z" fill="#636466"/>
<path d="M78.5453 14.5775H71.4062V36H78.5453V14.5775Z" fill="#636466"/>
<path d="M14.2778 7.43852V18.1578C14.2778 19.1045 14.6539 20.0124 15.3233 20.6818C15.9927 21.3512 16.9007 21.7273 17.8473 21.7273H35.7003V14.5776H21.4222V7.43852H14.2778Z" fill="#636466"/>
<path d="M42.8447 10.2416L51.2969 0.294128H48.9761L42.8447 7.50819V10.2416Z" fill="#636466"/>
</svg>
