<svg width="186" height="50" viewBox="0 0 186 50" fill="none" xmlns="http://www.w3.org/2000/svg">
<g clip-path="url(#clip0_4_2358)">
<path d="M170.334 29.1938V35.3734C170.334 40.5991 168.19 45.739 164.546 49.9945H159.106C163.34 46.35 166.491 41.2905 166.491 35.3734V29.1938C166.491 27.6629 165.883 26.1947 164.801 25.1121C163.718 24.0296 162.25 23.4215 160.719 23.4215C159.188 23.4215 157.72 24.0296 156.637 25.1121C155.555 26.1947 154.947 27.6629 154.947 29.1938V33.9799C154.924 35.7811 154.413 37.5425 153.469 39.0769C152.526 40.6112 151.184 41.8615 149.587 42.6947L135.738 49.6622V45.3745L147.861 39.2806C148.832 38.7783 149.648 38.022 150.223 37.0923C150.798 36.1626 151.11 35.0943 151.125 34.0014V29.1938C151.125 26.6437 152.138 24.198 153.942 22.3948C155.745 20.5916 158.19 19.5786 160.74 19.5786C163.291 19.5786 165.736 20.5916 167.539 22.3948C169.343 24.198 170.356 26.6437 170.356 29.1938H170.334Z" fill="#45B649"/>
<path d="M162.638 29.1939V34.6447C162.638 40.8994 158.934 46.4359 152.455 49.8339C152.353 49.8928 152.246 49.9411 152.128 50H143.601C146.345 48.6065 148.912 47.3202 150.718 46.4144C155.842 43.7346 158.795 39.4469 158.795 34.6232V29.1939C158.821 28.7019 159.035 28.2386 159.392 27.8995C159.75 27.5604 160.224 27.3713 160.717 27.3713C161.209 27.3713 161.683 27.5604 162.041 27.8995C162.398 28.2386 162.612 28.7019 162.638 29.1939Z" fill="#45B649"/>
<path d="M178.058 49.9999H169.38L171.562 46.9771C171.744 46.7253 171.979 46.5162 172.25 46.3642C172.522 46.2123 172.823 46.1212 173.133 46.0972C173.443 46.0732 173.754 46.117 174.046 46.2254C174.337 46.3339 174.601 46.5044 174.82 46.7252L178.058 49.9999Z" fill="#45B649"/>
<path d="M139.544 18.0888L159.964 4.07336C160.186 3.92173 160.448 3.84061 160.717 3.84061C160.986 3.84061 161.248 3.92173 161.47 4.07336L181.869 18.0566V37.2816C181.869 37.7053 182.037 38.1117 182.335 38.4125L185.738 41.8052V18.0566C185.739 17.4391 185.589 16.8308 185.301 16.2844C185.014 15.738 184.597 15.2701 184.087 14.9212L163.64 0.900454C162.777 0.313573 161.758 -0.000244141 160.714 -0.000244141C159.67 -0.000244141 158.651 0.313573 157.788 0.900454L137.368 14.9212C136.858 15.2701 136.441 15.738 136.154 16.2844C135.866 16.8308 135.716 17.4391 135.717 18.0566V41.0441L139.56 39.1146L139.544 18.0888Z" fill="#45B649"/>
<path d="M185.738 46.8058V50.0215H183.492L177.066 43.5364C175.217 41.6722 174.183 39.1515 174.188 36.526V22.9929C174.188 22.7138 174.119 22.4391 173.988 22.1925C173.857 21.9459 173.668 21.735 173.438 21.578L164.407 15.3715C163.322 14.6356 162.041 14.2421 160.73 14.2421C159.419 14.2421 158.138 14.6356 157.053 15.3715L148.012 21.578C147.782 21.7359 147.595 21.9472 147.465 22.1936C147.335 22.4401 147.267 22.7144 147.267 22.9929V33.337C147.263 33.9124 147.099 34.4755 146.795 34.9637C146.49 35.4519 146.056 35.8461 145.541 36.1026L143.397 37.1745V22.9929C143.397 22.09 143.617 21.2008 144.037 20.4016C144.457 19.6024 145.065 18.9173 145.809 18.4051L154.851 12.204C156.577 11.0302 158.616 10.4026 160.703 10.4026C162.791 10.4026 164.83 11.0302 166.556 12.204L175.587 18.4051C176.331 18.917 176.94 19.602 177.361 20.4011C177.782 21.2002 178.003 22.0897 178.004 22.9929V36.526C178.008 38.132 178.643 39.6722 179.773 40.8137L185.738 46.8058Z" fill="#45B649"/>
<path d="M112.102 14.2942L99.9841 28.5776V35.7166H110.703C111.653 35.7166 112.564 36.0938 113.235 36.7652C113.906 37.4367 114.284 38.3473 114.284 39.2968C114.284 40.2464 113.906 41.157 113.235 41.8284C112.564 42.4999 111.653 42.8771 110.703 42.8771H92.829V14.2942H85.6899V50H110.703C113.546 50 116.273 48.8707 118.283 46.8604C120.293 44.8502 121.423 42.1237 121.423 39.2808C121.423 36.4378 120.293 33.7113 118.283 31.7011C116.273 29.6908 113.546 28.5615 110.703 28.5615H109.256L121.39 14.2781L112.102 14.2942Z" fill="#636466"/>
<path d="M54.963 14.2942L42.8449 28.5776V35.7166H53.5642C54.5108 35.7166 55.4188 36.0927 56.0882 36.7621C56.7576 37.4315 57.1337 38.3394 57.1337 39.2861C57.1337 40.2328 56.7576 41.1407 56.0882 41.8102C55.4188 42.4796 54.5108 42.8556 53.5642 42.8556H10.7085C9.76185 42.8556 8.85393 42.4796 8.18451 41.8102C7.5151 41.1407 7.13903 40.2328 7.13903 39.2861V14.2942H0V39.2861C0 40.6938 0.277262 42.0877 0.815955 43.3882C1.35465 44.6887 2.14422 45.8704 3.1396 46.8658C5.14985 48.876 7.87634 50.0054 10.7193 50.0054H53.5642C56.4071 50.0054 59.1336 48.876 61.1438 46.8658C63.1541 44.8555 64.2834 42.1291 64.2834 39.2861C64.2834 36.4432 63.1541 33.7167 61.1438 31.7065C59.1336 29.6962 56.4071 28.5669 53.5642 28.5669H52.1331L64.2673 14.2834L54.963 14.2942Z" fill="#636466"/>
<path d="M78.5453 28.5776H71.4062V50.0001H78.5453V28.5776Z" fill="#636466"/>
<path d="M14.2778 21.4385V32.1577C14.2778 33.1044 14.6539 34.0124 15.3233 34.6818C15.9927 35.3512 16.9007 35.7273 17.8473 35.7273H35.7003V28.5775H21.4222V21.4385H14.2778Z" fill="#636466"/>
<path d="M42.8447 24.2417L51.2969 14.2942H48.9761L42.8447 21.5083V24.2417Z" fill="#636466"/>
</g>
<defs>
<clipPath id="clip0_4_2358">
<rect width="185.717" height="50" fill="white"/>
</clipPath>
</defs>
</svg>
