<svg width="18" height="20" viewBox="0 0 18 20" fill="none" xmlns="http://www.w3.org/2000/svg">
<path d="M8.69468 15.1546C12.3944 15.1546 15.6304 16.7458 17.3904 19.12L15.5294 20C14.0968 18.3027 11.571 17.1752 8.69468 17.1752C5.81835 17.1752 3.29258 18.3027 1.85997 20L0 19.119C1.75995 16.7448 4.99495 15.1546 8.69468 15.1546ZM8.69468 0C10.0344 0 11.3193 0.532213 12.2667 1.47956C13.214 2.4269 13.7462 3.71178 13.7462 5.05153V8.08244C13.7461 9.38418 13.2435 10.6356 12.3432 11.5759C11.4429 12.5161 10.2144 13.0724 8.91392 13.1289L8.69468 13.134C7.35494 13.134 6.07006 12.6018 5.12272 11.6544C4.17537 10.7071 3.64316 9.42219 3.64316 8.08244V5.05153C3.64324 3.74978 4.14583 2.49832 5.04613 1.55812C5.94643 0.61791 7.17493 0.0615472 8.47545 0.00505164L8.69468 0ZM8.69468 2.02061C7.92159 2.02057 7.1777 2.31595 6.61521 2.84632C6.05273 3.37668 5.71418 4.10195 5.66882 4.87371L5.66377 5.05153V8.08244C5.66301 8.87139 5.96991 9.62955 6.51927 10.1958C7.06862 10.7621 7.81713 11.0918 8.60574 11.115C9.39435 11.1381 10.1609 10.8529 10.7425 10.3198C11.3242 9.78674 11.675 9.04789 11.7205 8.26025L11.7256 8.08244V5.05153C11.7256 4.24768 11.4063 3.47675 10.8379 2.90834C10.2695 2.33994 9.49853 2.02061 8.69468 2.02061Z" fill="#636466"/>
</svg>
