<svg width="20" height="20" viewBox="0 0 20 20" fill="none" xmlns="http://www.w3.org/2000/svg">
<path d="M7.74377 0C3.47153 0 0 3.47153 0 7.74377C0 12.016 3.47153 15.4875 7.74377 15.4875C9.43416 15.4875 10.9964 14.9431 12.2705 14.0214L18.2633 20L19.5445 18.7189L13.6228 12.7829C14.7865 11.427 15.4875 9.66726 15.4875 7.74377C15.4875 3.47153 12.016 0 7.74377 0ZM7.74377 0.911032C11.5231 0.911032 14.5765 3.96441 14.5765 7.74377C14.5765 11.5231 11.5231 14.5765 7.74377 14.5765C3.96441 14.5765 0.911032 11.5231 0.911032 7.74377C0.911032 3.96441 3.96441 0.911032 7.74377 0.911032Z" fill="#636466"/>
</svg>
