<svg width="20" height="20" viewBox="0 0 20 20" fill="none" xmlns="http://www.w3.org/2000/svg">
<g clip-path="url(#clip0_24_573)">
<path d="M19.9929 5.6737C20.0023 5.21183 19.8779 4.1337 18.4723 3.7587L4.36227 0.934326C3.32789 0.934326 2.48727 1.77495 2.48727 2.80933V5.32308L1.86227 5.32183C0.831641 5.3262 -0.00585938 6.16433 -0.00585938 7.1962V17.1924C-0.00585938 18.2262 0.834766 19.0674 1.86914 19.0674H18.1279C19.1616 19.0674 20.0029 18.2262 20.0029 17.1924L19.9929 5.6737ZM3.73789 2.8087C3.73789 2.48245 3.98914 2.2137 4.30852 2.1862L18.0979 4.97683C18.1029 4.97933 17.9954 5.32683 17.4948 5.32058H3.73789V2.8087ZM18.7548 17.1918C18.7548 17.5368 18.4748 17.8168 18.1298 17.8168H1.87039C1.52539 17.8168 1.24539 17.5368 1.24539 17.1918V7.19495C1.24539 6.84995 1.52539 6.56995 1.87039 6.56995H17.4966C18.1104 6.56995 18.7541 6.36058 18.7541 5.94745L18.7548 17.1918ZM3.74664 10.9475C3.05664 10.9475 2.49664 11.5068 2.49664 12.1975C2.49664 12.8881 3.05664 13.4475 3.74664 13.4475C4.43664 13.4475 4.99664 12.8881 4.99664 12.1975C4.99664 11.5068 4.43664 10.9475 3.74664 10.9475Z" fill="#636466"/>
</g>
<defs>
<clipPath id="clip0_24_573">
<rect width="20" height="20" fill="white"/>
</clipPath>
</defs>
</svg>
