<svg width="155" height="38" viewBox="0 0 155 38" fill="none" xmlns="http://www.w3.org/2000/svg">
<path d="M134.993 22.0692V26.6393C134.993 30.5018 133.421 34.2977 130.712 37.4424H126.692C129.823 34.7521 132.15 31.0097 132.15 26.6393V22.0692C132.15 19.7175 130.234 17.8015 127.883 17.8015C125.537 17.8015 123.621 19.7175 123.621 22.0692V25.606C123.621 28.2601 122.025 30.8477 119.643 32.0445L109.408 37.1949V34.0083L118.366 29.5047C119.81 28.7797 120.777 27.2138 120.777 25.6046V22.0677C120.777 18.1444 123.962 14.9592 127.88 14.9592C131.807 14.9592 134.993 18.1444 134.993 22.0692Z" fill="#00BABE"/>
<path d="M129.304 22.0693V26.0953C129.304 30.7205 126.566 34.8116 121.796 37.321C121.718 37.363 121.64 37.3992 121.554 37.4426H115.237C117.262 36.4151 119.161 35.46 120.496 34.7957C124.281 32.8001 126.463 29.6264 126.463 26.0968V22.0708C126.463 21.2908 127.104 20.6497 127.884 20.6497C128.67 20.6482 129.304 21.2879 129.304 22.0693Z" fill="#00BABE"/>
<path d="M140.699 37.441H134.285L135.898 35.2109C136.171 34.8361 136.593 34.6002 137.053 34.564C137.518 34.5278 137.972 34.6914 138.304 35.0228L140.699 37.441Z" fill="#00BABE"/>
<path d="M112.237 13.8594L127.327 3.50061C127.66 3.27196 128.107 3.27196 128.438 3.50061L143.515 13.8334V28.0431C143.515 28.3557 143.639 28.6567 143.858 28.8796L146.356 31.4034V13.8348C146.356 12.9086 145.899 12.0418 145.136 11.5179L130.048 1.1591C128.754 0.270536 127.014 0.270536 125.721 1.1591L110.63 11.5179C109.866 12.0418 109.41 12.9086 109.41 13.8348V30.826L112.252 29.3976L112.237 13.8594Z" fill="#00BABE"/>
<path d="M146.357 35.0835V37.4409H144.694L139.967 32.6653C138.593 31.2745 137.838 29.4366 137.838 27.4844V17.4859C137.838 17.0692 137.632 16.677 137.281 16.4411L130.606 11.8521C128.981 10.7407 126.799 10.7407 125.172 11.8521L118.492 16.4411C118.148 16.677 117.942 17.0692 117.942 17.4859V25.127C117.942 25.9909 117.452 26.7767 116.679 27.1704L115.101 27.962V17.4859C115.101 16.1328 115.767 14.8622 116.884 14.0952L123.564 9.5135C126.152 7.73638 129.627 7.73638 132.214 9.5135L138.888 14.0952C140.007 14.8637 140.677 16.1328 140.677 17.4859V27.4844C140.677 28.6812 141.142 29.8115 141.984 30.6638L146.357 35.0835Z" fill="#00BABE"/>
<path d="M100.16 7.27832H95.6379V27.6275H100.16V7.27832Z" fill="#636466"/>
<path d="M45.8871 14.0626H39.104V14.7741V18.5838V23.105H34.5828V22.3119V20.8444C34.5828 16.9888 31.3673 13.8854 27.4721 14.069C23.8243 14.2411 21.0167 17.3827 21.0167 21.0356V21.2651V22.1857V25.3656H20.9976C20.9976 26.6138 19.9852 27.6262 18.737 27.6262H15.2027C13.9544 27.6262 12.9421 26.6138 12.9421 25.3656V22.7862V22.2839V20.8431C12.9421 19.5949 13.9544 18.5825 15.2027 18.5825H18.9691V14.0601H15.2027C11.4567 14.0601 8.4209 17.0959 8.4209 20.8418V22.2826V22.785V25.3643C8.4209 29.109 11.4567 32.1461 15.2027 32.1461H18.737C18.7434 32.1461 18.7498 32.1448 18.7561 32.1448V32.1461C22.5021 32.1461 25.5392 29.109 25.5392 25.363V22.1831V21.2626V20.9387C25.5392 19.7581 26.4024 18.7036 27.5779 18.5914C28.9269 18.4627 30.0616 19.5197 30.0616 20.8418V22.3094V25.3643C30.0616 26.6125 31.074 27.6249 32.3222 27.6249H34.5841H45.8883C49.6343 27.6249 52.6714 24.5878 52.6714 20.8418C52.6689 17.0984 49.6331 14.0626 45.8871 14.0626ZM45.8871 23.105H43.6265V18.5838H45.8871C47.1353 18.5838 48.1477 19.5962 48.1477 20.8444C48.1477 22.0939 47.1353 23.105 45.8871 23.105Z" fill="#636466"/>
<path d="M61.7165 14.0625H54.9321V18.585H61.7165C62.9647 18.585 63.9771 19.5973 63.9771 20.8456C63.9771 22.0951 62.9647 23.1074 61.7165 23.1074H54.9321V27.6299H61.7165C65.4624 27.6299 68.5008 24.5915 68.5008 20.8456C68.5008 17.0996 65.4624 14.0625 61.7165 14.0625Z" fill="#636466"/>
<path d="M100.162 0.492676H93.3773V5.01514H87.4931L79.8087 14.0613V18.5838H86.593C87.8412 18.5838 88.8536 19.5962 88.8536 20.8444C88.8536 22.0939 87.8412 23.1063 86.593 23.1063H75.2849V5.01386H70.7625V27.6287H86.593C90.339 27.6287 93.3773 24.5916 93.3773 20.8444C93.3773 17.0984 90.339 14.0601 86.593 14.0601H85.6915L93.376 5.01386H100.16C101.41 5.01386 102.422 6.02622 102.422 7.27573H106.945C106.946 3.53102 103.908 0.492676 100.162 0.492676Z" fill="#636466"/>
<path d="M47.3241 36.4988C47.5344 36.4988 47.7168 36.481 47.8723 36.444C48.0266 36.407 48.1554 36.3484 48.2561 36.2693C48.3568 36.189 48.432 36.0857 48.4805 35.9569C48.5289 35.8281 48.5532 35.6726 48.5532 35.4903C48.3517 35.438 48.1528 35.3844 47.9603 35.3322C47.8787 35.3118 47.792 35.2888 47.7015 35.2646C47.6109 35.2404 47.5204 35.2161 47.4312 35.1919C47.3419 35.1677 47.2539 35.1447 47.1698 35.1243C47.0844 35.1039 47.0066 35.0835 46.9352 35.0644C46.8421 34.8387 46.7962 34.6169 46.7962 34.3989C46.7962 34.3861 46.7975 34.3185 46.8013 34.1974C46.8038 34.075 46.8498 33.9144 46.9352 33.7142C47.0219 33.514 47.143 33.3355 47.3011 33.1761C47.4592 33.0168 47.6415 32.8905 47.8468 32.7962C48.0534 32.7018 48.2778 32.6432 48.5226 32.6228C48.571 32.6189 48.6207 32.6164 48.6705 32.6164C48.8681 32.6164 49.0708 32.647 49.2799 32.7082L49.132 33.2794C48.9892 33.2348 48.8439 33.2131 48.696 33.2144C48.5481 33.2157 48.4065 33.2361 48.2714 33.2781C48.1362 33.3202 48.01 33.3789 47.894 33.4566C47.778 33.5344 47.6798 33.6275 47.5995 33.7359C47.5179 33.8442 47.4605 33.9654 47.4248 34.1005C47.3993 34.1885 47.3865 34.2803 47.3865 34.3746C47.3865 34.4295 47.3904 34.4843 47.3993 34.5391L48.608 34.8387C48.7763 34.8846 48.9025 34.9611 48.9867 35.0657C49.0708 35.1715 49.1129 35.299 49.1129 35.4507C49.1129 35.7261 49.0797 35.9684 49.0147 36.175C48.9497 36.3828 48.8451 36.5536 48.7023 36.6913C48.5595 36.8278 48.3747 36.931 48.149 37.0012C47.9233 37.07 47.6492 37.1057 47.3266 37.1057H46.6292C46.4698 37.1057 46.3142 37.0853 46.1651 37.0458C46.0159 37.0063 45.8744 36.9502 45.7418 36.8788C45.6092 36.8074 45.4868 36.7207 45.3758 36.6199C45.2649 36.5192 45.1667 36.407 45.0826 36.2859C44.9831 36.1265 44.9092 35.9505 44.8582 35.7593C44.8072 35.568 44.783 35.3653 44.783 35.1537C44.783 34.891 44.825 34.6067 44.9079 34.3032C44.9908 33.9998 45.1119 33.6772 45.2726 33.3393C45.3669 33.384 45.4562 33.426 45.5378 33.4668C45.6194 33.5076 45.7061 33.551 45.7966 33.5943C45.5186 34.1872 45.3797 34.7023 45.3797 35.1384C45.3797 35.2939 45.3988 35.4418 45.437 35.5833C45.4753 35.7249 45.5276 35.8511 45.5951 35.9659C45.7022 36.1342 45.8476 36.2668 46.0312 36.3624C46.2148 36.458 46.4137 36.5065 46.6304 36.5065H47.3241V36.4988ZM49.656 37.1108V36.5141H50.0921C50.3089 36.5141 50.4963 36.4886 50.6557 36.4363C50.815 36.3853 50.9464 36.305 51.0496 36.1979C51.1529 36.0908 51.2307 35.9544 51.2804 35.7873C51.3301 35.6216 51.3544 35.4227 51.3544 35.1945V33.2246H51.9511V35.1945C51.9511 35.4954 51.9115 35.7644 51.8325 36.0016C51.7534 36.2387 51.6361 36.4389 51.4806 36.6034C51.325 36.7678 51.1312 36.8928 50.8979 36.9808C50.6659 37.0675 50.3968 37.1121 50.0908 37.1121H49.656V37.1108ZM53.0272 36.5052C53.3447 36.5052 53.6124 36.481 53.8292 36.4325C54.0459 36.3841 54.218 36.3088 54.3443 36.2081C54.4539 36.1201 54.5342 36.0067 54.5852 35.8702C54.6362 35.7338 54.663 35.5629 54.663 35.3589H54.0816C53.9337 35.3589 53.7845 35.3373 53.6328 35.2926C53.4811 35.248 53.3434 35.1753 53.221 35.0746C53.0973 34.9739 52.9979 34.8413 52.9201 34.6781C52.8423 34.5149 52.8028 34.316 52.8028 34.0801C52.8028 33.9411 52.8142 33.8149 52.8385 33.7027C52.8627 33.5905 52.8933 33.4898 52.9303 33.4018C52.9673 33.3138 53.0081 33.2361 53.0514 33.171C53.096 33.106 53.1381 33.0499 53.1815 33.004C53.2975 32.888 53.4301 32.7987 53.5793 32.7362C53.7284 32.6725 53.8891 32.6419 54.0587 32.6419C54.2078 32.6419 54.3481 32.6648 54.4781 32.7108C54.6082 32.7567 54.7255 32.8268 54.8288 32.9186C55.1131 33.1838 55.2546 33.5994 55.2546 34.1655V35.3589C55.2546 35.6573 55.2113 35.9148 55.1233 36.1303C55.0353 36.3458 54.9002 36.5269 54.7178 36.6722C54.533 36.8176 54.3022 36.9247 54.0281 36.9961C53.7539 37.0662 53.4199 37.1019 53.0259 37.1019V36.5052H53.0272ZM54.0599 33.2386C53.8521 33.2386 53.6889 33.3126 53.5742 33.4592C53.4581 33.6071 53.4008 33.8136 53.4008 34.0814C53.4008 34.353 53.4824 34.5417 53.6468 34.6462C53.6864 34.6717 53.7284 34.6921 53.7705 34.7074C53.8126 34.7227 53.8534 34.7342 53.8942 34.7418C53.9337 34.7495 53.9707 34.7546 54.0026 34.7571C54.0357 34.7597 54.0625 34.7622 54.0829 34.7622H54.6643V34.1655C54.6643 34.0125 54.6528 33.8825 54.6299 33.7754C54.6069 33.6696 54.5776 33.5816 54.5419 33.5115C54.5062 33.4426 54.4654 33.3891 54.4208 33.3521C54.3749 33.3151 54.3302 33.2883 54.2869 33.2718C54.2423 33.2552 54.2002 33.245 54.1607 33.2412C54.1173 33.2399 54.0854 33.2386 54.0599 33.2386ZM57.6555 35.3589C57.4349 35.3564 57.2526 35.3411 57.1072 35.313C56.9631 35.285 56.8407 35.2442 56.7413 35.1894C56.6418 35.1358 56.5615 35.0682 56.5016 34.9879C56.4417 34.9063 56.3945 34.812 56.3613 34.7036C56.3282 34.5952 56.3052 34.4741 56.295 34.3389C56.2848 34.2038 56.2797 34.0546 56.2797 33.8901V30.8531H56.8764V33.8901C56.8764 34.0737 56.8828 34.2216 56.8943 34.3351C56.9058 34.4486 56.9364 34.5366 56.9861 34.599C57.0358 34.6615 57.1098 34.7036 57.2105 34.7253C57.3099 34.7469 57.4591 34.7597 57.6567 34.761V35.3589H57.6555ZM60.2119 34.7622V35.3589H59.9658C59.7745 35.3589 59.605 35.3322 59.4596 35.2773C59.313 35.2225 59.1957 35.1409 59.1077 35.0313C58.8884 35.2506 58.5645 35.3589 58.1349 35.3589H57.5292V34.7622H58.1349C58.2866 34.7622 58.4064 34.7469 58.4944 34.7163C58.5824 34.6857 58.65 34.6475 58.6946 34.6029C58.7392 34.5582 58.7698 34.5072 58.7826 34.4511C58.7966 34.395 58.803 34.3428 58.803 34.2918V33.2246H59.3959V34.2688C59.3959 34.3466 59.4073 34.4129 59.4303 34.4677C59.4532 34.5225 59.4838 34.5684 59.5208 34.6054C59.5578 34.6424 59.5986 34.6717 59.6445 34.6921C59.6891 34.7138 59.7337 34.7291 59.7758 34.7393C59.8179 34.7495 59.8561 34.7559 59.8893 34.7584C59.9224 34.761 59.9479 34.761 59.9645 34.761H60.2119V34.7622ZM58.3338 31.7698L58.8705 31.2266L59.4201 31.7762L58.8769 32.3193L58.3338 31.7698ZM60.078 35.3589V34.7622H61.4792C61.7151 34.7622 61.9051 34.7457 62.0491 34.7112C62.1932 34.6781 62.3054 34.636 62.3858 34.585C62.4661 34.534 62.5196 34.4792 62.549 34.4193C62.577 34.3593 62.5949 34.302 62.6012 34.2471H62.1218C62.067 34.2471 62.0058 34.2446 61.9382 34.2408C61.8706 34.2369 61.8005 34.2293 61.7278 34.2165C61.6552 34.2051 61.5825 34.1872 61.5085 34.1643C61.4346 34.1413 61.3632 34.1107 61.2943 34.0725C61.237 34.0393 61.1796 33.9972 61.1209 33.9462C61.0623 33.8952 61.0087 33.8328 60.9616 33.7588C60.9144 33.6836 60.8749 33.5956 60.8443 33.4936C60.8137 33.3916 60.7984 33.2718 60.7984 33.1353C60.7984 32.9645 60.8277 32.8038 60.8863 32.6508C60.945 32.4978 61.0291 32.3678 61.1388 32.2581C61.2484 32.1485 61.3734 32.0656 61.5149 32.0082C61.6564 31.9508 61.8069 31.9228 61.9663 31.9228C62.1499 31.9228 62.3182 31.9623 62.4712 32.0401C62.6242 32.1179 62.7542 32.2301 62.8601 32.3741C62.9735 32.5259 63.0577 32.7133 63.1125 32.9364C63.1673 33.1596 63.1941 33.4158 63.1941 33.704V34.14C63.1941 34.3479 63.152 34.534 63.0692 34.6959C62.9863 34.8579 62.8601 34.9892 62.6918 35.0899C62.4113 35.2684 62.0083 35.3577 61.4792 35.3577H60.078V35.3589ZM62.3832 32.7235C62.2825 32.5883 62.1435 32.522 61.9663 32.522C61.8974 32.522 61.826 32.5348 61.7533 32.5577C61.6807 32.582 61.6156 32.6189 61.5583 32.6687C61.5009 32.7184 61.4524 32.7821 61.4167 32.8599C61.3798 32.9377 61.3619 33.0308 61.3619 33.1379C61.3619 33.2067 61.3696 33.2654 61.3836 33.3126C61.3989 33.3597 61.4167 33.3993 61.441 33.4299C61.4639 33.4605 61.4881 33.4847 61.5136 33.5038C61.5391 33.5229 61.5634 33.5382 61.5863 33.551C61.6475 33.5867 61.7215 33.6122 61.8107 33.6288C61.8987 33.6441 62.0032 33.653 62.1231 33.653H62.6089C62.6051 33.4452 62.5834 33.2628 62.5439 33.1073C62.5031 32.9492 62.4495 32.8229 62.3832 32.7235ZM61.483 30.6618L62.0198 30.1187L62.5694 30.6682L62.0262 31.2113L61.483 30.6618ZM66.6672 34.4129C66.935 34.4511 67.0791 34.6092 67.0995 34.8897C67.0995 34.9866 67.0587 35.0823 66.9758 35.1766C66.8687 35.2965 66.7297 35.3564 66.5589 35.3564C66.3651 35.3564 66.2133 35.2837 66.1037 35.1384C66.003 35.0058 65.952 34.84 65.952 34.6398C65.952 34.1451 66.2019 33.7206 66.7029 33.3648C66.745 33.3942 66.7896 33.4286 66.8368 33.4656C66.884 33.5038 66.935 33.5446 66.9898 33.5892C66.592 33.8774 66.3931 34.1732 66.3931 34.4766C66.4505 34.4333 66.541 34.4129 66.6672 34.4129ZM72.8064 34.775C72.8842 34.775 72.9569 34.761 73.0244 34.7342C73.092 34.7074 73.1494 34.6692 73.1978 34.6207C73.2884 34.5238 73.333 34.3925 73.333 34.2267V34.1923C73.3304 34.163 73.3279 34.1273 73.3241 34.0852C73.3202 34.0431 73.3151 33.9947 73.3088 33.9399C73.3024 33.8876 73.296 33.8328 73.2884 33.7767C73.2807 33.7206 73.2718 33.6619 73.2616 33.5982C73.2514 33.5344 73.2399 33.4668 73.2272 33.3929C73.2144 33.3189 73.2004 33.2361 73.1825 33.143L73.7601 33.0448C73.7792 33.1353 73.7958 33.2195 73.8111 33.296C73.8264 33.3725 73.8379 33.4439 73.8494 33.5089C73.8698 33.6415 73.8876 33.7665 73.9016 33.8825C73.9157 33.9998 73.9246 34.0929 73.9284 34.1617V34.2255C73.9284 34.3096 73.9208 34.3925 73.9067 34.4728C73.8914 34.5544 73.8698 34.6309 73.8404 34.7036C73.8111 34.7763 73.778 34.8387 73.741 34.8936C73.704 34.9471 73.667 34.993 73.6288 35.0313C73.5255 35.1409 73.4031 35.2251 73.259 35.2837C73.1162 35.3424 72.9658 35.3717 72.8077 35.3717H68.8488C68.7009 35.3691 68.5619 35.3436 68.4293 35.2939C68.2967 35.2442 68.1794 35.1728 68.0787 35.0772C68.0366 35.0389 67.9945 34.993 67.9524 34.9382C67.9104 34.8834 67.8721 34.8196 67.8377 34.7457C67.8033 34.6717 67.7752 34.5876 67.7535 34.4932C67.7319 34.3989 67.7217 34.2918 67.7217 34.1745C67.7217 34.0686 67.7319 33.9539 67.7535 33.8277C67.7739 33.7014 67.7982 33.5816 67.8249 33.4694C67.8517 33.3572 67.8759 33.259 67.9002 33.1761C67.9244 33.0933 67.9397 33.0423 67.9461 33.0231L68.5147 33.2029C68.502 33.2475 68.4841 33.31 68.4625 33.3903C68.4408 33.4719 68.4178 33.5586 68.3961 33.6504C68.3745 33.7435 68.3554 33.8366 68.3388 33.9297C68.3235 34.0227 68.3146 34.1043 68.3146 34.1745C68.3146 34.3134 68.3362 34.4231 68.3808 34.5021C68.4255 34.5825 68.4778 34.6424 68.5377 34.6819C68.5976 34.7214 68.6575 34.7469 68.7175 34.7571C68.7774 34.7673 68.8233 34.7724 68.8552 34.7724H72.8064V34.775ZM70.2245 32.9351L69.726 32.4302L70.2181 31.919L70.7294 32.4302L70.2245 32.9351ZM71.4332 32.9415L70.9347 32.4366L71.4269 31.9253L71.9381 32.4366L71.4332 32.9415ZM73.4847 37.1108V36.5141H73.9208C74.1375 36.5141 74.3249 36.4886 74.4843 36.4363C74.6437 36.3853 74.775 36.305 74.8783 36.1979C74.9816 36.0908 75.0594 35.9544 75.1091 35.7873C75.1588 35.6216 75.183 35.4227 75.183 35.1945V33.2246H75.7797V35.1945C75.7797 35.4954 75.7402 35.7644 75.6612 36.0016C75.5821 36.2387 75.4648 36.4389 75.3093 36.6034C75.1537 36.7678 74.9599 36.8928 74.7266 36.9808C74.4945 37.0675 74.2255 37.1121 73.9195 37.1121H73.4847V37.1108ZM78.0964 35.3589C77.8759 35.3564 77.6935 35.3411 77.5482 35.313C77.4041 35.285 77.2817 35.2442 77.1823 35.1894C77.0828 35.1358 77.0025 35.0682 76.9425 34.9879C76.8826 34.9063 76.8354 34.812 76.8023 34.7036C76.7691 34.5952 76.7462 34.4741 76.736 34.3389C76.7258 34.2038 76.7207 34.0546 76.7207 33.8901V30.8531H77.3174V33.8901C77.3174 34.0737 77.3238 34.2216 77.3352 34.3351C77.3467 34.4486 77.3773 34.5366 77.4271 34.599C77.4768 34.6615 77.5507 34.7036 77.6515 34.7253C77.7509 34.7469 77.9001 34.7597 78.0977 34.761V35.3589H78.0964ZM79.9911 32.6661C80.1721 32.6661 80.3341 32.6916 80.4781 32.7439C80.6222 32.7949 80.7446 32.8701 80.8441 32.9696C80.9435 33.069 81.02 33.1889 81.0736 33.3304C81.1259 33.4719 81.1526 33.6326 81.1526 33.8124C81.1526 33.9195 81.1361 34.0342 81.1016 34.1553C81.0685 34.2765 81.0047 34.3963 80.9117 34.5136C80.8186 34.6309 80.6911 34.7431 80.5266 34.8502C80.3621 34.956 80.1505 35.0491 79.8891 35.1269C79.7042 35.1881 79.5155 35.2327 79.3243 35.2595C79.351 35.3959 79.402 35.5272 79.4747 35.6522C79.5474 35.7771 79.6354 35.8932 79.7386 35.999C79.8419 36.1048 79.9554 36.1992 80.0816 36.2821C80.2066 36.3637 80.3366 36.43 80.4718 36.481C80.4208 36.4236 80.3825 36.3573 80.357 36.2795C80.3302 36.2017 80.3137 36.1201 80.3047 36.0334C80.3009 35.9952 80.2984 35.9582 80.2984 35.9199C80.2984 35.874 80.3022 35.8167 80.3111 35.7491C80.32 35.6815 80.3366 35.6139 80.3621 35.5438C80.408 35.4265 80.4692 35.3194 80.5457 35.2238C80.621 35.1282 80.7089 35.0466 80.8071 34.9777C80.9066 34.9089 81.0137 34.8566 81.131 34.8196C81.2483 34.7826 81.3694 34.7648 81.4956 34.7648H82.077V35.3615H81.4956C81.363 35.3615 81.2457 35.3972 81.145 35.4673C81.0443 35.5374 80.9703 35.6331 80.9244 35.7529C80.8951 35.8269 80.8798 35.9021 80.8798 35.9799C80.8798 36.0487 80.8989 36.1392 80.9371 36.2502C80.9754 36.3611 81.0647 36.4784 81.2049 36.6021L81.0098 37.1261C80.8058 37.1261 80.6108 37.1019 80.4259 37.0547C80.241 37.0075 80.0676 36.9425 79.9082 36.8596C79.7488 36.7768 79.6022 36.6786 79.4709 36.5651C79.3396 36.4516 79.2235 36.328 79.1215 36.1954C79.0208 36.0627 78.9379 35.9238 78.8716 35.7771C78.8066 35.6305 78.7607 35.4826 78.7365 35.3334C78.6013 35.3436 78.4726 35.3513 78.3502 35.3551C78.2265 35.3589 78.1015 35.3615 77.9728 35.3615V34.7648C78.0824 34.7648 78.1984 34.7622 78.3221 34.7584C78.4458 34.7546 78.5758 34.7469 78.7148 34.7367C78.725 34.4677 78.7467 34.2331 78.7786 34.0329C78.8104 33.8328 78.8538 33.6543 78.9112 33.4962C78.9749 33.3253 79.0489 33.1863 79.1356 33.0792C79.2223 32.9721 79.3141 32.888 79.4122 32.8268C79.5104 32.7656 79.6099 32.7248 79.7106 32.7018C79.8075 32.6776 79.9018 32.6661 79.9911 32.6661ZM79.3153 34.6551C79.3842 34.6449 79.453 34.6309 79.5219 34.6143C79.5907 34.5978 79.657 34.5799 79.7221 34.5608C79.9299 34.497 80.0918 34.4282 80.2053 34.3542C80.3188 34.279 80.4016 34.2076 80.4552 34.1375C80.5075 34.0686 80.5381 34.0049 80.547 33.9462C80.5559 33.8889 80.5598 33.8442 80.5598 33.8124C80.5598 33.6186 80.5151 33.4783 80.4246 33.3903C80.3341 33.3036 80.19 33.259 79.9924 33.259C79.9171 33.259 79.8419 33.2743 79.7667 33.3062C79.6915 33.3381 79.6239 33.4031 79.5627 33.5013C79.5015 33.6007 79.4492 33.741 79.4046 33.9246C79.3587 34.1094 79.3294 34.3517 79.3153 34.6551ZM83.9985 32.7235C84.205 32.7235 84.3835 32.763 84.5365 32.8421C84.6895 32.9211 84.8157 33.027 84.9165 33.1596C85.0172 33.2922 85.0924 33.4452 85.1421 33.6173C85.1919 33.7894 85.2161 33.9692 85.2161 34.1541C85.2161 34.3581 85.1982 34.534 85.1638 34.6806C85.1294 34.8285 85.0835 34.9522 85.0261 35.0517C84.9687 35.1511 84.905 35.2327 84.8349 35.2926C84.7647 35.3538 84.6933 35.3997 84.6207 35.4316C84.548 35.4635 84.4779 35.4839 84.4103 35.4954C84.3427 35.5056 84.2853 35.5107 84.2369 35.5107C84.1336 35.5107 84.0354 35.5005 83.9398 35.4788C83.8455 35.4571 83.7486 35.4278 83.6491 35.3883C83.5496 35.3487 83.4464 35.3016 83.338 35.2442C83.2296 35.1868 83.1098 35.1231 82.9797 35.0517C82.8076 35.2557 82.5857 35.3577 82.3142 35.3577H81.9508V34.761H82.3142C82.3945 34.761 82.4595 34.7316 82.5118 34.673C82.5628 34.6143 82.6087 34.5378 82.6457 34.4422C82.6839 34.3479 82.7183 34.2395 82.7502 34.1171C82.7821 33.9947 82.8178 33.8697 82.8586 33.741C82.8994 33.6122 82.9491 33.4872 83.0052 33.3648C83.0626 33.2424 83.134 33.1341 83.222 33.0397C83.3087 32.9454 83.4158 32.8688 83.5407 32.8089C83.667 32.7528 83.8199 32.7235 83.9985 32.7235ZM84.2382 34.914C84.2535 34.914 84.2739 34.9127 84.2994 34.9114C84.3261 34.9089 84.3542 34.9012 84.3848 34.8859C84.4154 34.8706 84.446 34.8489 84.4766 34.8183C84.5072 34.7877 84.534 34.7444 84.5582 34.6883C84.5824 34.6322 84.6028 34.5608 84.6181 34.4741C84.6334 34.3874 84.6423 34.2803 84.6423 34.1541C84.6423 34.1311 84.6398 34.0941 84.636 34.0431C84.6321 33.9921 84.6219 33.936 84.6079 33.8748C84.5926 33.8124 84.5722 33.7486 84.5429 33.6836C84.5148 33.6186 84.4766 33.5586 84.4281 33.5038C84.3797 33.449 84.321 33.4044 84.2509 33.3699C84.1821 33.3355 84.0966 33.3177 83.9985 33.3177C83.9054 33.3177 83.8276 33.3342 83.7639 33.3661C83.7001 33.3993 83.6453 33.4439 83.6006 33.5C83.556 33.5574 83.519 33.6237 83.4897 33.7002C83.4604 33.7767 83.4323 33.8595 83.4081 33.9501C83.3826 34.0393 83.3571 34.1337 83.3329 34.2306C83.3074 34.3287 83.2781 34.4256 83.2449 34.5225C83.3546 34.5774 83.4553 34.6284 83.5484 34.6768C83.6415 34.7253 83.7269 34.7673 83.8072 34.8018C83.8875 34.8362 83.9628 34.8642 84.0329 34.8834C84.1017 34.9038 84.1706 34.914 84.2382 34.914ZM88.8868 34.4129C89.1546 34.4511 89.2987 34.6092 89.3191 34.8897C89.3191 34.9866 89.2783 35.0823 89.1954 35.1766C89.0883 35.2965 88.9493 35.3564 88.7785 35.3564C88.5847 35.3564 88.4329 35.2837 88.3233 35.1384C88.2226 35.0058 88.1716 34.84 88.1716 34.6398C88.1716 34.1451 88.4215 33.7206 88.9225 33.3648C88.9646 33.3942 89.0092 33.4286 89.0564 33.4656C89.1036 33.5038 89.1546 33.5446 89.2094 33.5892C88.8116 33.8774 88.6127 34.1732 88.6127 34.4766C88.6701 34.4333 88.7606 34.4129 88.8868 34.4129ZM94.3694 35.3589C94.1909 35.3589 94.0328 35.3322 93.8976 35.2799C93.7625 35.2276 93.6388 35.1498 93.5304 35.0491C93.4731 35.1205 93.4131 35.1779 93.3507 35.2212C93.2869 35.2646 93.2244 35.2977 93.1607 35.322C93.0969 35.3462 93.037 35.3615 92.9796 35.3691C92.9222 35.3768 92.8712 35.3806 92.8292 35.3806C92.7935 35.3806 92.7476 35.3755 92.6902 35.3653C92.6328 35.3551 92.5563 35.3322 92.4594 35.299C92.3625 35.2659 92.2401 35.2174 92.0935 35.1537C91.9456 35.0899 91.7645 35.0058 91.5478 34.8974C91.4024 34.826 91.266 34.7571 91.1385 34.6908C91.011 34.6245 90.9077 34.5697 90.8274 34.5251V37.4423H90.2345V34.1719L90.8096 33.8379C90.8708 33.871 90.9332 33.9067 90.9995 33.9424C91.0544 33.9717 91.1143 34.0049 91.178 34.0406C91.2418 34.0763 91.3043 34.1094 91.3655 34.1388C91.3973 33.9488 91.433 33.7779 91.4738 33.6262C91.5146 33.4732 91.5656 33.3368 91.6268 33.2144C91.8308 32.8038 92.1534 32.5985 92.5933 32.5985C92.7884 32.5985 92.9618 32.6381 93.1122 32.7171C93.2627 32.7962 93.3889 32.9007 93.4909 33.0308C93.5929 33.1608 93.6707 33.3126 93.723 33.486C93.7752 33.6581 93.802 33.8379 93.802 34.0227C93.802 34.0584 93.802 34.0929 93.8007 34.1247C93.7995 34.1579 93.7982 34.1885 93.7956 34.2178C93.7956 34.3338 93.8199 34.4269 93.867 34.4983C93.9142 34.5697 93.969 34.6245 94.0328 34.6641C94.0965 34.7036 94.159 34.7291 94.224 34.7431C94.2878 34.7571 94.3375 34.7635 94.3707 34.7635H94.4752V35.3602H94.3694V35.3589ZM91.8908 34.3874C92.0693 34.4754 92.2184 34.5455 92.337 34.5978C92.4556 34.6488 92.5512 34.6896 92.6226 34.7176C92.694 34.7457 92.745 34.7648 92.7756 34.7724C92.8062 34.7814 92.8241 34.7852 92.8279 34.7852C92.8508 34.7852 92.8853 34.7814 92.9299 34.7724C92.9745 34.7635 93.0204 34.7367 93.0651 34.6883C93.1097 34.6411 93.1492 34.5659 93.1836 34.4626C93.2168 34.3593 93.2346 34.2127 93.2346 34.0202C93.2346 33.9972 93.2321 33.9603 93.227 33.9093C93.2219 33.8583 93.2117 33.8034 93.1964 33.7422C93.1811 33.681 93.1607 33.6186 93.1314 33.5523C93.1033 33.4872 93.0651 33.4273 93.0166 33.3738C92.9682 33.3202 92.9095 33.2756 92.8394 33.2412C92.7705 33.2067 92.6864 33.1889 92.5895 33.1889C92.5079 33.1889 92.4327 33.2016 92.3638 33.2284C92.2949 33.2552 92.2325 33.31 92.1764 33.3942C92.119 33.4783 92.068 33.5994 92.0195 33.7575C91.9749 33.9169 91.9316 34.126 91.8908 34.3874ZM94.3464 34.7622H94.3974C94.618 34.7622 94.7889 34.7418 94.91 34.701C95.0311 34.6602 95.1191 34.608 95.1739 34.5468C95.2287 34.4843 95.2606 34.4167 95.2708 34.3428C95.2797 34.2688 95.2848 34.1987 95.2848 34.1311V30.8543H95.8777V34.1311C95.8777 34.2051 95.8841 34.279 95.8981 34.3542C95.9122 34.4295 95.9389 34.497 95.9797 34.5582C96.0205 34.6194 96.0779 34.6692 96.1519 34.7061C96.2258 34.7444 96.324 34.7635 96.4451 34.7635H96.4961V35.3602H96.4451C96.2832 35.3602 96.1302 35.3309 95.9861 35.2722C95.842 35.2136 95.7056 35.1192 95.5768 34.9879C95.3346 35.2365 94.9419 35.3602 94.3962 35.3602H94.3452V34.7622H94.3464ZM96.3635 35.3589V34.7622H97.4434C97.3657 34.6819 97.3032 34.6016 97.256 34.5187C97.2088 34.4371 97.1719 34.3581 97.1476 34.2816C97.1221 34.2063 97.1056 34.1349 97.0966 34.0686C97.0877 34.0023 97.0839 33.9437 97.0839 33.894C97.0839 33.7218 97.1183 33.5586 97.1884 33.4056C97.2573 33.2526 97.3516 33.1213 97.4677 33.0091C97.585 32.8982 97.7201 32.8089 97.8744 32.7439C98.0287 32.6789 98.1919 32.6457 98.3614 32.6457C98.4609 32.6457 98.5552 32.6572 98.6458 32.6789C98.7363 32.7005 98.8281 32.7324 98.9199 32.7732C99.013 32.814 99.1099 32.865 99.2119 32.925C99.3139 32.9849 99.4274 33.0512 99.551 33.1251L99.254 33.6364C99.18 33.5918 99.1048 33.5459 99.0283 33.4987C98.9518 33.4515 98.874 33.4082 98.7975 33.3712C98.721 33.333 98.6445 33.3024 98.5706 33.2781C98.4953 33.2539 98.4252 33.2424 98.3602 33.2424C98.2786 33.2424 98.197 33.2577 98.1154 33.2871C98.0338 33.3164 97.9611 33.3597 97.8948 33.4146C97.8285 33.4707 97.7749 33.5382 97.7341 33.6198C97.6933 33.7014 97.6729 33.792 97.6729 33.8927C97.6729 34.0062 97.6959 34.1069 97.7405 34.1936C97.7851 34.2816 97.8476 34.3568 97.9254 34.4205C98.0032 34.4843 98.0937 34.5378 98.1982 34.5812C98.3028 34.6245 98.4137 34.659 98.5323 34.6857C98.6509 34.7125 98.7733 34.7316 98.8982 34.7431C99.0232 34.7546 99.1469 34.761 99.2693 34.761H99.6671V35.3577H96.3635V35.3589Z" fill="#00BABE"/>
</svg>
