<svg width="136" height="37" viewBox="0 0 136 37" fill="none" xmlns="http://www.w3.org/2000/svg">
<path d="M124.251 21.1807V25.6671C124.251 29.4588 122.708 33.1851 120.049 36.2721H116.102C119.177 33.6312 121.461 29.9574 121.461 25.6671V21.1807C121.461 18.8722 119.58 16.9913 117.272 16.9913C114.969 16.9913 113.088 18.8722 113.088 21.1807V24.6528C113.088 27.2582 111.521 29.7983 109.182 30.9732L99.1357 36.0292V32.901L107.929 28.48C109.347 27.7682 110.296 26.2311 110.296 24.6514V21.1793C110.296 17.328 113.423 14.2012 117.269 14.2012C121.124 14.2012 124.251 17.328 124.251 21.1807Z" fill="#01BABD"/>
<path d="M118.667 21.181V25.1332C118.667 29.6735 115.979 33.6897 111.297 36.1531C111.22 36.1943 111.143 36.2298 111.059 36.2724H104.858C106.846 35.2637 108.71 34.3261 110.021 33.6741C113.736 31.715 115.878 28.5995 115.878 25.1346V21.1824C115.878 20.4167 116.508 19.7874 117.273 19.7874C118.045 19.7859 118.667 20.4139 118.667 21.181Z" fill="#01BABD"/>
<path d="M129.852 36.2707H123.556L125.14 34.0815C125.407 33.7136 125.822 33.482 126.274 33.4465C126.73 33.411 127.176 33.5715 127.501 33.8968L129.852 36.2707Z" fill="#01BABD"/>
<path d="M101.914 13.1217L116.727 2.95279C117.053 2.72833 117.492 2.72833 117.818 2.95279L132.618 13.0961V27.0453C132.618 27.3522 132.74 27.6477 132.954 27.8664L135.406 30.344V13.0975C135.406 12.1883 134.958 11.3374 134.209 10.8231L119.397 0.654202C118.127 -0.218067 116.42 -0.218067 115.15 0.654202L100.335 10.8231C99.5852 11.3374 99.1377 12.1883 99.1377 13.0975V29.7772L101.928 28.375L101.914 13.1217Z" fill="#01BABD"/>
<path d="M135.407 33.9567V36.2709H133.775L129.134 31.5828C127.786 30.2176 127.044 28.4134 127.044 26.497V16.6818C127.044 16.2727 126.842 15.8877 126.497 15.6561L119.945 11.1513C118.35 10.0602 116.208 10.0602 114.611 11.1513L108.053 15.6561C107.715 15.8877 107.513 16.2727 107.513 16.6818V24.1827C107.513 25.0309 107.032 25.8023 106.273 26.1887L104.725 26.9658V16.6818C104.725 15.3535 105.378 14.1062 106.475 13.3532L113.032 8.85552C115.573 7.11098 118.984 7.11098 121.524 8.85552L128.076 13.3532C129.174 14.1076 129.831 15.3535 129.831 16.6818V26.497C129.831 27.6718 130.287 28.7813 131.114 29.6181L135.407 33.9567Z" fill="#01BABD"/>
<path d="M90.0572 6.66113H85.6177V26.6372H90.0572V6.66113Z" fill="#636466"/>
<path d="M36.7793 13.3211H30.1206V14.0195V17.7594V22.1977H25.6823V21.4192V19.9785C25.6823 16.1936 22.5257 13.1471 18.7019 13.3274C15.121 13.4963 12.3649 16.5804 12.3649 20.1663V20.3916V21.2953V24.4168H12.3461C12.3461 25.6422 11.3523 26.636 10.127 26.636H6.65744C5.43209 26.636 4.4383 25.6422 4.4383 24.4168V21.8848V21.3916V19.9773C4.4383 18.7519 5.43209 17.7582 6.65744 17.7582H10.3548V13.3186H6.65744C2.98014 13.3186 0 16.2987 0 19.976V21.3904V21.8835V24.4156C0 28.0916 2.98014 31.073 6.65744 31.073H10.127C10.1332 31.073 10.1395 31.0718 10.1457 31.0718V31.073C13.823 31.073 16.8044 28.0916 16.8044 24.4143V21.2928V20.3891V20.0712C16.8044 18.9122 17.6518 17.8771 18.8058 17.7669C20.13 17.6405 21.244 18.6781 21.244 19.976V21.4167V24.4156C21.244 25.6409 22.2378 26.6347 23.4631 26.6347H25.6835H36.7805C40.4578 26.6347 43.4392 23.6533 43.4392 19.976C43.4367 16.3012 40.4566 13.3211 36.7793 13.3211ZM36.7793 22.1977H34.5601V17.7594H36.7793C38.0046 17.7594 38.9984 18.7532 38.9984 19.9785C38.9984 21.2052 38.0046 22.1977 36.7793 22.1977Z" fill="#636466"/>
<path d="M52.3186 13.321H45.6587V17.7606H52.3186C53.544 17.7606 54.5378 18.7544 54.5378 19.9797C54.5378 21.2063 53.544 22.2001 52.3186 22.2001H45.6587V26.6397H52.3186C55.9959 26.6397 58.9786 23.657 58.9786 19.9797C58.9786 16.3024 55.9959 13.321 52.3186 13.321Z" fill="#636466"/>
<path d="M90.0589 0H83.399V4.43955H77.6227L70.0791 13.3199V17.7594H76.739C77.9644 17.7594 78.9582 18.7532 78.9582 19.9786C78.9582 21.2052 77.9644 22.199 76.739 22.199H65.6383V4.43829H61.1987V26.6385H76.739C80.4163 26.6385 83.399 23.6571 83.399 19.9786C83.399 16.3013 80.4163 13.3186 76.739 13.3186H75.8541L83.3977 4.43829H90.0577C91.2843 4.43829 92.2781 5.43209 92.2781 6.65869H96.7176C96.7189 2.98264 93.7362 0 90.0589 0Z" fill="#636466"/>
<path d="M38.1898 35.3462C38.3963 35.3462 38.5753 35.3287 38.728 35.2924C38.8795 35.2561 39.0059 35.1985 39.1048 35.1209C39.2036 35.042 39.2775 34.9407 39.3251 34.8142C39.3726 34.6878 39.3964 34.5351 39.3964 34.3561C39.1986 34.3048 39.0034 34.2523 38.8144 34.2009C38.7343 34.1809 38.6492 34.1584 38.5603 34.1346C38.4714 34.1108 38.3826 34.087 38.295 34.0633C38.2073 34.0395 38.121 34.017 38.0384 33.9969C37.9545 33.9769 37.8782 33.9569 37.8081 33.9381C37.7167 33.7166 37.6716 33.4988 37.6716 33.2847C37.6716 33.2722 37.6729 33.2059 37.6766 33.087C37.6792 32.9668 37.7242 32.8091 37.8081 32.6126C37.8932 32.4161 38.0121 32.2409 38.1673 32.0844C38.3225 31.928 38.5015 31.8041 38.703 31.7114C38.9058 31.6188 39.126 31.5612 39.3664 31.5412C39.4139 31.5375 39.4627 31.535 39.5115 31.535C39.7055 31.535 39.9046 31.565 40.1098 31.6251L39.9646 32.1858C39.8245 32.142 39.6818 32.1207 39.5366 32.122C39.3914 32.1232 39.2525 32.1433 39.1198 32.1846C38.9871 32.2259 38.8632 32.2834 38.7493 32.3598C38.6354 32.4361 38.539 32.5275 38.4602 32.6339C38.3801 32.7403 38.3237 32.8592 38.2887 32.9919C38.2637 33.0782 38.2511 33.1683 38.2511 33.261C38.2511 33.3148 38.2549 33.3686 38.2637 33.4224L39.4502 33.7166C39.6154 33.7616 39.7393 33.8367 39.822 33.9394C39.9046 34.0432 39.9459 34.1684 39.9459 34.3173C39.9459 34.5877 39.9133 34.8255 39.8495 35.0283C39.7857 35.2323 39.683 35.4 39.5428 35.5352C39.4027 35.6691 39.2212 35.7705 38.9996 35.8393C38.7781 35.9069 38.509 35.942 38.1923 35.942H37.5077C37.3512 35.942 37.1985 35.9219 37.0521 35.8831C36.9056 35.8443 36.7667 35.7893 36.6365 35.7192C36.5064 35.6491 36.3862 35.564 36.2773 35.4651C36.1684 35.3662 36.0721 35.2561 35.9894 35.1372C35.8918 34.9807 35.8192 34.808 35.7692 34.6202C35.7191 34.4325 35.6953 34.2335 35.6953 34.0257C35.6953 33.7679 35.7366 33.4888 35.818 33.1909C35.8993 32.893 36.0182 32.5763 36.1759 32.2446C36.2686 32.2884 36.3562 32.3297 36.4363 32.3698C36.5164 32.4099 36.6015 32.4524 36.6904 32.495C36.4175 33.077 36.2811 33.5826 36.2811 34.0107C36.2811 34.1634 36.2999 34.3086 36.3374 34.4475C36.375 34.5864 36.4263 34.7104 36.4926 34.823C36.5977 34.9882 36.7404 35.1184 36.9207 35.2123C37.1009 35.3061 37.2962 35.3537 37.5089 35.3537H38.1898V35.3462ZM40.4791 35.947V35.3612H40.9071C41.1199 35.3612 41.3039 35.3362 41.4603 35.2849C41.6168 35.2348 41.7457 35.1559 41.8471 35.0508C41.9485 34.9457 42.0248 34.8117 42.0736 34.6478C42.1225 34.4851 42.1462 34.2898 42.1462 34.0658V32.132H42.732V34.0658C42.732 34.3611 42.6932 34.6252 42.6156 34.858C42.538 35.0909 42.4228 35.2874 42.2701 35.4488C42.1174 35.6103 41.9272 35.7329 41.6981 35.8193C41.4704 35.9044 41.2063 35.9482 40.9059 35.9482H40.4791V35.947ZM43.7884 35.3524C44.1 35.3524 44.3629 35.3287 44.5757 35.2811C44.7884 35.2335 44.9574 35.1597 45.0813 35.0608C45.189 34.9745 45.2678 34.8631 45.3179 34.7291C45.3679 34.5952 45.3942 34.4275 45.3942 34.2272H44.8235C44.6783 34.2272 44.5319 34.2059 44.3829 34.1621C44.234 34.1183 44.0988 34.047 43.9786 33.9481C43.8572 33.8492 43.7596 33.7191 43.6832 33.5589C43.6069 33.3986 43.5681 33.2034 43.5681 32.9718C43.5681 32.8354 43.5794 32.7115 43.6031 32.6014C43.6269 32.4912 43.657 32.3923 43.6933 32.306C43.7296 32.2196 43.7696 32.1433 43.8122 32.0794C43.856 32.0156 43.8973 31.9605 43.9398 31.9155C44.0537 31.8016 44.1839 31.7139 44.3303 31.6526C44.4768 31.59 44.6345 31.56 44.801 31.56C44.9474 31.56 45.0851 31.5825 45.2127 31.6276C45.3404 31.6726 45.4556 31.7415 45.5569 31.8316C45.8361 32.0919 45.975 32.5 45.975 33.0557V34.2272C45.975 34.5201 45.9324 34.7729 45.8461 34.9845C45.7597 35.196 45.627 35.3737 45.448 35.5164C45.2666 35.6591 45.04 35.7642 44.7709 35.8343C44.5018 35.9032 44.1739 35.9382 43.7871 35.9382V35.3524H43.7884ZM44.8022 32.1458C44.5982 32.1458 44.438 32.2184 44.3253 32.3623C44.2114 32.5075 44.1551 32.7102 44.1551 32.9731C44.1551 33.2397 44.2352 33.4249 44.3967 33.5276C44.4355 33.5526 44.4768 33.5726 44.5181 33.5876C44.5594 33.6027 44.5994 33.6139 44.6395 33.6214C44.6783 33.6289 44.7146 33.634 44.7459 33.6365C44.7784 33.639 44.8047 33.6415 44.8247 33.6415H45.3955V33.0557C45.3955 32.9055 45.3842 32.7778 45.3617 32.6727C45.3392 32.5688 45.3104 32.4824 45.2753 32.4136C45.2403 32.346 45.2002 32.2935 45.1564 32.2572C45.1114 32.2209 45.0676 32.1946 45.025 32.1783C44.9812 32.162 44.9399 32.152 44.9011 32.1483C44.8585 32.147 44.8272 32.1458 44.8022 32.1458ZM48.3318 34.2272C48.1153 34.2247 47.9363 34.2097 47.7936 34.1822C47.6522 34.1546 47.532 34.1146 47.4344 34.0608C47.3368 34.0082 47.2579 33.9419 47.1991 33.863C47.1403 33.7829 47.0939 33.6903 47.0614 33.5839C47.0289 33.4775 47.0063 33.3586 46.9963 33.2259C46.9863 33.0932 46.9813 32.9468 46.9813 32.7853V29.804H47.5671V32.7853C47.5671 32.9656 47.5733 33.1108 47.5846 33.2222C47.5958 33.3336 47.6259 33.4199 47.6747 33.4813C47.7235 33.5426 47.7961 33.5839 47.895 33.6052C47.9926 33.6264 48.1391 33.639 48.3331 33.6402V34.2272H48.3318ZM50.8413 33.6415V34.2272H50.5998C50.412 34.2272 50.2456 34.2009 50.1029 34.1471C49.9589 34.0933 49.8438 34.0132 49.7574 33.9056C49.5421 34.1208 49.2242 34.2272 48.8024 34.2272H48.2079V33.6415H48.8024C48.9514 33.6415 49.069 33.6264 49.1554 33.5964C49.2418 33.5664 49.3081 33.5288 49.3519 33.485C49.3957 33.4412 49.4257 33.3911 49.4383 33.3361C49.452 33.281 49.4583 33.2297 49.4583 33.1796V32.132H50.0403V33.1571C50.0403 33.2334 50.0516 33.2985 50.0741 33.3523C50.0966 33.4062 50.1267 33.4512 50.163 33.4875C50.1992 33.5238 50.2393 33.5526 50.2844 33.5726C50.3282 33.5939 50.372 33.6089 50.4133 33.6189C50.4546 33.6289 50.4921 33.6352 50.5247 33.6377C50.5572 33.6402 50.5823 33.6402 50.5985 33.6402H50.8413V33.6415ZM48.9977 30.7039L49.5246 30.1707L50.0641 30.7101L49.5309 31.2433L48.9977 30.7039ZM50.7099 34.2272V33.6415H52.0855C52.317 33.6415 52.5035 33.6252 52.6449 33.5914C52.7864 33.5589 52.8965 33.5175 52.9754 33.4675C53.0542 33.4174 53.1068 33.3636 53.1356 33.3048C53.1631 33.2459 53.1806 33.1896 53.1869 33.1358H52.7163C52.6625 33.1358 52.6024 33.1333 52.536 33.1295C52.4697 33.1258 52.4009 33.1183 52.3295 33.1058C52.2582 33.0945 52.1868 33.077 52.1142 33.0544C52.0417 33.0319 51.9716 33.0019 51.904 32.9643C51.8477 32.9318 51.7913 32.8905 51.7338 32.8404C51.6762 32.7903 51.6236 32.729 51.5773 32.6564C51.531 32.5826 51.4922 32.4962 51.4621 32.3961C51.4321 32.296 51.4171 32.1783 51.4171 32.0444C51.4171 31.8767 51.4459 31.719 51.5035 31.5688C51.561 31.4186 51.6436 31.2909 51.7513 31.1832C51.8589 31.0756 51.9816 30.9943 52.1205 30.9379C52.2594 30.8816 52.4071 30.8541 52.5636 30.8541C52.7438 30.8541 52.909 30.8929 53.0592 30.9692C53.2094 31.0456 53.3371 31.1557 53.441 31.2971C53.5524 31.4461 53.635 31.6301 53.6888 31.8491C53.7426 32.0682 53.7689 32.3197 53.7689 32.6026V33.0307C53.7689 33.2347 53.7276 33.4174 53.6462 33.5764C53.5649 33.7353 53.441 33.8642 53.2758 33.9631C53.0004 34.1384 52.6049 34.226 52.0855 34.226H50.7099V34.2272ZM52.9729 31.6401C52.874 31.5074 52.7376 31.4423 52.5636 31.4423C52.496 31.4423 52.4259 31.4549 52.3546 31.4774C52.2832 31.5012 52.2194 31.5375 52.1631 31.5863C52.1067 31.6351 52.0592 31.6977 52.0241 31.774C51.9878 31.8504 51.9703 31.9417 51.9703 32.0469C51.9703 32.1145 51.9778 32.172 51.9916 32.2184C52.0066 32.2647 52.0241 32.3035 52.0479 32.3335C52.0704 32.3635 52.0942 32.3873 52.1193 32.4061C52.1443 32.4249 52.1681 32.4399 52.1906 32.4524C52.2507 32.4875 52.3233 32.5125 52.4109 32.5288C52.4972 32.5438 52.5999 32.5525 52.7175 32.5525H53.1944C53.1907 32.3485 53.1694 32.1695 53.1306 32.0168C53.0905 31.8616 53.038 31.7377 52.9729 31.6401ZM52.0892 29.6162L52.6162 29.083L53.1556 29.6225L52.6224 30.1557L52.0892 29.6162ZM57.1784 33.2985C57.4412 33.3361 57.5826 33.4913 57.6027 33.7666C57.6027 33.8617 57.5626 33.9556 57.4813 34.0482C57.3761 34.1659 57.2397 34.2247 57.072 34.2247C56.8817 34.2247 56.7328 34.1534 56.6251 34.0107C56.5263 33.8805 56.4762 33.7178 56.4762 33.5213C56.4762 33.0357 56.7215 32.6189 57.2134 32.2697C57.2547 32.2985 57.2985 32.3323 57.3448 32.3685C57.3911 32.4061 57.4412 32.4461 57.495 32.49C57.1045 32.7728 56.9093 33.0632 56.9093 33.3611C56.9656 33.3185 57.0544 33.2985 57.1784 33.2985ZM63.205 33.654C63.2813 33.654 63.3527 33.6402 63.419 33.6139C63.4853 33.5876 63.5417 33.5501 63.5892 33.5025C63.6781 33.4074 63.7219 33.2785 63.7219 33.1158V33.082C63.7194 33.0532 63.7169 33.0181 63.7131 32.9768C63.7094 32.9355 63.7044 32.888 63.6981 32.8342C63.6919 32.7828 63.6856 32.729 63.6781 32.6739C63.6706 32.6189 63.6618 32.5613 63.6518 32.4987C63.6418 32.4361 63.6305 32.3698 63.618 32.2972C63.6055 32.2246 63.5917 32.1433 63.5742 32.0519L64.1412 31.9555C64.16 32.0444 64.1763 32.127 64.1913 32.2021C64.2063 32.2772 64.2176 32.3473 64.2288 32.4111C64.2488 32.5413 64.2664 32.6639 64.2801 32.7778C64.2939 32.893 64.3027 32.9844 64.3064 33.0519V33.1145C64.3064 33.1971 64.2989 33.2785 64.2851 33.3573C64.2701 33.4374 64.2488 33.5125 64.2201 33.5839C64.1913 33.6552 64.1587 33.7166 64.1224 33.7704C64.0861 33.8229 64.0498 33.868 64.0123 33.9056C63.9109 34.0132 63.7907 34.0958 63.6493 34.1534C63.5091 34.211 63.3614 34.2397 63.2062 34.2397H59.3199C59.1747 34.2372 59.0383 34.2122 58.9081 34.1634C58.778 34.1146 58.6628 34.0445 58.5639 33.9506C58.5226 33.9131 58.4813 33.868 58.44 33.8142C58.3987 33.7604 58.3612 33.6978 58.3274 33.6252C58.2936 33.5526 58.266 33.47 58.2448 33.3774C58.2235 33.2847 58.2135 33.1796 58.2135 33.0645C58.2135 32.9606 58.2235 32.8479 58.2448 32.724C58.2648 32.6001 58.2886 32.4824 58.3148 32.3723C58.3411 32.2622 58.3649 32.1658 58.3887 32.0844C58.4125 32.0031 58.4275 31.953 58.4337 31.9342L58.992 32.1107C58.9795 32.1545 58.9619 32.2158 58.9407 32.2947C58.9194 32.3748 58.8969 32.4599 58.8756 32.55C58.8543 32.6414 58.8355 32.7328 58.8193 32.8241C58.8042 32.9155 58.7955 32.9956 58.7955 33.0645C58.7955 33.2009 58.8167 33.3085 58.8606 33.3861C58.9044 33.465 58.9557 33.5238 59.0145 33.5626C59.0733 33.6014 59.1322 33.6264 59.191 33.6365C59.2498 33.6465 59.2949 33.6515 59.3262 33.6515H63.205V33.654ZM60.6704 31.8479L60.181 31.3522L60.6642 30.8503L61.1661 31.3522L60.6704 31.8479ZM61.857 31.8541L61.3676 31.3585L61.8507 30.8566L62.3526 31.3585L61.857 31.8541ZM63.8709 35.947V35.3612H64.2989C64.5117 35.3612 64.6957 35.3362 64.8521 35.2849C65.0086 35.2348 65.1375 35.1559 65.2389 35.0508C65.3403 34.9457 65.4166 34.8117 65.4654 34.6478C65.5142 34.4851 65.538 34.2898 65.538 34.0658V32.132H66.1238V34.0658C66.1238 34.3611 66.085 34.6252 66.0074 34.858C65.9298 35.0909 65.8146 35.2874 65.6619 35.4488C65.5092 35.6103 65.319 35.7329 65.0899 35.8193C64.8621 35.9044 64.598 35.9482 64.2977 35.9482H63.8709V35.947ZM68.398 34.2272C68.1815 34.2247 68.0025 34.2097 67.8598 34.1822C67.7184 34.1546 67.5982 34.1146 67.5006 34.0608C67.403 34.0082 67.3241 33.9419 67.2653 33.863C67.2065 33.7829 67.1601 33.6903 67.1276 33.5839C67.0951 33.4775 67.0725 33.3586 67.0625 33.2259C67.0525 33.0932 67.0475 32.9468 67.0475 32.7853V29.804H67.6333V32.7853C67.6333 32.9656 67.6395 33.1108 67.6508 33.2222C67.662 33.3336 67.6921 33.4199 67.7409 33.4813C67.7897 33.5426 67.8623 33.5839 67.9612 33.6052C68.0588 33.6264 68.2053 33.639 68.3993 33.6402V34.2272H68.398ZM70.2579 31.5838C70.4357 31.5838 70.5946 31.6088 70.7361 31.6601C70.8775 31.7102 70.9977 31.784 71.0953 31.8817C71.1929 31.9793 71.268 32.0969 71.3206 32.2359C71.3719 32.3748 71.3982 32.5325 71.3982 32.709C71.3982 32.8141 71.3819 32.9268 71.3481 33.0457C71.3156 33.1646 71.253 33.2822 71.1616 33.3974C71.0703 33.5125 70.9451 33.6227 70.7836 33.7278C70.6222 33.8317 70.4144 33.9231 70.1578 33.9994C69.9763 34.0595 69.7911 34.1033 69.6033 34.1296C69.6296 34.2635 69.6797 34.3924 69.751 34.5151C69.8224 34.6378 69.9087 34.7517 70.0101 34.8555C70.1115 34.9594 70.2229 35.0521 70.3468 35.1334C70.4695 35.2135 70.5971 35.2786 70.7298 35.3287C70.6797 35.2723 70.6422 35.2073 70.6172 35.1309C70.5909 35.0546 70.5746 34.9745 70.5658 34.8893C70.5621 34.8518 70.5596 34.8155 70.5596 34.7779C70.5596 34.7329 70.5633 34.6766 70.5721 34.6102C70.5809 34.5439 70.5971 34.4776 70.6222 34.4087C70.6672 34.2936 70.7273 34.1884 70.8024 34.0946C70.8763 34.0007 70.9626 33.9206 71.059 33.853C71.1566 33.7854 71.2617 33.7341 71.3769 33.6978C71.4921 33.6615 71.611 33.644 71.7349 33.644H72.3056V34.2297H71.7349C71.6047 34.2297 71.4895 34.2648 71.3907 34.3336C71.2918 34.4025 71.2192 34.4963 71.1741 34.614C71.1453 34.6866 71.1303 34.7604 71.1303 34.8368C71.1303 34.9044 71.1491 34.9932 71.1866 35.1021C71.2242 35.211 71.3118 35.3262 71.4495 35.4476L71.258 35.962C71.0577 35.962 70.8662 35.9382 70.6847 35.8919C70.5033 35.8456 70.333 35.7818 70.1766 35.7004C70.0201 35.619 69.8762 35.5227 69.7473 35.4113C69.6184 35.2999 69.5045 35.1785 69.4043 35.0483C69.3054 34.9181 69.2241 34.7817 69.159 34.6378C69.0952 34.4938 69.0501 34.3486 69.0263 34.2022C68.8937 34.2122 68.7672 34.2197 68.6471 34.2235C68.5257 34.2272 68.403 34.2297 68.2766 34.2297V33.644C68.3842 33.644 68.4981 33.6415 68.6196 33.6377C68.741 33.634 68.8686 33.6264 69.0051 33.6164C69.0151 33.3523 69.0363 33.122 69.0676 32.9255C69.0989 32.729 69.1415 32.5538 69.1978 32.3986C69.2604 32.2309 69.333 32.0944 69.4181 31.9893C69.5032 31.8842 69.5933 31.8016 69.6897 31.7415C69.7861 31.6814 69.8837 31.6413 69.9826 31.6188C70.0777 31.595 70.1703 31.5838 70.2579 31.5838ZM69.5946 33.5363C69.6622 33.5263 69.7297 33.5125 69.7973 33.4963C69.8649 33.48 69.93 33.4625 69.9938 33.4437C70.1979 33.3811 70.3568 33.3135 70.4682 33.2409C70.5796 33.1671 70.661 33.097 70.7135 33.0282C70.7649 32.9606 70.7949 32.898 70.8036 32.8404C70.8124 32.7841 70.8162 32.7403 70.8162 32.709C70.8162 32.5187 70.7724 32.3811 70.6835 32.2947C70.5946 32.2096 70.4532 32.1658 70.2592 32.1658C70.1853 32.1658 70.1115 32.1808 70.0376 32.2121C69.9638 32.2434 69.8975 32.3072 69.8374 32.4036C69.7773 32.5012 69.726 32.6389 69.6822 32.8191C69.6371 33.0006 69.6083 33.2384 69.5946 33.5363ZM74.1918 31.6401C74.3946 31.6401 74.5698 31.6789 74.72 31.7565C74.8702 31.8341 74.9941 31.938 75.093 32.0682C75.1919 32.1983 75.2657 32.3485 75.3145 32.5175C75.3634 32.6865 75.3871 32.8629 75.3871 33.0444C75.3871 33.2447 75.3696 33.4174 75.3358 33.5614C75.302 33.7065 75.257 33.828 75.2006 33.9256C75.1443 34.0232 75.0817 34.1033 75.0129 34.1621C74.9441 34.2222 74.874 34.2673 74.8026 34.2986C74.7313 34.3299 74.6624 34.3499 74.5961 34.3612C74.5298 34.3712 74.4734 34.3762 74.4259 34.3762C74.3245 34.3762 74.2281 34.3662 74.1343 34.3449C74.0416 34.3236 73.9465 34.2948 73.8489 34.256C73.7512 34.2172 73.6499 34.1709 73.5435 34.1146C73.4371 34.0583 73.3194 33.9957 73.1918 33.9256C73.0228 34.1258 72.805 34.226 72.5384 34.226H72.1817V33.6402H72.5384C72.6173 33.6402 72.6811 33.6114 72.7324 33.5538C72.7825 33.4963 72.8275 33.4212 72.8638 33.3273C72.9014 33.2347 72.9352 33.1283 72.9665 33.0081C72.9978 32.888 73.0328 32.7653 73.0729 32.6389C73.1129 32.5125 73.1617 32.3898 73.2168 32.2697C73.2731 32.1495 73.3432 32.0431 73.4296 31.9505C73.5147 31.8579 73.6198 31.7828 73.7425 31.724C73.8664 31.6689 74.0166 31.6401 74.1918 31.6401ZM74.4271 33.7904C74.4422 33.7904 74.4622 33.7892 74.4872 33.7879C74.5135 33.7854 74.541 33.7779 74.5711 33.7629C74.6011 33.7479 74.6311 33.7266 74.6612 33.6965C74.6912 33.6665 74.7175 33.6239 74.7413 33.5689C74.7651 33.5138 74.7851 33.4437 74.8001 33.3586C74.8151 33.2735 74.8239 33.1683 74.8239 33.0444C74.8239 33.0219 74.8214 32.9856 74.8176 32.9355C74.8139 32.8855 74.8039 32.8304 74.7901 32.7703C74.7751 32.709 74.7551 32.6464 74.7263 32.5826C74.6987 32.5187 74.6612 32.4599 74.6136 32.4061C74.5661 32.3523 74.5085 32.3085 74.4397 32.2747C74.3721 32.2409 74.2882 32.2234 74.1918 32.2234C74.1005 32.2234 74.0241 32.2396 73.9615 32.2709C73.8989 32.3035 73.8451 32.3473 73.8013 32.4023C73.7575 32.4587 73.7212 32.5237 73.6924 32.5988C73.6636 32.6739 73.6361 32.7553 73.6123 32.8442C73.5873 32.9318 73.5623 33.0244 73.5385 33.1195C73.5134 33.2159 73.4847 33.311 73.4521 33.4062C73.5597 33.46 73.6586 33.51 73.75 33.5576C73.8414 33.6052 73.9252 33.6465 74.0041 33.6803C74.0829 33.7141 74.1568 33.7416 74.2256 33.7604C74.2932 33.7804 74.3608 33.7904 74.4271 33.7904ZM78.9906 33.2985C79.2534 33.3361 79.3949 33.4913 79.4149 33.7666C79.4149 33.8617 79.3748 33.9556 79.2935 34.0482C79.1883 34.1659 79.0519 34.2247 78.8842 34.2247C78.694 34.2247 78.545 34.1534 78.4374 34.0107C78.3385 33.8805 78.2884 33.7178 78.2884 33.5213C78.2884 33.0357 78.5337 32.6189 79.0256 32.2697C79.0669 32.2985 79.1108 32.3323 79.1571 32.3685C79.2034 32.4061 79.2534 32.4461 79.3073 32.49C78.9167 32.7728 78.7215 33.0632 78.7215 33.3611C78.7778 33.3185 78.8667 33.2985 78.9906 33.2985ZM84.3726 34.2272C84.1974 34.2272 84.0422 34.2009 83.9095 34.1496C83.7768 34.0983 83.6554 34.022 83.549 33.9231C83.4927 33.9932 83.4339 34.0495 83.3726 34.092C83.31 34.1346 83.2487 34.1671 83.1861 34.1909C83.1235 34.2147 83.0647 34.2297 83.0083 34.2372C82.952 34.2447 82.9019 34.2485 82.8606 34.2485C82.8256 34.2485 82.7805 34.2435 82.7242 34.2335C82.6679 34.2235 82.5928 34.2009 82.4977 34.1684C82.4025 34.1359 82.2824 34.0883 82.1384 34.0257C81.9933 33.9631 81.8155 33.8805 81.6028 33.7741C81.4601 33.704 81.3261 33.6365 81.201 33.5714C81.0758 33.5063 80.9744 33.4525 80.8956 33.4087V36.2724H80.3136V33.062L80.8781 32.734C80.9381 32.7666 80.9995 32.8016 81.0646 32.8367C81.1184 32.8654 81.1772 32.898 81.2398 32.933C81.3024 32.9681 81.3637 33.0006 81.4238 33.0294C81.4551 32.8429 81.4901 32.6752 81.5302 32.5263C81.5702 32.3761 81.6203 32.2421 81.6804 32.122C81.8806 31.7189 82.1973 31.5174 82.6291 31.5174C82.8206 31.5174 82.9908 31.5562 83.1385 31.6338C83.2862 31.7114 83.4101 31.8141 83.5102 31.9417C83.6104 32.0694 83.6867 32.2184 83.738 32.3886C83.7894 32.5575 83.8156 32.734 83.8156 32.9155C83.8156 32.9506 83.8156 32.9844 83.8144 33.0156C83.8131 33.0482 83.8119 33.0782 83.8094 33.107C83.8094 33.2209 83.8332 33.3123 83.8795 33.3824C83.9258 33.4525 83.9796 33.5063 84.0422 33.5451C84.1048 33.5839 84.1661 33.6089 84.2299 33.6227C84.2925 33.6365 84.3413 33.6427 84.3739 33.6427H84.4765V34.2285H84.3726V34.2272ZM81.9394 33.2735C82.1147 33.3598 82.2611 33.4287 82.3775 33.48C82.4939 33.5301 82.5878 33.5701 82.6579 33.5977C82.728 33.6252 82.778 33.644 82.8081 33.6515C82.8381 33.6602 82.8556 33.664 82.8594 33.664C82.8819 33.664 82.9157 33.6602 82.9595 33.6515C83.0033 33.6427 83.0484 33.6164 83.0922 33.5689C83.136 33.5226 83.1748 33.4487 83.2086 33.3473C83.2411 33.2459 83.2587 33.102 83.2587 32.913C83.2587 32.8905 83.2562 32.8542 83.2512 32.8041C83.2461 32.7541 83.2361 32.7002 83.2211 32.6402C83.2061 32.5801 83.1861 32.5187 83.1573 32.4537C83.1297 32.3898 83.0922 32.331 83.0446 32.2784C82.9971 32.2259 82.9395 32.1821 82.8707 32.1483C82.8031 32.1145 82.7205 32.0969 82.6253 32.0969C82.5452 32.0969 82.4714 32.1095 82.4038 32.1357C82.3362 32.162 82.2749 32.2158 82.2198 32.2985C82.1635 32.3811 82.1134 32.5 82.0659 32.6552C82.0221 32.8116 81.9795 33.0169 81.9394 33.2735ZM84.3501 33.6415H84.4002C84.6167 33.6415 84.7844 33.6214 84.9033 33.5814C85.0222 33.5413 85.1086 33.49 85.1624 33.4299C85.2162 33.3686 85.2475 33.3023 85.2575 33.2297C85.2663 33.1571 85.2713 33.0882 85.2713 33.0219V29.8052H85.8533V33.0219C85.8533 33.0945 85.8596 33.1671 85.8733 33.2409C85.8871 33.3148 85.9134 33.3811 85.9534 33.4412C85.9935 33.5013 86.0498 33.5501 86.1224 33.5864C86.195 33.6239 86.2914 33.6427 86.4103 33.6427H86.4603V34.2285H86.4103C86.2513 34.2285 86.1011 34.1997 85.9597 34.1421C85.8183 34.0845 85.6843 33.9919 85.5579 33.863C85.3201 34.1071 84.9346 34.2285 84.3989 34.2285H84.3488V33.6415H84.3501ZM86.3302 34.2272V33.6415H87.3903C87.314 33.5626 87.2526 33.4838 87.2063 33.4024C87.16 33.3223 87.1237 33.2447 87.0999 33.1696C87.0749 33.0957 87.0586 33.0257 87.0499 32.9606C87.0411 32.8955 87.0373 32.8379 87.0373 32.7891C87.0373 32.6201 87.0711 32.4599 87.14 32.3097C87.2076 32.1595 87.3002 32.0306 87.4141 31.9205C87.5292 31.8116 87.6619 31.724 87.8134 31.6601C87.9648 31.5963 88.125 31.5637 88.2915 31.5637C88.3891 31.5637 88.4817 31.575 88.5706 31.5963C88.6595 31.6176 88.7496 31.6489 88.8397 31.6889C88.9311 31.729 89.0262 31.779 89.1263 31.8379C89.2265 31.8967 89.3379 31.9618 89.4593 32.0344L89.1676 32.5363C89.095 32.4925 89.0212 32.4474 88.9461 32.4011C88.871 32.3548 88.7946 32.3122 88.7195 32.2759C88.6444 32.2384 88.5694 32.2083 88.4968 32.1846C88.4229 32.1608 88.3541 32.1495 88.2902 32.1495C88.2101 32.1495 88.13 32.1645 88.0499 32.1933C87.9698 32.2221 87.8985 32.2647 87.8334 32.3185C87.7683 32.3736 87.7157 32.4399 87.6757 32.52C87.6356 32.6001 87.6156 32.689 87.6156 32.7878C87.6156 32.8992 87.6381 32.9981 87.6819 33.0832C87.7257 33.1696 87.7871 33.2434 87.8634 33.306C87.9398 33.3686 88.0286 33.4212 88.1313 33.4637C88.2339 33.5063 88.3428 33.5401 88.4592 33.5664C88.5756 33.5926 88.6958 33.6114 88.8184 33.6227C88.9411 33.6339 89.0625 33.6402 89.1826 33.6402H89.5732V34.226H86.3302V34.2272Z" fill="#01BABD"/>
</svg>
