<svg width="156" height="38" viewBox="0 0 156 38" fill="none" xmlns="http://www.w3.org/2000/svg">
<path d="M137.306 22.1925V26.7635C137.306 30.6265 135.735 34.4217 133.025 37.5655H129.006C132.138 34.8763 134.466 31.1354 134.466 26.7635V22.1925C134.466 19.8403 132.548 17.9246 130.198 17.9246C127.852 17.9246 125.937 19.8403 125.937 22.1925V25.7276C125.937 28.3806 124.34 30.968 121.961 32.1667L111.726 37.3167V34.1322L120.685 29.6291C122.13 28.9031 123.098 27.3379 123.098 25.7299V22.1948C123.098 18.2707 126.283 15.0862 130.2 15.0862C134.12 15.0817 137.306 18.2684 137.306 22.1925Z" fill="#034EA2"/>
<path d="M131.618 22.1926V26.2185C131.618 30.8437 128.879 34.9351 124.109 37.4434C124.03 37.4864 123.953 37.5225 123.867 37.5633H117.55C119.575 36.5364 121.474 35.582 122.809 34.917C126.593 32.9222 128.775 29.749 128.775 26.2185V22.1926C128.775 21.4123 129.415 20.7722 130.196 20.7722C130.983 20.77 131.618 21.4123 131.618 22.1926Z" fill="#034EA2"/>
<path d="M143.013 37.5633H136.599L138.211 35.3332C138.483 34.9578 138.906 34.7225 139.367 34.6864C139.833 34.6502 140.285 34.813 140.618 35.1455L143.013 37.5633Z" fill="#034EA2"/>
<path d="M114.551 13.9824L129.642 3.62374C129.974 3.3953 130.422 3.3953 130.754 3.62374L145.831 13.9553V28.168C145.831 28.4823 145.955 28.7809 146.175 29.0048L148.672 31.5289V13.9576C148.672 13.0302 148.215 12.164 147.45 11.6415L132.36 1.28285C131.066 0.393997 129.327 0.393997 128.033 1.28285L112.943 11.6415C112.179 12.1663 111.722 13.0325 111.722 13.9576V30.9499L114.563 29.5205L114.551 13.9824Z" fill="#034EA2"/>
<path d="M148.672 35.2064V37.5631H147.009L142.282 32.7886C140.909 31.3977 140.154 29.5611 140.154 27.607V17.6079C140.154 17.1918 139.948 16.7982 139.597 16.563L132.923 11.974C131.297 10.8612 129.114 10.8612 127.488 11.974L120.809 16.563C120.466 16.7982 120.26 17.1918 120.26 17.6079V25.248C120.26 26.112 119.769 26.8991 118.995 27.2904L117.417 28.082V17.6057C117.417 16.2509 118.082 14.9821 119.201 14.2153L125.88 9.63309C128.468 7.85538 131.944 7.85538 134.531 9.63309L141.206 14.2153C142.323 14.9843 142.995 16.2532 142.995 17.6057V27.6047C142.995 28.8012 143.461 29.9321 144.3 30.7847L148.672 35.2064Z" fill="#034EA2"/>
<path d="M25.8256 35.4323C25.9063 35.5892 25.9489 35.7371 25.9578 35.8761L25.9601 35.9165C25.9601 36.0398 25.9354 36.1563 25.8861 36.2684C25.8368 36.3782 25.7583 36.4813 25.6552 36.5733C25.5499 36.6674 25.4266 36.7459 25.2831 36.8086C25.1397 36.8714 24.9805 36.9229 24.8057 36.9566C24.6308 36.9924 24.4448 37.0104 24.252 37.0104H23.4383C23.1379 37.0104 22.8667 36.9454 22.6269 36.8131C22.387 36.6808 22.1898 36.4993 22.0373 36.2684C21.9342 36.1048 21.8603 35.9232 21.8177 35.7237C21.784 35.569 21.7661 35.4076 21.7661 35.2373C21.7661 35.188 21.7706 35.0938 21.7773 34.9548C21.784 34.8159 21.8244 34.6231 21.8961 34.3743C21.9679 34.1255 22.0687 33.8677 22.1965 33.6009L22.6762 33.8363C22.4632 34.2869 22.3422 34.6926 22.3131 35.0557C22.3086 35.1162 22.3063 35.1768 22.3063 35.2328C22.3063 35.522 22.3691 35.7708 22.4969 35.9792C22.5932 36.1384 22.7233 36.2572 22.8869 36.3424C23.0505 36.4253 23.2321 36.4679 23.4338 36.4679H24.2475C24.3551 36.4679 24.4582 36.4589 24.5613 36.4432C24.6644 36.4275 24.7608 36.4051 24.8505 36.376C24.9402 36.3469 25.0209 36.3132 25.0926 36.2751C25.1643 36.237 25.2248 36.1922 25.2742 36.1451C25.3235 36.098 25.3571 36.0465 25.375 35.9904C25.3862 35.9613 25.393 35.9344 25.393 35.9053C25.393 35.8784 25.3885 35.8515 25.3795 35.8246C25.3571 35.7506 25.3033 35.6878 25.2204 35.6385C25.1374 35.587 25.0365 35.5489 24.9177 35.5175C24.7989 35.4883 24.6712 35.4659 24.5344 35.4547C24.3977 35.4413 24.2655 35.4368 24.1377 35.4368L24.1579 34.8966H26.6213V35.4368H25.8256V35.4323ZM28.5132 34.8921V35.4323H28.2913C28.1187 35.4323 27.964 35.4076 27.8318 35.3583C27.6995 35.309 27.5942 35.235 27.5135 35.1364C27.3162 35.3337 27.0226 35.4345 26.6325 35.4345H26.0834V34.8943H26.6325C26.7693 34.8943 26.8791 34.8809 26.9576 34.854C27.0383 34.8271 27.0988 34.7912 27.1391 34.7509C27.1795 34.7105 27.2064 34.6634 27.2198 34.6141C27.2333 34.5626 27.2378 34.5155 27.2378 34.4707V33.5046H27.7757V34.4505C27.7757 34.52 27.7869 34.5805 27.8071 34.6298C27.8273 34.6791 27.8542 34.7217 27.8878 34.7531C27.9214 34.7867 27.9573 34.8136 27.9999 34.8316C28.0402 34.8517 28.0806 34.8652 28.1187 34.8741C28.1568 34.8831 28.1904 34.8898 28.2218 34.8921C28.2532 34.8943 28.2756 34.8943 28.2913 34.8943H28.5132V34.8921ZM26.8119 32.1843L27.2983 31.6934L27.7959 32.191L27.305 32.6819L26.8119 32.1843ZM31.5169 34.8921V35.4323H31.017C30.8444 35.4323 30.6898 35.4076 30.5575 35.3583C30.4252 35.309 30.3199 35.235 30.2392 35.1364C30.0419 35.3337 29.7483 35.4345 29.3583 35.4345H28.3877V34.8943H29.3583C29.495 34.8943 29.6048 34.8809 29.6833 34.854C29.764 34.8271 29.8245 34.7912 29.8649 34.7509C29.9052 34.7105 29.9321 34.6634 29.9456 34.6141C29.959 34.5626 29.9635 34.5155 29.9635 34.4707V33.5046H30.5015V34.4505C30.5015 34.52 30.5127 34.5805 30.5351 34.6298C30.5575 34.6791 30.5844 34.7217 30.6158 34.7531C30.6472 34.7867 30.6853 34.8136 30.7256 34.8316C30.766 34.8517 30.8063 34.8652 30.8444 34.8741C30.8825 34.8831 30.9162 34.8898 30.9475 34.8921C30.9789 34.8943 31.0013 34.8943 31.017 34.8943H31.5169V34.8921ZM29.4972 32.7985L29.0467 32.3412L29.4928 31.8794L29.9545 32.3412L29.4972 32.7985ZM30.5911 32.8052L30.1406 32.3479L30.5866 31.8862L31.0484 32.3479L30.5911 32.8052ZM32.9336 33.1078C32.938 33.119 32.9448 33.1504 32.956 33.1997C32.9672 33.249 32.9806 33.3118 32.9941 33.3835C33.0075 33.4575 33.0232 33.5382 33.0411 33.6256C33.0591 33.7153 33.0725 33.8027 33.086 33.8946C33.0994 33.9843 33.1106 34.0717 33.1196 34.1569C33.1286 34.2398 33.1331 34.3138 33.1331 34.3765C33.1331 34.5603 33.1039 34.7172 33.0434 34.8495C32.9829 34.9817 32.9044 35.0916 32.808 35.179C32.7116 35.2664 32.604 35.3292 32.483 35.3718C32.362 35.4144 32.2409 35.4345 32.1199 35.4345H31.3914V34.8943H32.1199C32.149 34.8943 32.1894 34.8898 32.2409 34.8809C32.2925 34.8719 32.3463 34.8517 32.3978 34.8159C32.4494 34.7822 32.4964 34.7307 32.5346 34.6612C32.5727 34.5917 32.5928 34.4976 32.5928 34.3765C32.5928 34.3339 32.5884 34.2824 32.5839 34.2174C32.5771 34.1546 32.5682 34.0851 32.5592 34.0112C32.548 33.9372 32.5368 33.8632 32.5233 33.7848C32.5099 33.7085 32.4964 33.6346 32.483 33.5651C32.4696 33.4956 32.4583 33.4351 32.4449 33.3813C32.4337 33.3275 32.4247 33.2871 32.4158 33.2602L32.9336 33.1078ZM31.945 36.4701L32.4314 35.9792L32.9291 36.4769L32.4382 36.9678L31.945 36.4701ZM36.9616 36.4634C37.1522 36.4634 37.318 36.4477 37.457 36.4141C37.596 36.3805 37.7126 36.3289 37.8045 36.2549C37.8964 36.1832 37.9636 36.0891 38.0062 35.9725C38.051 35.856 38.0712 35.7147 38.0712 35.5489C37.8874 35.5018 37.7103 35.4525 37.5332 35.4054C37.4593 35.3875 37.3808 35.3651 37.2979 35.3449C37.2149 35.3225 37.1342 35.3 37.0535 35.2799C36.9728 35.2575 36.8944 35.2373 36.8159 35.2194C36.7397 35.2014 36.668 35.1812 36.603 35.1656C36.52 34.9616 36.4775 34.7598 36.4775 34.5626C36.4775 34.5514 36.4797 34.4908 36.4819 34.3788C36.4842 34.2689 36.5245 34.1232 36.603 33.9417C36.6814 33.7601 36.7913 33.5987 36.9347 33.4552C37.0782 33.3118 37.2418 33.1975 37.4301 33.11C37.6184 33.0226 37.8201 32.9711 38.0421 32.9531C38.0869 32.9487 38.1317 32.9464 38.1766 32.9464C38.3559 32.9464 38.5397 32.9733 38.728 33.0293L38.5935 33.5471C38.4635 33.5068 38.3335 33.4866 38.199 33.4889C38.0667 33.4889 37.9367 33.509 37.8157 33.5449C37.6924 33.583 37.5781 33.6368 37.4749 33.7063C37.3696 33.7758 37.2822 33.861 37.2082 33.9596C37.1342 34.0582 37.0827 34.1681 37.0491 34.2891C37.0266 34.3698 37.0154 34.4527 37.0154 34.5379C37.0154 34.5872 37.0199 34.6365 37.0266 34.6859L38.1205 34.9571C38.2729 34.9997 38.3873 35.0669 38.4635 35.1633C38.5397 35.2597 38.5778 35.374 38.5778 35.513C38.5778 35.7618 38.5487 35.9815 38.4881 36.1698C38.4299 36.3581 38.3357 36.5127 38.2057 36.636C38.0757 36.7593 37.9098 36.8534 37.7036 36.9162C37.4996 36.979 37.2508 37.0104 36.9594 37.0104H36.3273C36.1816 37.0104 36.0426 36.9924 35.9081 36.9566C35.7736 36.9207 35.6458 36.8691 35.5248 36.8041C35.4037 36.7391 35.2939 36.6607 35.193 36.5688C35.0922 36.4769 35.0025 36.376 34.9263 36.2662C34.8366 36.1205 34.7694 35.9613 34.7246 35.7887C34.6797 35.6161 34.6551 35.4323 34.6551 35.2395C34.6551 35.0019 34.6932 34.7441 34.7671 34.4684C34.8434 34.1927 34.9532 33.9013 35.0967 33.5965C35.1818 33.6368 35.2625 33.6749 35.3365 33.713C35.4105 33.7511 35.4889 33.7892 35.5719 33.8296C35.3208 34.3676 35.1953 34.8316 35.1953 35.2261C35.1953 35.3673 35.2132 35.5018 35.2468 35.6296C35.2805 35.7573 35.3298 35.8716 35.3903 35.9748C35.4867 36.1272 35.6189 36.246 35.7848 36.3334C35.9507 36.4208 36.1323 36.4634 36.3273 36.4634H36.9616ZM40.6378 35.4323C40.4383 35.4301 40.2724 35.4166 40.1424 35.392C40.0124 35.3673 39.9003 35.3292 39.8107 35.2799C39.721 35.2306 39.647 35.17 39.5932 35.0961C39.5394 35.0221 39.4968 34.9369 39.4655 34.8383C39.4341 34.7397 39.4139 34.6298 39.4049 34.5088C39.396 34.3877 39.3915 34.251 39.3915 34.1031V31.3549H39.9317V34.1031C39.9317 34.2689 39.9362 34.4034 39.9474 34.5065C39.9586 34.6096 39.9855 34.6881 40.0303 34.7441C40.0752 34.8002 40.1424 34.8383 40.2321 34.8585C40.3217 34.8786 40.4562 34.8898 40.6355 34.8921V35.4323H40.6378ZM43.1057 32.4264C43.3142 32.646 43.5092 32.85 43.6863 33.0406C43.7625 33.1235 43.8387 33.2042 43.9149 33.2871C43.9912 33.3701 44.0629 33.4485 44.1279 33.5247C44.1929 33.6009 44.2512 33.6682 44.3027 33.731C44.3543 33.7937 44.3902 33.843 44.4148 33.8811C44.4664 33.9641 44.509 34.047 44.5426 34.1232C44.5762 34.2017 44.5986 34.2801 44.6121 34.3608C44.6188 34.4079 44.6233 34.4572 44.6233 34.5065C44.6233 34.5379 44.621 34.585 44.6143 34.6433C44.6076 34.7015 44.5919 34.78 44.5628 34.8786C44.5314 34.9885 44.4843 35.0893 44.4193 35.179C44.3543 35.2687 44.2736 35.3471 44.1817 35.4121C44.0875 35.4771 43.9822 35.5264 43.8656 35.5623C43.7468 35.5982 43.6191 35.6161 43.4823 35.6161C43.3523 35.6161 43.2178 35.5982 43.0788 35.5645C42.9399 35.5309 42.7964 35.4771 42.6485 35.4054C42.6059 35.3875 42.5678 35.3718 42.5319 35.3538C42.5005 35.3382 42.4669 35.3225 42.4333 35.309C42.3997 35.2933 42.3728 35.2799 42.3526 35.2687C42.1733 35.3247 41.9648 35.3651 41.7249 35.392C41.4851 35.4189 41.2251 35.4323 40.9471 35.4323H40.5279V34.8921H40.9471C41.0704 34.8921 41.1982 34.8898 41.3304 34.8854C41.4627 34.8809 41.5815 34.8719 41.6824 34.8607C41.5456 34.7397 41.4447 34.6096 41.382 34.4639C41.3192 34.3205 41.2878 34.1569 41.2878 33.9708C41.2878 33.8251 41.3147 33.6929 41.3685 33.5696C41.4223 33.4463 41.4963 33.3409 41.5904 33.2513C41.6846 33.1616 41.7967 33.0921 41.9244 33.0406C42.0522 32.989 42.1934 32.9643 42.3459 32.9643C42.4602 32.9643 42.5655 32.98 42.6597 33.0137C42.7538 33.045 42.8412 33.0899 42.9197 33.1437C42.9981 33.1975 43.0654 33.2602 43.1237 33.332C43.182 33.4037 43.2313 33.4777 43.2716 33.5539C43.312 33.6301 43.3411 33.7085 43.3613 33.7892C43.3815 33.8677 43.3904 33.9417 43.3904 34.0112C43.3904 34.2084 43.3546 34.3833 43.2806 34.5402C43.2066 34.6971 43.099 34.836 42.9556 34.9548C43.0363 34.9862 43.1214 35.0131 43.2111 35.0355C43.3008 35.0557 43.3927 35.0669 43.4801 35.0669C43.5361 35.0669 43.5944 35.0624 43.6504 35.0557C43.7065 35.049 43.7603 35.0333 43.8096 35.0109C43.8611 34.9885 43.906 34.9571 43.9486 34.919C43.9912 34.8809 44.027 34.8293 44.0562 34.7666C44.0808 34.715 44.0943 34.659 44.0943 34.5984C44.0943 34.5693 44.0875 34.5245 44.0763 34.4617C44.0629 34.3989 44.027 34.3138 43.9665 34.2084C43.906 34.1008 43.8275 33.991 43.7356 33.8767C43.6415 33.7623 43.5384 33.6435 43.4263 33.5247C43.3142 33.4037 43.1976 33.2849 43.0744 33.1638C42.9533 33.0428 42.8323 32.924 42.718 32.8074L43.1057 32.4264ZM42.3772 34.6948C42.4467 34.6634 42.514 34.6253 42.5722 34.5805C42.6328 34.5357 42.6843 34.4819 42.7292 34.4258C42.774 34.3676 42.8076 34.3048 42.8345 34.2353C42.8592 34.1658 42.8726 34.0918 42.8726 34.0134C42.8726 33.9192 42.8524 33.8386 42.8121 33.7713C42.7717 33.7063 42.7247 33.6525 42.6686 33.6122C42.6126 33.5718 42.5566 33.5427 42.496 33.5225C42.4355 33.5046 42.384 33.4956 42.3436 33.4956C42.2652 33.4956 42.1934 33.5068 42.1284 33.5315C42.0634 33.5561 42.0051 33.5875 41.9581 33.6301C41.9088 33.6727 41.8706 33.722 41.8437 33.7825C41.8168 33.8408 41.8034 33.9058 41.8034 33.973C41.8034 34.056 41.8146 34.1277 41.837 34.195C41.8594 34.26 41.8931 34.3227 41.9401 34.3788C41.9872 34.4348 42.0455 34.4886 42.1195 34.5402C42.1867 34.5895 42.2741 34.6433 42.3772 34.6948ZM46.5398 35.4323C46.3694 35.4323 46.2103 35.4054 46.0668 35.3538C45.9234 35.3023 45.7978 35.2283 45.6925 35.1364C45.5871 35.0445 45.5042 34.9347 45.4459 34.8069C45.3876 34.6791 45.3563 34.5424 45.3563 34.3945C45.3563 34.2039 45.3809 34.0358 45.4325 33.8901C45.484 33.7444 45.5468 33.6122 45.6252 33.4956C45.7037 33.379 45.7889 33.2714 45.883 33.175C45.9772 33.0787 46.0668 32.9823 46.152 32.8904L45.9749 32.6931L46.3739 32.33C46.4726 32.4398 46.5757 32.5519 46.681 32.6617C46.7864 32.7738 46.8895 32.8859 46.9904 32.998C47.0912 33.1123 47.1854 33.2244 47.275 33.3387C47.3647 33.453 47.4409 33.5651 47.5082 33.6794C47.5754 33.7937 47.6292 33.9058 47.6673 34.0179C47.7032 34.1255 47.7211 34.2331 47.7211 34.3384V34.3564C47.7189 34.511 47.6875 34.6545 47.6292 34.789C47.5687 34.9235 47.4813 35.0423 47.3669 35.1454C47.2593 35.2373 47.1361 35.3068 46.9948 35.3583C46.8536 35.4076 46.7012 35.4323 46.5398 35.4323ZM46.5017 33.2759C46.43 33.3589 46.356 33.4396 46.2843 33.5203C46.2125 33.6009 46.1475 33.6861 46.0893 33.7758C46.0332 33.8655 45.9861 33.9596 45.9503 34.0605C45.9144 34.1613 45.8965 34.2734 45.8965 34.3945C45.8965 34.4796 45.9144 34.5536 45.9525 34.6164C45.9906 34.6791 46.0377 34.7307 46.0982 34.771C46.1587 34.8114 46.226 34.8428 46.3044 34.8629C46.3807 34.8831 46.4591 34.8921 46.5398 34.8921C46.6362 34.8921 46.7259 34.8786 46.8043 34.854C46.8828 34.8293 46.95 34.7912 47.006 34.7441C47.0621 34.6971 47.1047 34.6388 47.1361 34.5738C47.1674 34.5088 47.1809 34.4348 47.1809 34.3541C47.1809 34.26 47.1607 34.1658 47.1204 34.0717C47.08 33.9798 47.0285 33.8879 46.9657 33.7982C46.9029 33.7085 46.829 33.6211 46.746 33.5315C46.6676 33.4485 46.5846 33.3611 46.5017 33.2759ZM47.2235 37.0193V36.4791H47.618C47.8153 36.4791 47.9834 36.4567 48.1291 36.4096C48.2725 36.3625 48.3913 36.2908 48.4855 36.1944C48.5796 36.098 48.6491 35.9725 48.6939 35.8223C48.7388 35.6721 48.7612 35.4928 48.7612 35.2844V33.5023H49.3014V35.2844C49.3014 35.5578 49.2655 35.7999 49.1938 36.0151C49.1221 36.2303 49.0167 36.4119 48.8755 36.5598C48.7343 36.7077 48.5594 36.8221 48.3487 36.9005C48.138 36.979 47.8959 37.0193 47.618 37.0193H47.2235ZM48.5169 32.265L49.0033 31.7741L49.5009 32.2717L49.01 32.7626L48.5169 32.265ZM51.1462 35.4323C50.9467 35.4301 50.7808 35.4166 50.6508 35.392C50.5208 35.3673 50.4087 35.3292 50.3191 35.2799C50.2294 35.2306 50.1554 35.17 50.1016 35.0961C50.0478 35.0221 50.0053 34.9369 49.9739 34.8383C49.9425 34.7397 49.9223 34.6298 49.9133 34.5088C49.9044 34.3877 49.8999 34.251 49.8999 34.1031V31.3549H50.4401V34.1031C50.4401 34.2689 50.4446 34.4034 50.4558 34.5065C50.467 34.6096 50.4939 34.6881 50.5387 34.7441C50.5836 34.8002 50.6508 34.8383 50.7405 34.8585C50.8301 34.8786 50.9646 34.8898 51.144 34.8921V35.4323H51.1462ZM53.26 35.4278C53.0807 35.4278 52.9215 35.4009 52.7825 35.3494C52.6436 35.2978 52.527 35.2216 52.4306 35.123C52.332 35.2306 52.2154 35.309 52.0854 35.3583C51.9532 35.4099 51.8209 35.4345 51.6887 35.4345H51.0319V34.8943H51.6887C51.7178 34.8943 51.7582 34.8898 51.812 34.8809C51.8657 34.8719 51.9173 34.8495 51.9689 34.8159C52.0204 34.78 52.0652 34.7284 52.1056 34.6567C52.1437 34.5872 52.1639 34.4908 52.1639 34.3676V33.5023H52.7041V34.3564C52.7041 34.5402 52.7467 34.6769 52.8341 34.7621C52.9215 34.8473 53.0627 34.8898 53.2622 34.8898C53.2914 34.8898 53.3317 34.8854 53.3833 34.8741C53.4348 34.8629 53.4886 34.8405 53.5402 34.8047C53.5917 34.7688 53.6388 34.715 53.6769 34.6455C53.715 34.576 53.7352 34.4796 53.7352 34.3564V33.5023H54.2732V34.3564C54.2732 34.5402 54.318 34.6769 54.4077 34.7643C54.4973 34.8517 54.6408 34.8966 54.8381 34.8966C54.8694 34.8966 54.9098 34.8898 54.9613 34.8786C55.0129 34.8652 55.0644 34.8405 55.1138 34.8024C55.1653 34.7643 55.2079 34.7105 55.2438 34.6388C55.2796 34.5693 55.2976 34.4752 55.2976 34.3564C55.2976 34.3138 55.2953 34.2622 55.2886 34.1994C55.2819 34.1367 55.2729 34.0694 55.2639 33.9955C55.2527 33.9237 55.2415 33.8498 55.2281 33.7735C55.2146 33.6973 55.2012 33.6278 55.1877 33.5628C55.1743 33.4978 55.1631 33.4373 55.1496 33.3858C55.1384 33.3342 55.1295 33.2939 55.1205 33.2692L55.6316 33.1056C55.636 33.1168 55.6428 33.1459 55.654 33.1952C55.6652 33.2445 55.6786 33.3028 55.6943 33.3746C55.71 33.4463 55.7257 33.5247 55.7414 33.6122C55.7571 33.6996 55.7728 33.787 55.7862 33.8767C55.7997 33.9663 55.8131 34.0515 55.8221 34.1344C55.8311 34.2174 55.8355 34.2891 55.8355 34.3541C55.8355 34.5357 55.8064 34.6926 55.7459 34.8271C55.6876 34.9616 55.6091 35.0736 55.515 35.1611C55.4209 35.2507 55.3133 35.3157 55.1945 35.3606C55.0734 35.4054 54.9546 35.4278 54.8336 35.4301C54.6498 35.4301 54.4884 35.4032 54.3494 35.3494C54.2104 35.2956 54.0916 35.2171 53.993 35.114C53.8944 35.2194 53.78 35.2978 53.6478 35.3494C53.5223 35.4009 53.3922 35.4278 53.26 35.4278ZM60.7535 35.4323H60.6818C60.3769 35.4323 60.1102 35.3673 59.8838 35.2373C59.6552 35.1073 59.4803 34.9235 59.3593 34.6903C59.2987 34.7733 59.2248 34.8473 59.1396 34.91C59.0544 34.9728 58.958 35.0266 58.8527 35.0736C58.7922 35.0983 58.7204 35.1185 58.642 35.1342C58.5613 35.1499 58.4761 35.1566 58.3887 35.1566C58.299 35.1566 58.2071 35.1454 58.113 35.1252C58.0188 35.105 57.9269 35.0692 57.8373 35.0199C57.7005 34.9481 57.5907 34.8517 57.5077 34.7329C57.4248 34.6141 57.371 34.4729 57.3441 34.3115C57.3307 34.2375 57.3239 34.1636 57.3239 34.0918C57.3239 33.9708 57.3486 33.8341 57.3979 33.6839C57.4472 33.5337 57.5459 33.3813 57.6938 33.2266C57.9538 32.9599 58.3237 32.7559 58.7989 32.6147L58.7451 32.3053L59.2719 32.1932C59.3167 32.3838 59.357 32.5519 59.3929 32.6998C59.4265 32.8478 59.4579 32.98 59.4848 33.0988C59.4915 33.1213 59.5005 33.1594 59.5117 33.2132C59.5252 33.267 59.5386 33.3275 59.5565 33.397C59.5745 33.4665 59.5924 33.5404 59.6103 33.6211C59.6283 33.7018 59.6484 33.7803 59.6664 33.8565C59.6843 33.9327 59.7045 34.0044 59.7202 34.0717C59.7381 34.1389 59.7515 34.1927 59.765 34.2375C59.8031 34.381 59.8591 34.4953 59.9331 34.5827C60.0071 34.6702 60.0878 34.7352 60.1752 34.7822C60.2626 34.8293 60.3523 34.8585 60.4419 34.8741C60.5316 34.8876 60.6123 34.8966 60.684 34.8966H60.7558V35.4323H60.7535ZM58.9379 33.1325C58.7496 33.1885 58.5837 33.2535 58.438 33.3297C58.2923 33.4059 58.1735 33.4911 58.0793 33.583C57.9852 33.6749 57.918 33.7758 57.8776 33.8811C57.8507 33.9506 57.8373 34.0246 57.8373 34.0986C57.8373 34.1367 57.8417 34.1748 57.8485 34.2151C57.8619 34.2958 57.8911 34.3631 57.9336 34.4169C57.9785 34.4707 58.0278 34.5155 58.0883 34.5469C58.1309 34.5715 58.1757 34.5895 58.225 34.6007C58.2744 34.6119 58.3237 34.6164 58.373 34.6164H58.4021C58.4425 34.6164 58.4828 34.6141 58.5254 34.6074C58.568 34.6007 58.6061 34.5895 58.642 34.5738C58.8818 34.4752 59.023 34.2958 59.0611 34.0336C59.0679 33.973 59.0724 33.9148 59.0724 33.8632C59.0724 33.8341 59.0701 33.7937 59.0634 33.7422C59.0567 33.6906 59.0522 33.6525 59.0455 33.6256L58.9379 33.1325ZM65.6558 35.4323C65.472 35.4323 65.3106 35.4054 65.1694 35.3538C65.0282 35.3023 64.9094 35.2238 64.8152 35.1185H64.813L64.7704 35.1633C64.6762 35.253 64.5709 35.3202 64.4543 35.3651C64.3355 35.4099 64.21 35.4323 64.0733 35.4323C63.7169 35.4323 63.4412 35.3292 63.2439 35.123C63.1475 35.2238 63.0399 35.3 62.9144 35.3494C62.7911 35.4009 62.6656 35.4278 62.5378 35.4301H62.4997C62.1635 35.4233 61.899 35.3247 61.7107 35.1319C61.6995 35.1476 61.686 35.1611 61.6703 35.1723C61.4775 35.3426 61.2063 35.4301 60.8566 35.4301H60.6347V34.8898H60.8566C60.9777 34.8898 61.0763 34.8786 61.1525 34.8562C61.2287 34.8338 61.287 34.8002 61.3274 34.7553C61.3699 34.7105 61.3968 34.6567 61.4125 34.5917C61.426 34.529 61.435 34.455 61.435 34.372V33.5001H61.9752V34.3564C61.9752 34.5402 62.02 34.6747 62.1097 34.7598C62.1993 34.8428 62.3383 34.8876 62.5288 34.8876C62.5625 34.8854 62.6051 34.8786 62.6566 34.8674C62.7059 34.8562 62.7552 34.8316 62.8023 34.7957C62.8494 34.7598 62.8897 34.7083 62.9234 34.641C62.957 34.5738 62.9749 34.4841 62.9749 34.372V33.5001H63.5129V34.3564C63.5129 34.5402 63.5577 34.6769 63.6451 34.7598C63.7348 34.845 63.876 34.8876 64.0733 34.8876C64.1293 34.8876 64.1831 34.8786 64.2391 34.8629C64.2952 34.845 64.3445 34.8181 64.3871 34.7778C64.4319 34.7374 64.4678 34.6859 64.4947 34.6231C64.5238 34.5603 64.5395 34.4796 64.544 34.3877V33.5023H65.0842V34.3877C65.0887 34.5626 65.1358 34.6903 65.2299 34.771C65.3241 34.8517 65.4653 34.8921 65.6558 34.8921H65.8307V35.4323H65.6558ZM62.679 32.8186L62.2285 32.3614L62.6745 31.8996L63.1363 32.3614L62.679 32.8186ZM63.6339 31.532L63.2282 31.9287L62.8292 31.532L63.2416 31.124L63.6339 31.532ZM63.7729 32.8231L63.3223 32.3658L63.7684 31.9041L64.2302 32.3658L63.7729 32.8231ZM67.3997 32.9621C67.5634 32.9621 67.7091 32.9912 67.8391 33.0473C67.9691 33.1033 68.0789 33.1795 68.1686 33.2737C68.2583 33.3678 68.3277 33.4754 68.3748 33.5987C68.4219 33.722 68.4465 33.8498 68.4465 33.9798C68.4465 34.1636 68.4197 34.3317 68.3681 34.4796C68.3165 34.6276 68.2358 34.7598 68.1305 34.8741C68.2762 34.8854 68.4309 34.8921 68.599 34.8921H68.9307V35.4323H68.599C68.1103 35.4323 67.7046 35.3875 67.3751 35.2956C67.207 35.3404 67.0142 35.3763 66.799 35.3987C66.5816 35.4211 66.335 35.4323 66.057 35.4323H65.7163V34.8921H66.057C66.2655 34.8921 66.4493 34.8854 66.6152 34.8741C66.5031 34.7576 66.4179 34.6253 66.3641 34.4752C66.3081 34.325 66.2812 34.1613 66.2812 33.9798C66.2812 33.8408 66.3103 33.7085 66.3686 33.5853C66.4269 33.462 66.5076 33.3521 66.6085 33.2602C66.7093 33.1661 66.8304 33.0944 66.9649 33.0406C67.0994 32.989 67.2451 32.9621 67.3997 32.9621ZM66.7811 32.2717L66.3305 31.8144L66.7766 31.3527L67.2384 31.8144L66.7811 32.2717ZM67.3818 34.7307C67.467 34.6993 67.5454 34.6612 67.6127 34.6164C67.6822 34.5715 67.7405 34.5177 67.7875 34.4572C67.8368 34.3967 67.8727 34.3272 67.8996 34.2488C67.9265 34.1703 67.94 34.0829 67.94 33.982C67.94 33.926 67.9243 33.8677 67.8951 33.8117C67.866 33.7556 67.8256 33.7041 67.7741 33.657C67.7225 33.6122 67.6665 33.574 67.6015 33.5449C67.5365 33.5158 67.4692 33.5023 67.3997 33.5023C67.319 33.5023 67.2428 33.5158 67.1689 33.5404C67.0949 33.5651 67.0299 33.6009 66.9738 33.6435C66.9178 33.6861 66.873 33.7377 66.8416 33.796C66.8102 33.8542 66.7923 33.917 66.7923 33.982V34.0156C66.7923 34.0986 66.8057 34.1748 66.8304 34.2488C66.855 34.3227 66.8954 34.39 66.9469 34.4505C66.9985 34.511 67.0613 34.5648 67.133 34.6119C67.2092 34.659 67.2921 34.6971 67.3818 34.7307ZM67.875 32.2784L67.4244 31.8211L67.8705 31.3594L68.3322 31.8211L67.875 32.2784ZM70.3519 33.1078C70.3564 33.119 70.3631 33.1504 70.3743 33.1997C70.3855 33.249 70.3989 33.3118 70.4124 33.3835C70.4258 33.4575 70.4415 33.5382 70.4595 33.6256C70.4774 33.7153 70.4909 33.8027 70.5043 33.8946C70.5178 33.9843 70.529 34.0717 70.5379 34.1569C70.5469 34.2398 70.5514 34.3138 70.5514 34.3765C70.5514 34.5603 70.5222 34.7172 70.4617 34.8495C70.4012 34.9817 70.3227 35.0916 70.2263 35.179C70.13 35.2664 70.0224 35.3292 69.9013 35.3718C69.7803 35.4144 69.6592 35.4345 69.5382 35.4345H68.8097V34.8943H69.5382C69.5673 34.8943 69.6077 34.8898 69.6592 34.8809C69.7108 34.8719 69.7646 34.8517 69.8161 34.8159C69.8677 34.7822 69.9148 34.7307 69.9529 34.6612C69.991 34.5917 70.0112 34.4976 70.0112 34.3765C70.0112 34.3339 70.0067 34.2824 70.0022 34.2174C69.9955 34.1546 69.9865 34.0851 69.9775 34.0112C69.9663 33.9372 69.9551 33.8632 69.9417 33.7848C69.9282 33.7085 69.9148 33.6346 69.9013 33.5651C69.8879 33.4956 69.8767 33.4351 69.8632 33.3813C69.852 33.3275 69.843 33.2871 69.8341 33.2602L70.3519 33.1078ZM69.4082 31.9265L69.8946 31.4356L70.3922 31.9332L69.9013 32.4241L69.4082 31.9265ZM75.9715 35.4323C75.8101 35.4323 75.6666 35.4076 75.5433 35.3606C75.42 35.3135 75.3102 35.244 75.2093 35.1521C75.1578 35.2171 75.104 35.2687 75.0457 35.3068C74.9874 35.3449 74.9314 35.3763 74.8753 35.3987C74.8171 35.4211 74.7633 35.4345 74.7117 35.4413C74.6601 35.448 74.6131 35.4502 74.575 35.4502C74.5436 35.4502 74.501 35.4457 74.4494 35.4368C74.3979 35.4278 74.3284 35.4076 74.241 35.3763C74.1536 35.3449 74.0437 35.3023 73.9092 35.244C73.777 35.188 73.6111 35.1095 73.4138 35.0131C73.2816 34.9481 73.1583 34.8854 73.044 34.8271C72.9297 34.7666 72.8355 34.7172 72.7615 34.6769V37.3174H72.2236V34.3564L72.7436 34.0537C72.7997 34.0851 72.8557 34.1165 72.914 34.1479C72.9633 34.1748 73.0171 34.2039 73.0754 34.2375C73.1336 34.2689 73.1897 34.3003 73.2457 34.3272C73.2749 34.1569 73.3062 33.9999 73.3444 33.8632C73.3825 33.7242 73.4273 33.6009 73.4833 33.4911C73.6671 33.119 73.9585 32.933 74.3575 32.933C74.5346 32.933 74.6915 32.9688 74.8283 33.0406C74.965 33.1123 75.0793 33.2064 75.1712 33.3252C75.2631 33.444 75.3326 33.5808 75.3819 33.7377C75.429 33.8946 75.4537 34.056 75.4537 34.2241C75.4537 34.2555 75.4537 34.2869 75.4514 34.316C75.4514 34.3451 75.4492 34.3743 75.4469 34.4012C75.4469 34.5065 75.4693 34.5917 75.5119 34.6545C75.5545 34.7195 75.6038 34.7688 75.6621 34.8047C75.7204 34.8405 75.7764 34.8629 75.8347 34.8764C75.893 34.8898 75.9378 34.8943 75.967 34.8943H76.0611V35.4345H75.9715V35.4323ZM73.7299 34.5536C73.8913 34.6343 74.0258 34.6971 74.1334 34.7441C74.241 34.7912 74.3262 34.8271 74.3912 34.8517C74.4562 34.8764 74.501 34.8943 74.5301 34.9011C74.557 34.9078 74.5727 34.9123 74.5772 34.9123C74.5974 34.9123 74.6288 34.9078 74.6691 34.9011C74.7095 34.8943 74.752 34.8674 74.7924 34.8248C74.8327 34.7822 74.8686 34.715 74.9 34.6209C74.9314 34.5267 74.9448 34.3945 74.9448 34.2219C74.9448 34.2017 74.9426 34.1681 74.9381 34.121C74.9336 34.0762 74.9246 34.0246 74.9112 33.9686C74.8977 33.9125 74.8776 33.8565 74.8529 33.7982C74.8283 33.7399 74.7924 33.6861 74.7476 33.6368C74.7027 33.5875 74.6512 33.5471 74.5884 33.5158C74.5257 33.4844 74.4494 33.4687 74.362 33.4687C74.288 33.4687 74.2186 33.4799 74.158 33.5046C74.0953 33.5292 74.0392 33.5785 73.9877 33.6547C73.9361 33.731 73.889 33.8408 73.8465 33.9843C73.8039 34.1277 73.7658 34.316 73.7299 34.5536ZM79.0715 34.8921V35.4323H78.5717C78.3991 35.4323 78.2444 35.4076 78.1121 35.3583C77.9799 35.309 77.8745 35.235 77.7938 35.1364C77.5966 35.3337 77.3029 35.4345 76.9129 35.4345H75.9423V34.8943H76.9129C77.0496 34.8943 77.1595 34.8809 77.2379 34.854C77.3186 34.8271 77.3792 34.7912 77.4195 34.7509C77.4598 34.7105 77.4868 34.6634 77.5002 34.6141C77.5136 34.5626 77.5181 34.5155 77.5181 34.4707V33.5046H78.0561V34.4505C78.0561 34.52 78.0673 34.5805 78.0897 34.6298C78.1121 34.6791 78.139 34.7217 78.1704 34.7531C78.2018 34.7867 78.2399 34.8136 78.2803 34.8316C78.3206 34.8517 78.361 34.8652 78.3991 34.8741C78.4372 34.8831 78.4708 34.8898 78.5022 34.8921C78.5336 34.8943 78.556 34.8943 78.5717 34.8943H79.0715V34.8921ZM77.1886 36.5441L76.7269 37.0059L76.2808 36.5441L76.7313 36.0868L77.1886 36.5441ZM78.2825 36.5396L77.8207 37.0014L77.3747 36.5396L77.8252 36.0823L78.2825 36.5396ZM81.1719 35.4278C80.9925 35.4278 80.8334 35.4009 80.6944 35.3494C80.5554 35.2978 80.4389 35.2216 80.3425 35.123C80.2439 35.2306 80.1273 35.309 79.9973 35.3583C79.865 35.4099 79.7328 35.4345 79.6005 35.4345H78.9438V34.8943H79.6005C79.6297 34.8943 79.67 34.8898 79.7238 34.8809C79.7776 34.8719 79.8292 34.8495 79.8807 34.8159C79.9323 34.78 79.9771 34.7284 80.0175 34.6567C80.0556 34.5872 80.0757 34.4908 80.0757 34.3676V33.5023H80.616V34.3564C80.616 34.5402 80.6585 34.6769 80.746 34.7621C80.8334 34.8473 80.9746 34.8898 81.1741 34.8898C81.2032 34.8898 81.2436 34.8854 81.2952 34.8741C81.3467 34.8629 81.4005 34.8405 81.4521 34.8047C81.5036 34.7688 81.5507 34.715 81.5888 34.6455C81.6269 34.576 81.6471 34.4796 81.6471 34.3564V33.5023H82.1851V34.3564C82.1851 34.5402 82.2299 34.6769 82.3195 34.7643C82.4092 34.8517 82.5527 34.8966 82.7499 34.8966C82.7813 34.8966 82.8217 34.8898 82.8732 34.8786C82.9248 34.8652 82.9763 34.8405 83.0256 34.8024C83.0772 34.7643 83.1198 34.7105 83.1556 34.6388C83.1915 34.5693 83.2094 34.4752 83.2094 34.3564C83.2094 34.3138 83.2072 34.2622 83.2005 34.1994C83.1938 34.1367 83.1848 34.0694 83.1758 33.9955C83.1646 33.9237 83.1534 33.8498 83.14 33.7735C83.1265 33.6973 83.1131 33.6278 83.0996 33.5628C83.0862 33.4978 83.075 33.4373 83.0615 33.3858C83.0503 33.3342 83.0413 33.2939 83.0324 33.2692L83.5434 33.1056C83.5479 33.1168 83.5546 33.1459 83.5659 33.1952C83.5771 33.2445 83.5905 33.3028 83.6062 33.3746C83.6219 33.4463 83.6376 33.5247 83.6533 33.6122C83.669 33.6996 83.6847 33.787 83.6981 33.8767C83.7116 33.9663 83.725 34.0515 83.734 34.1344C83.7429 34.2174 83.7474 34.2891 83.7474 34.3541C83.7474 34.5357 83.7183 34.6926 83.6578 34.8271C83.5995 34.9616 83.521 35.0736 83.4269 35.1611C83.3327 35.2507 83.2251 35.3157 83.1063 35.3606C82.9853 35.4054 82.8665 35.4278 82.7454 35.4301C82.5616 35.4301 82.4002 35.4032 82.2613 35.3494C82.1223 35.2956 82.0035 35.2171 81.9049 35.114C81.8062 35.2194 81.6919 35.2978 81.5597 35.3494C81.4341 35.4009 81.3019 35.4278 81.1719 35.4278ZM85.9912 35.4323H85.8679C85.6841 35.4323 85.516 35.3964 85.3613 35.3247C85.3613 35.5914 85.3232 35.8291 85.2493 36.0398C85.1753 36.2482 85.0655 36.4275 84.9242 36.5733C84.7808 36.719 84.6059 36.8288 84.3975 36.905C84.189 36.9812 83.9492 37.0193 83.6779 37.0193H83.2834V36.4791H83.6779C83.8752 36.4791 84.0433 36.4567 84.189 36.4096C84.3325 36.3625 84.4513 36.2908 84.5454 36.1944C84.6396 36.098 84.709 35.9725 84.7539 35.8223C84.7987 35.6721 84.8211 35.4928 84.8211 35.2844V33.5023H85.3613V34.4483C85.3613 34.5558 85.3838 34.6388 85.4286 34.6993C85.4734 34.7598 85.525 34.8047 85.5833 34.8316C85.6415 34.8607 85.6998 34.8786 85.7536 34.8854C85.8074 34.8921 85.8455 34.8943 85.8657 34.8943H85.989V35.4323H85.9912ZM87.8607 33.1078C87.8652 33.119 87.8719 33.1504 87.8831 33.1997C87.8943 33.249 87.9077 33.3118 87.9212 33.3835C87.9346 33.4575 87.9503 33.5382 87.9683 33.6256C87.9862 33.7153 87.9997 33.8027 88.0131 33.8946C88.0266 33.9843 88.0378 34.0717 88.0467 34.1569C88.0557 34.2398 88.0602 34.3138 88.0602 34.3765C88.0602 34.5603 88.031 34.7172 87.9705 34.8495C87.91 34.9817 87.8315 35.0916 87.7352 35.179C87.6388 35.2664 87.5312 35.3292 87.4101 35.3718C87.2891 35.4144 87.168 35.4345 87.047 35.4345H85.8634V34.8943H87.047C87.0761 34.8943 87.1165 34.8898 87.168 34.8809C87.2196 34.8719 87.2734 34.8517 87.3249 34.8159C87.3765 34.7822 87.4236 34.7307 87.4617 34.6612C87.4998 34.5917 87.52 34.4976 87.52 34.3765C87.52 34.3339 87.5177 34.2824 87.511 34.2174C87.5043 34.1546 87.4953 34.0851 87.4863 34.0112C87.4751 33.9372 87.4639 33.8632 87.4505 33.7848C87.437 33.7085 87.4236 33.6346 87.4101 33.5651C87.3967 33.4956 87.3855 33.4351 87.372 33.3813C87.3608 33.3275 87.3518 33.2871 87.3429 33.2602L87.8607 33.1078ZM86.7152 32.4959L86.2647 32.0386L86.7108 31.5768L87.1725 32.0386L86.7152 32.4959ZM87.8091 32.5003L87.3586 32.0431L87.8046 31.5813L88.2664 32.0431L87.8091 32.5003ZM89.367 37.0193V36.4791H89.7615C89.9588 36.4791 90.1269 36.4567 90.2726 36.4096C90.416 36.3625 90.5349 36.2908 90.629 36.1944C90.7231 36.098 90.7926 35.9725 90.8375 35.8223C90.8823 35.6721 90.9047 35.4928 90.9047 35.2844V33.5023H91.4449V35.2844C91.4449 35.5578 91.4091 35.7999 91.3373 36.0151C91.2656 36.2303 91.1602 36.4119 91.019 36.5598C90.8778 36.7077 90.703 36.8221 90.4923 36.9005C90.2816 36.979 90.0395 37.0193 89.7615 37.0193H89.367ZM92.5836 35.4301H92.0434V31.3549H92.5836V35.4301ZM94.8969 35.4323H94.7736C94.5898 35.4323 94.4217 35.3964 94.267 35.3247C94.267 35.5914 94.2289 35.8291 94.155 36.0398C94.081 36.2482 93.9712 36.4275 93.8299 36.5733C93.6865 36.719 93.5116 36.8288 93.3032 36.905C93.0947 36.9812 92.8549 37.0193 92.5836 37.0193H92.1891V36.4791H92.5836C92.7809 36.4791 92.949 36.4567 93.0947 36.4096C93.2382 36.3625 93.357 36.2908 93.4511 36.1944C93.5453 36.098 93.6148 35.9725 93.6596 35.8223C93.7044 35.6721 93.7268 35.4928 93.7268 35.2844V33.5023H94.267V34.4483C94.267 34.5558 94.2895 34.6388 94.3343 34.6993C94.3791 34.7598 94.4307 34.8047 94.489 34.8316C94.5472 34.8607 94.6055 34.8786 94.6593 34.8854C94.7131 34.8921 94.7512 34.8943 94.7714 34.8943H94.8947V35.4323H94.8969ZM93.4825 32.3434L93.9689 31.8525L94.4665 32.3502L93.9756 32.8411L93.4825 32.3434ZM94.7736 35.4323V34.8921H96.0424C96.2553 34.8921 96.4279 34.8764 96.5579 34.8473C96.6879 34.8159 96.7888 34.7778 96.8628 34.7329C96.9345 34.6881 96.9838 34.6365 97.0107 34.5827C97.0354 34.529 97.0511 34.4774 97.0578 34.4281H96.6229C96.5736 34.4281 96.5176 34.4258 96.4571 34.4214C96.3965 34.4169 96.3338 34.4101 96.2665 34.3989C96.2015 34.3877 96.1343 34.372 96.067 34.3519C95.9998 34.3317 95.9348 34.3026 95.872 34.2689C95.8204 34.2375 95.7689 34.1994 95.7151 34.1546C95.6613 34.1098 95.6142 34.0515 95.5716 33.9843C95.529 33.917 95.4932 33.8363 95.4663 33.7444C95.4394 33.6525 95.4259 33.5449 95.4259 33.4194C95.4259 33.2647 95.4528 33.119 95.5066 32.98C95.5604 32.8411 95.6366 32.7245 95.7353 32.6236C95.8339 32.525 95.9482 32.4488 96.076 32.3972C96.2038 32.3457 96.3405 32.321 96.4839 32.321C96.6498 32.321 96.8022 32.3569 96.9412 32.4264C97.0802 32.4959 97.1968 32.5967 97.2931 32.729C97.3963 32.8657 97.4725 33.0361 97.5218 33.2378C97.5711 33.4396 97.5958 33.6704 97.5958 33.9327V34.3272C97.5958 34.5155 97.5577 34.6836 97.4837 34.8293C97.4075 34.975 97.2954 35.0961 97.143 35.1857C96.8897 35.3471 96.5243 35.4278 96.0468 35.4278H94.7736V35.4323ZM96.8605 33.0473C96.7686 32.9262 96.6431 32.8635 96.4839 32.8635C96.4212 32.8635 96.3562 32.8747 96.2912 32.8971C96.2262 32.9195 96.1656 32.9531 96.1141 32.998C96.0625 33.0428 96.0199 33.1011 95.9863 33.1706C95.9527 33.2401 95.937 33.3252 95.937 33.4216C95.937 33.4844 95.9437 33.5382 95.9572 33.5808C95.9706 33.6234 95.9886 33.6592 96.0087 33.6861C96.0289 33.713 96.0513 33.7354 96.0737 33.7534C96.0962 33.7713 96.1186 33.7848 96.1387 33.796C96.1948 33.8273 96.262 33.852 96.3427 33.8654C96.4234 33.8789 96.5176 33.8879 96.6252 33.8879H97.0645C97.06 33.6996 97.0421 33.5337 97.0062 33.3925C96.9681 33.2513 96.9211 33.1369 96.8605 33.0473ZM96.0446 31.1823L96.531 30.6914L97.0286 31.189L96.5377 31.6799L96.0446 31.1823ZM98.656 35.4301H98.1158V31.3549H98.656V35.4301ZM100.044 37.3197H99.5056V34.3586L100.026 34.056C100.082 34.0874 100.138 34.1187 100.196 34.1501C100.245 34.177 100.299 34.2062 100.357 34.2398C100.416 34.2712 100.472 34.3026 100.528 34.3295C100.557 34.1591 100.588 34.0022 100.626 33.8654C100.664 33.7265 100.709 33.6032 100.765 33.4934C100.949 33.1213 101.241 32.9352 101.64 32.9352C101.812 32.9352 101.971 32.9711 102.115 33.0428C102.258 33.1145 102.379 33.2176 102.48 33.3566C102.563 33.4709 102.628 33.6032 102.671 33.7511C102.713 33.8991 102.736 34.0582 102.736 34.2263C102.736 34.4101 102.72 34.5693 102.689 34.7038C102.657 34.836 102.617 34.9504 102.565 35.04C102.514 35.1319 102.458 35.2037 102.395 35.2597C102.332 35.3135 102.267 35.3561 102.202 35.3852C102.137 35.4144 102.074 35.4345 102.014 35.4435C101.953 35.4525 101.9 35.457 101.857 35.457C101.826 35.457 101.783 35.4525 101.731 35.4435C101.68 35.4345 101.61 35.4144 101.523 35.383C101.436 35.3516 101.326 35.309 101.191 35.2507C101.059 35.1947 100.893 35.1162 100.696 35.0199C100.564 34.9548 100.44 34.8921 100.326 34.8338C100.212 34.7733 100.118 34.724 100.044 34.6836V37.3197ZM101.037 34.5805C101.198 34.6612 101.332 34.7217 101.436 34.7666C101.541 34.8114 101.624 34.8428 101.684 34.8652C101.745 34.8876 101.787 34.901 101.812 34.9055C101.837 34.91 101.85 34.9123 101.855 34.9123C101.875 34.9123 101.906 34.9078 101.944 34.9011C101.982 34.8943 102.021 34.8674 102.059 34.8248C102.097 34.7822 102.128 34.715 102.155 34.6209C102.182 34.5267 102.195 34.3945 102.195 34.2219C102.195 34.2017 102.193 34.1681 102.191 34.121C102.189 34.0762 102.18 34.0246 102.169 33.9686C102.155 33.9125 102.137 33.8565 102.115 33.7982C102.09 33.7399 102.059 33.6861 102.018 33.6368C101.978 33.5875 101.926 33.5471 101.864 33.5158C101.801 33.4844 101.727 33.4687 101.64 33.4687C101.566 33.4687 101.498 33.4821 101.44 33.509C101.382 33.5359 101.328 33.5897 101.279 33.6682C101.229 33.7489 101.187 33.861 101.146 34.0067C101.108 34.1546 101.072 34.3451 101.037 34.5805ZM104.937 35.4323H104.814C104.63 35.4323 104.462 35.3964 104.307 35.3247C104.307 35.5914 104.269 35.8291 104.195 36.0398C104.121 36.2482 104.011 36.4275 103.87 36.5733C103.726 36.719 103.552 36.8288 103.343 36.905C103.135 36.9812 102.895 37.0193 102.624 37.0193H102.229V36.4791H102.624C102.821 36.4791 102.989 36.4567 103.135 36.4096C103.278 36.3625 103.397 36.2908 103.491 36.1944C103.585 36.098 103.655 35.9725 103.7 35.8223C103.744 35.6721 103.767 35.4928 103.767 35.2844V33.5023H104.307V34.4483C104.307 34.5558 104.329 34.6388 104.374 34.6993C104.419 34.7598 104.471 34.8047 104.529 34.8316C104.587 34.8607 104.645 34.8786 104.699 34.8854C104.753 34.8921 104.791 34.8943 104.811 34.8943H104.935V35.4323H104.937ZM106.358 33.1078C106.362 33.119 106.369 33.1504 106.38 33.1997C106.392 33.249 106.405 33.3118 106.419 33.3835C106.432 33.4575 106.448 33.5382 106.466 33.6256C106.484 33.7153 106.497 33.8027 106.51 33.8946C106.524 33.9843 106.535 34.0717 106.544 34.1569C106.553 34.2398 106.558 34.3138 106.558 34.3765C106.558 34.5603 106.528 34.7172 106.468 34.8495C106.407 34.9817 106.329 35.0916 106.232 35.179C106.136 35.2664 106.028 35.3292 105.907 35.3718C105.786 35.4144 105.665 35.4345 105.544 35.4345H104.816V34.8943H105.544C105.573 34.8943 105.614 34.8898 105.665 34.8809C105.717 34.8719 105.771 34.8517 105.822 34.8159C105.874 34.7822 105.921 34.7307 105.959 34.6612C105.997 34.5917 106.017 34.4976 106.017 34.3765C106.017 34.3339 106.013 34.2824 106.008 34.2174C106.002 34.1546 105.993 34.0851 105.984 34.0112C105.972 33.9372 105.961 33.8632 105.948 33.7848C105.934 33.7085 105.921 33.6346 105.907 33.5651C105.894 33.4956 105.883 33.4351 105.869 33.3813C105.858 33.3275 105.849 33.2871 105.84 33.2602L106.358 33.1078ZM105.417 31.9265L105.903 31.4356L106.401 31.9332L105.91 32.4241L105.417 31.9265Z" fill="#034EA2"/>
<path d="M31.4319 2.72571C31.4319 1.4256 30.3784 0.37207 29.0783 0.37207H26.7224V5.08158H31.4319V2.72571Z" fill="#636466"/>
<path d="M95.0224 0.37207H92.6665H87.957V5.08158H92.6665H97.3761V2.72571C97.3761 1.4256 96.3225 0.37207 95.0224 0.37207Z" fill="#636466"/>
<path d="M92.6667 16.8564C92.6667 18.1565 91.6131 19.2123 90.3108 19.2123V19.21H87.9571V16.8564C87.9571 12.9539 84.7943 9.79102 80.8918 9.79102C76.9892 9.79102 73.8286 12.9539 73.8286 16.8564V23.9218H78.5381H80.894V19.21H78.5381V16.8564C78.5381 15.5563 79.5939 14.5028 80.894 14.5028C82.1941 14.5028 83.2499 15.5563 83.2499 16.8564V19.21V28.6313H87.9594V23.9218H90.313C94.2156 23.9218 97.3784 20.759 97.3784 16.8564V9.79102H92.6689V16.8564H92.6667Z" fill="#636466"/>
<path d="M106.795 0.37207H102.086V23.9219H106.795V0.37207Z" fill="#636466"/>
<path d="M31.4319 9.79102H26.7224V28.6291H31.4319V9.79102Z" fill="#636466"/>
<path d="M22.0173 16.8542C22.0173 12.9517 18.8544 9.78882 14.9519 9.78882C11.0493 9.78882 7.88647 12.9517 7.88647 16.8542C7.88647 20.7545 11.0493 23.9174 14.9496 23.9174V23.9196H22.015V19.2101L22.0173 16.8542ZM17.3055 16.8542V19.2101H14.9519V19.2078C13.6518 19.2078 12.596 18.1543 12.596 16.8542C12.596 15.5541 13.6495 14.5006 14.9519 14.5006C16.252 14.5006 17.3055 15.5541 17.3055 16.8542Z" fill="#636466"/>
<path d="M64.4074 9.79114V16.8543C64.4074 18.1521 63.3561 19.2057 62.0605 19.2102L59.2854 19.2124C59.5455 18.4749 59.6956 17.6837 59.6956 16.8565V9.79114H54.9861V16.8543C54.9861 18.1544 53.9326 19.2102 52.6303 19.2102H49.8642C50.1264 18.4727 50.2744 17.6814 50.2744 16.8543V9.79114H45.5649V16.8543C45.5649 18.1544 44.5113 19.2102 43.209 19.2102C41.9089 19.2102 40.8531 18.1544 40.8531 16.8543V9.79114H40.8509V0.369873H36.1414V12.5393H36.1436V16.8543C36.1436 20.7568 39.3064 23.9197 43.2067 23.9197V23.9219H62.047L62.0493 23.9152V23.9219C65.9518 23.9219 69.1147 20.7591 69.1147 16.8565V9.79114H64.4074Z" fill="#636466"/>
</svg>
