<svg width="139" height="37" viewBox="0 0 139 37" fill="none" xmlns="http://www.w3.org/2000/svg">
<path d="M127.822 21.4226V25.9097C127.822 29.7019 126.278 33.4275 123.619 36.5137H119.673C122.748 33.8738 125.033 30.2015 125.033 25.9097V21.4226C125.033 19.1135 123.15 17.233 120.843 17.233C118.541 17.233 116.66 19.1135 116.66 21.4226V24.8928C116.66 27.4972 115.093 30.0372 112.757 31.2139L102.71 36.2694V33.1433L111.505 28.7228C112.924 28.0101 113.874 26.4737 113.874 24.8951V21.4248C113.874 17.5727 117 14.4465 120.846 14.4465C124.693 14.4421 127.822 17.5704 127.822 21.4226Z" fill="#636466"/>
<path d="M122.237 21.4224V25.3745C122.237 29.9149 119.549 33.9313 114.866 36.3936C114.788 36.4358 114.713 36.4713 114.628 36.5113H108.427C110.414 35.5033 112.279 34.5663 113.589 33.9136C117.304 31.9553 119.446 28.8403 119.446 25.3745V21.4224C119.446 20.6564 120.075 20.0281 120.841 20.0281C121.613 20.0259 122.237 20.6564 122.237 21.4224Z" fill="#636466"/>
<path d="M133.424 36.5114H127.127L128.71 34.3222C128.976 33.9537 129.392 33.7228 129.845 33.6872C130.302 33.6517 130.746 33.8116 131.072 34.138L133.424 36.5114Z" fill="#636466"/>
<path d="M105.484 13.3631L120.297 3.19433C120.624 2.97008 121.063 2.97008 121.39 3.19433L136.19 13.3365V27.2886C136.19 27.5972 136.312 27.8902 136.527 28.1101L138.978 30.5879V13.3387C138.978 12.4284 138.53 11.578 137.779 11.0651L122.966 0.896364C121.696 0.0238031 119.989 0.0238031 118.719 0.896364L103.905 11.0651C103.155 11.5802 102.706 12.4306 102.706 13.3387V30.0195L105.495 28.6163L105.484 13.3631Z" fill="#636466"/>
<path d="M138.978 34.1977V36.5112H137.346L132.706 31.8243C131.358 30.4588 130.617 28.6559 130.617 26.7376V16.9219C130.617 16.5134 130.415 16.127 130.07 15.8961L123.518 11.3912C121.922 10.2989 119.78 10.2989 118.183 11.3912L111.627 15.8961C111.289 16.127 111.087 16.5134 111.087 16.9219V24.4219C111.087 25.2701 110.605 26.0427 109.846 26.4268L108.296 27.2039V16.9197C108.296 15.5897 108.949 14.3442 110.048 13.5915L116.605 9.09327C119.145 7.34814 122.557 7.34814 125.097 9.09327L131.649 13.5915C132.746 14.3464 133.405 15.592 133.405 16.9197V26.7354C133.405 27.9099 133.863 29.0201 134.686 29.8571L138.978 34.1977Z" fill="#636466"/>
<path d="M18.3849 34.4196C18.4642 34.5736 18.506 34.7189 18.5148 34.8553L18.517 34.8949C18.517 35.0159 18.4928 35.1303 18.4444 35.2404C18.3959 35.3482 18.3189 35.4494 18.2177 35.5396C18.1143 35.6321 17.9933 35.7091 17.8524 35.7707C17.7116 35.8323 17.5554 35.8829 17.3837 35.9159C17.2121 35.9511 17.0295 35.9687 16.8402 35.9687H16.0414C15.7466 35.9687 15.4803 35.9049 15.2449 35.7751C15.0094 35.6453 14.8158 35.467 14.6662 35.2404C14.5649 35.0797 14.4923 34.9015 14.4505 34.7057C14.4175 34.5538 14.3999 34.3954 14.3999 34.2282C14.3999 34.1797 14.4043 34.0873 14.4109 33.9509C14.4175 33.8145 14.4571 33.6252 14.5275 33.381C14.5979 33.1367 14.697 32.8837 14.8224 32.6218L15.2933 32.8529C15.0842 33.2952 14.9654 33.6934 14.9368 34.0499C14.9324 34.1093 14.9302 34.1687 14.9302 34.2238C14.9302 34.5076 14.9918 34.7519 15.1173 34.9565C15.2119 35.1127 15.3395 35.2294 15.5001 35.313C15.6608 35.3944 15.839 35.4362 16.037 35.4362H16.8358C16.9414 35.4362 17.0427 35.4274 17.1439 35.412C17.2451 35.3966 17.3397 35.3746 17.4277 35.346C17.5158 35.3174 17.595 35.2844 17.6654 35.247C17.7358 35.2096 17.7952 35.1656 17.8436 35.1193C17.892 35.0731 17.925 35.0225 17.9426 34.9675C17.9536 34.9389 17.9602 34.9125 17.9602 34.8839C17.9602 34.8575 17.9558 34.8311 17.947 34.8047C17.925 34.7321 17.8722 34.6705 17.7908 34.622C17.7094 34.5714 17.6104 34.534 17.4938 34.5032C17.3771 34.4746 17.2517 34.4526 17.1175 34.4416C16.9832 34.4284 16.8534 34.424 16.728 34.424L16.7478 33.8937H19.1661V34.424H18.3849V34.4196ZM21.0233 33.8893V34.4196H20.8054C20.636 34.4196 20.4842 34.3954 20.3544 34.347C20.2245 34.2986 20.1211 34.226 20.0419 34.1291C19.8482 34.3228 19.56 34.4218 19.1771 34.4218H18.638V33.8915H19.1771C19.3113 33.8915 19.4192 33.8783 19.4962 33.8519C19.5754 33.8255 19.6348 33.7903 19.6744 33.7507C19.714 33.7111 19.7404 33.6648 19.7536 33.6164C19.7668 33.5658 19.7712 33.5196 19.7712 33.4756V32.5272H20.2993V33.4558C20.2993 33.524 20.3103 33.5834 20.3301 33.6318C20.3499 33.6802 20.3764 33.7221 20.4094 33.7529C20.4424 33.7859 20.4776 33.8123 20.5194 33.8299C20.559 33.8497 20.5986 33.8629 20.636 33.8717C20.6734 33.8805 20.7064 33.8871 20.7372 33.8893C20.768 33.8915 20.79 33.8915 20.8054 33.8915H21.0233V33.8893ZM19.3531 31.2311L19.8306 30.7492L20.3191 31.2377L19.8372 31.7196L19.3531 31.2311ZM23.9719 33.8893V34.4196H23.4812C23.3118 34.4196 23.1599 34.3954 23.0301 34.347C22.9003 34.2986 22.7969 34.226 22.7176 34.1291C22.524 34.3228 22.2357 34.4218 21.8529 34.4218H20.9001V33.8915H21.8529C21.9871 33.8915 22.0949 33.8783 22.1719 33.8519C22.2511 33.8255 22.3106 33.7903 22.3502 33.7507C22.3898 33.7111 22.4162 33.6648 22.4294 33.6164C22.4426 33.5658 22.447 33.5196 22.447 33.4756V32.5272H22.9751V33.4558C22.9751 33.524 22.9861 33.5834 23.0081 33.6318C23.0301 33.6802 23.0565 33.7221 23.0873 33.7529C23.1181 33.7859 23.1555 33.8123 23.1951 33.8299C23.2348 33.8497 23.2744 33.8629 23.3118 33.8717C23.3492 33.8805 23.3822 33.8871 23.413 33.8893C23.4438 33.8915 23.4658 33.8915 23.4812 33.8915H23.9719V33.8893ZM21.9893 31.8341L21.547 31.3852L21.9849 30.9319L22.4382 31.3852L21.9893 31.8341ZM23.0631 31.8407L22.6208 31.3918L23.0587 30.9385L23.512 31.3918L23.0631 31.8407ZM25.3626 32.1377C25.367 32.1487 25.3736 32.1795 25.3846 32.2279C25.3956 32.2763 25.4088 32.338 25.422 32.4084C25.4352 32.481 25.4506 32.5602 25.4682 32.646C25.4858 32.734 25.499 32.8199 25.5122 32.9101C25.5254 32.9981 25.5364 33.0839 25.5452 33.1675C25.554 33.249 25.5584 33.3216 25.5584 33.3832C25.5584 33.5636 25.5298 33.7176 25.4704 33.8475C25.411 33.9773 25.334 34.0851 25.2394 34.1709C25.1448 34.2568 25.0391 34.3184 24.9203 34.3602C24.8015 34.402 24.6827 34.4218 24.5638 34.4218H23.8487V33.8915H24.5638C24.5924 33.8915 24.632 33.8871 24.6827 33.8783C24.7333 33.8695 24.7861 33.8497 24.8367 33.8145C24.8873 33.7815 24.9335 33.7309 24.9709 33.6626C25.0083 33.5944 25.0281 33.502 25.0281 33.3832C25.0281 33.3414 25.0237 33.2908 25.0193 33.2269C25.0127 33.1653 25.0039 33.0971 24.9951 33.0245C24.9841 32.9519 24.9731 32.8793 24.9599 32.8023C24.9467 32.7274 24.9335 32.6548 24.9203 32.5866C24.9071 32.5184 24.8961 32.459 24.8829 32.4062C24.8719 32.3534 24.8631 32.3138 24.8543 32.2874L25.3626 32.1377ZM24.3922 35.4384L24.8697 34.9565L25.3582 35.445L24.8763 35.9269L24.3922 35.4384ZM29.3168 35.4318C29.5039 35.4318 29.6667 35.4164 29.8031 35.3834C29.9396 35.3504 30.054 35.2998 30.1442 35.2272C30.2344 35.1568 30.3004 35.0643 30.3422 34.9499C30.3863 34.8355 30.4061 34.6969 30.4061 34.534C30.2256 34.4878 30.0518 34.4394 29.8779 34.3932C29.8053 34.3756 29.7283 34.3536 29.6469 34.3338C29.5655 34.3118 29.4863 34.2898 29.407 34.27C29.3278 34.248 29.2508 34.2282 29.1738 34.2106C29.099 34.193 29.0286 34.1731 28.9648 34.1577C28.8833 33.9575 28.8415 33.7595 28.8415 33.5658C28.8415 33.5548 28.8437 33.4954 28.8459 33.3854C28.8481 33.2776 28.8877 33.1345 28.9648 32.9563C29.0418 32.7781 29.1496 32.6196 29.2904 32.4788C29.4313 32.338 29.5919 32.2257 29.7767 32.1399C29.9616 32.0541 30.1596 32.0035 30.3774 31.9859C30.4215 31.9815 30.4655 31.9793 30.5095 31.9793C30.6855 31.9793 30.866 32.0057 31.0508 32.0607L30.9188 32.569C30.7911 32.5294 30.6635 32.5096 30.5315 32.5118C30.4017 32.5118 30.274 32.5316 30.1552 32.5668C30.0342 32.6042 29.922 32.657 29.8207 32.7252C29.7173 32.7935 29.6315 32.8771 29.5589 32.9739C29.4863 33.0707 29.4357 33.1785 29.4026 33.2974C29.3806 33.3766 29.3696 33.458 29.3696 33.5416C29.3696 33.59 29.374 33.6384 29.3806 33.6868L30.4545 33.9531C30.6041 33.9949 30.7163 34.0609 30.7911 34.1555C30.8659 34.2502 30.9034 34.3624 30.9034 34.4988C30.9034 34.7431 30.8748 34.9587 30.8153 35.1435C30.7581 35.3284 30.6657 35.4802 30.5381 35.6012C30.4105 35.7223 30.2476 35.8147 30.0452 35.8763C29.8449 35.9379 29.6007 35.9687 29.3146 35.9687H28.6941C28.5511 35.9687 28.4146 35.9511 28.2826 35.9159C28.1506 35.8807 28.0252 35.8301 27.9063 35.7663C27.7875 35.7025 27.6797 35.6255 27.5807 35.5352C27.4816 35.445 27.3936 35.346 27.3188 35.2382C27.2308 35.0951 27.1648 34.9389 27.1208 34.7695C27.0768 34.6 27.0526 34.4196 27.0526 34.2304C27.0526 33.9971 27.09 33.7441 27.1626 33.4734C27.2374 33.2027 27.3452 32.9167 27.486 32.6174C27.5697 32.657 27.6489 32.6944 27.7215 32.7318C27.7941 32.7693 27.8711 32.8067 27.9525 32.8463C27.7061 33.3744 27.5829 33.8299 27.5829 34.2172C27.5829 34.3558 27.6005 34.4878 27.6335 34.6132C27.6665 34.7387 27.7149 34.8509 27.7743 34.9521C27.8689 35.1017 27.9987 35.2184 28.1616 35.3042C28.3244 35.39 28.5027 35.4318 28.6941 35.4318H29.3168ZM32.9256 34.4196C32.7297 34.4174 32.5669 34.4042 32.4393 34.38C32.3117 34.3558 32.2016 34.3184 32.1136 34.27C32.0256 34.2216 31.953 34.1621 31.9002 34.0895C31.8474 34.0169 31.8055 33.9333 31.7747 33.8365C31.7439 33.7397 31.7241 33.6318 31.7153 33.513C31.7065 33.3942 31.7021 33.26 31.7021 33.1147V30.417H32.2324V33.1147C32.2324 33.2776 32.2368 33.4096 32.2478 33.5108C32.2588 33.612 32.2852 33.689 32.3293 33.7441C32.3733 33.7991 32.4393 33.8365 32.5273 33.8563C32.6153 33.8761 32.7473 33.8871 32.9234 33.8893V34.4196H32.9256ZM35.3483 31.4688C35.5529 31.6844 35.7444 31.8847 35.9182 32.0717C35.993 32.1531 36.0678 32.2323 36.1427 32.3138C36.2175 32.3952 36.2879 32.4722 36.3517 32.547C36.4155 32.6218 36.4727 32.6878 36.5233 32.7494C36.5739 32.8111 36.6092 32.8595 36.6334 32.8969C36.684 32.9783 36.7258 33.0597 36.7588 33.1345C36.7918 33.2115 36.8138 33.2886 36.827 33.3678C36.8336 33.414 36.838 33.4624 36.838 33.5108C36.838 33.5416 36.8358 33.5878 36.8292 33.645C36.8226 33.7022 36.8072 33.7793 36.7786 33.8761C36.7478 33.9839 36.7016 34.0829 36.6378 34.1709C36.5739 34.259 36.4947 34.336 36.4045 34.3998C36.3121 34.4636 36.2087 34.512 36.0942 34.5472C35.9776 34.5824 35.8522 34.6 35.718 34.6C35.5903 34.6 35.4583 34.5824 35.3219 34.5494C35.1855 34.5164 35.0446 34.4636 34.8994 34.3932C34.8576 34.3756 34.8202 34.3602 34.785 34.3426C34.7542 34.3272 34.7212 34.3118 34.6882 34.2986C34.6551 34.2832 34.6287 34.27 34.6089 34.259C34.4329 34.314 34.2283 34.3536 33.9928 34.38C33.7574 34.4064 33.5021 34.4196 33.2292 34.4196H32.8178V33.8893H33.2292C33.3503 33.8893 33.4757 33.8871 33.6055 33.8827C33.7354 33.8783 33.852 33.8695 33.951 33.8585C33.8168 33.7397 33.7177 33.612 33.6561 33.469C33.5945 33.3282 33.5637 33.1675 33.5637 32.9849C33.5637 32.8419 33.5901 32.712 33.6429 32.591C33.6957 32.47 33.7684 32.3666 33.8608 32.2786C33.9532 32.1905 34.0632 32.1223 34.1886 32.0717C34.3141 32.0211 34.4527 31.9969 34.6023 31.9969C34.7146 31.9969 34.818 32.0123 34.9104 32.0453C35.0028 32.0761 35.0886 32.1201 35.1657 32.1729C35.2427 32.2257 35.3087 32.2874 35.3659 32.3578C35.4231 32.4282 35.4715 32.5008 35.5111 32.5756C35.5507 32.6504 35.5793 32.7274 35.5991 32.8067C35.6189 32.8837 35.6277 32.9563 35.6277 33.0245C35.6277 33.2181 35.5925 33.3898 35.5199 33.5438C35.4473 33.6978 35.3417 33.8343 35.2009 33.9509C35.2801 33.9817 35.3637 34.0081 35.4517 34.0301C35.5397 34.0499 35.6299 34.0609 35.7158 34.0609C35.7708 34.0609 35.828 34.0565 35.883 34.0499C35.938 34.0433 35.9908 34.0279 36.0392 34.0059C36.0898 33.9839 36.1339 33.9531 36.1757 33.9157C36.2175 33.8783 36.2527 33.8277 36.2813 33.7661C36.3055 33.7155 36.3187 33.6604 36.3187 33.601C36.3187 33.5724 36.3121 33.5284 36.3011 33.4668C36.2879 33.4052 36.2527 33.3216 36.1933 33.2181C36.1339 33.1125 36.0568 33.0047 35.9666 32.8925C35.8742 32.7803 35.773 32.6636 35.663 32.547C35.5529 32.4282 35.4385 32.3116 35.3175 32.1927C35.1987 32.0739 35.0798 31.9573 34.9676 31.8429L35.3483 31.4688ZM34.6331 33.6956C34.7014 33.6648 34.7674 33.6274 34.8246 33.5834C34.884 33.5394 34.9346 33.4866 34.9786 33.4316C35.0226 33.3744 35.0556 33.3128 35.082 33.2446C35.1062 33.1763 35.1194 33.1037 35.1194 33.0267C35.1194 32.9343 35.0996 32.8551 35.06 32.7891C35.0204 32.7252 34.9742 32.6724 34.9192 32.6328C34.8642 32.5932 34.8092 32.5646 34.7498 32.5448C34.6904 32.5272 34.6397 32.5184 34.6001 32.5184C34.5231 32.5184 34.4527 32.5294 34.3889 32.5536C34.3251 32.5778 34.2679 32.6086 34.2217 32.6504C34.1732 32.6922 34.1358 32.7406 34.1094 32.8001C34.083 32.8573 34.0698 32.9211 34.0698 32.9871C34.0698 33.0685 34.0808 33.1389 34.1028 33.2049C34.1248 33.2688 34.1578 33.3304 34.2041 33.3854C34.2503 33.4404 34.3075 33.4932 34.3801 33.5438C34.4461 33.5922 34.5319 33.645 34.6331 33.6956ZM38.7194 34.4196C38.5522 34.4196 38.3959 34.3932 38.2551 34.3426C38.1143 34.292 37.991 34.2194 37.8876 34.1291C37.7842 34.0389 37.7028 33.9311 37.6456 33.8057C37.5884 33.6802 37.5576 33.546 37.5576 33.4008C37.5576 33.2137 37.5818 33.0487 37.6324 32.9057C37.683 32.7627 37.7446 32.6328 37.8216 32.5184C37.8986 32.404 37.9822 32.2984 38.0747 32.2037C38.1671 32.1091 38.2551 32.0145 38.3387 31.9243L38.1649 31.7306L38.5566 31.3742C38.6534 31.482 38.7546 31.592 38.858 31.6998C38.9614 31.8099 39.0627 31.9199 39.1617 32.0299C39.2607 32.1421 39.3531 32.2521 39.4411 32.3644C39.5292 32.4766 39.604 32.5866 39.67 32.6988C39.736 32.8111 39.7888 32.9211 39.8262 33.0311C39.8614 33.1367 39.879 33.2424 39.879 33.3458V33.3634C39.8768 33.5152 39.846 33.656 39.7888 33.7881C39.7294 33.9201 39.6436 34.0367 39.5314 34.1379C39.4257 34.2282 39.3047 34.2964 39.1661 34.347C39.0275 34.3954 38.8778 34.4196 38.7194 34.4196ZM38.682 32.3028C38.6116 32.3842 38.539 32.4634 38.4685 32.5426C38.3981 32.6218 38.3343 32.7054 38.2771 32.7935C38.2221 32.8815 38.1759 32.9739 38.1407 33.0729C38.1055 33.1719 38.0879 33.282 38.0879 33.4008C38.0879 33.4844 38.1055 33.557 38.1429 33.6186C38.1803 33.6802 38.2265 33.7309 38.2859 33.7705C38.3453 33.8101 38.4113 33.8409 38.4883 33.8607C38.5632 33.8805 38.6402 33.8893 38.7194 33.8893C38.814 33.8893 38.902 33.8761 38.979 33.8519C39.0561 33.8277 39.1221 33.7903 39.1771 33.7441C39.2321 33.6978 39.2739 33.6406 39.3047 33.5768C39.3355 33.513 39.3487 33.4404 39.3487 33.3612C39.3487 33.2688 39.3289 33.1763 39.2893 33.0839C39.2497 32.9937 39.1991 32.9035 39.1375 32.8155C39.0759 32.7274 39.0033 32.6416 38.9218 32.5536C38.8448 32.4722 38.7634 32.3864 38.682 32.3028ZM39.3905 35.9775V35.4472H39.7778C39.9715 35.4472 40.1365 35.4252 40.2795 35.379C40.4204 35.3328 40.537 35.2624 40.6294 35.1678C40.7218 35.0731 40.79 34.9499 40.834 34.8025C40.878 34.655 40.9001 34.479 40.9001 34.2744V32.525H41.4304V34.2744C41.4304 34.5428 41.3952 34.7805 41.3247 34.9917C41.2543 35.203 41.1509 35.3812 41.0123 35.5264C40.8736 35.6717 40.702 35.7839 40.4952 35.8609C40.2883 35.9379 40.0507 35.9775 39.7778 35.9775H39.3905ZM40.6602 31.3103L41.1377 30.8284L41.6262 31.3169L41.1443 31.7988L40.6602 31.3103ZM43.2413 34.4196C43.0455 34.4174 42.8827 34.4042 42.755 34.38C42.6274 34.3558 42.5174 34.3184 42.4294 34.27C42.3414 34.2216 42.2687 34.1621 42.2159 34.0895C42.1631 34.0169 42.1213 33.9333 42.0905 33.8365C42.0597 33.7397 42.0399 33.6318 42.0311 33.513C42.0223 33.3942 42.0179 33.26 42.0179 33.1147V30.417H42.5482V33.1147C42.5482 33.2776 42.5526 33.4096 42.5636 33.5108C42.5746 33.612 42.601 33.689 42.645 33.7441C42.689 33.7991 42.755 33.8365 42.8431 33.8563C42.9311 33.8761 43.0631 33.8871 43.2391 33.8893V34.4196H43.2413ZM45.3164 34.4152C45.1403 34.4152 44.9841 34.3888 44.8477 34.3382C44.7112 34.2876 44.5968 34.2128 44.5022 34.1159C44.4054 34.2216 44.291 34.2986 44.1633 34.347C44.0335 34.3976 43.9037 34.4218 43.7739 34.4218H43.1291V33.8915H43.7739C43.8025 33.8915 43.8421 33.8871 43.8949 33.8783C43.9477 33.8695 43.9983 33.8475 44.0489 33.8145C44.0995 33.7793 44.1435 33.7287 44.1831 33.6582C44.2205 33.59 44.2404 33.4954 44.2404 33.3744V32.525H44.7707V33.3634C44.7707 33.5438 44.8125 33.678 44.8983 33.7617C44.9841 33.8453 45.1227 33.8871 45.3186 33.8871C45.3472 33.8871 45.3868 33.8827 45.4374 33.8717C45.488 33.8607 45.5408 33.8387 45.5914 33.8035C45.642 33.7683 45.6883 33.7155 45.7257 33.6472C45.7631 33.579 45.7829 33.4844 45.7829 33.3634V32.525H46.311V33.3634C46.311 33.5438 46.355 33.678 46.443 33.7639C46.531 33.8497 46.6719 33.8937 46.8655 33.8937C46.8963 33.8937 46.9359 33.8871 46.9865 33.8761C47.0371 33.8629 47.0877 33.8387 47.1362 33.8013C47.1868 33.7639 47.2286 33.7111 47.2638 33.6406C47.299 33.5724 47.3166 33.48 47.3166 33.3634C47.3166 33.3216 47.3144 33.271 47.3078 33.2093C47.3012 33.1477 47.2924 33.0817 47.2836 33.0091C47.2726 32.9387 47.2616 32.8661 47.2484 32.7913C47.2352 32.7164 47.222 32.6482 47.2088 32.5844C47.1956 32.5206 47.1846 32.4612 47.1714 32.4106C47.1604 32.36 47.1516 32.3204 47.1428 32.2962L47.6445 32.1355C47.6489 32.1465 47.6555 32.1751 47.6665 32.2235C47.6775 32.2719 47.6907 32.3292 47.7061 32.3996C47.7215 32.47 47.7369 32.547 47.7523 32.6328C47.7677 32.7186 47.7831 32.8045 47.7963 32.8925C47.8095 32.9805 47.8227 33.0641 47.8315 33.1455C47.8403 33.2269 47.8447 33.2974 47.8447 33.3612C47.8447 33.5394 47.8161 33.6934 47.7567 33.8255C47.6995 33.9575 47.6225 34.0675 47.53 34.1533C47.4376 34.2414 47.332 34.3052 47.2154 34.3492C47.0965 34.3932 46.9799 34.4152 46.8611 34.4174C46.6807 34.4174 46.5222 34.391 46.3858 34.3382C46.2494 34.2854 46.1327 34.2084 46.0359 34.1071C45.9391 34.2106 45.8269 34.2876 45.6971 34.3382C45.5738 34.3888 45.4462 34.4152 45.3164 34.4152ZM52.6725 34.4196H52.6021C52.3028 34.4196 52.041 34.3558 51.8187 34.2282C51.5943 34.1005 51.4227 33.9201 51.3038 33.6912C51.2444 33.7727 51.1718 33.8453 51.0882 33.9069C51.0046 33.9685 50.91 34.0213 50.8065 34.0675C50.7471 34.0917 50.6767 34.1115 50.5997 34.1269C50.5205 34.1423 50.4368 34.1489 50.351 34.1489C50.263 34.1489 50.1728 34.1379 50.0804 34.1181C49.988 34.0983 49.8977 34.0631 49.8097 34.0147C49.6755 33.9443 49.5677 33.8497 49.4863 33.7331C49.4048 33.6164 49.352 33.4778 49.3256 33.3194C49.3124 33.2468 49.3058 33.1741 49.3058 33.1037C49.3058 32.9849 49.33 32.8507 49.3784 32.7032C49.4268 32.5558 49.5237 32.4062 49.6689 32.2543C49.9241 31.9925 50.2872 31.7922 50.7537 31.6536L50.7009 31.35L51.218 31.2399C51.262 31.427 51.3016 31.592 51.3368 31.7372C51.3698 31.8825 51.4006 32.0123 51.4271 32.1289C51.4337 32.1509 51.4425 32.1883 51.4535 32.2411C51.4667 32.294 51.4799 32.3534 51.4975 32.4216C51.5151 32.4898 51.5327 32.5624 51.5503 32.6416C51.5679 32.7208 51.5877 32.7979 51.6053 32.8727C51.6229 32.9475 51.6427 33.0179 51.6581 33.0839C51.6757 33.1499 51.6889 33.2027 51.7021 33.2468C51.7395 33.3876 51.7945 33.4998 51.8671 33.5856C51.9398 33.6714 52.019 33.7353 52.1048 33.7815C52.1906 33.8277 52.2786 33.8563 52.3667 33.8717C52.4547 33.8849 52.5339 33.8937 52.6043 33.8937H52.6747V34.4196H52.6725ZM50.8901 32.1619C50.7053 32.2169 50.5425 32.2807 50.3994 32.3556C50.2564 32.4304 50.1398 32.514 50.0474 32.6042C49.9549 32.6944 49.8889 32.7935 49.8493 32.8969C49.8229 32.9651 49.8097 33.0377 49.8097 33.1103C49.8097 33.1477 49.8141 33.1851 49.8207 33.2247C49.8339 33.304 49.8625 33.37 49.9043 33.4228C49.9483 33.4756 49.9968 33.5196 50.0562 33.5504C50.098 33.5746 50.142 33.5922 50.1904 33.6032C50.2388 33.6142 50.2872 33.6186 50.3356 33.6186H50.3642C50.4038 33.6186 50.4434 33.6164 50.4853 33.6098C50.5271 33.6032 50.5645 33.5922 50.5997 33.5768C50.8351 33.48 50.9738 33.304 51.0112 33.0465C51.0178 32.9871 51.0222 32.9299 51.0222 32.8793C51.0222 32.8507 51.02 32.8111 51.0134 32.7605C51.0068 32.7098 51.0024 32.6724 50.9958 32.646L50.8901 32.1619ZM57.4849 34.4196C57.3045 34.4196 57.1461 34.3932 57.0074 34.3426C56.8688 34.292 56.7522 34.215 56.6598 34.1115H56.6576L56.6157 34.1555C56.5233 34.2436 56.4199 34.3096 56.3055 34.3536C56.1889 34.3976 56.0656 34.4196 55.9314 34.4196C55.5815 34.4196 55.3109 34.3184 55.1172 34.1159C55.0226 34.215 54.917 34.2898 54.7938 34.3382C54.6727 34.3888 54.5495 34.4152 54.4241 34.4174H54.3867C54.0566 34.4108 53.797 34.314 53.6121 34.1247C53.6011 34.1401 53.5879 34.1533 53.5725 34.1643C53.3833 34.3316 53.117 34.4174 52.7737 34.4174H52.5559V33.8871H52.7737C52.8926 33.8871 52.9894 33.8761 53.0642 33.8541C53.139 33.8321 53.1962 33.7991 53.2358 33.7551C53.2776 33.711 53.304 33.6582 53.3195 33.5944C53.3327 33.5328 53.3415 33.4602 53.3415 33.3788V32.5228H53.8718V33.3634C53.8718 33.5438 53.9158 33.6758 54.0038 33.7595C54.0918 33.8409 54.2282 33.8849 54.4153 33.8849C54.4483 33.8827 54.4901 33.8761 54.5407 33.8651C54.5891 33.8541 54.6375 33.8299 54.6837 33.7947C54.7299 33.7595 54.7696 33.7088 54.8026 33.6428C54.8356 33.5768 54.8532 33.4888 54.8532 33.3788V32.5228H55.3813V33.3634C55.3813 33.5438 55.4253 33.678 55.5111 33.7595C55.5991 33.8431 55.7378 33.8849 55.9314 33.8849C55.9864 33.8849 56.0392 33.8761 56.0942 33.8607C56.1492 33.8431 56.1977 33.8167 56.2395 33.7771C56.2835 33.7375 56.3187 33.6868 56.3451 33.6252C56.3737 33.5636 56.3891 33.4844 56.3935 33.3942V32.525H56.9238V33.3942C56.9282 33.5658 56.9744 33.6912 57.0668 33.7705C57.1593 33.8497 57.2979 33.8893 57.4849 33.8893H57.6566V34.4196H57.4849ZM54.5627 31.8539L54.1204 31.405L54.5583 30.9517L55.0116 31.405L54.5627 31.8539ZM55.5001 30.5908L55.1018 30.9803L54.7101 30.5908L55.115 30.1903L55.5001 30.5908ZM55.6365 31.8583L55.1942 31.4094L55.6321 30.9561L56.0854 31.4094L55.6365 31.8583ZM59.1969 31.9947C59.3575 31.9947 59.5005 32.0233 59.6282 32.0783C59.7558 32.1333 59.8636 32.2081 59.9516 32.3006C60.0397 32.393 60.1079 32.4986 60.1541 32.6196C60.2003 32.7406 60.2245 32.8661 60.2245 32.9937C60.2245 33.1741 60.1981 33.3392 60.1475 33.4844C60.0969 33.6296 60.0177 33.7595 59.9142 33.8717C60.0573 33.8827 60.2091 33.8893 60.3741 33.8893H60.6998V34.4196H60.3741C59.8944 34.4196 59.4961 34.3756 59.1727 34.2854C59.0076 34.3294 58.8184 34.3646 58.6072 34.3866C58.3937 34.4086 58.1517 34.4196 57.8788 34.4196H57.5443V33.8893H57.8788C58.0834 33.8893 58.2639 33.8827 58.4267 33.8717C58.3167 33.7573 58.2331 33.6274 58.1803 33.48C58.1253 33.3326 58.0989 33.1719 58.0989 32.9937C58.0989 32.8573 58.1275 32.7274 58.1847 32.6064C58.2419 32.4854 58.3211 32.3776 58.4201 32.2874C58.5191 32.1949 58.638 32.1245 58.77 32.0717C58.902 32.0211 59.0451 31.9947 59.1969 31.9947ZM58.5896 31.3169L58.1473 30.8681L58.5852 30.4148L59.0385 30.8681L58.5896 31.3169ZM59.1793 33.7309C59.2629 33.7 59.3399 33.6626 59.4059 33.6186C59.4741 33.5746 59.5314 33.5218 59.5776 33.4624C59.626 33.403 59.6612 33.3348 59.6876 33.2578C59.714 33.1807 59.7272 33.0949 59.7272 32.9959C59.7272 32.9409 59.7118 32.8837 59.6832 32.8287C59.6546 32.7737 59.615 32.723 59.5644 32.6768C59.5137 32.6328 59.4587 32.5954 59.3949 32.5668C59.3311 32.5382 59.2651 32.525 59.1969 32.525C59.1177 32.525 59.0429 32.5382 58.9702 32.5624C58.8976 32.5866 58.8338 32.6218 58.7788 32.6636C58.7238 32.7054 58.6798 32.756 58.649 32.8133C58.6182 32.8705 58.6006 32.9321 58.6006 32.9959V33.0289C58.6006 33.1103 58.6138 33.1851 58.638 33.2578C58.6622 33.3304 58.7018 33.3964 58.7524 33.4558C58.803 33.5152 58.8646 33.568 58.935 33.6142C59.0098 33.6604 59.0913 33.6978 59.1793 33.7309ZM59.6634 31.3235L59.2211 30.8747L59.659 30.4214L60.1123 30.8747L59.6634 31.3235ZM62.0949 32.1377C62.0993 32.1487 62.1059 32.1795 62.1169 32.2279C62.1279 32.2763 62.1411 32.338 62.1543 32.4084C62.1675 32.481 62.1829 32.5602 62.2005 32.646C62.2181 32.734 62.2313 32.8199 62.2445 32.9101C62.2577 32.9981 62.2687 33.0839 62.2775 33.1675C62.2863 33.249 62.2907 33.3216 62.2907 33.3832C62.2907 33.5636 62.2621 33.7176 62.2027 33.8475C62.1433 33.9773 62.0663 34.0851 61.9717 34.1709C61.877 34.2568 61.7714 34.3184 61.6526 34.3602C61.5338 34.402 61.4149 34.4218 61.2961 34.4218H60.581V33.8915H61.2961C61.3247 33.8915 61.3643 33.8871 61.4149 33.8783C61.4656 33.8695 61.5184 33.8497 61.569 33.8145C61.6196 33.7815 61.6658 33.7309 61.7032 33.6626C61.7406 33.5944 61.7604 33.502 61.7604 33.3832C61.7604 33.3414 61.756 33.2908 61.7516 33.2269C61.745 33.1653 61.7362 33.0971 61.7274 33.0245C61.7164 32.9519 61.7054 32.8793 61.6922 32.8023C61.679 32.7274 61.6658 32.6548 61.6526 32.5866C61.6394 32.5184 61.6284 32.459 61.6152 32.4062C61.6042 32.3534 61.5954 32.3138 61.5866 32.2874L62.0949 32.1377ZM61.1685 30.9781L61.646 30.4962L62.1345 30.9847L61.6526 31.4666L61.1685 30.9781ZM67.6114 34.4196C67.453 34.4196 67.3122 34.3954 67.1912 34.3492C67.0701 34.303 66.9623 34.2348 66.8633 34.1445C66.8127 34.2084 66.7599 34.259 66.7027 34.2964C66.6454 34.3338 66.5904 34.3646 66.5354 34.3866C66.4782 34.4086 66.4254 34.4218 66.3748 34.4284C66.3242 34.435 66.278 34.4372 66.2406 34.4372C66.2098 34.4372 66.1679 34.4328 66.1173 34.424C66.0667 34.4152 65.9985 34.3954 65.9127 34.3646C65.8269 34.3338 65.719 34.292 65.587 34.2348C65.4572 34.1797 65.2944 34.1027 65.1007 34.0081C64.9709 33.9443 64.8499 33.8827 64.7376 33.8255C64.6254 33.7661 64.533 33.7177 64.4604 33.678V36.2702H63.9323V33.3634L64.4428 33.0663C64.4978 33.0971 64.5528 33.1279 64.61 33.1587C64.6584 33.1851 64.7112 33.2137 64.7685 33.2468C64.8257 33.2776 64.8807 33.3084 64.9357 33.3348C64.9643 33.1675 64.9951 33.0135 65.0325 32.8793C65.0699 32.7428 65.1139 32.6218 65.1689 32.514C65.3494 32.1487 65.6354 31.9661 66.0271 31.9661C66.2009 31.9661 66.355 32.0013 66.4892 32.0717C66.6234 32.1421 66.7357 32.2345 66.8259 32.3512C66.9161 32.4678 66.9843 32.602 67.0327 32.7561C67.0789 32.9101 67.1031 33.0685 67.1031 33.2335C67.1031 33.2644 67.1031 33.2952 67.1009 33.3238C67.1009 33.3524 67.0987 33.381 67.0965 33.4074C67.0965 33.5108 67.1185 33.5944 67.1604 33.656C67.2022 33.7199 67.2506 33.7683 67.3078 33.8035C67.365 33.8387 67.42 33.8607 67.4772 33.8739C67.5344 33.8871 67.5784 33.8915 67.607 33.8915H67.6995V34.4218H67.6114V34.4196ZM65.411 33.557C65.5694 33.6362 65.7014 33.6978 65.8071 33.7441C65.9127 33.7903 65.9963 33.8255 66.0601 33.8497C66.1239 33.8739 66.1679 33.8915 66.1966 33.8981C66.223 33.9047 66.2384 33.9091 66.2428 33.9091C66.2626 33.9091 66.2934 33.9047 66.333 33.8981C66.3726 33.8915 66.4144 33.8651 66.454 33.8233C66.4936 33.7815 66.5288 33.7155 66.5596 33.623C66.5904 33.5306 66.6036 33.4008 66.6036 33.2314C66.6036 33.2115 66.6014 33.1785 66.597 33.1323C66.5926 33.0883 66.5838 33.0377 66.5706 32.9827C66.5574 32.9277 66.5376 32.8727 66.5134 32.8155C66.4892 32.7583 66.454 32.7054 66.41 32.657C66.366 32.6086 66.3154 32.569 66.2538 32.5382C66.1922 32.5074 66.1173 32.492 66.0315 32.492C65.9589 32.492 65.8907 32.503 65.8313 32.5272C65.7697 32.5514 65.7146 32.5998 65.664 32.6746C65.6134 32.7494 65.5672 32.8573 65.5254 32.9981C65.4836 33.1389 65.4462 33.3238 65.411 33.557ZM70.6547 33.8893V34.4196H70.164C69.9945 34.4196 69.8427 34.3954 69.7129 34.347C69.5831 34.2986 69.4796 34.226 69.4004 34.1291C69.2068 34.3228 68.9185 34.4218 68.5356 34.4218H67.5828V33.8915H68.5356C68.6699 33.8915 68.7777 33.8783 68.8547 33.8519C68.9339 33.8255 68.9933 33.7903 69.0329 33.7507C69.0725 33.7111 69.099 33.6648 69.1122 33.6164C69.1254 33.5658 69.1298 33.5196 69.1298 33.4756V32.5272H69.6579V33.4558C69.6579 33.524 69.6689 33.5834 69.6909 33.6318C69.7129 33.6802 69.7393 33.7221 69.7701 33.7529C69.8009 33.7859 69.8383 33.8123 69.8779 33.8299C69.9175 33.8497 69.9571 33.8629 69.9945 33.8717C70.032 33.8805 70.065 33.8871 70.0958 33.8893C70.1266 33.8915 70.1486 33.8915 70.164 33.8915H70.6547V33.8893ZM68.8063 35.511L68.353 35.9643L67.9151 35.511L68.3574 35.0621L68.8063 35.511ZM69.8801 35.5066L69.4268 35.9599L68.9889 35.5066L69.4312 35.0577L69.8801 35.5066ZM72.7165 34.4152C72.5405 34.4152 72.3842 34.3888 72.2478 34.3382C72.1114 34.2876 71.997 34.2128 71.9023 34.1159C71.8055 34.2216 71.6911 34.2986 71.5635 34.347C71.4336 34.3976 71.3038 34.4218 71.174 34.4218H70.5293V33.8915H71.174C71.2026 33.8915 71.2422 33.8871 71.295 33.8783C71.3478 33.8695 71.3984 33.8475 71.4491 33.8145C71.4997 33.7793 71.5437 33.7287 71.5833 33.6582C71.6207 33.59 71.6405 33.4954 71.6405 33.3744V32.525H72.1708V33.3634C72.1708 33.5438 72.2126 33.678 72.2984 33.7617C72.3842 33.8453 72.5229 33.8871 72.7187 33.8871C72.7473 33.8871 72.7869 33.8827 72.8375 33.8717C72.8881 33.8607 72.941 33.8387 72.9916 33.8035C73.0422 33.7683 73.0884 33.7155 73.1258 33.6472C73.1632 33.579 73.183 33.4844 73.183 33.3634V32.525H73.7111V33.3634C73.7111 33.5438 73.7551 33.678 73.8432 33.7639C73.9312 33.8497 74.072 33.8937 74.2656 33.8937C74.2964 33.8937 74.3361 33.8871 74.3867 33.8761C74.4373 33.8629 74.4879 33.8387 74.5363 33.8013C74.5869 33.7639 74.6287 33.7111 74.6639 33.6406C74.6991 33.5724 74.7167 33.48 74.7167 33.3634C74.7167 33.3216 74.7145 33.271 74.7079 33.2093C74.7013 33.1477 74.6925 33.0817 74.6837 33.0091C74.6727 32.9387 74.6617 32.8661 74.6485 32.7913C74.6353 32.7164 74.6221 32.6482 74.6089 32.5844C74.5957 32.5206 74.5847 32.4612 74.5715 32.4106C74.5605 32.36 74.5517 32.3204 74.5429 32.2962L75.0446 32.1355C75.049 32.1465 75.0556 32.1751 75.0666 32.2235C75.0776 32.2719 75.0908 32.3292 75.1062 32.3996C75.1216 32.47 75.137 32.547 75.1524 32.6328C75.1678 32.7186 75.1832 32.8045 75.1964 32.8925C75.2096 32.9805 75.2228 33.0641 75.2316 33.1455C75.2404 33.2269 75.2448 33.2974 75.2448 33.3612C75.2448 33.5394 75.2162 33.6934 75.1568 33.8255C75.0996 33.9575 75.0226 34.0675 74.9302 34.1533C74.8378 34.2414 74.7321 34.3052 74.6155 34.3492C74.4967 34.3932 74.3801 34.4152 74.2612 34.4174C74.0808 34.4174 73.9224 34.391 73.7859 34.3382C73.6495 34.2854 73.5329 34.2084 73.4361 34.1071C73.3392 34.2106 73.227 34.2876 73.0972 34.3382C72.974 34.3888 72.8441 34.4152 72.7165 34.4152ZM77.4475 34.4196H77.3265C77.146 34.4196 76.981 34.3844 76.8292 34.314C76.8292 34.5758 76.7918 34.8091 76.7192 35.0159C76.6465 35.2206 76.5387 35.3966 76.4001 35.5396C76.2593 35.6827 76.0876 35.7905 75.883 35.8653C75.6783 35.9401 75.4429 35.9775 75.1766 35.9775H74.7893V35.4472H75.1766C75.3703 35.4472 75.5353 35.4252 75.6783 35.379C75.8192 35.3328 75.9358 35.2624 76.0282 35.1678C76.1206 35.0731 76.1888 34.9499 76.2328 34.8025C76.2769 34.655 76.2989 34.479 76.2989 34.2744V32.525H76.8292V33.4536C76.8292 33.5592 76.8512 33.6406 76.8952 33.7C76.9392 33.7595 76.9898 33.8035 77.047 33.8299C77.1042 33.8585 77.1614 33.8761 77.2143 33.8827C77.2671 33.8893 77.3045 33.8915 77.3243 33.8915H77.4453V34.4196H77.4475ZM79.2827 32.1377C79.2871 32.1487 79.2937 32.1795 79.3047 32.2279C79.3157 32.2763 79.3289 32.338 79.3421 32.4084C79.3553 32.481 79.3707 32.5602 79.3883 32.646C79.4059 32.734 79.4191 32.8199 79.4323 32.9101C79.4455 32.9981 79.4565 33.0839 79.4653 33.1675C79.4741 33.249 79.4785 33.3216 79.4785 33.3832C79.4785 33.5636 79.4499 33.7176 79.3905 33.8475C79.3311 33.9773 79.2541 34.0851 79.1595 34.1709C79.0648 34.2568 78.9592 34.3184 78.8404 34.3602C78.7216 34.402 78.6027 34.4218 78.4839 34.4218H77.3221V33.8915H78.4839C78.5125 33.8915 78.5521 33.8871 78.6028 33.8783C78.6534 33.8695 78.7062 33.8497 78.7568 33.8145C78.8074 33.7815 78.8536 33.7309 78.891 33.6626C78.9284 33.5944 78.9482 33.502 78.9482 33.3832C78.9482 33.3414 78.946 33.2908 78.9394 33.2269C78.9328 33.1653 78.924 33.0971 78.9152 33.0245C78.9042 32.9519 78.8932 32.8793 78.88 32.8023C78.8668 32.7274 78.8536 32.6548 78.8404 32.5866C78.8272 32.5184 78.8162 32.459 78.803 32.4062C78.792 32.3534 78.7832 32.3138 78.7744 32.2874L79.2827 32.1377ZM78.1583 31.537L77.716 31.0881L78.1539 30.6348L78.6071 31.0881L78.1583 31.537ZM79.2321 31.5414L78.7898 31.0925L79.2277 30.6392L79.681 31.0925L79.2321 31.5414ZM80.7614 35.9775V35.4472H81.1487C81.3423 35.4472 81.5074 35.4252 81.6504 35.379C81.7912 35.3328 81.9078 35.2624 82.0003 35.1678C82.0927 35.0731 82.1609 34.9499 82.2049 34.8025C82.2489 34.655 82.2709 34.479 82.2709 34.2744V32.525H82.8012V34.2744C82.8012 34.5428 82.766 34.7805 82.6956 34.9917C82.6252 35.203 82.5218 35.3812 82.3831 35.5264C82.2445 35.6717 82.0729 35.7839 81.866 35.8609C81.6592 35.9379 81.4215 35.9775 81.1487 35.9775H80.7614ZM83.9191 34.4174H83.3887V30.417H83.9191V34.4174ZM86.1899 34.4196H86.0689C85.8885 34.4196 85.7234 34.3844 85.5716 34.314C85.5716 34.5758 85.5342 34.8091 85.4616 35.0159C85.389 35.2206 85.2812 35.3966 85.1425 35.5396C85.0017 35.6827 84.8301 35.7905 84.6254 35.8653C84.4208 35.9401 84.1853 35.9775 83.9191 35.9775H83.5318V35.4472H83.9191C84.1127 35.4472 84.2777 35.4252 84.4208 35.379C84.5616 35.3328 84.6782 35.2624 84.7706 35.1678C84.8631 35.0731 84.9313 34.9499 84.9753 34.8025C85.0193 34.655 85.0413 34.479 85.0413 34.2744V32.525H85.5716V33.4536C85.5716 33.5592 85.5936 33.6406 85.6376 33.7C85.6816 33.7595 85.7322 33.8035 85.7895 33.8299C85.8467 33.8585 85.9039 33.8761 85.9567 33.8827C86.0095 33.8893 86.0469 33.8915 86.0667 33.8915H86.1877V34.4196H86.1899ZM84.8014 31.3874L85.2789 30.9055L85.7674 31.394L85.2855 31.8759L84.8014 31.3874ZM86.0689 34.4196V33.8893H87.3144C87.5234 33.8893 87.6928 33.8739 87.8205 33.8453C87.9481 33.8145 88.0471 33.7771 88.1197 33.7331C88.1902 33.689 88.2386 33.6384 88.265 33.5856C88.2892 33.5328 88.3046 33.4822 88.3112 33.4338H87.8843C87.8359 33.4338 87.7809 33.4316 87.7215 33.4272C87.662 33.4228 87.6004 33.4162 87.5344 33.4052C87.4706 33.3942 87.4046 33.3788 87.3386 33.359C87.2726 33.3392 87.2087 33.3106 87.1471 33.2776C87.0965 33.2468 87.0459 33.2093 86.9931 33.1653C86.9403 33.1213 86.8941 33.0641 86.8523 32.9981C86.8105 32.9321 86.7753 32.8529 86.7489 32.7627C86.7225 32.6724 86.7092 32.5668 86.7092 32.4436C86.7092 32.2918 86.7356 32.1487 86.7885 32.0123C86.8413 31.8759 86.9161 31.7614 87.0129 31.6624C87.1097 31.5656 87.222 31.4908 87.3474 31.4402C87.4728 31.3896 87.607 31.3654 87.7479 31.3654C87.9107 31.3654 88.0603 31.4006 88.1968 31.4688C88.3332 31.537 88.4476 31.636 88.5422 31.7658C88.6434 31.9001 88.7183 32.0673 88.7667 32.2653C88.8151 32.4634 88.8393 32.69 88.8393 32.9475V33.3348C88.8393 33.5196 88.8019 33.6846 88.7293 33.8277C88.6544 33.9707 88.5444 34.0895 88.3948 34.1775C88.1461 34.336 87.7875 34.4152 87.3188 34.4152H86.0689V34.4196ZM88.1175 32.0783C88.0273 31.9595 87.9041 31.8979 87.7479 31.8979C87.6862 31.8979 87.6224 31.9089 87.5586 31.9309C87.4948 31.9529 87.4354 31.9859 87.3848 32.0299C87.3342 32.0739 87.2924 32.1311 87.2594 32.1993C87.2264 32.2675 87.211 32.3512 87.211 32.4458C87.211 32.5074 87.2176 32.5602 87.2308 32.602C87.244 32.6438 87.2616 32.679 87.2814 32.7054C87.3012 32.7318 87.3232 32.7538 87.3452 32.7715C87.3672 32.7891 87.3892 32.8023 87.409 32.8133C87.464 32.8441 87.53 32.8683 87.6092 32.8815C87.6885 32.8947 87.7809 32.9035 87.8865 32.9035H88.3178C88.3134 32.7186 88.2958 32.5558 88.2606 32.4172C88.2232 32.2785 88.1769 32.1663 88.1175 32.0783ZM87.3166 30.2475L87.7941 29.7656L88.2826 30.2541L87.8007 30.736L87.3166 30.2475ZM89.8801 34.4174H89.3498V30.417H89.8801V34.4174ZM91.2422 36.2724H90.7141V33.3656L91.2246 33.0685C91.2796 33.0993 91.3346 33.1301 91.3918 33.1609C91.4402 33.1873 91.493 33.2159 91.5503 33.249C91.6075 33.2798 91.6625 33.3106 91.7175 33.337C91.7461 33.1697 91.7769 33.0157 91.8143 32.8815C91.8517 32.745 91.8957 32.624 91.9507 32.5162C92.1312 32.1509 92.4172 31.9683 92.8089 31.9683C92.9784 31.9683 93.1346 32.0035 93.2754 32.0739C93.4163 32.1443 93.5351 32.2455 93.6341 32.382C93.7155 32.4942 93.7793 32.624 93.8211 32.7693C93.8629 32.9145 93.8849 33.0707 93.8849 33.2357C93.8849 33.4162 93.8695 33.5724 93.8387 33.7044C93.8079 33.8343 93.7683 33.9465 93.7177 34.0345C93.6671 34.1247 93.6121 34.1952 93.5505 34.2502C93.4889 34.303 93.425 34.3448 93.3612 34.3734C93.2974 34.402 93.2358 34.4218 93.1764 34.4306C93.117 34.4394 93.0642 34.4438 93.0224 34.4438C92.9916 34.4438 92.9498 34.4394 92.8991 34.4306C92.8485 34.4218 92.7803 34.402 92.6945 34.3712C92.6087 34.3404 92.5009 34.2986 92.3688 34.2414C92.239 34.1863 92.0762 34.1093 91.8825 34.0147C91.7527 33.9509 91.6317 33.8893 91.5194 33.8321C91.4072 33.7727 91.3148 33.7243 91.2422 33.6846V36.2724ZM92.217 33.5834C92.3754 33.6626 92.5075 33.7221 92.6087 33.7661C92.7121 33.8101 92.7935 33.8409 92.8529 33.8629C92.9123 33.8849 92.9542 33.8981 92.9784 33.9025C93.0026 33.9069 93.0158 33.9091 93.0202 33.9091C93.04 33.9091 93.0708 33.9047 93.1082 33.8981C93.1456 33.8915 93.183 33.8651 93.2204 33.8233C93.2578 33.7815 93.2886 33.7155 93.315 33.623C93.3414 33.5306 93.3546 33.4008 93.3546 33.2314C93.3546 33.2115 93.3524 33.1785 93.3502 33.1323C93.348 33.0883 93.3392 33.0377 93.3282 32.9827C93.315 32.9277 93.2974 32.8727 93.2754 32.8155C93.2512 32.7583 93.2204 32.7054 93.1808 32.657C93.1412 32.6086 93.0906 32.569 93.029 32.5382C92.9674 32.5074 92.8947 32.492 92.8089 32.492C92.7363 32.492 92.6703 32.5052 92.6131 32.5316C92.5559 32.558 92.5031 32.6108 92.4546 32.6878C92.4062 32.7671 92.3644 32.8771 92.3248 33.0201C92.2874 33.1653 92.2522 33.3524 92.217 33.5834ZM96.0458 34.4196H95.9248C95.7443 34.4196 95.5793 34.3844 95.4275 34.314C95.4275 34.5758 95.3901 34.8091 95.3174 35.0159C95.2448 35.2206 95.137 35.3966 94.9984 35.5396C94.8576 35.6827 94.6859 35.7905 94.4813 35.8653C94.2766 35.9401 94.0412 35.9775 93.7749 35.9775H93.3876V35.4472H93.7749C93.9686 35.4472 94.1336 35.4252 94.2766 35.379C94.4175 35.3328 94.5341 35.2624 94.6265 35.1678C94.7189 35.0731 94.7871 34.9499 94.8311 34.8025C94.8752 34.655 94.8972 34.479 94.8972 34.2744V32.525H95.4275V33.4536C95.4275 33.5592 95.4495 33.6406 95.4935 33.7C95.5375 33.7595 95.5881 33.8035 95.6453 33.8299C95.7025 33.8585 95.7597 33.8761 95.8126 33.8827C95.8654 33.8893 95.9028 33.8915 95.9226 33.8915H96.0436V34.4196H96.0458ZM97.4409 32.1377C97.4453 32.1487 97.4519 32.1795 97.4629 32.2279C97.4739 32.2763 97.4871 32.338 97.5003 32.4084C97.5135 32.481 97.5289 32.5602 97.5465 32.646C97.5641 32.734 97.5773 32.8199 97.5905 32.9101C97.6037 32.9981 97.6147 33.0839 97.6235 33.1675C97.6323 33.249 97.6367 33.3216 97.6367 33.3832C97.6367 33.5636 97.6081 33.7176 97.5487 33.8475C97.4893 33.9773 97.4123 34.0851 97.3177 34.1709C97.223 34.2568 97.1174 34.3184 96.9986 34.3602C96.8798 34.402 96.7609 34.4218 96.6421 34.4218H95.927V33.8915H96.6421C96.6707 33.8915 96.7103 33.8871 96.7609 33.8783C96.8116 33.8695 96.8644 33.8497 96.915 33.8145C96.9656 33.7815 97.0118 33.7309 97.0492 33.6626C97.0866 33.5944 97.1064 33.502 97.1064 33.3832C97.1064 33.3414 97.102 33.2908 97.0976 33.2269C97.091 33.1653 97.0822 33.0971 97.0734 33.0245C97.0624 32.9519 97.0514 32.8793 97.0382 32.8023C97.025 32.7274 97.0118 32.6548 96.9986 32.5866C96.9854 32.5184 96.9744 32.459 96.9612 32.4062C96.9502 32.3534 96.9414 32.3138 96.9326 32.2874L97.4409 32.1377ZM96.5167 30.9781L96.9942 30.4962L97.4827 30.9847L97.0008 31.4666L96.5167 30.9781Z" fill="#636466"/>
<path d="M23.8888 2.31268C23.8888 1.03641 22.8546 0.00219727 21.5783 0.00219727H19.2656V4.62537H23.8888V2.31268Z" fill="#636466"/>
<path d="M86.3128 0.00219727H84.0001H79.377V4.62537H84.0001H88.6233V2.31268C88.6233 1.03641 87.5891 0.00219727 86.3128 0.00219727Z" fill="#636466"/>
<path d="M84 16.1844C84 17.4607 82.9658 18.4971 81.6873 18.4971V18.4949H79.3768V16.1844C79.3768 12.3534 76.272 9.24854 72.441 9.24854C68.61 9.24854 65.5073 12.3534 65.5073 16.1844V23.1202H70.1305H72.4432V18.4949H70.1305V16.1844C70.1305 14.9081 71.1669 13.8739 72.4432 13.8739C73.7194 13.8739 74.7559 14.9081 74.7559 16.1844V18.4949V27.7434H79.379V23.1202H81.6895C85.5205 23.1202 88.6254 20.0154 88.6254 16.1844V9.24854H84.0022V16.1844H84Z" fill="#636466"/>
<path d="M97.8698 0.00219727H93.2466V23.1202H97.8698V0.00219727Z" fill="#636466"/>
<path d="M23.8888 9.24854H19.2656V27.7412H23.8888V9.24854Z" fill="#636466"/>
<path d="M14.6461 16.1822C14.6461 12.3512 11.5413 9.24634 7.71027 9.24634C3.87926 9.24634 0.774414 12.3512 0.774414 16.1822C0.774414 20.011 3.87926 23.1158 7.70807 23.1158V23.118H14.6439V18.4949L14.6461 16.1822ZM10.0207 16.1822V18.4949H7.71027V18.4927C6.434 18.4927 5.39758 17.4585 5.39758 16.1822C5.39758 14.9059 6.4318 13.8717 7.71027 13.8717C8.98653 13.8717 10.0207 14.9059 10.0207 16.1822Z" fill="#636466"/>
<path d="M56.259 9.24854V16.1822C56.259 17.4563 55.227 18.4905 53.9552 18.4949L51.231 18.4971C51.4862 17.7731 51.6337 16.9964 51.6337 16.1844V9.24854H47.0105V16.1822C47.0105 17.4585 45.9763 18.4949 44.6978 18.4949H41.9825C42.2399 17.7709 42.3851 16.9942 42.3851 16.1822V9.24854H37.762V16.1822C37.762 17.4585 36.7278 18.4949 35.4493 18.4949C34.173 18.4949 33.1366 17.4585 33.1366 16.1822V9.24854H33.1344V0H28.5112V11.9463H28.5134V16.1822C28.5134 20.0132 31.6183 23.118 35.4471 23.118V23.1202H53.942L53.9442 23.1136V23.1202C57.7752 23.1202 60.88 20.0154 60.88 16.1844V9.24854H56.259Z" fill="#636466"/>
</svg>
