<svg width="156" height="38" viewBox="0 0 156 38" fill="none" xmlns="http://www.w3.org/2000/svg">
<path d="M16.1089 32.5527L15.5462 31.99L14.9963 32.5456L15.5519 33.1083L16.1089 32.5527Z" fill="#45B649"/>
<path d="M16.925 35.0727C16.925 35.2359 16.9092 35.3863 16.8792 35.5209C16.8477 35.6555 16.789 35.77 16.7016 35.8645C16.6128 35.9605 16.4926 36.0335 16.3365 36.0865C16.1804 36.138 15.9785 36.1652 15.7308 36.1652H14.9719C14.7428 36.1652 14.538 36.1165 14.3576 36.022C14.1772 35.9261 14.0311 35.7901 13.9195 35.6168C13.8307 35.4794 13.772 35.3376 13.7433 35.1915C13.7147 35.0455 13.699 34.908 13.699 34.7792C13.699 34.7147 13.7018 34.6474 13.709 34.5787C13.7262 34.3739 13.7691 34.1563 13.8393 33.9272C13.9094 33.6981 14.0039 33.459 14.1242 33.2084L13.5744 32.9463C13.4326 33.2442 13.3209 33.532 13.2422 33.8112C13.162 34.0904 13.1176 34.3081 13.1076 34.4641C13.0976 34.6202 13.0933 34.7262 13.0933 34.782C13.0933 34.9725 13.1133 35.1529 13.1548 35.3247C13.2035 35.5481 13.2866 35.7514 13.4025 35.9361C13.5701 36.2053 13.7906 36.4129 14.0612 36.5576C14.3333 36.7022 14.6354 36.7752 14.9705 36.7752H15.7294C16.3308 36.7752 16.7818 36.6335 17.0839 36.3499C17.3861 36.0664 17.5364 35.6412 17.5364 35.0713V32.8003H16.925V35.0727Z" fill="#45B649"/>
<path d="M25.4046 31.4887L24.882 30.9646L24.3779 31.4887L24.8877 32.0056L25.4046 31.4887Z" fill="#45B649"/>
<path d="M26.6431 31.4958L26.119 30.9717L25.615 31.4958L26.1262 32.0127L26.6431 31.4958Z" fill="#45B649"/>
<path d="M30.1656 32.733C29.9509 32.65 29.769 32.5784 29.6158 32.5211C29.4626 32.4653 29.3323 32.418 29.2263 32.3822C29.1204 32.345 29.0316 32.3164 28.9629 32.2963C28.8941 32.2763 28.8397 32.2605 28.7996 32.2505C28.7581 32.2405 28.728 32.2362 28.7065 32.2347C28.6851 32.2333 28.6665 32.2333 28.655 32.2333C28.1223 32.2333 27.7744 32.5512 27.6083 33.1898L28.1997 33.3445C28.2326 33.2227 28.2655 33.1268 28.3028 33.0595C28.3385 32.9908 28.3758 32.9407 28.4159 32.9092C28.4545 32.8762 28.4932 32.8576 28.5333 32.8505C28.5734 32.8447 28.6106 32.8404 28.6478 32.8404C28.6894 32.8462 28.771 32.8691 28.8941 32.9077C29.0187 32.9464 29.1662 32.9965 29.338 33.0581C29.5113 33.1182 29.7003 33.1898 29.9093 33.27C30.117 33.3502 30.326 33.4318 30.5336 33.5163C30.3819 33.6036 30.2072 33.6996 30.0067 33.7998C29.8062 33.9 29.5915 33.9917 29.3623 34.0776C29.1332 34.1621 28.897 34.2337 28.6507 34.2909C28.403 34.3482 28.1596 34.3754 27.919 34.3754H27.173H27.0341H26.6074C26.5902 34.3754 26.5644 34.374 26.5301 34.3726C26.4957 34.3711 26.4571 34.364 26.4141 34.3539C26.3711 34.3425 26.3267 34.3267 26.2795 34.3053C26.2337 34.2838 26.1922 34.2537 26.1549 34.2165C26.1191 34.1792 26.0876 34.132 26.0633 34.0762C26.0375 34.0203 26.0261 33.9516 26.0261 33.8714V32.8018H25.4189V33.8943C25.4189 33.9459 25.4132 34.0003 25.3989 34.0575C25.3846 34.1148 25.3545 34.1664 25.3087 34.2122C25.2629 34.258 25.1941 34.2967 25.1039 34.3282C25.0137 34.3582 24.8891 34.374 24.7345 34.374H23.7751H23.662C23.6391 34.374 23.5947 34.3683 23.5317 34.3568C23.4673 34.3453 23.4028 34.3167 23.3384 34.2752C23.2725 34.2337 23.2138 34.1707 23.1637 34.089C23.1136 34.006 23.0878 33.8929 23.0878 33.7511C23.0878 33.5607 23.062 33.3788 23.0119 33.2013C22.9604 33.0251 22.8845 32.8691 22.7814 32.7316C22.6783 32.5956 22.548 32.4882 22.3919 32.4066C22.2344 32.325 22.0511 32.2863 21.8406 32.2863C21.6574 32.2863 21.5027 32.3164 21.3753 32.3765C21.2464 32.4366 21.1376 32.5154 21.0488 32.6128C20.9586 32.7101 20.8856 32.8204 20.8269 32.945C20.7682 33.0695 20.7195 33.1984 20.6765 33.3301C20.6336 33.4619 20.5963 33.5893 20.5648 33.7153C20.5319 33.8399 20.4961 33.9516 20.4574 34.0475C20.4202 34.1449 20.373 34.2236 20.3214 34.2838C20.2684 34.3439 20.2011 34.374 20.1195 34.374H19.9964C19.7945 34.3726 19.6413 34.3597 19.5396 34.3368C19.4365 34.3138 19.3606 34.2709 19.3105 34.2079C19.2604 34.1435 19.2289 34.0547 19.216 33.9373C19.2045 33.8213 19.1988 33.6695 19.1988 33.4819V30.3733H18.5874V33.4819C18.5874 33.6495 18.5931 33.8027 18.6046 33.9401C18.616 34.0776 18.639 34.2022 18.6719 34.3124C18.7062 34.4241 18.7535 34.52 18.8151 34.6031C18.8781 34.6861 18.9583 34.7549 19.0614 34.8107C19.1645 34.8651 19.289 34.9081 19.4365 34.9367C19.5525 34.9596 19.7014 34.9711 19.8675 34.9782V34.984H20.1195C20.3973 34.984 20.625 34.8794 20.8011 34.6704C20.9357 34.7434 21.056 34.8093 21.1691 34.868C21.2793 34.9267 21.3853 34.9754 21.487 35.0155C21.5886 35.0556 21.6874 35.0856 21.7848 35.1071C21.8822 35.1286 21.9838 35.14 22.0884 35.14C22.1356 35.14 22.1929 35.1357 22.2559 35.1257C22.3203 35.1157 22.3876 35.0971 22.4578 35.067C22.5265 35.0384 22.5967 34.9954 22.6668 34.941C22.737 34.8852 22.8014 34.8136 22.8587 34.7234C22.969 34.8078 23.0907 34.8708 23.2267 34.9167C23.3556 34.9596 23.493 34.9811 23.6377 34.9825V34.9854H23.6634H23.7766H24.7359C25.1755 34.9854 25.5077 34.8737 25.7311 34.6503C25.8213 34.762 25.9401 34.8465 26.0919 34.9023C26.2423 34.9596 26.4141 34.9868 26.6103 34.9868H27.037H27.1759H27.9219C28.1982 34.9868 28.4731 34.9568 28.7481 34.8952C29.0244 34.8351 29.2893 34.7563 29.5413 34.6647C29.7948 34.573 30.031 34.4714 30.2501 34.3611C30.4706 34.2523 30.6625 34.1492 30.8272 34.0532C30.9918 33.9573 31.1236 33.8757 31.2224 33.8098C31.3212 33.7425 31.377 33.7053 31.3899 33.6967L31.3097 33.1597L30.1656 32.733ZM22.4721 34.079C22.4549 34.1692 22.4349 34.2423 22.4105 34.2995C22.3862 34.3568 22.3576 34.4012 22.3261 34.4313C22.296 34.4628 22.2645 34.4857 22.233 34.5C22.2029 34.5143 22.1743 34.5243 22.1485 34.5258C22.1227 34.5286 22.0998 34.5286 22.0841 34.5286C22.0153 34.5286 21.9452 34.5186 21.8722 34.4986C21.8006 34.4785 21.7232 34.4499 21.6416 34.4141C21.56 34.3783 21.4727 34.3368 21.3767 34.2866C21.2822 34.238 21.1791 34.185 21.0674 34.1277C21.1018 34.0289 21.1333 33.9287 21.1576 33.8284C21.1834 33.7282 21.2092 33.6323 21.235 33.5406C21.2607 33.449 21.2879 33.3645 21.318 33.2858C21.3481 33.207 21.3853 33.1383 21.4311 33.0796C21.4755 33.0223 21.5314 32.9765 21.5972 32.9421C21.6631 32.9092 21.7433 32.892 21.8378 32.892C21.9394 32.892 22.0268 32.9106 22.097 32.945C22.1686 32.9808 22.2287 33.0266 22.2788 33.0824C22.3275 33.1397 22.3676 33.1998 22.3962 33.2671C22.4249 33.3344 22.4478 33.3989 22.4621 33.4619C22.4778 33.5263 22.4879 33.5836 22.4907 33.6351C22.495 33.6867 22.4979 33.7253 22.4979 33.7482C22.4965 33.8814 22.4893 33.9902 22.4721 34.079Z" fill="#45B649"/>
<path d="M29.0689 30.9175L28.5076 30.3547L27.9578 30.9103L28.5133 31.473L29.0689 30.9175Z" fill="#45B649"/>
<path d="M38.92 33.2299C38.9028 33.1297 38.8871 33.0294 38.8684 32.9306C38.8498 32.8318 38.8326 32.7416 38.8155 32.66C38.7983 32.5784 38.7825 32.5125 38.7711 32.4567C38.7582 32.4008 38.7496 32.3679 38.7453 32.355L38.1668 32.5397C38.1754 32.5669 38.1854 32.6113 38.1998 32.67C38.2126 32.7287 38.227 32.796 38.2427 32.8691C38.257 32.9435 38.2713 33.0237 38.2871 33.1082C38.3028 33.1927 38.3157 33.2772 38.3286 33.3588C38.3401 33.4404 38.3501 33.5177 38.3573 33.5879C38.3659 33.6595 38.3687 33.7182 38.3687 33.7654C38.3687 33.8986 38.3487 34.0046 38.3071 34.0847C38.2656 34.1649 38.2169 34.2265 38.1597 34.2695C38.1024 34.3124 38.0451 34.3411 37.9864 34.3554C37.9277 34.3683 37.8819 34.3768 37.8475 34.3768C37.6241 34.3768 37.4609 34.3267 37.3592 34.2279C37.259 34.1291 37.2075 33.9745 37.2075 33.7654V32.7989H36.6003V33.7654C36.6003 33.9029 36.5774 34.0117 36.5345 34.0905C36.4901 34.1707 36.4385 34.2308 36.3784 34.2723C36.3197 34.3138 36.2595 34.3396 36.2008 34.3525C36.1421 34.364 36.0963 34.3697 36.0634 34.3697C35.84 34.3697 35.6782 34.321 35.5808 34.2251C35.4835 34.1277 35.4333 33.9745 35.4333 33.7669V32.8003H34.8219V33.7798C34.8219 33.9172 34.8005 34.026 34.7561 34.1062C34.7117 34.1864 34.6616 34.2451 34.6029 34.2852C34.5441 34.3253 34.4854 34.3496 34.4253 34.3597C34.3652 34.3697 34.3179 34.374 34.2864 34.374H33.6736C33.4717 34.3711 33.3185 34.3597 33.2168 34.3368C33.1137 34.3138 33.0378 34.2709 32.9877 34.2079C32.9361 34.1449 32.9061 34.0547 32.8932 33.9373C32.8803 33.8213 32.8746 33.6695 32.8746 33.4819V30.3733H32.2617V33.4819C32.2617 33.6495 32.2674 33.8027 32.2775 33.9401C32.2889 34.0776 32.3118 34.2022 32.3462 34.3124C32.3806 34.4241 32.4278 34.52 32.4894 34.6045C32.551 34.6876 32.6326 34.7563 32.7342 34.8107C32.8373 34.8651 32.9619 34.9081 33.1094 34.9367C33.2254 34.9596 33.3743 34.9711 33.5418 34.9782V34.984H34.285C34.4368 34.984 34.5857 34.9553 34.7346 34.8995C34.8835 34.8422 35.0138 34.7534 35.1269 34.6317C35.2343 34.7434 35.366 34.8293 35.5236 34.888C35.6811 34.9482 35.8615 34.9768 36.0634 34.9768C36.2123 34.9768 36.3612 34.9482 36.5073 34.8895C36.6562 34.8308 36.785 34.7434 36.8967 34.6246C37.007 34.7405 37.1402 34.8308 37.2991 34.8909C37.458 34.9525 37.6399 34.9825 37.8475 34.9825C37.9835 34.9811 38.1181 34.9539 38.2542 34.9023C38.3902 34.8522 38.5105 34.7763 38.6179 34.6775C38.7238 34.5773 38.8112 34.4513 38.8785 34.2995C38.9443 34.1477 38.9787 33.9688 38.9787 33.7654C38.9787 33.6938 38.973 33.6122 38.9629 33.5177C38.9501 33.4261 38.9372 33.3301 38.92 33.2299Z" fill="#45B649"/>
<path d="M44.9612 31.987L44.4386 31.4629L43.9346 31.987L44.4458 32.5039L44.9612 31.987Z" fill="#45B649"/>
<path d="M48.1557 33.0924C48.1442 33.0251 48.1314 32.9535 48.117 32.8747C48.1027 32.796 48.0841 32.7115 48.0655 32.6184L47.4741 32.7186C47.4913 32.8146 47.5071 32.8976 47.5185 32.9735C47.5314 33.0494 47.5443 33.1181 47.5543 33.184C47.5658 33.2484 47.5743 33.31 47.5815 33.3673C47.5887 33.4246 47.5958 33.479 47.603 33.5334C47.6087 33.5892 47.6144 33.6379 47.6187 33.6809C47.623 33.7238 47.6273 33.761 47.6288 33.7911V33.8269C47.6288 33.9959 47.5815 34.1305 47.4899 34.2307C47.4398 34.2808 47.381 34.3195 47.3123 34.3467C47.2436 34.3739 47.1691 34.3882 47.0889 34.3882H43.0439C43.0109 34.3882 42.9637 34.3825 42.9021 34.3725C42.8405 34.361 42.779 34.3352 42.7188 34.2951C42.6558 34.2536 42.6043 34.192 42.5585 34.1119C42.5141 34.0288 42.4912 33.9171 42.4912 33.7754C42.4912 33.7038 42.4983 33.6207 42.5141 33.5248C42.5298 33.4288 42.5499 33.3343 42.5728 33.2398C42.5942 33.1439 42.6186 33.0566 42.6401 32.9721C42.6615 32.889 42.6802 32.8246 42.6931 32.7802L42.1117 32.5969C42.106 32.6155 42.0902 32.6685 42.0645 32.753C42.0401 32.8375 42.0143 32.9391 41.9886 33.0537C41.9614 33.1682 41.937 33.2914 41.9155 33.4203C41.8941 33.5491 41.884 33.668 41.884 33.7754C41.884 33.8956 41.8941 34.0045 41.9155 34.1018C41.937 34.1992 41.9657 34.2851 42.0014 34.361C42.0372 34.4369 42.0759 34.5028 42.1203 34.5586C42.1633 34.6144 42.2062 34.6617 42.2492 34.7018C42.3523 34.7992 42.4725 34.8722 42.6071 34.9223C42.7432 34.9739 42.8849 34.9996 43.0367 35.0025H47.0889C47.2507 35.0025 47.4054 34.9724 47.5514 34.9123C47.6975 34.8521 47.8235 34.7662 47.9295 34.6531C47.9681 34.6145 48.0068 34.5686 48.044 34.5128C48.0812 34.4569 48.1156 34.3925 48.1457 34.3195C48.1757 34.245 48.1987 34.1663 48.213 34.0832C48.2287 34.0002 48.2359 33.9157 48.2359 33.8298V33.7653C48.2316 33.6937 48.2216 33.5978 48.2072 33.479C48.1944 33.3558 48.1757 33.227 48.1557 33.0924Z" fill="#45B649"/>
<path d="M46.2 31.9942L45.6773 31.4688L45.1719 31.9942L45.6831 32.5112L46.2 31.9942Z" fill="#45B649"/>
<path d="M53.3623 32.7331C53.2577 32.597 53.1289 32.4897 52.9728 32.408C52.8153 32.3264 52.6334 32.2878 52.4215 32.2878C52.2382 32.2878 52.0836 32.3178 51.9547 32.378C51.8259 32.4381 51.717 32.5169 51.6283 32.6142C51.538 32.7116 51.465 32.8218 51.4063 32.9464C51.349 33.071 51.2989 33.1999 51.256 33.3316C51.2144 33.4633 51.1758 33.5908 51.1443 33.7168C51.1113 33.8414 51.077 33.953 51.0383 34.049C50.9997 34.1463 50.9538 34.2251 50.9009 34.2852C50.8479 34.3454 50.7806 34.3754 50.699 34.3754H50.4527C50.2508 34.374 50.0976 34.3611 49.9959 34.3382C49.8928 34.3153 49.8169 34.2724 49.7654 34.2093C49.7153 34.1449 49.6838 34.0561 49.6723 33.9387C49.6594 33.8227 49.6551 33.671 49.6551 33.4834V30.3748H49.0437V33.4834C49.0437 33.6509 49.0494 33.8041 49.0609 33.9416C49.0709 34.079 49.0938 34.2036 49.1282 34.3139C49.1625 34.4256 49.2098 34.5215 49.2714 34.6045C49.3329 34.6876 49.4146 34.7563 49.5177 34.8122C49.6208 34.8666 49.7453 34.9095 49.8914 34.9382C50.0102 34.9611 50.1591 34.974 50.3267 34.9797V34.9854H50.699C50.9767 34.9854 51.203 34.8809 51.3805 34.6718C51.5137 34.7449 51.6354 34.8107 51.7471 34.8694C51.8574 34.9282 51.9633 34.9768 52.065 35.0169C52.1666 35.057 52.2654 35.0871 52.3628 35.1086C52.4602 35.1301 52.5618 35.1415 52.6664 35.1415C52.7151 35.1415 52.7752 35.1358 52.8439 35.1243C52.9127 35.1129 52.9842 35.0914 53.0587 35.0599C53.1332 35.027 53.2048 34.9797 53.2778 34.9167C53.3508 34.8537 53.4153 34.7721 53.474 34.669C53.5312 34.5673 53.5785 34.4399 53.6143 34.2895C53.6501 34.1378 53.6673 33.9588 53.6673 33.7497C53.6673 33.5593 53.6415 33.3774 53.5914 33.1999C53.5413 33.0252 53.4654 32.8691 53.3623 32.7331ZM53.0558 34.079C53.0387 34.1693 53.0186 34.2423 52.9943 34.2996C52.9699 34.3568 52.9413 34.4012 52.9098 34.4313C52.8783 34.4628 52.8482 34.4857 52.8167 34.5C52.7852 34.5143 52.7566 34.5244 52.7294 34.5258C52.7022 34.5287 52.6807 34.5287 52.6664 34.5287C52.5976 34.5287 52.5275 34.5186 52.4545 34.4986C52.3829 34.4785 52.3055 34.4499 52.2239 34.4141C52.1423 34.3783 52.0535 34.3368 51.959 34.2867C51.8645 34.238 51.7614 34.185 51.6497 34.1277C51.6841 34.0289 51.7142 33.9287 51.7399 33.8285C51.7657 33.7282 51.7915 33.6323 51.8173 33.5407C51.843 33.449 51.8702 33.3645 51.9003 33.2858C51.9304 33.207 51.9676 33.1383 52.0134 33.0796C52.0578 33.0223 52.1137 32.9765 52.1795 32.9421C52.2454 32.9092 52.3256 32.892 52.4201 32.892C52.5203 32.892 52.6077 32.9106 52.6793 32.945C52.7509 32.9808 52.8096 33.0266 52.8611 33.0825C52.9098 33.1397 52.9499 33.1999 52.9785 33.2672C53.0072 33.3345 53.0301 33.3989 53.0444 33.4619C53.0587 33.5263 53.0702 33.5836 53.073 33.6352C53.0773 33.6867 53.0788 33.7254 53.0788 33.7483C53.0802 33.8814 53.073 33.9903 53.0558 34.079Z" fill="#45B649"/>
<path d="M61.1845 32.7331C60.9711 32.6486 60.7879 32.5784 60.6346 32.5211C60.4814 32.4639 60.3511 32.4181 60.2452 32.3808C60.1392 32.3436 60.0519 32.315 59.9817 32.2949C59.913 32.2749 59.8571 32.2591 59.817 32.2505C59.7755 32.2405 59.744 32.2362 59.7225 32.2348C59.7011 32.2333 59.6853 32.2319 59.671 32.2319C59.1383 32.2319 58.7904 32.5512 58.6243 33.1884L59.2156 33.3431C59.2486 33.2199 59.2829 33.1254 59.3187 33.0567C59.356 32.9894 59.3932 32.9378 59.4319 32.9063C59.472 32.8734 59.5092 32.8548 59.5507 32.8476C59.5908 32.8419 59.628 32.8376 59.6653 32.8376C59.7068 32.8433 59.7884 32.8662 59.913 32.9049C60.0361 32.945 60.1836 32.9937 60.3569 33.0552C60.5301 33.1168 60.7191 33.187 60.9282 33.2672C61.1358 33.3474 61.3449 33.429 61.5539 33.5135C61.4021 33.6022 61.2274 33.6967 61.027 33.797C60.8265 33.8972 60.6117 33.9903 60.3841 34.0747C60.155 34.1592 59.9187 34.2308 59.671 34.2881C59.4247 34.3454 59.1798 34.374 58.9393 34.374H58.1861H58.0673C57.9699 34.374 57.8826 34.3468 57.8009 34.2938C57.7208 34.2423 57.6434 34.175 57.5704 34.0934C57.4974 34.0117 57.4272 33.923 57.3614 33.8256C57.2955 33.7268 57.231 33.6323 57.1666 33.5392L55.9137 31.6262L55.3997 31.9613L56.611 33.807C56.6626 33.8872 56.6955 33.9516 56.7113 33.9989C56.727 34.0475 56.7342 34.0819 56.7342 34.1034C56.7342 34.1363 56.7242 34.1621 56.7055 34.185C56.6841 34.2294 56.6325 34.2709 56.5523 34.3067C56.4722 34.3425 56.3691 34.3697 56.2445 34.3898C56.1371 34.4041 56.044 34.4112 55.9667 34.4141C55.8894 34.4155 55.835 34.4155 55.802 34.4155C55.709 34.4155 55.6173 34.4112 55.5242 34.4027C55.4011 34.3912 55.2851 34.3726 55.1763 34.3454C55.0675 34.3182 54.9758 34.2838 54.8999 34.2408L54.6322 34.0862L54.3286 34.6189L54.5935 34.7735C54.6723 34.8193 54.7625 34.858 54.8613 34.8924C54.9601 34.9253 55.0632 34.9525 55.1691 34.9725C55.2765 34.9926 55.3853 35.0083 55.497 35.0169C55.6102 35.027 55.7204 35.0313 55.8307 35.0313C55.9209 35.0313 56.0082 35.0284 56.0927 35.0212C56.1772 35.0155 56.2559 35.0069 56.3318 34.9955C56.737 34.9367 57.0206 34.7993 57.1824 34.5816C57.4501 34.8451 57.7422 34.9768 58.0572 34.9811V34.9826H58.0701H58.189H58.9422C59.2185 34.9826 59.4934 34.9525 59.7698 34.8909C60.0461 34.8294 60.3096 34.752 60.563 34.659C60.8165 34.5673 61.0528 34.4657 61.2718 34.3554C61.4923 34.2451 61.6842 34.142 61.8489 34.0475C62.0136 33.9516 62.1467 33.87 62.2455 33.8027C62.3443 33.7354 62.4002 33.6982 62.413 33.6896L62.3314 33.1526L61.1845 32.7331Z" fill="#45B649"/>
<path d="M60.0891 30.9175L59.5264 30.3547L58.9766 30.9103L59.5321 31.473L60.0891 30.9175Z" fill="#45B649"/>
<path d="M72.2431 32.7329C72.14 32.5969 72.0097 32.4895 71.8536 32.4079C71.6961 32.3262 71.5143 32.2876 71.3024 32.2876C71.1191 32.2876 70.9644 32.3176 70.837 32.3778C70.7081 32.4379 70.5993 32.5167 70.5105 32.6141C70.4217 32.7114 70.3473 32.8217 70.2886 32.9462C70.2299 33.0708 70.1812 33.1997 70.1382 33.3314C70.0953 33.4632 70.058 33.5906 70.0265 33.7166C69.9936 33.8412 69.9592 33.9529 69.9192 34.0488C69.8819 34.1462 69.8361 34.2249 69.7831 34.2851C69.7301 34.3452 69.6628 34.3753 69.5812 34.3753H69.3364H69.2104H68.1279C68.1221 34.3738 68.1093 34.3681 68.0878 34.3581C68.0677 34.3509 68.0391 34.3337 68.0033 34.3123C67.9661 34.2908 67.9202 34.2579 67.8644 34.2163C67.8086 34.1762 67.7413 34.1218 67.6596 34.0545C67.8128 33.9572 67.9589 33.8569 68.0949 33.751C68.2324 33.645 68.3512 33.5305 68.4558 33.4087C68.5689 33.2727 68.6319 33.1567 68.6476 33.0594C68.6648 32.9606 68.6734 32.8918 68.6734 32.8532C68.6734 32.7415 68.6476 32.6312 68.599 32.5238C68.5302 32.3749 68.4243 32.2575 68.2839 32.1716C68.1422 32.0857 67.9832 32.0427 67.8043 32.0427H66.7404C66.5571 32.0427 66.4024 32.0642 66.2736 32.1086C66.1447 32.153 66.0373 32.2231 65.9514 32.3162C65.9084 32.3663 65.8741 32.4164 65.8483 32.468C65.8225 32.5195 65.8025 32.5711 65.7896 32.6226C65.7781 32.6742 65.7681 32.7257 65.7638 32.7744C65.7595 32.8231 65.7581 32.8689 65.7581 32.9104L65.8397 33.1109C65.844 33.1166 65.8683 33.1453 65.9127 33.1925C65.9557 33.2412 66.0158 33.3057 66.0903 33.3844C66.1647 33.4617 66.2492 33.5519 66.3452 33.6507C66.4411 33.7495 66.5428 33.8512 66.6502 33.9572C66.4826 34.0588 66.3194 34.1619 66.1604 34.2679C66.0029 34.3738 65.8569 34.4855 65.7223 34.6029C65.5247 34.7848 65.3772 34.9681 65.2798 35.1542C65.1825 35.3404 65.1338 35.5365 65.1338 35.7413C65.1338 36.0448 65.1939 36.3126 65.3156 36.5431C65.4359 36.7751 65.6163 36.9641 65.8555 37.1102C65.9671 37.1818 66.0831 37.2376 66.2034 37.2806C66.3223 37.3235 66.4411 37.3565 66.5599 37.3808C66.6788 37.4051 66.7933 37.4209 66.9036 37.4295C67.0153 37.4381 67.117 37.4424 67.21 37.4424H68.7092V36.831H67.21C67.1198 36.831 67.0196 36.8252 66.9122 36.8166C66.8034 36.8066 66.6974 36.788 66.5886 36.7594C66.4812 36.7307 66.3752 36.6921 66.2736 36.6405C66.1705 36.5904 66.0803 36.5245 66.0044 36.4429C65.9271 36.3627 65.864 36.2639 65.8168 36.1494C65.7681 36.0348 65.7452 35.8974 65.7452 35.7384C65.7452 35.6081 65.7839 35.485 65.8626 35.3647C65.9414 35.2444 66.0445 35.1299 66.1719 35.0182C66.2993 34.9079 66.444 34.8005 66.6072 34.6946C66.7704 34.5901 66.9394 34.487 67.1112 34.3867C67.2573 34.5142 67.3847 34.6158 67.4921 34.6946C67.5995 34.7733 67.6926 34.8335 67.7713 34.8764C67.8501 34.918 67.9174 34.9466 67.9732 34.9595C68.0291 34.9738 68.0792 34.981 68.1207 34.981H69.2104H69.3364H69.5812C69.859 34.981 70.0867 34.8764 70.2628 34.6674C70.3974 34.7404 70.5191 34.8063 70.6308 34.865C70.7411 34.9237 70.847 34.9724 70.9487 35.0125C71.0503 35.0526 71.1491 35.0826 71.2465 35.1041C71.3439 35.1256 71.4441 35.137 71.5501 35.137C71.6002 35.137 71.6589 35.1313 71.7276 35.1199C71.7964 35.1084 71.8694 35.0869 71.9424 35.0554C72.0169 35.0225 72.0899 34.9752 72.1629 34.9122C72.2359 34.8492 72.3004 34.7676 72.3577 34.6645C72.4164 34.5628 72.4622 34.4354 72.4994 34.2851C72.5352 34.1333 72.5524 33.9543 72.5524 33.7452C72.5524 33.5548 72.5266 33.3729 72.4765 33.1954C72.4221 33.025 72.3462 32.8689 72.2431 32.7329ZM67.1885 33.6321L67.084 33.5419C67.0081 33.4689 66.9351 33.3959 66.8635 33.3228C66.7933 33.2484 66.726 33.1796 66.663 33.1152C66.6 33.0508 66.5442 32.9906 66.4941 32.9362C66.444 32.8804 66.4024 32.836 66.3695 32.7988C66.3738 32.7687 66.3838 32.7415 66.3981 32.7171C66.4024 32.7143 66.4096 32.71 66.4225 32.7028C66.4339 32.6957 66.4526 32.6871 66.4769 32.6785C66.5027 32.6699 66.5356 32.6627 66.5771 32.657C66.6187 32.6513 66.6716 32.6484 66.7332 32.6484H67.7971C67.8529 32.6484 67.9031 32.6584 67.9474 32.6813C67.9918 32.7028 68.0233 32.7343 68.0434 32.7787C68.052 32.8031 68.0563 32.826 68.0563 32.8503C68.0563 32.9062 68.0319 32.962 67.9818 33.015C67.8916 33.1252 67.7771 33.2312 67.6382 33.3329C67.5007 33.436 67.3504 33.5348 67.1885 33.6321ZM71.9367 34.0789C71.9195 34.1691 71.9009 34.2421 71.8751 34.2994C71.8508 34.3567 71.8221 34.401 71.7906 34.4311C71.7606 34.4626 71.7291 34.4855 71.6976 34.4998C71.6661 34.5142 71.6374 34.5242 71.6102 34.5256C71.583 34.5285 71.5615 34.5285 71.5472 34.5285C71.4785 34.5285 71.4083 34.5185 71.3353 34.4984C71.2623 34.4784 71.1849 34.4497 71.1033 34.4139C71.0217 34.3781 70.9344 34.3366 70.8384 34.2865C70.7439 34.2378 70.6394 34.1848 70.5291 34.1276C70.5635 34.0288 70.5936 33.9285 70.6193 33.8283C70.6451 33.7281 70.6723 33.6321 70.6967 33.5405C70.7224 33.4488 70.7496 33.3644 70.7811 33.2856C70.8098 33.2069 70.8484 33.1381 70.8943 33.0794C70.9387 33.0221 70.9945 32.9763 71.0604 32.9419C71.1262 32.909 71.2064 32.8918 71.3009 32.8918C71.4026 32.8918 71.4899 32.9105 71.5601 32.9448C71.6317 32.9806 71.6918 33.0264 71.7419 33.0823C71.7921 33.1396 71.8307 33.1997 71.8594 33.267C71.888 33.3343 71.9109 33.3987 71.9267 33.4617C71.941 33.5262 71.9524 33.5834 71.9553 33.635C71.9596 33.6865 71.961 33.7252 71.961 33.7481C71.961 33.8813 71.9539 33.9901 71.9367 34.0789Z" fill="#45B649"/>
<path d="M76.5947 36.1422L77.1503 36.705L77.7073 36.1494L77.1446 35.5867L76.5947 36.1422Z" fill="#45B649"/>
<path d="M78.0365 32.733C77.8231 32.6486 77.6398 32.5784 77.4866 32.5211C77.3334 32.4638 77.2031 32.418 77.0971 32.3808C76.9912 32.3436 76.9038 32.3149 76.8337 32.2949C76.7649 32.2748 76.7091 32.2591 76.669 32.2505C76.6275 32.2405 76.596 32.2362 76.5745 32.2347C76.553 32.2333 76.5373 32.2319 76.523 32.2319C75.9903 32.2319 75.6423 32.5512 75.4762 33.1884L76.0676 33.343C76.1006 33.2199 76.1349 33.1254 76.1707 33.0566C76.2079 32.9894 76.2452 32.9378 76.2838 32.9063C76.3239 32.8734 76.3626 32.8548 76.4027 32.8476C76.4428 32.8419 76.48 32.8376 76.5172 32.8376C76.5588 32.8433 76.6404 32.8662 76.7649 32.9049C76.8881 32.945 77.0356 32.9936 77.2088 33.0552C77.3821 33.1168 77.5711 33.187 77.7802 33.2671C77.9878 33.3473 78.1968 33.4289 78.4059 33.5134C78.2541 33.6022 78.0794 33.6967 77.879 33.7969C77.6785 33.8972 77.4637 33.9902 77.236 34.0747C77.0069 34.1592 76.7707 34.2308 76.523 34.2881C76.2767 34.3453 76.0318 34.374 75.7913 34.374H75.0352C74.8348 34.3711 74.6816 34.3597 74.5785 34.3368C74.4754 34.3153 74.3995 34.2709 74.3494 34.2079C74.2992 34.1435 74.2677 34.0547 74.2563 33.9373C74.2448 33.8213 74.2391 33.6695 74.2391 33.4819V30.3733H73.6277V33.4819C73.6277 33.6509 73.6334 33.8027 73.6449 33.9416C73.6563 34.079 73.6792 34.2036 73.7122 34.3138C73.7465 34.4241 73.7938 34.5215 73.8554 34.6045C73.9184 34.6876 73.9985 34.7563 74.1016 34.8107C74.2047 34.8666 74.3293 34.9081 74.4754 34.9367C74.5928 34.9611 74.7417 34.9725 74.9064 34.9782V34.9825H75.7927C76.0691 34.9825 76.3454 34.9525 76.6203 34.8909C76.8967 34.8293 77.1616 34.752 77.4136 34.6589C77.667 34.5673 77.9033 34.4656 78.1224 34.3554C78.3429 34.2451 78.5348 34.142 78.6994 34.0475C78.8627 33.9516 78.9958 33.87 79.0946 33.8027C79.1934 33.7354 79.2493 33.6981 79.2622 33.6895L79.1805 33.1526L78.0365 32.733Z" fill="#45B649"/>
<path d="M87.6414 33.2455C87.6271 33.1424 87.6085 33.0421 87.5899 32.9419C87.5713 32.8417 87.5527 32.75 87.5369 32.667C87.5212 32.5839 87.5068 32.5152 87.494 32.4594C87.4811 32.4035 87.4725 32.3692 87.4682 32.3548L86.8897 32.5324C86.8983 32.5625 86.9098 32.6083 86.9226 32.6684C86.9355 32.7286 86.9499 32.7973 86.9642 32.876C86.9799 32.9534 86.9942 33.0364 87.01 33.1223C87.0243 33.2097 87.0386 33.2956 87.0515 33.3772C87.063 33.4602 87.073 33.5376 87.0802 33.6092C87.0873 33.6822 87.0916 33.7409 87.0916 33.7882C87.0916 33.9256 87.0701 34.033 87.0257 34.1118C86.9828 34.1891 86.9298 34.2478 86.8711 34.2864C86.8124 34.3251 86.7522 34.3495 86.6935 34.3595C86.6348 34.3695 86.589 34.3738 86.5561 34.3738H85.8616H85.78C85.7012 34.3738 85.6096 34.3666 85.5079 34.3495C85.4048 34.3337 85.3046 34.2993 85.2058 34.2464C85.107 34.1934 85.0154 34.1175 84.9309 34.0201C84.8464 33.9227 84.7834 33.7924 84.7404 33.6306C84.7247 33.5805 84.7075 33.519 84.6889 33.4431C84.6689 33.3686 84.6488 33.287 84.6273 33.2011C84.6059 33.1137 84.5844 33.0264 84.5629 32.9362C84.5414 32.8445 84.5214 32.7615 84.5013 32.6827C84.4827 32.604 84.4655 32.5353 84.4512 32.4737C84.4369 32.4135 84.4269 32.3706 84.4211 32.3448C84.3911 32.2116 84.3567 32.0613 84.318 31.8938C84.2779 31.7262 84.2336 31.5358 84.182 31.3196L83.5878 31.447L83.6493 31.795C83.111 31.9553 82.6928 32.1844 82.3979 32.4866C82.2289 32.6613 82.1187 32.8345 82.0642 33.0049C82.0084 33.1739 81.9812 33.3285 81.9812 33.4674C81.9812 33.549 81.9898 33.6321 82.0041 33.7151C82.0342 33.8984 82.0958 34.0573 82.1903 34.1919C82.2833 34.3265 82.4079 34.4354 82.5625 34.517C82.6628 34.5728 82.7673 34.6129 82.8747 34.6358C82.9807 34.6602 83.0852 34.6716 83.1854 34.6716C83.2857 34.6716 83.383 34.663 83.4732 34.6459C83.5634 34.6287 83.6422 34.6058 83.7109 34.5771C83.8326 34.5241 83.94 34.4626 84.036 34.391C84.1319 34.3222 84.2149 34.2392 84.2837 34.1447C84.4211 34.4096 84.6187 34.6158 84.8765 34.7633C85.1213 34.9036 85.4063 34.9752 85.7313 34.9809V34.9838H85.78H85.8616H86.5561C86.6935 34.9838 86.831 34.9594 86.9656 34.9122C87.1016 34.8664 87.2233 34.7933 87.3336 34.6945C87.4424 34.5972 87.5312 34.4726 87.5985 34.3222C87.6658 34.1719 87.7002 33.9943 87.7002 33.7882C87.7002 33.7166 87.6944 33.6335 87.683 33.539C87.6687 33.4459 87.6558 33.3471 87.6414 33.2455ZM83.9472 33.4015C83.9014 33.6965 83.7439 33.8998 83.4718 34.013C83.4317 34.0301 83.3873 34.0416 83.3401 34.0502C83.2928 34.0573 83.247 34.0616 83.2012 34.0616H83.1682C83.1124 34.0616 83.0565 34.0559 83.0007 34.043C82.9449 34.0316 82.8933 34.0115 82.8461 33.9843C82.7802 33.9471 82.7201 33.8984 82.6714 33.8368C82.6213 33.7767 82.5883 33.6994 82.574 33.6092C82.5654 33.5633 82.5611 33.519 82.5611 33.476C82.5611 33.3915 82.5754 33.3099 82.6069 33.2311C82.6513 33.1094 82.7272 32.9977 82.8346 32.8932C82.9406 32.7887 83.0766 32.6942 83.2398 32.6068C83.4031 32.5209 83.5906 32.4465 83.804 32.3835L83.93 32.9405C83.9372 32.9705 83.9429 33.0149 83.95 33.0722C83.9558 33.1295 83.9601 33.1753 83.9601 33.2082C83.9601 33.2684 83.9558 33.3328 83.9472 33.4015Z" fill="#45B649"/>
<path d="M87.5113 31.0276L86.95 30.4648L86.4001 31.0204L86.9557 31.5831L87.5113 31.0276Z" fill="#45B649"/>
<path d="M92.9079 32.7331C92.8034 32.597 92.6745 32.4897 92.5185 32.408C92.3624 32.3264 92.1791 32.2878 91.9672 32.2878C91.7839 32.2878 91.6293 32.3178 91.5004 32.378C91.3715 32.4381 91.2627 32.5169 91.1739 32.6142C91.0837 32.7116 91.0107 32.8218 90.952 32.9464C90.8933 33.071 90.8446 33.1999 90.8016 33.3316C90.7601 33.4633 90.7214 33.5908 90.6899 33.7168C90.6584 33.8414 90.6226 33.953 90.584 34.049C90.5453 34.1463 90.4995 34.2251 90.4465 34.2852C90.3935 34.3454 90.3262 34.3754 90.2446 34.3754H89.9983C89.7964 34.374 89.6432 34.3611 89.5416 34.3382C89.4385 34.3153 89.364 34.2724 89.3125 34.2093C89.2623 34.1449 89.2308 34.0561 89.218 33.9387C89.2065 33.8227 89.2008 33.671 89.2008 33.4834V30.3748H88.5894V33.4834C88.5894 33.6509 88.5951 33.8041 88.6065 33.9416C88.6166 34.079 88.6409 34.2036 88.6738 34.3139C88.7082 34.4256 88.7569 34.5215 88.817 34.6045C88.8786 34.6876 88.9602 34.7563 89.0633 34.8122C89.165 34.8666 89.291 34.9095 89.437 34.9382C89.5544 34.9611 89.7048 34.974 89.8709 34.9797V34.9854H90.2432C90.521 34.9854 90.7472 34.8809 90.9248 34.6718C91.0579 34.7449 91.1796 34.8107 91.2928 34.8694C91.4016 34.9282 91.509 34.9768 91.6106 35.0169C91.7123 35.057 91.8111 35.0871 91.9085 35.1086C92.0058 35.1301 92.1075 35.1415 92.212 35.1415C92.2607 35.1415 92.3208 35.1358 92.3896 35.1243C92.4583 35.1129 92.5299 35.0914 92.6044 35.0599C92.6788 35.027 92.7519 34.9797 92.8234 34.9167C92.8965 34.8537 92.9609 34.7721 93.0196 34.669C93.0769 34.5673 93.1241 34.4399 93.1599 34.2895C93.1957 34.1378 93.2129 33.9588 93.2129 33.7497C93.2129 33.5593 93.1871 33.3774 93.137 33.1999C93.0883 33.0252 93.011 32.8691 92.9079 32.7331ZM92.6029 34.079C92.5857 34.1693 92.5657 34.2423 92.5414 34.2996C92.517 34.3568 92.4884 34.4012 92.4569 34.4313C92.4254 34.4628 92.3953 34.4857 92.3638 34.5C92.3337 34.5143 92.3037 34.5244 92.2765 34.5258C92.2493 34.5287 92.2278 34.5287 92.2135 34.5287C92.1447 34.5287 92.0746 34.5186 92.0015 34.4986C91.9299 34.4785 91.8526 34.4499 91.771 34.4141C91.6894 34.3783 91.602 34.3368 91.5061 34.2867C91.4116 34.238 91.3085 34.185 91.1968 34.1277C91.2312 34.0289 91.2627 33.9287 91.287 33.8285C91.3128 33.7282 91.3386 33.6323 91.3644 33.5407C91.3901 33.449 91.4173 33.3645 91.4474 33.2858C91.4775 33.207 91.5147 33.1383 91.5605 33.0796C91.6049 33.0223 91.6607 32.9765 91.7266 32.9421C91.7925 32.9092 91.8727 32.892 91.9672 32.892C92.0674 32.892 92.1548 32.9106 92.2264 32.945C92.2979 32.9808 92.3581 33.0266 92.4082 33.0825C92.4569 33.1397 92.497 33.1999 92.5256 33.2672C92.5542 33.3345 92.5772 33.3989 92.5915 33.4619C92.6072 33.5263 92.6173 33.5836 92.6201 33.6352C92.6244 33.6867 92.6273 33.7254 92.6273 33.7483C92.6273 33.8814 92.6187 33.9903 92.6029 34.079Z" fill="#45B649"/>
<path d="M100.99 33.5206C100.978 33.4275 100.965 33.3301 100.95 33.2299C100.934 33.1297 100.915 33.0294 100.898 32.9306C100.879 32.8318 100.862 32.7416 100.845 32.66C100.828 32.5798 100.812 32.5125 100.801 32.4567C100.788 32.4023 100.778 32.3679 100.775 32.355L100.195 32.5397C100.204 32.5669 100.215 32.6113 100.228 32.67C100.241 32.7287 100.255 32.796 100.271 32.8705C100.285 32.945 100.301 33.0251 100.317 33.1096C100.331 33.1941 100.345 33.2786 100.357 33.3602C100.368 33.4418 100.378 33.5191 100.385 33.5893C100.394 33.6609 100.397 33.7196 100.397 33.7669C100.397 33.9 100.377 34.0074 100.335 34.0862C100.294 34.1664 100.245 34.2265 100.188 34.2695C100.13 34.3124 100.073 34.3411 100.015 34.3554C99.9558 34.3697 99.91 34.3768 99.8756 34.3768C99.6522 34.3768 99.489 34.3267 99.3873 34.2279C99.2871 34.1291 99.2356 33.9745 99.2356 33.7654V32.7989H98.6284V33.7654C98.6284 33.9029 98.607 34.0117 98.5626 34.0919C98.5182 34.1721 98.4666 34.2322 98.4079 34.2738C98.3478 34.3153 98.2891 34.341 98.2304 34.3525C98.1717 34.364 98.1259 34.3711 98.0929 34.3711C97.8695 34.3711 97.7077 34.3224 97.6104 34.2251C97.513 34.1277 97.4629 33.9759 97.4629 33.7669V32.8003H96.8515V33.7797C96.8515 33.9172 96.83 34.026 96.7856 34.1062C96.7412 34.1864 96.6897 34.2451 96.6324 34.2852C96.5751 34.3253 96.515 34.3496 96.4548 34.3597C96.3947 34.3697 96.3489 34.374 96.3159 34.374H95.7017C95.4998 34.3711 95.3466 34.3597 95.2449 34.3368C95.1418 34.3153 95.0659 34.2709 95.0158 34.2079C94.9657 34.1435 94.9342 34.0547 94.9213 33.9373C94.9084 33.8213 94.9027 33.6695 94.9027 33.4819V30.3733H94.2913V33.4819C94.2913 33.6509 94.297 33.8027 94.3084 33.9416C94.3199 34.079 94.3414 34.2036 94.3757 34.3138C94.4101 34.4241 94.4574 34.5215 94.5189 34.6045C94.5805 34.6876 94.6635 34.7563 94.7652 34.8107C94.8669 34.8651 94.9929 34.9081 95.1389 34.9367C95.2563 34.9611 95.4038 34.9725 95.5714 34.9782V34.9825H96.3145C96.4663 34.9825 96.6152 34.9539 96.7641 34.8981C96.913 34.8408 97.0433 34.752 97.155 34.6317C97.2624 34.7434 97.3956 34.8293 97.5531 34.888C97.7106 34.9467 97.8896 34.9768 98.0929 34.9768C98.2418 34.9768 98.3907 34.9467 98.5368 34.8895C98.6843 34.8308 98.8146 34.7434 98.9263 34.6246C99.0365 34.7405 99.1697 34.8293 99.3286 34.8909C99.4876 34.9525 99.6694 34.9825 99.8756 34.9825C100.012 34.9811 100.148 34.9539 100.284 34.9038C100.42 34.8537 100.54 34.7778 100.647 34.6775C100.755 34.5773 100.841 34.4513 100.908 34.2995C100.974 34.1477 101.008 33.9688 101.008 33.764C101.007 33.6967 101.001 33.6137 100.99 33.5206Z" fill="#45B649"/>
<path d="M94.244 0.494108L85.4522 10.8438V16.0186H93.2145C94.6435 16.0186 95.8033 17.177 95.8033 18.6046C95.8033 20.0336 94.6449 21.192 93.2145 21.192H80.2774V0.494108H75.1025V26.3669H93.213C97.5001 26.3669 100.975 22.8917 100.975 18.6046C100.975 14.319 97.5001 10.8424 93.213 10.8424H92.1835L100.975 0.492676H94.244V0.494108Z" fill="#636466"/>
<path d="M52.8467 0.494141L44.0549 10.8438V16.0187H51.8157C53.2448 16.0187 54.4046 17.1771 54.4046 18.6046C54.4046 20.0337 53.2462 21.1921 51.8157 21.1921H20.7682C19.3391 21.1921 18.1822 20.0337 18.1822 18.6046V0.494141H13.0073V18.6061C13.0073 22.8931 16.4825 26.3683 20.7696 26.3683H51.8172C56.1043 26.3683 59.5794 22.8931 59.5794 18.6061C59.5794 14.3204 56.1043 10.8438 51.8172 10.8438H50.7877L59.5794 0.494141H52.8467Z" fill="#636466"/>
<path d="M69.9278 10.8438H64.7529V26.3668H69.9278V10.8438Z" fill="#636466"/>
<path d="M23.3569 5.66748V13.4312C23.3569 14.8588 24.5153 16.0172 25.9429 16.0172H38.88V10.8423H28.5303V5.66748H23.3569Z" fill="#636466"/>
<path d="M44.0549 7.70369L50.1805 0.494141H48.4966L44.0549 5.72196V7.70369Z" fill="#636466"/>
<path d="M131.518 22.0686V26.6392C131.518 30.5016 129.946 34.298 127.238 37.4412H123.218C126.351 34.7517 128.677 31.0104 128.677 26.6392V22.0686C128.677 19.7172 126.76 17.7997 124.409 17.7997C122.063 17.7997 120.147 19.7161 120.147 22.0686V25.605C120.147 28.2593 118.551 30.8463 116.17 32.0435L105.935 37.1934V34.0072L114.893 29.5038C116.338 28.778 117.305 27.2119 117.305 25.6039V22.0675C117.305 18.1445 120.491 14.9583 124.408 14.9583C128.332 14.9594 131.518 18.1456 131.518 22.0686Z" fill="#45B649"/>
<path d="M125.83 22.0687V26.0941C125.83 30.7187 123.09 34.8113 118.321 37.3202C118.241 37.3631 118.163 37.3995 118.078 37.4413H111.762C113.786 36.4149 115.685 35.4589 117.022 34.7937C120.806 32.7992 122.988 29.6251 122.988 26.0941V22.0687C122.988 21.2889 123.629 20.6479 124.409 20.6479C125.194 20.6479 125.83 21.2889 125.83 22.0687Z" fill="#45B649"/>
<path d="M137.225 37.4414H130.811L132.425 35.2112C132.697 34.8356 133.119 34.5999 133.58 34.5636C134.046 34.5283 134.498 34.6913 134.831 35.0228L137.225 37.4414Z" fill="#45B649"/>
<path d="M108.763 13.8603L123.853 3.50212C124.185 3.27414 124.632 3.27414 124.964 3.50212L140.041 13.835V28.0457C140.041 28.3596 140.165 28.6592 140.385 28.8816L142.883 31.4048V13.835C142.883 12.9088 142.426 12.042 141.663 11.5177L126.572 1.15844C125.278 0.270754 123.539 0.270754 122.244 1.15844L107.154 11.5177C106.39 12.042 105.935 12.9077 105.935 13.8339V30.8266L108.775 29.3971L108.763 13.8603Z" fill="#45B649"/>
<path d="M142.883 35.0845V37.4425H141.221L136.493 32.6671C135.121 31.2761 134.365 29.439 134.365 27.4863V17.4871C134.365 17.0697 134.159 16.6777 133.809 16.442L127.135 11.8526C125.509 10.7403 123.326 10.7403 121.701 11.8526L115.02 16.4409C114.676 16.6766 114.47 17.0697 114.47 17.486V25.1272C114.47 25.9918 113.98 26.777 113.207 27.1702L111.629 27.9621V17.4849C111.629 16.1303 112.294 14.8615 113.412 14.0939L120.092 9.51116C122.679 7.73358 126.155 7.73358 128.743 9.51116L135.417 14.0939C136.535 14.8615 137.206 16.1303 137.206 17.4849V27.4841C137.206 28.6813 137.671 29.8113 138.512 30.6637L142.883 35.0845Z" fill="#45B649"/>
</svg>
