<svg width="128" height="37" viewBox="0 0 128 37" fill="none" xmlns="http://www.w3.org/2000/svg">
<path d="M3.09901 31.4721L2.5466 30.9197L2.00684 31.4651L2.55222 32.0175L3.09901 31.4721Z" fill="#45B649"/>
<path d="M3.89966 33.9461C3.89966 34.1063 3.8842 34.2539 3.85468 34.386C3.82376 34.5182 3.76613 34.6306 3.68038 34.7234C3.59323 34.8176 3.47516 34.8893 3.32195 34.9413C3.16873 34.9919 2.97054 35.0186 2.72736 35.0186H1.98238C1.75747 35.0186 1.55647 34.9708 1.37936 34.878C1.20225 34.7838 1.05887 34.6503 0.949235 34.4802C0.862085 34.3453 0.804454 34.2061 0.776342 34.0627C0.748229 33.9194 0.732767 33.7844 0.732767 33.6579C0.732767 33.5947 0.735578 33.5286 0.742607 33.4611C0.759474 33.2601 0.801643 33.0465 0.870519 32.8216C0.939395 32.5967 1.03217 32.3619 1.15024 32.1159L0.610477 31.8587C0.471319 32.1511 0.36168 32.4336 0.28437 32.7077C0.205654 32.9818 0.162079 33.1955 0.15224 33.3487C0.142401 33.5019 0.138184 33.6059 0.138184 33.6607C0.138184 33.8477 0.157863 34.0248 0.198626 34.1935C0.246417 34.4127 0.327944 34.6123 0.441801 34.7937C0.60626 35.0579 0.822728 35.2617 1.08839 35.4037C1.35546 35.5457 1.65205 35.6174 1.98097 35.6174H2.72596C3.31632 35.6174 3.7591 35.4782 4.05569 35.1999C4.35228 34.9216 4.49987 34.5041 4.49987 33.9447V31.7153H3.89966V33.9461Z" fill="#45B649"/>
<path d="M12.2237 30.4278L11.7106 29.9133L11.2158 30.4278L11.7162 30.9352L12.2237 30.4278Z" fill="#45B649"/>
<path d="M13.4389 30.4346L12.9245 29.9202L12.4297 30.4346L12.9315 30.9421L13.4389 30.4346Z" fill="#45B649"/>
<path d="M16.8972 31.6493C16.6864 31.5677 16.5078 31.4974 16.3574 31.4412C16.207 31.3864 16.0791 31.34 15.9751 31.3049C15.8711 31.2683 15.7839 31.2402 15.7165 31.2205C15.649 31.2009 15.5956 31.1854 15.5562 31.1756C15.5155 31.1657 15.486 31.1615 15.4649 31.1601C15.4438 31.1587 15.4255 31.1587 15.4143 31.1587C14.8914 31.1587 14.5498 31.4707 14.3867 32.0976L14.9673 32.2495C14.9996 32.13 15.0319 32.0358 15.0685 31.9697C15.1036 31.9023 15.1402 31.8531 15.1795 31.8221C15.2175 31.7898 15.2554 31.7715 15.2948 31.7645C15.3341 31.7589 15.3707 31.7547 15.4072 31.7547C15.448 31.7603 15.5281 31.7828 15.649 31.8207C15.7713 31.8587 15.9161 31.9079 16.0848 31.9683C16.2548 32.0274 16.4404 32.0976 16.6456 32.1764C16.8494 32.2551 17.0546 32.3352 17.2585 32.4181C17.1095 32.5039 16.938 32.5981 16.7412 32.6965C16.5444 32.7948 16.3336 32.8848 16.1086 32.9691C15.8837 33.0521 15.6518 33.1224 15.41 33.1786C15.1669 33.2348 14.9279 33.2615 14.6918 33.2615H13.9594H13.8231H13.4042C13.3873 33.2615 13.362 33.2601 13.3283 33.2587C13.2946 33.2573 13.2566 33.2503 13.2144 33.2404C13.1723 33.2292 13.1287 33.2137 13.0823 33.1926C13.0373 33.1716 12.9966 33.142 12.96 33.1055C12.9249 33.0689 12.894 33.0226 12.8701 32.9677C12.8448 32.9129 12.8335 32.8454 12.8335 32.7667V31.7167H12.2375V32.7892C12.2375 32.8398 12.2319 32.8932 12.2179 32.9495C12.2038 33.0057 12.1743 33.0563 12.1293 33.1013C12.0843 33.1463 12.0168 33.1842 11.9283 33.2151C11.8397 33.2446 11.7174 33.2601 11.5656 33.2601H10.6239H10.5128C10.4903 33.2601 10.4468 33.2545 10.3849 33.2432C10.3217 33.232 10.2584 33.2039 10.1951 33.1631C10.1305 33.1224 10.0729 33.0605 10.0237 32.9804C9.97446 32.8989 9.94916 32.7878 9.94916 32.6487C9.94916 32.4617 9.92386 32.2832 9.87466 32.1089C9.82406 31.936 9.74956 31.7828 9.64835 31.6478C9.54715 31.5143 9.41923 31.4089 9.26602 31.3288C9.1114 31.2486 8.93148 31.2107 8.72485 31.2107C8.54493 31.2107 8.39312 31.2402 8.26802 31.2992C8.14151 31.3583 8.03469 31.4356 7.94754 31.5312C7.85898 31.6268 7.78729 31.735 7.72966 31.8573C7.67203 31.9796 7.62424 32.1061 7.58207 32.2354C7.5399 32.3647 7.50335 32.4898 7.47243 32.6135C7.4401 32.7358 7.40496 32.8454 7.36701 32.9396C7.33046 33.0352 7.28408 33.1125 7.23347 33.1716C7.18146 33.2306 7.1154 33.2601 7.03528 33.2601H6.91439C6.7162 33.2587 6.5658 33.2461 6.466 33.2236C6.36479 33.2011 6.29029 33.1589 6.2411 33.0971C6.1919 33.0338 6.16097 32.9467 6.14832 32.8314C6.13708 32.7175 6.13146 32.5685 6.13146 32.3844V29.3328H5.53125V32.3844C5.53125 32.5489 5.53687 32.6993 5.54812 32.8342C5.55936 32.9691 5.58185 33.0914 5.61418 33.1997C5.64792 33.3093 5.6943 33.4035 5.75475 33.485C5.81659 33.5665 5.89531 33.634 5.99652 33.6888C6.09772 33.7422 6.22001 33.7844 6.36479 33.8125C6.47865 33.835 6.62483 33.8463 6.78789 33.8533V33.8589H7.03528C7.30797 33.8589 7.53147 33.7563 7.70436 33.5511C7.83649 33.6228 7.95456 33.6874 8.06561 33.7451C8.17384 33.8027 8.27786 33.8505 8.37766 33.8898C8.47746 33.9292 8.57445 33.9587 8.67003 33.9798C8.76561 34.0009 8.86541 34.0121 8.96803 34.0121C9.01441 34.0121 9.07064 34.0079 9.13249 33.9981C9.19574 33.9882 9.2618 33.97 9.33068 33.9404C9.39815 33.9123 9.46703 33.8702 9.5359 33.8167C9.60478 33.7619 9.66803 33.6916 9.72426 33.6031C9.83249 33.686 9.95197 33.7479 10.0855 33.7928C10.212 33.835 10.347 33.8561 10.4889 33.8575V33.8603H10.5142H10.6253H11.567C11.9986 33.8603 12.3247 33.7507 12.544 33.5314C12.6325 33.641 12.7492 33.724 12.8982 33.7788C13.0458 33.835 13.2144 33.8617 13.407 33.8617H13.8259H13.9622H14.6946C14.9659 33.8617 15.2358 33.8322 15.5056 33.7718C15.7769 33.7127 16.037 33.6354 16.2844 33.5455C16.5332 33.4555 16.7651 33.3557 16.9801 33.2475C17.1966 33.1406 17.385 33.0394 17.5466 32.9452C17.7083 32.8511 17.8376 32.7709 17.9346 32.7063C18.0316 32.6402 18.0864 32.6037 18.099 32.5952L18.0203 32.0681L16.8972 31.6493ZM9.34474 32.9705C9.32787 33.0591 9.30819 33.1308 9.28429 33.187C9.2604 33.2432 9.23229 33.2868 9.20136 33.3163C9.17184 33.3473 9.14092 33.3697 9.11 33.3838C9.08048 33.3979 9.05236 33.4077 9.02706 33.4091C9.00176 33.4119 8.97927 33.4119 8.96381 33.4119C8.89634 33.4119 8.82746 33.4021 8.75578 33.3824C8.68549 33.3627 8.60959 33.3346 8.52947 33.2995C8.44935 33.2643 8.3636 33.2236 8.26943 33.1744C8.17665 33.1266 8.07545 33.0746 7.96581 33.0183C7.99954 32.9213 8.03047 32.823 8.05436 32.7246C8.07966 32.6262 8.10497 32.532 8.13027 32.442C8.15557 32.3521 8.18228 32.2691 8.21179 32.1918C8.24131 32.1145 8.27786 32.047 8.32284 31.9894C8.36641 31.9332 8.42123 31.8882 8.48589 31.8545C8.55055 31.8221 8.62927 31.8053 8.72204 31.8053C8.82184 31.8053 8.90758 31.8236 8.97646 31.8573C9.04674 31.8924 9.10578 31.9374 9.15498 31.9922C9.20277 32.0485 9.24212 32.1075 9.27024 32.1736C9.29835 32.2396 9.32084 32.3029 9.3349 32.3647C9.35036 32.428 9.3602 32.4842 9.36301 32.5348C9.36723 32.5854 9.37004 32.6234 9.37004 32.6458C9.36863 32.7766 9.3616 32.8834 9.34474 32.9705Z" fill="#45B649"/>
<path d="M15.8208 29.8669L15.2697 29.3145L14.73 29.8598L15.2754 30.4123L15.8208 29.8669Z" fill="#45B649"/>
<path d="M25.4908 32.137C25.4739 32.0386 25.4585 31.9402 25.4402 31.8432C25.4219 31.7462 25.405 31.6577 25.3882 31.5776C25.3713 31.4974 25.3559 31.4328 25.3446 31.378C25.332 31.3231 25.3235 31.2908 25.3193 31.2782L24.7514 31.4595C24.7599 31.4862 24.7697 31.5298 24.7838 31.5874C24.7964 31.645 24.8105 31.7111 24.8259 31.7828C24.84 31.8559 24.854 31.9346 24.8695 32.0175C24.885 32.1005 24.8976 32.1834 24.9103 32.2635C24.9215 32.3436 24.9313 32.4195 24.9384 32.4884C24.9468 32.5587 24.9496 32.6163 24.9496 32.6627C24.9496 32.7934 24.9299 32.8975 24.8892 32.9762C24.8484 33.0549 24.8006 33.1153 24.7444 33.1575C24.6882 33.1997 24.6319 33.2278 24.5743 33.2418C24.5167 33.2545 24.4717 33.2629 24.438 33.2629C24.2187 33.2629 24.0584 33.2137 23.9586 33.1167C23.8603 33.0197 23.8097 32.8679 23.8097 32.6627V31.7139H23.2137V32.6627C23.2137 32.7977 23.1912 32.9045 23.149 32.9818C23.1054 33.0605 23.0548 33.1195 22.9958 33.1603C22.9382 33.2011 22.8791 33.2264 22.8215 33.239C22.7639 33.2503 22.7189 33.2559 22.6865 33.2559C22.4673 33.2559 22.3084 33.2081 22.2128 33.1139C22.1173 33.0183 22.0681 32.8679 22.0681 32.6641V31.7153H21.4679V32.6768C21.4679 32.8117 21.4468 32.9185 21.4032 32.9973C21.3596 33.076 21.3104 33.1336 21.2528 33.173C21.1952 33.2123 21.1375 33.2362 21.0785 33.2461C21.0195 33.2559 20.9731 33.2601 20.9422 33.2601H20.3405C20.1424 33.2573 19.9919 33.2461 19.8921 33.2236C19.7909 33.2011 19.7164 33.1589 19.6672 33.0971C19.6166 33.0352 19.5871 32.9467 19.5745 32.8314C19.5618 32.7175 19.5562 32.5685 19.5562 32.3844V29.3328H18.9546V32.3844C18.9546 32.5489 18.9602 32.6993 18.9701 32.8342C18.9813 32.9691 19.0038 33.0914 19.0375 33.1997C19.0713 33.3093 19.1176 33.4035 19.1781 33.4864C19.2385 33.5679 19.3186 33.6354 19.4184 33.6888C19.5197 33.7422 19.6419 33.7844 19.7867 33.8125C19.9006 33.835 20.0468 33.8463 20.2112 33.8533V33.8589H20.9408C21.0897 33.8589 21.2359 33.8308 21.3821 33.776C21.5283 33.7198 21.6562 33.6326 21.7673 33.5131C21.8727 33.6228 22.002 33.7071 22.1566 33.7647C22.3112 33.8238 22.4884 33.8519 22.6865 33.8519C22.8327 33.8519 22.9789 33.8238 23.1223 33.7661C23.2685 33.7085 23.395 33.6228 23.5046 33.5061C23.6129 33.6199 23.7436 33.7085 23.8996 33.7675C24.0556 33.828 24.2342 33.8575 24.438 33.8575C24.5715 33.8561 24.7036 33.8294 24.8372 33.7788C24.9707 33.7296 25.0888 33.6551 25.1942 33.5581C25.2982 33.4597 25.384 33.336 25.45 33.187C25.5147 33.038 25.5484 32.8623 25.5484 32.6627C25.5484 32.5924 25.5428 32.5123 25.533 32.4195C25.5203 32.3296 25.5077 32.2354 25.4908 32.137Z" fill="#45B649"/>
<path d="M31.4209 30.9171L30.9079 30.4026L30.4131 30.9171L30.9149 31.4245L31.4209 30.9171Z" fill="#45B649"/>
<path d="M34.5576 32.002C34.5463 31.9359 34.5337 31.8656 34.5196 31.7883C34.5055 31.711 34.4873 31.6281 34.469 31.5367L33.8885 31.6351C33.9053 31.7293 33.9208 31.8108 33.932 31.8853C33.9447 31.9598 33.9573 32.0273 33.9672 32.0919C33.9784 32.1552 33.9869 32.2156 33.9939 32.2719C34.0009 32.3281 34.008 32.3815 34.015 32.4349C34.0206 32.4897 34.0262 32.5375 34.0304 32.5797C34.0347 32.6219 34.0389 32.6584 34.0403 32.6879V32.7231C34.0403 32.8889 33.9939 33.0211 33.9039 33.1195C33.8547 33.1686 33.7971 33.2066 33.7296 33.2333C33.6622 33.26 33.5891 33.2741 33.5104 33.2741H29.5394C29.5071 33.2741 29.4607 33.2685 29.4003 33.2586C29.3398 33.2474 29.2794 33.2221 29.2204 33.1827C29.1585 33.1419 29.1079 33.0815 29.0629 33.0028C29.0194 32.9213 28.9969 32.8116 28.9969 32.6725C28.9969 32.6022 29.0039 32.5207 29.0194 32.4265C29.0348 32.3323 29.0545 32.2395 29.077 32.1468C29.0981 32.0526 29.122 31.9668 29.1431 31.8839C29.1641 31.8024 29.1824 31.7391 29.1951 31.6955L28.6244 31.5156C28.6188 31.5339 28.6033 31.5859 28.578 31.6688C28.5541 31.7518 28.5288 31.8516 28.5035 31.964C28.4768 32.0765 28.4529 32.1974 28.4318 32.3239C28.4107 32.4504 28.4009 32.567 28.4009 32.6725C28.4009 32.7905 28.4107 32.8974 28.4318 32.9929C28.4529 33.0885 28.481 33.1729 28.5161 33.2474C28.5513 33.3219 28.5892 33.3865 28.6328 33.4413C28.675 33.4962 28.7171 33.5425 28.7593 33.5819C28.8605 33.6775 28.9786 33.7492 29.1107 33.7984C29.2443 33.849 29.3834 33.8743 29.5324 33.8771H33.5104C33.6692 33.8771 33.821 33.8476 33.9644 33.7885C34.1078 33.7295 34.2315 33.6452 34.3355 33.5341C34.3734 33.4962 34.4114 33.4512 34.4479 33.3964C34.4845 33.3415 34.5182 33.2783 34.5477 33.2066C34.5772 33.1335 34.5997 33.0562 34.6138 32.9747C34.6292 32.8931 34.6363 32.8102 34.6363 32.7259V32.6626C34.6321 32.5923 34.6222 32.4982 34.6082 32.3815C34.5955 32.2606 34.5772 32.1341 34.5576 32.002Z" fill="#45B649"/>
<path d="M32.6372 30.9238L32.1241 30.408L31.6279 30.9238L32.1297 31.4313L32.6372 30.9238Z" fill="#45B649"/>
<path d="M39.6681 31.6493C39.5655 31.5158 39.439 31.4104 39.2858 31.3302C39.1312 31.2501 38.9526 31.2122 38.7446 31.2122C38.5647 31.2122 38.4129 31.2417 38.2864 31.3007C38.1599 31.3597 38.053 31.4371 37.9659 31.5326C37.8773 31.6282 37.8056 31.7365 37.748 31.8587C37.6918 31.981 37.6426 32.1075 37.6004 32.2369C37.5596 32.3662 37.5217 32.4913 37.4908 32.615C37.4584 32.7373 37.4247 32.8469 37.3868 32.9411C37.3488 33.0367 37.3038 33.114 37.2518 33.173C37.1998 33.2321 37.1337 33.2616 37.0536 33.2616H36.8119C36.6137 33.2602 36.4633 33.2475 36.3635 33.225C36.2623 33.2025 36.1878 33.1604 36.1371 33.0985C36.088 33.0353 36.057 32.9481 36.0458 32.8329C36.0331 32.719 36.0289 32.57 36.0289 32.3859V29.3342H35.4287V32.3859C35.4287 32.5503 35.4343 32.7007 35.4456 32.8357C35.4554 32.9706 35.4779 33.0929 35.5116 33.2011C35.5454 33.3108 35.5918 33.4049 35.6522 33.4865C35.7126 33.568 35.7928 33.6355 35.894 33.6903C35.9952 33.7437 36.1175 33.7859 36.2608 33.814C36.3775 33.8365 36.5237 33.8491 36.6882 33.8547V33.8604H37.0536C37.3263 33.8604 37.5484 33.7578 37.7227 33.5525C37.8534 33.6242 37.9729 33.6889 38.0825 33.7465C38.1908 33.8041 38.2948 33.8519 38.3946 33.8913C38.4944 33.9307 38.5914 33.9602 38.687 33.9813C38.7826 34.0023 38.8824 34.0136 38.985 34.0136C39.0328 34.0136 39.0918 34.008 39.1593 33.9967C39.2267 33.9855 39.297 33.9644 39.3701 33.9335C39.4432 33.9011 39.5135 33.8547 39.5852 33.7929C39.6569 33.7311 39.7201 33.6509 39.7777 33.5497C39.834 33.4499 39.8804 33.3248 39.9155 33.1772C39.9506 33.0282 39.9675 32.8525 39.9675 32.6473C39.9675 32.4604 39.9422 32.2818 39.893 32.1075C39.8438 31.9361 39.7693 31.7828 39.6681 31.6493ZM39.3673 32.9706C39.3504 33.0592 39.3308 33.1308 39.3069 33.1871C39.283 33.2433 39.2548 33.2869 39.2239 33.3164C39.193 33.3473 39.1635 33.3698 39.1326 33.3839C39.1016 33.3979 39.0735 33.4078 39.0468 33.4092C39.0201 33.412 38.999 33.412 38.985 33.412C38.9175 33.412 38.8486 33.4021 38.7769 33.3825C38.7066 33.3628 38.6307 33.3347 38.5506 33.2995C38.4705 33.2644 38.3834 33.2236 38.2906 33.1744C38.1978 33.1266 38.0966 33.0746 37.987 33.0184C38.0207 32.9214 38.0502 32.823 38.0755 32.7246C38.1008 32.6262 38.1261 32.532 38.1514 32.4421C38.1767 32.3521 38.2034 32.2692 38.2329 32.1919C38.2625 32.1146 38.299 32.0471 38.344 31.9895C38.3876 31.9332 38.4424 31.8883 38.507 31.8545C38.5717 31.8222 38.6504 31.8053 38.7432 31.8053C38.8416 31.8053 38.9273 31.8236 38.9976 31.8573C39.0679 31.8925 39.1255 31.9375 39.1761 31.9923C39.2239 32.0485 39.2633 32.1075 39.2914 32.1736C39.3195 32.2397 39.342 32.3029 39.3561 32.3648C39.3701 32.428 39.3814 32.4843 39.3842 32.5349C39.3884 32.5855 39.3898 32.6234 39.3898 32.6459C39.3912 32.7766 39.3842 32.8835 39.3673 32.9706Z" fill="#45B649"/>
<path d="M47.3474 31.6493C47.1379 31.5664 46.958 31.4975 46.8076 31.4413C46.6572 31.385 46.5293 31.3401 46.4253 31.3035C46.3213 31.267 46.2355 31.2389 46.1666 31.2192C46.0992 31.1995 46.0443 31.184 46.005 31.1756C45.9642 31.1658 45.9333 31.1615 45.9122 31.1601C45.8911 31.1587 45.8757 31.1573 45.8616 31.1573C45.3387 31.1573 44.9971 31.4708 44.8341 32.0963L45.4146 32.2481C45.4469 32.1272 45.4807 32.0344 45.5158 31.967C45.5524 31.9009 45.5889 31.8503 45.6269 31.8194C45.6662 31.7871 45.7028 31.7688 45.7435 31.7618C45.7829 31.7561 45.8194 31.7519 45.856 31.7519C45.8968 31.7575 45.9769 31.78 46.0992 31.818C46.22 31.8573 46.3648 31.9051 46.5349 31.9656C46.705 32.026 46.8905 32.0949 47.0958 32.1736C47.2996 32.2523 47.5048 32.3324 47.71 32.4154C47.561 32.5025 47.3895 32.5953 47.1927 32.6937C46.996 32.7921 46.7851 32.8834 46.5616 32.9664C46.3367 33.0493 46.1048 33.1196 45.8616 33.1758C45.6198 33.232 45.3795 33.2602 45.1433 33.2602H44.404H44.2873C44.1917 33.2602 44.106 33.2335 44.0259 33.1814C43.9471 33.1308 43.8712 33.0648 43.7995 32.9847C43.7279 32.9045 43.659 32.8174 43.5943 32.7218C43.5297 32.6248 43.4664 32.532 43.4032 32.4407L42.1732 30.5627L41.6686 30.8917L42.8578 32.7035C42.9084 32.7822 42.9407 32.8455 42.9562 32.8919C42.9716 32.9397 42.9787 32.9734 42.9787 32.9945C42.9787 33.0268 42.9688 33.0521 42.9505 33.0746C42.9295 33.1182 42.8789 33.159 42.8001 33.1941C42.7214 33.2292 42.6202 33.2559 42.4979 33.2756C42.3925 33.2897 42.3011 33.2967 42.2252 33.2995C42.1493 33.3009 42.0959 33.3009 42.0636 33.3009C41.9722 33.3009 41.8823 33.2967 41.7909 33.2883C41.67 33.277 41.5562 33.2588 41.4493 33.232C41.3425 33.2053 41.2525 33.1716 41.178 33.1294L40.9152 32.9776L40.6172 33.5005L40.8772 33.6523C40.9545 33.6973 41.0431 33.7353 41.1401 33.769C41.2371 33.8013 41.3383 33.828 41.4423 33.8477C41.5477 33.8674 41.6545 33.8829 41.7642 33.8913C41.8752 33.9011 41.9835 33.9053 42.0917 33.9053C42.1803 33.9053 42.266 33.9025 42.3489 33.8955C42.4319 33.8899 42.5092 33.8815 42.5837 33.8702C42.9815 33.8126 43.2598 33.6776 43.4186 33.464C43.6815 33.7226 43.9682 33.8519 44.2775 33.8561V33.8576H44.2901H44.4068H45.1461C45.4174 33.8576 45.6873 33.828 45.9586 33.7676C46.2299 33.7072 46.4885 33.6312 46.7373 33.5399C46.9861 33.4499 47.218 33.3501 47.4331 33.2419C47.6496 33.1337 47.8379 33.0324 47.9996 32.9397C48.1612 32.8455 48.292 32.7654 48.3889 32.6993C48.4859 32.6332 48.5408 32.5967 48.5534 32.5883L48.4733 32.0612L47.3474 31.6493Z" fill="#45B649"/>
<path d="M46.2728 29.8669L45.7204 29.3145L45.1807 29.8598L45.7261 30.4123L46.2728 29.8669Z" fill="#45B649"/>
<path d="M58.2036 31.6492C58.1024 31.5157 57.9745 31.4102 57.8213 31.3301C57.6666 31.25 57.4881 31.212 57.2801 31.212C57.1002 31.212 56.9484 31.2416 56.8232 31.3006C56.6967 31.3596 56.5899 31.4369 56.5028 31.5325C56.4156 31.6281 56.3425 31.7363 56.2849 31.8586C56.2273 31.9809 56.1795 32.1074 56.1373 32.2368C56.0951 32.3661 56.0586 32.4912 56.0277 32.6149C55.9953 32.7372 55.9616 32.8468 55.9222 32.941C55.8857 33.0366 55.8407 33.1139 55.7887 33.1729C55.7367 33.2319 55.6706 33.2615 55.5905 33.2615H55.3501H55.2265H54.1638C54.1582 33.2601 54.1455 33.2544 54.1244 33.2446C54.1048 33.2376 54.0766 33.2207 54.0415 33.1996C54.005 33.1785 53.96 33.1462 53.9052 33.1054C53.8503 33.0661 53.7843 33.0127 53.7041 32.9466C53.8545 32.851 53.9979 32.7526 54.1315 32.6486C54.2664 32.5446 54.3831 32.4321 54.4857 32.3127C54.5967 32.1791 54.6586 32.0653 54.674 31.9697C54.6909 31.8727 54.6993 31.8052 54.6993 31.7673C54.6993 31.6576 54.674 31.5494 54.6262 31.444C54.5588 31.2978 54.4548 31.1825 54.317 31.0982C54.1778 31.0139 54.0218 30.9717 53.8461 30.9717H52.8017C52.6218 30.9717 52.47 30.9928 52.3435 31.0363C52.217 31.0799 52.1116 31.1488 52.0272 31.2402C51.9851 31.2894 51.9513 31.3386 51.926 31.3892C51.9007 31.4398 51.881 31.4904 51.8684 31.541C51.8571 31.5916 51.8473 31.6422 51.8431 31.69C51.8389 31.7378 51.8375 31.7827 51.8375 31.8235L51.9176 32.0203C51.9218 32.0259 51.9457 32.054 51.9893 32.1004C52.0314 32.1482 52.0905 32.2115 52.1636 32.2888C52.2367 32.3647 52.3196 32.4532 52.4138 32.5502C52.508 32.6472 52.6078 32.747 52.7132 32.851C52.5487 32.9508 52.3885 33.052 52.2324 33.156C52.0778 33.2601 51.9345 33.3697 51.8023 33.485C51.6083 33.6635 51.4636 33.8434 51.368 34.0261C51.2724 34.2089 51.2246 34.4014 51.2246 34.6024C51.2246 34.9004 51.2836 35.1633 51.4031 35.3896C51.5212 35.6173 51.6983 35.8028 51.933 35.9462C52.0427 36.0165 52.1565 36.0713 52.2746 36.1135C52.3913 36.1557 52.508 36.188 52.6246 36.2119C52.7413 36.2358 52.8537 36.2512 52.962 36.2597C53.0716 36.2681 53.1714 36.2723 53.2628 36.2723H54.7345V35.6721H53.2628C53.1742 35.6721 53.0758 35.6665 52.9704 35.6581C52.8636 35.6482 52.7596 35.63 52.6527 35.6018C52.5473 35.5737 52.4433 35.5358 52.3435 35.4852C52.2423 35.436 52.1537 35.3713 52.0792 35.2912C52.0033 35.2125 51.9415 35.1155 51.8951 35.003C51.8473 34.8906 51.8248 34.7556 51.8248 34.5996C51.8248 34.4717 51.8628 34.3508 51.9401 34.2328C52.0174 34.1147 52.1186 34.0022 52.2437 33.8926C52.3688 33.7844 52.5108 33.6789 52.671 33.5749C52.8312 33.4723 52.9971 33.3711 53.1658 33.2727C53.3092 33.3978 53.4343 33.4976 53.5397 33.5749C53.6451 33.6522 53.7365 33.7113 53.8138 33.7534C53.8911 33.7942 53.9572 33.8223 54.012 33.835C54.0668 33.849 54.116 33.856 54.1568 33.856H55.2265H55.3501H55.5905C55.8632 33.856 56.0867 33.7534 56.2596 33.5482C56.3917 33.6199 56.5112 33.6846 56.6208 33.7422C56.7291 33.7998 56.8331 33.8476 56.9329 33.887C57.0327 33.9263 57.1297 33.9558 57.2253 33.9769C57.3208 33.998 57.4192 34.0093 57.5233 34.0093C57.5725 34.0093 57.6301 34.0036 57.6976 33.9924C57.765 33.9811 57.8367 33.9601 57.9084 33.9291C57.9815 33.8968 58.0532 33.8504 58.1249 33.7886C58.1966 33.7267 58.2598 33.6466 58.316 33.5454C58.3737 33.4456 58.4186 33.3205 58.4552 33.1729C58.4903 33.0239 58.5072 32.8482 58.5072 32.643C58.5072 32.456 58.4819 32.2775 58.4327 32.1032C58.3793 31.9359 58.3048 31.7827 58.2036 31.6492ZM53.2417 32.5319L53.1391 32.4434C53.0646 32.3717 52.9929 32.3 52.9226 32.2283C52.8537 32.1552 52.7877 32.0878 52.7258 32.0245C52.664 31.9612 52.6092 31.9022 52.56 31.8488C52.5108 31.794 52.47 31.7504 52.4377 31.7139C52.4419 31.6843 52.4517 31.6576 52.4658 31.6337C52.47 31.6309 52.477 31.6267 52.4897 31.6197C52.5009 31.6127 52.5192 31.6042 52.5431 31.5958C52.5684 31.5873 52.6007 31.5803 52.6415 31.5747C52.6823 31.5691 52.7343 31.5663 52.7947 31.5663H53.8391C53.8939 31.5663 53.9431 31.5761 53.9867 31.5986C54.0303 31.6197 54.0612 31.6506 54.0809 31.6942C54.0893 31.7181 54.0935 31.7406 54.0935 31.7645C54.0935 31.8193 54.0696 31.8741 54.0204 31.9261C53.9319 32.0343 53.8194 32.1384 53.6831 32.2382C53.5481 32.3394 53.4005 32.4364 53.2417 32.5319ZM57.9028 32.9705C57.8859 33.059 57.8676 33.1307 57.8423 33.187C57.8184 33.2432 57.7903 33.2868 57.7594 33.3163C57.7299 33.3472 57.699 33.3697 57.668 33.3837C57.6371 33.3978 57.609 33.4076 57.5823 33.409C57.5556 33.4119 57.5345 33.4119 57.5204 33.4119C57.453 33.4119 57.3841 33.402 57.3124 33.3823C57.2407 33.3627 57.1648 33.3346 57.0847 33.2994C57.0046 33.2643 56.9188 33.2235 56.8247 33.1743C56.7319 33.1265 56.6293 33.0745 56.521 33.0183C56.5548 32.9213 56.5843 32.8229 56.6096 32.7245C56.6349 32.6261 56.6616 32.5319 56.6855 32.442C56.7108 32.352 56.7375 32.2691 56.7684 32.1918C56.7965 32.1145 56.8345 32.047 56.8795 31.9894C56.923 31.9331 56.9779 31.8882 57.0425 31.8544C57.1072 31.8221 57.1859 31.8052 57.2787 31.8052C57.3785 31.8052 57.4642 31.8235 57.5331 31.8572C57.6034 31.8924 57.6624 31.9374 57.7116 31.9922C57.7608 32.0484 57.7988 32.1074 57.8269 32.1735C57.855 32.2396 57.8775 32.3028 57.8929 32.3647C57.907 32.4279 57.9182 32.4841 57.921 32.5347C57.9253 32.5854 57.9267 32.6233 57.9267 32.6458C57.9267 32.7765 57.9196 32.8833 57.9028 32.9705Z" fill="#45B649"/>
<path d="M62.4751 34.9961L63.0205 35.5485L63.5673 35.0031L63.0149 34.4507L62.4751 34.9961Z" fill="#45B649"/>
<path d="M63.8909 31.6493C63.6815 31.5663 63.5016 31.4974 63.3512 31.4412C63.2008 31.385 63.0729 31.34 62.9688 31.3035C62.8648 31.2669 62.7791 31.2388 62.7102 31.2191C62.6427 31.1994 62.5879 31.184 62.5486 31.1756C62.5078 31.1657 62.4769 31.1615 62.4558 31.1601C62.4347 31.1587 62.4192 31.1573 62.4052 31.1573C61.8823 31.1573 61.5407 31.4707 61.3777 32.0962L61.9582 32.2481C61.9905 32.1272 62.0243 32.0344 62.0594 31.9669C62.0959 31.9009 62.1325 31.8503 62.1704 31.8193C62.2098 31.787 62.2477 31.7687 62.2871 31.7617C62.3265 31.7561 62.363 31.7519 62.3996 31.7519C62.4403 31.7575 62.5204 31.78 62.6427 31.8179C62.7636 31.8573 62.9084 31.9051 63.0785 31.9655C63.2486 32.026 63.4341 32.0948 63.6393 32.1736C63.8431 32.2523 64.0484 32.3324 64.2536 32.4153C64.1046 32.5025 63.9331 32.5952 63.7363 32.6936C63.5395 32.792 63.3287 32.8834 63.1052 32.9663C62.8803 33.0493 62.6484 33.1195 62.4052 33.1758C62.1634 33.232 61.923 33.2601 61.6869 33.2601H60.9447C60.7479 33.2573 60.5975 33.2461 60.4963 33.2236C60.3951 33.2025 60.3206 33.1589 60.2714 33.0971C60.2222 33.0338 60.1913 32.9467 60.1801 32.8314C60.1688 32.7175 60.1632 32.5685 60.1632 32.3844V29.3328H59.563V32.3844C59.563 32.5503 59.5686 32.6993 59.5799 32.8356C59.5911 32.9705 59.6136 33.0928 59.6459 33.2011C59.6797 33.3093 59.726 33.4049 59.7865 33.4864C59.8483 33.5679 59.927 33.6354 60.0283 33.6888C60.1295 33.7436 60.2517 33.7844 60.3951 33.8125C60.5104 33.8364 60.6566 33.8477 60.8182 33.8533V33.8575H61.6883C61.9596 33.8575 62.2309 33.828 62.5008 33.7675C62.7721 33.7071 63.0321 33.6312 63.2795 33.5398C63.5283 33.4499 63.7602 33.3501 63.9753 33.2418C64.1917 33.1336 64.3801 33.0324 64.5417 32.9396C64.702 32.8454 64.8327 32.7653 64.9297 32.6993C65.0267 32.6332 65.0815 32.5966 65.0942 32.5882L65.014 32.0611L63.8909 31.6493Z" fill="#45B649"/>
<path d="M73.3192 32.1525C73.3051 32.0513 73.2868 31.9529 73.2686 31.8545C73.2503 31.7562 73.232 31.6662 73.2166 31.5847C73.2011 31.5031 73.187 31.4357 73.1744 31.3808C73.1617 31.326 73.1533 31.2923 73.1491 31.2782L72.5812 31.4525C72.5896 31.4821 72.6009 31.527 72.6135 31.5861C72.6262 31.6451 72.6402 31.7126 72.6543 31.7899C72.6698 31.8658 72.6838 31.9473 72.6993 32.0317C72.7133 32.1174 72.7274 32.2017 72.74 32.2819C72.7513 32.3634 72.7611 32.4393 72.7682 32.5096C72.7752 32.5813 72.7794 32.6389 72.7794 32.6853C72.7794 32.8202 72.7583 32.9256 72.7147 33.0029C72.6726 33.0789 72.6206 33.1365 72.5629 33.1744C72.5053 33.2124 72.4463 33.2363 72.3886 33.2461C72.331 33.256 72.286 33.2602 72.2537 33.2602H71.572H71.4918C71.4145 33.2602 71.3246 33.2532 71.2248 33.2363C71.1236 33.2208 71.0252 33.1871 70.9282 33.1351C70.8312 33.0831 70.7412 33.0086 70.6583 32.913C70.5754 32.8174 70.5135 32.6895 70.4714 32.5307C70.4559 32.4815 70.439 32.421 70.4207 32.3465C70.4011 32.2734 70.3814 32.1933 70.3603 32.109C70.3392 32.0232 70.3181 31.9375 70.2971 31.8489C70.276 31.759 70.2563 31.6774 70.2366 31.6001C70.2183 31.5228 70.2015 31.4553 70.1874 31.3949C70.1734 31.3359 70.1635 31.2937 70.1579 31.2684C70.1284 31.1377 70.0946 30.9901 70.0567 30.8256C70.0173 30.6612 69.9738 30.4742 69.9232 30.262L69.3398 30.3871L69.4003 30.7286C68.8717 30.8861 68.4613 31.111 68.1717 31.4076C68.0059 31.579 67.8976 31.7491 67.8442 31.9164C67.7894 32.0823 67.7627 32.2341 67.7627 32.3704C67.7627 32.4505 67.7711 32.5321 67.7852 32.6136C67.8147 32.7935 67.8751 32.9495 67.9679 33.0817C68.0593 33.2138 68.1816 33.3206 68.3334 33.4007C68.4318 33.4556 68.5344 33.4949 68.6398 33.5174C68.7438 33.5413 68.8464 33.5526 68.9448 33.5526C69.0432 33.5526 69.1388 33.5441 69.2274 33.5273C69.3159 33.5104 69.3932 33.4879 69.4607 33.4598C69.5802 33.4078 69.6856 33.3473 69.7798 33.2771C69.874 33.2096 69.9555 33.1281 70.023 33.0353C70.1579 33.2953 70.3519 33.4977 70.6049 33.6425C70.8453 33.7803 71.125 33.8505 71.444 33.8562V33.859H71.4918H71.572H72.2537C72.3886 33.859 72.5236 33.8351 72.6557 33.7887C72.7892 33.7437 72.9087 33.672 73.017 33.575C73.1238 33.4795 73.2109 33.3572 73.277 33.2096C73.3431 33.062 73.3768 32.8877 73.3768 32.6853C73.3768 32.615 73.3712 32.5335 73.3599 32.4407C73.3459 32.3493 73.3332 32.2523 73.3192 32.1525ZM69.6926 32.3058C69.6477 32.5953 69.493 32.7949 69.226 32.906C69.1866 32.9228 69.143 32.9341 69.0966 32.9425C69.0503 32.9495 69.0053 32.9538 68.9603 32.9538H68.928C68.8731 32.9538 68.8183 32.9481 68.7635 32.9355C68.7087 32.9242 68.6581 32.9046 68.6117 32.8778C68.547 32.8413 68.488 32.7935 68.4402 32.7331C68.391 32.674 68.3587 32.5981 68.3446 32.5096C68.3362 32.4646 68.332 32.421 68.332 32.3788C68.332 32.2959 68.346 32.2158 68.377 32.1385C68.4205 32.019 68.495 31.9094 68.6005 31.8068C68.7045 31.7041 68.838 31.6114 68.9982 31.5256C69.1585 31.4413 69.3426 31.3682 69.5521 31.3063L69.6758 31.8531C69.6828 31.8827 69.6884 31.9262 69.6954 31.9825C69.7011 32.0387 69.7053 32.0837 69.7053 32.116C69.7053 32.175 69.7011 32.2383 69.6926 32.3058Z" fill="#45B649"/>
<path d="M73.1914 29.975L72.6403 29.4226L72.1006 29.968L72.646 30.5204L73.1914 29.975Z" fill="#45B649"/>
<path d="M78.4894 31.6493C78.3868 31.5158 78.2603 31.4104 78.1071 31.3302C77.9538 31.2501 77.7739 31.2122 77.5659 31.2122C77.386 31.2122 77.2342 31.2417 77.1077 31.3007C76.9811 31.3597 76.8743 31.4371 76.7872 31.5326C76.6986 31.6282 76.6269 31.7365 76.5693 31.8587C76.5117 31.981 76.4639 32.1075 76.4217 32.2369C76.3809 32.3662 76.343 32.4913 76.3121 32.615C76.2811 32.7373 76.246 32.8469 76.208 32.9411C76.1701 33.0367 76.1251 33.114 76.0731 33.173C76.0211 33.2321 75.955 33.2616 75.8749 33.2616H75.6331C75.4349 33.2602 75.2846 33.2475 75.1848 33.225C75.0835 33.2025 75.0104 33.1604 74.9598 33.0985C74.9106 33.0353 74.8797 32.9481 74.8671 32.8329C74.8558 32.719 74.8502 32.57 74.8502 32.3859V29.3342H74.25V32.3859C74.25 32.5503 74.2556 32.7007 74.2669 32.8357C74.2767 32.9706 74.3006 33.0929 74.3329 33.2011C74.3667 33.3108 74.4145 33.4049 74.4735 33.4865C74.5339 33.568 74.6141 33.6355 74.7153 33.6903C74.8151 33.7437 74.9388 33.7859 75.0821 33.814C75.1974 33.8365 75.345 33.8491 75.508 33.8547V33.8604H75.8735C76.1462 33.8604 76.3683 33.7578 76.5426 33.5525C76.6733 33.6242 76.7928 33.6889 76.9038 33.7465C77.0107 33.8041 77.1161 33.8519 77.2159 33.8913C77.3157 33.9307 77.4127 33.9602 77.5083 33.9813C77.6038 34.0023 77.7036 34.0136 77.8063 34.0136C77.854 34.0136 77.9131 34.008 77.9806 33.9967C78.048 33.9855 78.1183 33.9644 78.1914 33.9335C78.2645 33.9011 78.3362 33.8547 78.4065 33.7929C78.4781 33.7311 78.5414 33.6509 78.599 33.5497C78.6553 33.4499 78.7016 33.3248 78.7368 33.1772C78.7719 33.0282 78.7888 32.8525 78.7888 32.6473C78.7888 32.4604 78.7635 32.2818 78.7143 32.1075C78.6665 31.9361 78.5906 31.7828 78.4894 31.6493ZM78.19 32.9706C78.1731 33.0592 78.1534 33.1308 78.1295 33.1871C78.1057 33.2433 78.0775 33.2869 78.0466 33.3164C78.0157 33.3473 77.9862 33.3698 77.9553 33.3839C77.9257 33.3979 77.8962 33.4078 77.8695 33.4092C77.8428 33.412 77.8217 33.412 77.8077 33.412C77.7402 33.412 77.6713 33.4021 77.5996 33.3825C77.5293 33.3628 77.4534 33.3347 77.3733 33.2995C77.2932 33.2644 77.2075 33.2236 77.1133 33.1744C77.0205 33.1266 76.9193 33.0746 76.8097 33.0184C76.8434 32.9214 76.8743 32.823 76.8982 32.7246C76.9235 32.6262 76.9488 32.532 76.9741 32.4421C76.9994 32.3521 77.0261 32.2692 77.0556 32.1919C77.0852 32.1146 77.1217 32.0471 77.1667 31.9895C77.2103 31.9332 77.2651 31.8883 77.3297 31.8545C77.3944 31.8222 77.4731 31.8053 77.5659 31.8053C77.6643 31.8053 77.75 31.8236 77.8203 31.8573C77.8906 31.8925 77.9496 31.9375 77.9988 31.9923C78.0466 32.0485 78.086 32.1075 78.1141 32.1736C78.1422 32.2397 78.1647 32.3029 78.1787 32.3648C78.1942 32.428 78.2041 32.4843 78.2069 32.5349C78.2111 32.5855 78.2139 32.6234 78.2139 32.6459C78.2139 32.7766 78.2055 32.8835 78.19 32.9706Z" fill="#45B649"/>
<path d="M86.4232 32.4223C86.412 32.331 86.3993 32.2354 86.3839 32.137C86.3684 32.0386 86.3501 31.9402 86.3333 31.8432C86.315 31.7462 86.2981 31.6577 86.2812 31.5776C86.2644 31.4988 86.2489 31.4328 86.2377 31.378C86.225 31.3246 86.2152 31.2908 86.2124 31.2782L85.6431 31.4595C85.6515 31.4862 85.6628 31.5298 85.6754 31.5874C85.6881 31.645 85.7021 31.7111 85.7176 31.7842C85.7316 31.8573 85.7471 31.936 85.7626 32.0189C85.7766 32.1019 85.7907 32.1848 85.8019 32.2649C85.8132 32.345 85.823 32.4209 85.83 32.4898C85.8385 32.5601 85.8413 32.6177 85.8413 32.6641C85.8413 32.7948 85.8216 32.9003 85.7808 32.9776C85.7401 33.0563 85.6923 33.1153 85.6361 33.1575C85.5798 33.1997 85.5236 33.2278 85.466 33.2418C85.4083 33.2559 85.3634 33.2629 85.3296 33.2629C85.1104 33.2629 84.9501 33.2137 84.8503 33.1167C84.7519 33.0197 84.7013 32.8679 84.7013 32.6627V31.7139H84.1053V32.6627C84.1053 32.7977 84.0842 32.9045 84.0407 32.9832C83.9971 33.0619 83.9465 33.121 83.8889 33.1617C83.8298 33.2025 83.7722 33.2278 83.7146 33.239C83.6569 33.2503 83.6119 33.2573 83.5796 33.2573C83.3603 33.2573 83.2015 33.2095 83.1059 33.1139C83.0103 33.0183 82.9611 32.8693 82.9611 32.6641V31.7153H82.3609V32.6768C82.3609 32.8117 82.3398 32.9185 82.2963 32.9973C82.2527 33.076 82.2021 33.1336 82.1459 33.173C82.0896 33.2123 82.0306 33.2362 81.9716 33.2461C81.9125 33.2559 81.8676 33.2601 81.8352 33.2601H81.2322C81.034 33.2573 80.8836 33.2461 80.7838 33.2236C80.6826 33.2025 80.6081 33.1589 80.5589 33.0971C80.5097 33.0338 80.4788 32.9467 80.4661 32.8314C80.4535 32.7175 80.4479 32.5685 80.4479 32.3844V29.3328H79.8477V32.3844C79.8477 32.5503 79.8533 32.6993 79.8645 32.8356C79.8758 32.9705 79.8968 33.0928 79.9306 33.2011C79.9643 33.3093 80.0107 33.4049 80.0711 33.4864C80.1316 33.5679 80.2131 33.6354 80.3129 33.6888C80.4127 33.7422 80.5364 33.7844 80.6798 33.8125C80.7951 33.8364 80.9398 33.8477 81.1043 33.8533V33.8575H81.8338C81.9828 33.8575 82.129 33.8294 82.2752 33.7746C82.4214 33.7183 82.5493 33.6312 82.6589 33.5131C82.7643 33.6228 82.8951 33.7071 83.0497 33.7647C83.2043 33.8224 83.38 33.8519 83.5796 33.8519C83.7258 33.8519 83.872 33.8224 84.0154 33.7661C84.1601 33.7085 84.2881 33.6228 84.3977 33.5061C84.5059 33.6199 84.6367 33.7071 84.7927 33.7675C84.9487 33.828 85.1272 33.8575 85.3296 33.8575C85.4632 33.8561 85.5967 33.8294 85.7302 33.7802C85.8638 33.731 85.9818 33.6565 86.0873 33.5581C86.1927 33.4597 86.277 33.336 86.3431 33.187C86.4077 33.038 86.4415 32.8623 86.4415 32.6613C86.4401 32.5952 86.4345 32.5137 86.4232 32.4223Z" fill="#45B649"/>
<path d="M79.8013 0.00140593L71.1707 10.1613V15.2413H78.7906C80.1934 15.2413 81.332 16.3785 81.332 17.7799C81.332 19.1827 80.1948 20.3199 78.7906 20.3199H66.0907V0.00140593H61.0107V25.3998H78.7892C82.9977 25.3998 86.4091 21.9883 86.4091 17.7799C86.4091 13.5728 82.9977 10.1599 78.7892 10.1599H77.7786L86.4091 0H79.8013V0.00140593Z" fill="#636466"/>
<path d="M39.1627 0.00146484L30.5321 10.1614V15.2414H38.1506C39.5534 15.2414 40.692 16.3785 40.692 17.7799C40.692 19.1828 39.5548 20.3199 38.1506 20.3199H7.67225C6.26943 20.3199 5.13367 19.1828 5.13367 17.7799V0.00146484H0.0537109V17.7813C0.0537109 21.9898 3.46519 25.4013 7.67365 25.4013H38.152C42.3605 25.4013 45.772 21.9898 45.772 17.7813C45.772 13.5743 42.3605 10.1614 38.152 10.1614H37.1414L45.772 0.00146484H39.1627Z" fill="#636466"/>
<path d="M55.9305 10.1614H50.8506V25.3999H55.9305V10.1614Z" fill="#636466"/>
<path d="M10.2134 5.07983V12.7012C10.2134 14.1026 11.3505 15.2398 12.752 15.2398H25.4519V10.1598H15.2919V5.07983H10.2134Z" fill="#636466"/>
<path d="M30.5322 7.07883L36.5455 0.00146484H34.8925L30.5322 5.13344V7.07883Z" fill="#636466"/>
<path d="M116.391 21.1804V25.6672C116.391 29.4588 114.848 33.1856 112.19 36.2712H108.243C111.318 33.631 113.602 29.9583 113.602 25.6672V21.1804C113.602 18.8721 111.72 16.9898 109.412 16.9898C107.109 16.9898 105.228 18.871 105.228 21.1804V24.652C105.228 27.2576 103.662 29.7972 101.324 30.9725L91.2769 36.028V32.9002L100.071 28.4793C101.489 27.7668 102.439 26.2294 102.439 24.6509V21.1793C102.439 17.3282 105.567 14.2004 109.411 14.2004C113.263 14.2015 116.391 17.3293 116.391 21.1804Z" fill="#45B649"/>
<path d="M110.807 21.1803V25.132C110.807 29.6718 108.118 33.6893 103.435 36.1522C103.358 36.1944 103.281 36.2301 103.198 36.2712H96.9971C98.9842 35.2635 100.848 34.3251 102.161 33.672C105.876 31.7141 108.017 28.5982 108.017 25.132V21.1803C108.017 20.4149 108.647 19.7856 109.412 19.7856C110.183 19.7856 110.807 20.4149 110.807 21.1803Z" fill="#45B649"/>
<path d="M121.994 36.2711H115.697L117.281 34.0818C117.548 33.7131 117.963 33.4817 118.415 33.446C118.873 33.4114 119.317 33.5715 119.643 33.8969L121.994 36.2711Z" fill="#45B649"/>
<path d="M94.0533 13.1226L108.866 2.95427C109.193 2.73047 109.632 2.73047 109.957 2.95427L124.758 13.0977V27.0479C124.758 27.356 124.879 27.6501 125.096 27.8685L127.548 30.3454V13.0977C127.548 12.1884 127.099 11.3376 126.35 10.8229L111.536 0.653561C110.265 -0.217854 108.558 -0.217854 107.287 0.653561L92.4737 10.8229C91.7234 11.3376 91.2769 12.1874 91.2769 13.0966V29.7778L94.0652 28.3745L94.0533 13.1226Z" fill="#45B649"/>
<path d="M127.549 33.9577V36.2724H125.917L121.276 31.5845C119.929 30.219 119.187 28.4157 119.187 26.4988V16.6829C119.187 16.2732 118.985 15.8883 118.641 15.6569L112.089 11.1517C110.494 10.0597 108.351 10.0597 106.755 11.1517L100.197 15.6558C99.8592 15.8872 99.6571 16.2732 99.6571 16.6818V24.1829C99.6571 25.0316 99.176 25.8025 98.417 26.1885L96.8677 26.9658V16.6808C96.8677 15.3509 97.5207 14.1054 98.6181 13.3519L105.175 8.85318C107.715 7.10819 111.127 7.10819 113.668 8.85318L120.22 13.3519C121.317 14.1054 121.975 15.3509 121.975 16.6808V26.4966C121.975 27.6718 122.433 28.7811 123.258 29.6179L127.549 33.9577Z" fill="#45B649"/>
</svg>
