<svg width="91" height="37" viewBox="0 0 91 37" fill="none" xmlns="http://www.w3.org/2000/svg">
<path d="M79.4812 21.1806V25.6673C79.4812 29.4594 77.9376 33.1861 75.2797 36.2714H71.3331C74.407 33.6305 76.6916 29.9578 76.6916 25.6673V21.1806C76.6916 18.8724 74.8107 16.9905 72.5024 16.9905C70.1999 16.9905 68.319 18.8724 68.319 21.1806V24.6515C68.319 27.2573 66.7517 29.7967 64.4141 30.9717L54.3672 36.0278V32.9009L63.1614 28.4796C64.5799 27.7671 65.5303 26.2301 65.5303 24.6515V21.1806C65.5303 17.3288 68.6573 14.2009 72.5024 14.2009C76.3542 14.2019 79.4812 17.3298 79.4812 21.1806Z" fill="#636466"/>
<path d="M73.8971 21.1807V25.1329C73.8971 29.6727 71.2079 33.6903 66.526 36.153C66.4483 36.1947 66.3716 36.2307 66.2891 36.2714H60.0874C62.0754 35.2632 63.9392 34.3252 65.2506 33.6723C68.965 31.7137 71.1075 28.5981 71.1075 25.1329V21.1807C71.1075 20.4151 71.7366 19.7859 72.5013 19.7859C73.2736 19.7859 73.8971 20.4151 73.8971 21.1807Z" fill="#636466"/>
<path d="M85.0831 36.2722H78.7866L80.3709 34.0824C80.6381 33.7138 81.0532 33.4826 81.5042 33.4466C81.9609 33.4116 82.4063 33.5717 82.7322 33.8977L85.0831 36.2722Z" fill="#636466"/>
<path d="M57.1435 13.1227L71.9566 2.95447C72.2835 2.73085 72.7223 2.73085 73.0482 2.95447L87.849 13.098V27.0479C87.849 27.3559 87.9703 27.6506 88.1863 27.8685L90.6386 30.3464V13.098C90.6386 12.1884 90.1904 11.3384 89.4409 10.8239L74.6259 0.653812C73.3562 -0.217937 71.6487 -0.217937 70.3771 0.653812L55.5649 10.8239C54.8154 11.3384 54.3672 12.1884 54.3672 13.098V29.7788L57.1558 28.3755L57.1435 13.1227Z" fill="#636466"/>
<path d="M90.6379 33.9574V36.2713H89.0062L84.3651 31.5828C83.0177 30.2174 82.2767 28.4142 82.2767 26.4973V16.6825C82.2767 16.2732 82.0748 15.8875 81.7309 15.6563L75.1785 11.1516C73.5829 10.06 71.4404 10.06 69.8438 11.1516L63.2867 15.6563C62.9485 15.8875 62.7466 16.2732 62.7466 16.6825V24.1843C62.7466 25.0333 62.2662 25.8046 61.5063 26.1903L59.957 26.9682V16.6825C59.957 15.3531 60.6108 14.107 61.7081 13.3537L68.2652 8.8557C70.8056 7.11125 74.2177 7.11125 76.7581 8.8557L83.3095 13.3537C84.4068 14.108 85.0663 15.3531 85.0663 16.6825V26.4982C85.0663 27.6732 85.523 28.7828 86.3474 29.6195L90.6379 33.9574Z" fill="#636466"/>
<path d="M2.45969 34.943C2.50673 35.0352 2.53307 35.1218 2.53683 35.2046L2.53871 35.2281C2.53871 35.3015 2.52366 35.3701 2.4945 35.4351C2.46533 35.5 2.42017 35.5602 2.35808 35.6157C2.29599 35.6702 2.22355 35.7173 2.13889 35.7549C2.05422 35.7925 1.96108 35.8217 1.85759 35.8424C1.75411 35.8631 1.64498 35.8734 1.53115 35.8734H1.05136C0.87355 35.8734 0.71456 35.8349 0.572504 35.7568C0.431389 35.6796 0.315674 35.5724 0.225361 35.4351C0.165151 35.3382 0.121876 35.2309 0.0955343 35.1133C0.0748374 35.0221 0.0654297 34.927 0.0654297 34.8273C0.0654297 34.7981 0.0673112 34.7426 0.072015 34.6617C0.0767189 34.5799 0.100238 34.4661 0.141632 34.3193C0.183967 34.1725 0.243235 34.0201 0.319437 33.863L0.602609 34.0013C0.476546 34.2666 0.405047 34.5065 0.389054 34.721C0.387173 34.7568 0.385291 34.7916 0.385291 34.8254C0.385291 34.9957 0.422922 35.1425 0.498183 35.2648C0.55557 35.3579 0.631773 35.4294 0.727731 35.4783C0.82369 35.5282 0.930937 35.5526 1.05042 35.5526H1.53021C1.59324 35.5526 1.65533 35.5479 1.71554 35.5385C1.77575 35.5291 1.83313 35.516 1.88582 35.499C1.9385 35.4821 1.98648 35.4623 2.02881 35.4388C2.07115 35.4162 2.1069 35.3899 2.13606 35.3626C2.16429 35.3344 2.18498 35.3043 2.19627 35.2714C2.20286 35.2544 2.20662 35.2375 2.20662 35.2206C2.20662 35.2046 2.2038 35.1895 2.19815 35.1735C2.18498 35.1293 2.153 35.0926 2.10408 35.0634C2.05422 35.0333 1.99495 35.0098 1.92533 34.9929C1.85571 34.975 1.78045 34.9628 1.69955 34.9562C1.61864 34.9487 1.54056 34.9449 1.46529 34.9449L1.47752 34.6269H2.93007V34.9449H2.45969V34.943ZM3.39952 33.5714C3.4014 33.578 3.4061 33.5958 3.41269 33.625C3.41927 33.6542 3.4268 33.6909 3.43526 33.7332C3.44373 33.7765 3.45314 33.8245 3.46349 33.8762C3.47384 33.9289 3.4823 33.9816 3.49077 34.0342C3.4983 34.0879 3.50488 34.1387 3.51053 34.1885C3.51617 34.2384 3.51899 34.2807 3.51899 34.3184C3.51899 34.4265 3.50112 34.5187 3.46631 34.5968C3.43056 34.6749 3.38446 34.7398 3.32802 34.7906C3.27157 34.8414 3.2076 34.88 3.13704 34.9045C3.06648 34.9289 2.99498 34.9411 2.92349 34.9411H2.49356V34.6232H2.92349C2.94042 34.6232 2.96394 34.6203 2.99498 34.6156C3.02603 34.6109 3.05708 34.5978 3.08812 34.578C3.11917 34.5573 3.14551 34.5272 3.16903 34.4868C3.19161 34.4463 3.20384 34.3899 3.20384 34.3184C3.20384 34.2939 3.20195 34.2629 3.19819 34.2252C3.19443 34.1876 3.18878 34.1471 3.18314 34.1039C3.17655 34.0606 3.16997 34.0164 3.16244 33.9712C3.15492 33.9261 3.14645 33.8828 3.13892 33.8423C3.1314 33.8019 3.12387 33.7661 3.11728 33.7341C3.1107 33.7031 3.10505 33.6796 3.10035 33.6636L3.39952 33.5714ZM2.84352 32.8762L3.12951 32.5864L3.42304 32.8799L3.13328 33.1697L2.84352 32.8762ZM4.57265 34.943C4.45506 34.9421 4.35722 34.9336 4.28008 34.9186C4.20293 34.9035 4.13802 34.8819 4.0844 34.8527C4.03077 34.8245 3.98844 34.7878 3.95645 34.7445C3.92446 34.7012 3.89906 34.6504 3.88119 34.5931C3.86331 34.5357 3.85108 34.4708 3.84544 34.3983C3.8398 34.3268 3.83697 34.2469 3.83697 34.1594V32.5384H4.15495V34.1594C4.15495 34.2572 4.15778 34.3362 4.16436 34.3974C4.17095 34.4576 4.18694 34.5046 4.21328 34.5385C4.23962 34.5714 4.27913 34.594 4.33276 34.6062C4.38638 34.6185 4.46541 34.6241 4.57077 34.626V34.943H4.57265ZM6.4843 34.943C6.40339 34.943 6.32719 34.9308 6.25663 34.9073C6.18607 34.8838 6.1221 34.8499 6.06471 34.8066C6.03461 34.8537 6.00074 34.8913 5.96405 34.9205C5.92736 34.9487 5.89067 34.9713 5.85492 34.9863C5.81823 35.0014 5.78342 35.0117 5.74956 35.0164C5.71569 35.0211 5.68653 35.0239 5.66207 35.0239C5.6075 35.0239 5.55388 35.0183 5.50402 35.007C5.45321 34.9957 5.40147 34.9797 5.34879 34.959C5.29611 34.9383 5.2406 34.9129 5.18321 34.8828C5.12489 34.8527 5.06185 34.8179 4.99224 34.7803C4.90004 34.8894 4.78151 34.944 4.63663 34.944H4.50492V34.626H4.63663C4.67896 34.626 4.71471 34.61 4.74199 34.579C4.76928 34.5479 4.79374 34.5065 4.81349 34.4557C4.83419 34.4049 4.85206 34.3475 4.869 34.2826C4.88593 34.2177 4.90475 34.1509 4.92732 34.0822C4.94896 34.0135 4.9753 33.9468 5.00541 33.8818C5.03551 33.8169 5.07408 33.7586 5.12112 33.7087C5.16816 33.6579 5.22461 33.6175 5.2914 33.5855C5.3582 33.5545 5.4391 33.5385 5.53506 33.5385C5.64513 33.5385 5.74109 33.5592 5.822 33.6015C5.90384 33.6438 5.97064 33.7003 6.0252 33.7708C6.07883 33.8414 6.11928 33.9232 6.14562 34.0154C6.17196 34.1076 6.18513 34.2026 6.18513 34.3014C6.18513 34.3757 6.1983 34.4341 6.22465 34.4773C6.25099 34.5206 6.28109 34.5535 6.3159 34.5752C6.34977 34.5968 6.38364 34.6109 6.41656 34.6175C6.44949 34.6241 6.47207 34.6269 6.48524 34.6269H6.54451V34.9449H6.4843V34.943ZM5.66207 34.706C5.67147 34.706 5.68276 34.705 5.69593 34.7041C5.7091 34.7031 5.72416 34.6984 5.74015 34.6909C5.75614 34.6834 5.77308 34.6711 5.78907 34.6542C5.80506 34.6382 5.82011 34.6147 5.83329 34.5855C5.84646 34.5554 5.8568 34.5178 5.86527 34.4708C5.87374 34.4237 5.8775 34.3673 5.8775 34.2995C5.8775 34.2873 5.87656 34.2676 5.87374 34.2403C5.87186 34.213 5.86621 34.1829 5.85869 34.15C5.85116 34.117 5.83893 34.0832 5.82388 34.0484C5.80883 34.0135 5.78813 33.9816 5.76273 33.9524C5.73733 33.9232 5.70534 33.8997 5.66865 33.8809C5.63196 33.8621 5.5868 33.8527 5.53412 33.8527C5.48426 33.8527 5.44287 33.8611 5.409 33.879C5.37513 33.8969 5.34597 33.9204 5.32245 33.9505C5.29893 33.9806 5.27917 34.0164 5.26318 34.0578C5.24719 34.0992 5.23307 34.1434 5.21896 34.1904C5.20579 34.2384 5.19168 34.2883 5.17851 34.34C5.16534 34.3927 5.14935 34.4444 5.13147 34.4962C5.1898 34.5253 5.24342 34.5526 5.29328 34.579C5.34314 34.6044 5.3883 34.6269 5.43158 34.6457C5.47391 34.6646 5.51436 34.6787 5.552 34.69C5.58963 34.7003 5.62632 34.706 5.66207 34.706ZM8.31692 34.625V34.943H8.02151C7.91897 34.943 7.8296 34.928 7.75151 34.8988C7.67343 34.8696 7.6104 34.8254 7.56336 34.7671C7.4467 34.8838 7.2736 34.9421 7.04406 34.9421H6.47113V34.6241H7.04406C7.12496 34.6241 7.18893 34.6156 7.23597 34.5996C7.28301 34.5837 7.31876 34.563 7.34322 34.5394C7.36768 34.515 7.38273 34.4886 7.39026 34.4585C7.39778 34.4284 7.40155 34.4002 7.40155 34.3739V33.8047H7.71859V34.3626C7.71859 34.404 7.72517 34.4397 7.73834 34.4689C7.75151 34.498 7.76751 34.5225 7.78632 34.5423C7.80514 34.562 7.82678 34.5771 7.85124 34.5884C7.8757 34.5996 7.89827 34.6081 7.92085 34.6138C7.94343 34.6194 7.96319 34.6232 7.98106 34.6241C7.99894 34.625 8.01211 34.626 8.02151 34.626H8.31692V34.625ZM7.1259 33.3898L6.85966 33.1198L7.12214 32.847L7.39496 33.1198L7.1259 33.3898ZM7.77033 33.3936L7.50409 33.1236L7.76657 32.8508L8.03939 33.1236L7.77033 33.3936ZM10.5164 34.2694C10.5098 34.2741 10.4807 34.2939 10.4289 34.3287C10.3772 34.3635 10.3085 34.4058 10.2229 34.4557C10.1373 34.5056 10.0366 34.5592 9.92187 34.6166C9.80709 34.674 9.68385 34.7266 9.55215 34.7746C9.42044 34.8226 9.28215 34.8631 9.13821 34.895C8.99427 34.927 8.85033 34.943 8.70734 34.943H8.24542V34.625H8.70734C8.8334 34.625 8.9604 34.61 9.08929 34.5808C9.21817 34.5507 9.34141 34.514 9.46089 34.4698C9.58037 34.4256 9.69138 34.3776 9.7958 34.3249C9.90023 34.2723 9.99148 34.2233 10.0705 34.1772C9.96138 34.133 9.85319 34.0907 9.745 34.0493C9.63682 34.0079 9.53709 33.9712 9.44772 33.9392C9.35741 33.9072 9.28026 33.8809 9.21629 33.8611C9.15138 33.8414 9.10904 33.8292 9.08741 33.8254C9.06859 33.8254 9.04789 33.8273 9.0272 33.8301C9.0065 33.8339 8.9858 33.8433 8.96605 33.8602C8.94629 33.8771 8.92653 33.9035 8.90678 33.9383C8.88796 33.974 8.87009 34.023 8.85315 34.0869L8.54458 34.006C8.63113 33.6739 8.8127 33.5074 9.09023 33.5074C9.09681 33.5074 9.10622 33.5074 9.11751 33.5084C9.1288 33.5093 9.14479 33.5121 9.16643 33.5168C9.18807 33.5215 9.21629 33.53 9.25204 33.5403C9.28779 33.5507 9.33389 33.5657 9.38939 33.5846C9.4449 33.6034 9.51263 33.6278 9.5926 33.6579C9.67256 33.688 9.76758 33.7247 9.87859 33.768L10.475 33.9891L10.5164 34.2694ZM8.72709 32.8188L9.01309 32.529L9.30661 32.8225L9.01685 33.1123L8.72709 32.8188ZM11.5569 34.943C11.4393 34.9421 11.3415 34.9336 11.2643 34.9186C11.1872 34.9035 11.1223 34.8819 11.0687 34.8527C11.015 34.8245 10.9727 34.7878 10.9407 34.7445C10.9087 34.7012 10.8833 34.6504 10.8655 34.5931C10.8476 34.5357 10.8354 34.4708 10.8297 34.3983C10.8241 34.3268 10.8212 34.2469 10.8212 34.1594V32.5384H11.1392V34.1594C11.1392 34.2572 11.142 34.3362 11.1486 34.3974C11.1552 34.4576 11.1712 34.5046 11.1976 34.5385C11.2239 34.5714 11.2634 34.594 11.317 34.6062C11.3707 34.6185 11.4497 34.6241 11.555 34.626V34.943H11.5569ZM12.8044 34.9402C12.699 34.9402 12.6049 34.9252 12.5231 34.8941C12.4412 34.8631 12.3716 34.8188 12.3161 34.7605C12.2578 34.8235 12.1901 34.8696 12.112 34.8998C12.0348 34.9299 11.9568 34.944 11.8777 34.944H11.4901V34.626H11.8777C11.8947 34.626 11.9191 34.6232 11.9502 34.6185C11.9812 34.6138 12.0123 34.6006 12.0424 34.5799C12.0725 34.5592 12.0997 34.5281 12.1223 34.4868C12.1449 34.4454 12.1571 34.3889 12.1571 34.3165V33.8056H12.4751V34.309C12.4751 34.4181 12.5005 34.498 12.5513 34.5479C12.6021 34.5987 12.6868 34.6241 12.8034 34.6241C12.8204 34.6241 12.8439 34.6213 12.8749 34.6147C12.906 34.6081 12.937 34.5949 12.9681 34.5733C12.9991 34.5517 13.0255 34.5206 13.049 34.4792C13.0716 34.4378 13.0838 34.3814 13.0838 34.309V33.8056H13.4008V34.309C13.4008 34.4181 13.4272 34.498 13.4799 34.5498C13.5325 34.6015 13.6172 34.6269 13.7339 34.6269C13.7517 34.6269 13.7762 34.6232 13.8063 34.6156C13.8364 34.6081 13.8665 34.5931 13.8966 34.5714C13.9267 34.5488 13.9521 34.5169 13.9728 34.4755C13.9945 34.4341 14.0048 34.3786 14.0048 34.309C14.0048 34.2845 14.0029 34.2534 13.9992 34.2168C13.9954 34.1801 13.9898 34.1396 13.9841 34.0973C13.9775 34.0549 13.9709 34.0107 13.9634 33.9665C13.9559 33.9223 13.9474 33.8809 13.9399 33.8414C13.9324 33.8028 13.9248 33.768 13.9183 33.737C13.9117 33.7059 13.906 33.6833 13.9013 33.6683L14.2033 33.5723C14.2052 33.5789 14.2099 33.5968 14.2165 33.625C14.2231 33.6532 14.2306 33.689 14.24 33.7313C14.2494 33.7737 14.2579 33.8207 14.2682 33.8724C14.2776 33.9242 14.287 33.9759 14.2955 34.0286C14.304 34.0813 14.3106 34.1311 14.3162 34.1801C14.3218 34.229 14.3247 34.2723 14.3247 34.309C14.3247 34.4153 14.3068 34.5084 14.272 34.5874C14.2372 34.6664 14.192 34.7323 14.1365 34.785C14.081 34.8377 14.018 34.8762 13.9474 34.9026C13.8769 34.9289 13.8063 34.943 13.7348 34.944C13.6266 34.944 13.5316 34.928 13.4488 34.896C13.366 34.864 13.2964 34.8179 13.239 34.7568C13.1807 34.8188 13.113 34.8649 13.0358 34.895C12.9587 34.9242 12.8815 34.9402 12.8044 34.9402ZM16.4856 35.5517C16.5976 35.5517 16.6954 35.5423 16.7782 35.5225C16.861 35.5028 16.9287 35.4717 16.9833 35.4294C17.0369 35.3871 17.0774 35.3316 17.1028 35.2629C17.1282 35.1942 17.1413 35.1114 17.1413 35.0136C17.0331 34.9854 16.9278 34.9571 16.8243 34.9289C16.7801 34.9176 16.734 34.9054 16.686 34.8922C16.638 34.8791 16.59 34.8668 16.5421 34.8537C16.4941 34.8405 16.448 34.8283 16.4019 34.817C16.3567 34.8057 16.3144 34.7953 16.2768 34.785C16.2269 34.6646 16.2024 34.546 16.2024 34.4294C16.2024 34.4228 16.2034 34.387 16.2053 34.3212C16.2071 34.2563 16.2307 34.1697 16.2768 34.0634C16.3229 33.9571 16.3878 33.8611 16.4724 33.7765C16.5571 33.6918 16.654 33.6241 16.7641 33.5733C16.8742 33.5225 16.9946 33.4914 17.1244 33.4811C17.1498 33.4792 17.1771 33.4773 17.2034 33.4773C17.3088 33.4773 17.417 33.4933 17.5289 33.5262L17.4499 33.831C17.3737 33.8075 17.2956 33.7962 17.2175 33.7962C17.1385 33.7972 17.0632 33.8085 16.9908 33.8301C16.9184 33.8517 16.8516 33.8837 16.7895 33.9251C16.7274 33.9665 16.6757 34.0164 16.6324 34.0747C16.5891 34.1321 16.5581 34.197 16.5392 34.2694C16.5261 34.3165 16.5195 34.3654 16.5195 34.4162C16.5195 34.4454 16.5214 34.4745 16.5261 34.5037L17.1714 34.6636C17.2608 34.6881 17.3285 34.7285 17.3737 34.785C17.4189 34.8414 17.4414 34.9101 17.4414 34.9901C17.4414 35.1368 17.4236 35.2657 17.3888 35.3767C17.3539 35.4877 17.2984 35.579 17.2222 35.6524C17.146 35.7257 17.0473 35.7803 16.9268 35.8179C16.8064 35.8546 16.6597 35.8734 16.4875 35.8734H16.115C16.0293 35.8734 15.9475 35.8631 15.8675 35.8415C15.7876 35.8198 15.7123 35.7907 15.6417 35.7521C15.5712 35.7135 15.5063 35.6674 15.4461 35.6138C15.3868 35.5602 15.3341 35.5 15.289 35.4351C15.2363 35.3494 15.1968 35.2563 15.1695 35.1538C15.1422 35.0512 15.129 34.944 15.129 34.8301C15.129 34.69 15.1516 34.5385 15.1958 34.3757C15.24 34.213 15.3049 34.0418 15.3906 33.8611C15.4414 33.8847 15.4884 33.9072 15.5317 33.9298C15.5759 33.9515 15.621 33.974 15.67 33.9985C15.5213 34.3155 15.4479 34.5902 15.4479 34.8226C15.4479 34.9054 15.4583 34.9844 15.478 35.0597C15.4987 35.1349 15.526 35.2027 15.5627 35.2638C15.6201 35.3541 15.6973 35.4238 15.7951 35.4755C15.8929 35.5263 15.9992 35.5517 16.115 35.5517H16.4856ZM18.6522 34.943C18.5346 34.9421 18.4368 34.9336 18.3596 34.9186C18.2825 34.9035 18.2176 34.8819 18.1639 34.8527C18.1103 34.8245 18.068 34.7878 18.036 34.7445C18.004 34.7012 17.9786 34.6504 17.9607 34.5931C17.9429 34.5357 17.9306 34.4708 17.925 34.3983C17.9193 34.3268 17.9165 34.2469 17.9165 34.1594V32.5384H18.2345V34.1594C18.2345 34.2572 18.2373 34.3362 18.2439 34.3974C18.2505 34.4576 18.2665 34.5046 18.2928 34.5385C18.3192 34.5714 18.3587 34.594 18.4123 34.6062C18.4659 34.6185 18.545 34.6241 18.6503 34.626V34.943H18.6522ZM20.1076 33.1706C20.2308 33.2995 20.3446 33.4209 20.45 33.5328C20.4952 33.5808 20.5394 33.6297 20.5845 33.6786C20.6297 33.7276 20.6711 33.7737 20.7097 33.8188C20.7482 33.863 20.783 33.9035 20.8122 33.9402C20.8423 33.9769 20.864 34.006 20.879 34.0286C20.9091 34.0785 20.9345 34.1255 20.9543 34.1716C20.974 34.2177 20.9872 34.2638 20.9957 34.3118C21.0004 34.34 21.0022 34.3682 21.0022 34.3974C21.0022 34.4162 21.0004 34.4435 20.9975 34.4783C20.9938 34.5131 20.9844 34.5592 20.9674 34.6166C20.9496 34.6815 20.9213 34.7408 20.8828 34.7944C20.8442 34.848 20.7972 34.8932 20.7417 34.9317C20.6861 34.9703 20.6241 34.9995 20.5544 35.0202C20.4848 35.0409 20.4096 35.0512 20.3287 35.0512C20.2525 35.0512 20.1734 35.0409 20.0916 35.0211C20.0097 35.0014 19.9251 34.9694 19.8376 34.927C19.8131 34.9167 19.7896 34.9063 19.7689 34.8969C19.7501 34.8875 19.7303 34.8791 19.7106 34.8696C19.6908 34.8602 19.6748 34.8527 19.6626 34.8461C19.5572 34.8791 19.433 34.9035 19.2919 34.9195C19.1508 34.9355 18.9975 34.944 18.8338 34.944H18.5864V34.626H18.8338C18.9072 34.626 18.9824 34.625 19.0605 34.6222C19.1386 34.6203 19.2082 34.6147 19.2684 34.6072C19.1875 34.5366 19.1282 34.4585 19.0915 34.3739C19.0549 34.2892 19.036 34.1923 19.036 34.0832C19.036 33.9976 19.052 33.9185 19.0831 33.8461C19.1141 33.7737 19.1583 33.7106 19.2138 33.6579C19.2694 33.6053 19.3352 33.5639 19.4114 33.5338C19.4876 33.5036 19.5704 33.4895 19.6598 33.4895C19.7275 33.4895 19.7887 33.4989 19.8451 33.5178C19.9015 33.5366 19.9523 33.562 19.9984 33.594C20.0445 33.626 20.085 33.6626 20.1189 33.705C20.1527 33.7473 20.1819 33.7906 20.2054 33.8367C20.2289 33.8818 20.2468 33.9279 20.2581 33.975C20.2703 34.022 20.276 34.0653 20.276 34.1057C20.276 34.2215 20.2543 34.3259 20.2111 34.4181C20.1678 34.5103 20.1038 34.5921 20.0201 34.6636C20.0671 34.6824 20.1179 34.6984 20.1706 34.7107C20.2242 34.7229 20.2769 34.7295 20.3296 34.7295C20.3635 34.7295 20.3964 34.7276 20.4303 34.7229C20.4632 34.7182 20.4952 34.7097 20.5243 34.6956C20.5544 34.6824 20.5817 34.6636 20.6062 34.641C20.6306 34.6185 20.6523 34.5884 20.6702 34.5507C20.6843 34.5206 20.6918 34.4877 20.6918 34.451C20.6918 34.4341 20.688 34.4068 20.6805 34.3701C20.673 34.3334 20.6513 34.2826 20.6156 34.2205C20.5798 34.1575 20.5337 34.0926 20.4792 34.0239C20.4246 33.9562 20.3635 33.8865 20.2976 33.816C20.2318 33.7454 20.1621 33.6749 20.0906 33.6034C20.0191 33.5328 19.9486 33.4623 19.8799 33.3926L20.1076 33.1706ZM19.6776 34.5084C19.719 34.4905 19.7576 34.4679 19.7934 34.4407C19.8291 34.4134 19.8592 34.3833 19.8856 34.3485C19.9119 34.3137 19.9326 34.277 19.9467 34.2365C19.9608 34.1961 19.9683 34.1518 19.9683 34.1048C19.9683 34.0484 19.9561 34.0013 19.9326 33.9627C19.9091 33.9242 19.8808 33.8922 19.8479 33.8687C19.815 33.8442 19.7811 33.8273 19.7463 33.816C19.7106 33.8056 19.6805 33.8 19.656 33.8C19.6099 33.8 19.5676 33.8066 19.529 33.8207C19.4904 33.8348 19.4566 33.8546 19.4283 33.879C19.4001 33.9035 19.3775 33.9336 19.3606 33.9684C19.3446 34.0032 19.3361 34.0408 19.3361 34.0813C19.3361 34.1293 19.3427 34.1735 19.3559 34.2121C19.3691 34.2506 19.3888 34.2864 19.4161 34.3202C19.4434 34.3532 19.4791 34.3851 19.5215 34.4153C19.5657 34.4463 19.6174 34.4773 19.6776 34.5084ZM21.8988 34.943C21.7981 34.943 21.705 34.928 21.6203 34.8969C21.5357 34.8659 21.4623 34.8235 21.3993 34.769C21.3372 34.7144 21.2882 34.6495 21.2534 34.5752C21.2186 34.5009 21.2008 34.419 21.2008 34.3315C21.2008 34.2196 21.2158 34.1199 21.245 34.0342C21.2751 33.9486 21.3127 33.8706 21.3588 33.8019C21.4049 33.7332 21.4557 33.6692 21.5103 33.6128C21.5648 33.5563 21.6185 33.4989 21.6683 33.4444L21.5639 33.3277L21.8 33.1142C21.8583 33.1791 21.9186 33.2449 21.9816 33.3108C22.0437 33.3766 22.1048 33.4425 22.1641 33.5093C22.2234 33.5761 22.2798 33.6429 22.3316 33.7097C22.3842 33.7765 22.4294 33.8433 22.4689 33.9101C22.5084 33.9769 22.5395 34.0437 22.563 34.1095C22.5846 34.1735 22.595 34.2365 22.595 34.2986V34.309C22.594 34.4002 22.5752 34.4849 22.5404 34.5639C22.5047 34.6429 22.4539 34.7125 22.3861 34.7737C22.3231 34.8273 22.2497 34.8696 22.166 34.8988C22.0832 34.928 21.9938 34.943 21.8988 34.943ZM21.8762 33.6711C21.8339 33.7191 21.7906 33.7671 21.7483 33.815C21.7059 33.863 21.6674 33.9129 21.6335 33.9656C21.5996 34.0183 21.5724 34.0747 21.5507 34.134C21.5291 34.1932 21.5187 34.2591 21.5187 34.3315C21.5187 34.3823 21.53 34.4256 21.5517 34.4623C21.5733 34.499 21.6025 34.5291 21.6373 34.5535C21.673 34.578 21.7135 34.5959 21.7586 34.6072C21.8038 34.6194 21.8508 34.625 21.8979 34.625C21.9552 34.625 22.007 34.6175 22.054 34.6025C22.1011 34.5874 22.1406 34.5658 22.1735 34.5376C22.2064 34.5093 22.2318 34.4764 22.2497 34.4369C22.2676 34.3983 22.277 34.355 22.277 34.308C22.277 34.2516 22.2648 34.197 22.2412 34.1424C22.2177 34.0879 22.1867 34.0342 22.149 33.9816C22.1114 33.9289 22.0681 33.8762 22.0202 33.8245C21.9731 33.7727 21.9251 33.7219 21.8762 33.6711ZM22.3015 35.8782V35.5602H22.5338C22.6495 35.5602 22.7493 35.5461 22.8349 35.5188C22.9195 35.4915 22.9901 35.4492 23.0456 35.3918C23.1011 35.3344 23.1425 35.261 23.1688 35.1726C23.1952 35.0841 23.2084 34.9778 23.2084 34.8555V33.8047H23.5263V34.8555C23.5263 35.0164 23.5056 35.1594 23.4633 35.2864C23.421 35.4125 23.3589 35.5197 23.2751 35.6072C23.1914 35.6947 23.0889 35.7615 22.9647 35.8085C22.8405 35.8556 22.6975 35.8782 22.5338 35.8782H22.3015ZM22.9769 33.4086L22.7107 33.1386L22.9732 32.8658L23.246 33.1386L22.9769 33.4086ZM23.5395 32.6504L23.3005 32.8846L23.0644 32.6504L23.3071 32.4095L23.5395 32.6504ZM23.6223 33.4115L23.3561 33.1424L23.6185 32.8696L23.8913 33.1424L23.6223 33.4115ZM24.0767 35.5545C24.246 35.5545 24.389 35.5414 24.5047 35.516C24.6204 35.4906 24.7117 35.4501 24.7794 35.3965C24.8378 35.3494 24.881 35.2892 24.9083 35.2159C24.9356 35.1425 24.9497 35.0522 24.9497 34.943H24.6393C24.5602 34.943 24.4812 34.9308 24.4003 34.9073C24.3194 34.8838 24.246 34.8452 24.1802 34.7906C24.1143 34.737 24.0607 34.6664 24.0193 34.579C23.9779 34.4924 23.9572 34.3852 23.9572 34.26C23.9572 34.1857 23.9638 34.1189 23.977 34.0587C23.9901 33.9985 24.0061 33.9449 24.0259 33.8978C24.0456 33.8508 24.0673 33.8094 24.0908 33.7746C24.1143 33.7398 24.1378 33.7097 24.1595 33.6852C24.2216 33.6231 24.2921 33.5761 24.3721 33.5422C24.452 33.5084 24.5377 33.4914 24.628 33.4914C24.7079 33.4914 24.7823 33.5036 24.8519 33.5281C24.9215 33.5526 24.9836 33.5902 25.0391 33.6391C25.1906 33.7802 25.2668 34.0023 25.2668 34.3042V34.9411C25.2668 35.1011 25.2432 35.2375 25.1971 35.3532C25.1501 35.468 25.0786 35.5649 24.9808 35.642C24.882 35.7192 24.7587 35.7775 24.6129 35.8151C24.4662 35.8528 24.2884 35.8716 24.0776 35.8716V35.5545H24.0767ZM24.628 33.8113C24.517 33.8113 24.4304 33.8508 24.3683 33.9289C24.3062 34.0079 24.2752 34.118 24.2752 34.261C24.2752 34.4058 24.3194 34.5065 24.4069 34.563C24.4285 34.5761 24.4502 34.5874 24.4727 34.5959C24.4953 34.6044 24.517 34.6109 24.5386 34.6147C24.5602 34.6185 24.5791 34.6213 24.5969 34.6232C24.6148 34.625 24.6289 34.626 24.6402 34.626H24.9507V34.308C24.9507 34.2262 24.9441 34.1565 24.9318 34.1001C24.9196 34.0437 24.9036 33.9966 24.8848 33.959C24.866 33.9223 24.8443 33.8931 24.8199 33.8743C24.7954 33.8546 24.7719 33.8404 24.7484 33.831C24.7249 33.8216 24.7023 33.8169 24.6807 33.815C24.6581 33.8122 24.6411 33.8113 24.628 33.8113ZM26.9244 34.943H26.852C26.7438 34.943 26.645 34.9214 26.5537 34.8791C26.5537 35.0362 26.5321 35.1763 26.4879 35.3005C26.4437 35.4238 26.3797 35.5291 26.296 35.6147C26.2113 35.7003 26.1078 35.7662 25.9855 35.8114C25.8623 35.8565 25.7211 35.8791 25.5622 35.8791H25.3298V35.5611H25.5622C25.6779 35.5611 25.7776 35.547 25.8632 35.5197C25.9479 35.4924 26.0184 35.4501 26.0739 35.3927C26.1294 35.3353 26.1708 35.2619 26.1972 35.1735C26.2235 35.0851 26.2367 34.9788 26.2367 34.8565V33.8056H26.5547V34.3635C26.5547 34.4265 26.5678 34.4755 26.5942 34.5112C26.6205 34.547 26.6516 34.5724 26.6864 34.5893C26.7212 34.6062 26.7551 34.6166 26.787 34.6203C26.819 34.6241 26.8416 34.626 26.8538 34.626H26.9263V34.943H26.9244ZM28.026 33.5714C28.0279 33.578 28.0326 33.5958 28.0392 33.625C28.0458 33.6542 28.0533 33.6909 28.0618 33.7332C28.0702 33.7765 28.0797 33.8245 28.09 33.8762C28.1004 33.9289 28.1088 33.9816 28.1173 34.0342C28.1248 34.0879 28.1314 34.1387 28.137 34.1885C28.1427 34.2384 28.1455 34.2807 28.1455 34.3184C28.1455 34.4265 28.1276 34.5187 28.0928 34.5968C28.0571 34.6749 28.011 34.7398 27.9545 34.7906C27.8981 34.8414 27.8341 34.88 27.7636 34.9045C27.693 34.9289 27.6215 34.9411 27.55 34.9411H26.8529V34.6232H27.55C27.5669 34.6232 27.5905 34.6203 27.6215 34.6156C27.6525 34.6109 27.6836 34.5978 27.7146 34.578C27.7457 34.5573 27.772 34.5272 27.7955 34.4868C27.8181 34.4463 27.8304 34.3899 27.8304 34.3184C27.8304 34.2939 27.8285 34.2629 27.8247 34.2252C27.8209 34.1876 27.8153 34.1471 27.8097 34.1039C27.8031 34.0606 27.7965 34.0164 27.789 33.9712C27.7814 33.9261 27.773 33.8828 27.7654 33.8423C27.7579 33.8019 27.7504 33.7661 27.7438 33.7341C27.7372 33.7031 27.7316 33.6796 27.7269 33.6636L28.026 33.5714ZM27.598 35.5432L27.3252 35.8161L27.0627 35.5432L27.3289 35.2732L27.598 35.5432ZM27.6591 36.2723L27.4164 36.0315L27.6525 35.7972L27.8915 36.0315L27.6591 36.2723ZM28.2433 35.5395L27.9705 35.8123L27.7081 35.5395L27.9743 35.2695L28.2433 35.5395ZM32.5427 34.625V34.9421H32.4919C32.41 34.9421 32.3319 34.9299 32.2595 34.9054C32.1861 34.8809 32.1212 34.8461 32.0638 34.8C32.0572 34.7944 32.0506 34.7887 32.0441 34.7822C32.0375 34.7756 32.0309 34.7699 32.0234 34.7624C31.9039 34.88 31.7317 34.9402 31.5059 34.9411H29.5934C29.5134 34.9411 29.4391 34.928 29.3685 34.9007C29.298 34.8734 29.2359 34.8348 29.1822 34.784C29.1597 34.7643 29.1371 34.7389 29.1145 34.7097C29.0919 34.6806 29.0712 34.6467 29.0534 34.6072C29.0345 34.5677 29.0195 34.5234 29.0082 34.4736C28.996 34.4237 28.9903 34.3673 28.9903 34.3042C28.9903 34.2478 28.996 34.1866 29.0082 34.1189C29.0204 34.0512 29.0327 33.9872 29.0468 33.927C29.0609 33.8668 29.074 33.8141 29.0872 33.7699C29.1004 33.7257 29.1079 33.6993 29.1117 33.689L29.4146 33.7849C29.4071 33.8085 29.3967 33.8423 29.3854 33.8856C29.3732 33.9289 29.3619 33.975 29.3497 34.0248C29.3375 34.0747 29.3281 34.1236 29.3196 34.1735C29.3111 34.2233 29.3074 34.2666 29.3074 34.3042C29.3074 34.3786 29.3196 34.4369 29.3431 34.4792C29.3666 34.5216 29.3948 34.5535 29.4268 34.5752C29.4588 34.5968 29.4908 34.61 29.5237 34.6156C29.5567 34.6213 29.5811 34.6241 29.5981 34.6241H31.4956C31.5774 34.6241 31.6433 34.6156 31.6922 34.5987C31.7411 34.5818 31.7778 34.5601 31.8032 34.5347C31.8286 34.5093 31.8446 34.4802 31.8521 34.4501C31.8597 34.419 31.8634 34.3899 31.8634 34.3616V33.7774H32.1814V34.3532C32.1814 34.4171 32.1955 34.467 32.2228 34.5037C32.2501 34.5404 32.2821 34.5677 32.3178 34.5855C32.3536 34.6034 32.3884 34.6147 32.4222 34.6185C32.4561 34.6222 32.4796 34.6241 32.4928 34.6241H32.5427V34.625ZM30.2434 33.6495L29.9772 33.3795L30.2397 33.1066L30.5125 33.3795L30.2434 33.6495ZM30.8888 33.6523L30.6226 33.3823L30.885 33.1095L31.1579 33.3823L30.8888 33.6523ZM33.6311 33.5714C33.633 33.578 33.6377 33.5958 33.6443 33.625C33.6509 33.6542 33.6584 33.6909 33.6669 33.7332C33.6754 33.7765 33.6848 33.8245 33.6951 33.8762C33.7055 33.9289 33.7139 33.9816 33.7224 34.0342C33.7299 34.0879 33.7365 34.1387 33.7421 34.1885C33.7478 34.2384 33.7506 34.2807 33.7506 34.3184C33.7506 34.4265 33.7327 34.5187 33.6979 34.5968C33.6622 34.6749 33.6161 34.7398 33.5596 34.7906C33.5032 34.8414 33.4392 34.88 33.3687 34.9045C33.2981 34.9289 33.2266 34.9411 33.1551 34.9411H32.458V34.6232H33.1551C33.172 34.6232 33.1956 34.6203 33.2266 34.6156C33.2576 34.6109 33.2887 34.5978 33.3197 34.578C33.3508 34.5573 33.3771 34.5272 33.4006 34.4868C33.4232 34.4463 33.4355 34.3899 33.4355 34.3184C33.4355 34.2939 33.4336 34.2629 33.4298 34.2252C33.426 34.1876 33.4204 34.1471 33.4148 34.1039C33.4082 34.0606 33.4016 34.0164 33.3941 33.9712C33.3865 33.9261 33.3781 33.8828 33.3705 33.8423C33.363 33.8019 33.3555 33.7661 33.3489 33.7341C33.3423 33.7031 33.3367 33.6796 33.332 33.6636L33.6311 33.5714ZM33.1269 35.5884L32.8541 35.8612L32.5916 35.5884L32.8578 35.3184L33.1269 35.5884ZM33.7722 35.5846L33.4994 35.8575L33.2369 35.5846L33.5032 35.3146L33.7722 35.5846ZM35.4543 34.943H35.3819C35.2737 34.943 35.1749 34.9214 35.0837 34.8791C35.0837 35.0362 35.062 35.1763 35.0178 35.3005C34.9736 35.4238 34.9096 35.5291 34.8259 35.6147C34.7412 35.7003 34.6378 35.7662 34.5155 35.8114C34.3922 35.8565 34.2511 35.8791 34.0921 35.8791H33.8597V35.5611H34.0921C34.2078 35.5611 34.3085 35.547 34.3932 35.5197C34.4778 35.4924 34.5484 35.4501 34.6039 35.3927C34.6594 35.3353 34.7008 35.2619 34.7271 35.1735C34.7535 35.0851 34.7666 34.9788 34.7666 34.8565V33.8056H35.0846V34.3635C35.0846 34.4265 35.0978 34.4755 35.1241 34.5112C35.1505 34.547 35.1815 34.5724 35.2163 34.5893C35.2511 34.6062 35.285 34.6166 35.317 34.6203C35.349 34.6241 35.3716 34.626 35.3838 34.626H35.4562V34.943H35.4543ZM36.556 33.5714C36.5579 33.578 36.5626 33.5958 36.5692 33.625C36.5757 33.6542 36.5833 33.6909 36.5917 33.7332C36.6002 33.7765 36.6096 33.8245 36.62 33.8762C36.6303 33.9289 36.6388 33.9816 36.6472 34.0342C36.6548 34.0879 36.6614 34.1387 36.667 34.1885C36.6726 34.2384 36.6755 34.2807 36.6755 34.3184C36.6755 34.4265 36.6576 34.5187 36.6228 34.5968C36.587 34.6749 36.5409 34.7398 36.4845 34.7906C36.428 34.8414 36.3641 34.88 36.2935 34.9045C36.2229 34.9289 36.1515 34.9411 36.08 34.9411H35.3828V34.6232H36.08C36.0969 34.6232 36.1204 34.6203 36.1515 34.6156C36.1825 34.6109 36.2135 34.5978 36.2446 34.578C36.2756 34.5573 36.302 34.5272 36.3255 34.4868C36.3481 34.4463 36.3603 34.3899 36.3603 34.3184C36.3603 34.2939 36.3584 34.2629 36.3547 34.2252C36.3509 34.1876 36.3453 34.1471 36.3396 34.1039C36.333 34.0606 36.3264 34.0164 36.3189 33.9712C36.3114 33.9261 36.3029 33.8828 36.2954 33.8423C36.2879 33.8019 36.2803 33.7661 36.2738 33.7341C36.2672 33.7031 36.2615 33.6796 36.2568 33.6636L36.556 33.5714ZM36.0527 35.5884L35.7799 35.8612L35.5174 35.5884L35.7836 35.3184L36.0527 35.5884ZM36.698 35.5846L36.4252 35.8575L36.1627 35.5846L36.429 35.3146L36.698 35.5846ZM38.8731 34.625V34.943H38.811C38.6436 34.943 38.4893 34.8734 38.3472 34.7342C38.2625 34.848 38.1148 34.9195 37.9041 34.9496C37.8646 34.9553 37.8232 34.96 37.779 34.9628C37.7348 34.9665 37.6896 34.9675 37.6426 34.9675C37.5852 34.9675 37.5278 34.9647 37.4695 34.96C37.4111 34.9553 37.3538 34.9468 37.2983 34.9364C37.2427 34.9261 37.1891 34.912 37.1374 34.8941C37.0856 34.8772 37.0395 34.8565 36.9972 34.833L36.8589 34.7521L37.017 34.4745L37.1571 34.5554C37.1967 34.578 37.2446 34.5959 37.3011 34.61C37.3575 34.6241 37.4177 34.6335 37.4826 34.6392C37.5306 34.6439 37.5795 34.6457 37.6275 34.6457C37.6445 34.6457 37.6727 34.6457 37.7131 34.6448C37.7536 34.6439 37.8016 34.6401 37.858 34.6326C37.9229 34.6222 37.9765 34.6081 38.0189 34.5893C38.0612 34.5705 38.0876 34.5498 38.0988 34.5263C38.1092 34.515 38.1139 34.5009 38.1139 34.4839C38.1139 34.4726 38.1101 34.4548 38.1017 34.4294C38.0941 34.404 38.0763 34.371 38.049 34.3287L37.4168 33.3663L37.6849 33.1913L38.3387 34.1885C38.3726 34.2365 38.4065 34.2864 38.4403 34.3372C38.4742 34.388 38.5109 34.435 38.5485 34.4773C38.5871 34.5197 38.6266 34.5545 38.669 34.5818C38.7113 34.6091 38.7574 34.6232 38.8082 34.6232H38.8731V34.625ZM39.8957 33.5366C40.0058 33.5366 40.1017 33.5573 40.1826 33.5996C40.2645 33.6419 40.3322 33.6984 40.3859 33.7689C40.4395 33.8395 40.4799 33.9214 40.5063 34.0135C40.5326 34.1057 40.5458 34.2008 40.5458 34.2995C40.5458 34.4087 40.5364 34.5027 40.5176 34.5808C40.4987 34.6599 40.4743 34.7257 40.4442 34.7784C40.4141 34.832 40.3802 34.8744 40.3426 34.9073C40.305 34.9402 40.2664 34.9647 40.2278 34.9816C40.1892 34.9985 40.1516 35.0098 40.1159 35.0155C40.0801 35.0211 40.0491 35.0239 40.0227 35.0239C39.9682 35.0239 39.9145 35.0183 39.8647 35.007C39.8139 34.9957 39.7621 34.9797 39.7094 34.959C39.6568 34.9383 39.6013 34.9129 39.5439 34.8828C39.4865 34.8527 39.4225 34.8179 39.3529 34.7803C39.2607 34.8894 39.1422 34.944 38.9973 34.944H38.8035V34.626H38.9973C39.0396 34.626 39.0754 34.61 39.1026 34.579C39.1299 34.5479 39.1544 34.5065 39.1741 34.4557C39.1948 34.4049 39.2127 34.3475 39.2297 34.2826C39.2466 34.2177 39.2663 34.1509 39.288 34.0822C39.3096 34.0135 39.336 33.9468 39.3661 33.8818C39.3962 33.8169 39.4347 33.7586 39.4818 33.7087C39.5288 33.6579 39.5853 33.6175 39.6521 33.5855C39.7188 33.5516 39.7998 33.5366 39.8957 33.5366ZM40.0237 34.706C40.0312 34.706 40.0425 34.705 40.0566 34.7041C40.0707 34.7031 40.0858 34.6984 40.1017 34.6909C40.1177 34.6834 40.1347 34.6711 40.1507 34.6542C40.1667 34.6382 40.1817 34.6147 40.1949 34.5855C40.208 34.5554 40.2184 34.5178 40.2269 34.4708C40.2353 34.4237 40.2391 34.3673 40.2391 34.2995C40.2391 34.2873 40.2382 34.2676 40.2353 34.2403C40.2335 34.213 40.2278 34.1829 40.2203 34.15C40.2128 34.117 40.2005 34.0832 40.1855 34.0484C40.1704 34.0135 40.1497 33.9816 40.1243 33.9524C40.0989 33.9232 40.0669 33.8997 40.0302 33.8809C39.9936 33.8621 39.9484 33.8527 39.8957 33.8527C39.8459 33.8527 39.8045 33.8611 39.7706 33.879C39.7367 33.8969 39.7076 33.9204 39.684 33.9505C39.6605 33.9806 39.6408 34.0164 39.6248 34.0578C39.6088 34.0992 39.5947 34.1434 39.5806 34.1904C39.5674 34.2384 39.5533 34.2883 39.5401 34.34C39.5269 34.3927 39.5109 34.4444 39.4931 34.4962C39.5514 34.5253 39.605 34.5526 39.6549 34.579C39.7047 34.6044 39.7499 34.6269 39.7932 34.6457C39.8355 34.6646 39.876 34.6787 39.9136 34.69C39.9503 34.7003 39.987 34.706 40.0237 34.706ZM43.3116 34.943H43.2693C43.0896 34.943 42.9325 34.9045 42.798 34.8273C42.6635 34.7502 42.5609 34.6429 42.4885 34.5046C42.4527 34.5545 42.4095 34.5968 42.3596 34.6335C42.3097 34.6702 42.2533 34.7022 42.1903 34.7304C42.1545 34.7455 42.1131 34.7568 42.0651 34.7662C42.0181 34.7756 41.9682 34.7793 41.9155 34.7793C41.8629 34.7793 41.8083 34.7727 41.7528 34.7605C41.6973 34.7483 41.6427 34.7276 41.59 34.6984C41.5091 34.6561 41.4442 34.5996 41.3953 34.5291C41.3464 34.4585 41.3144 34.3757 41.2984 34.2807C41.2909 34.2365 41.2862 34.1942 41.2862 34.1509C41.2862 34.0794 41.3003 33.9985 41.3294 33.9101C41.3577 33.8216 41.416 33.7313 41.5035 33.6401C41.6578 33.483 41.8751 33.3625 42.1554 33.2797L42.1235 33.0982L42.4339 33.0323C42.4612 33.1443 42.4847 33.244 42.5045 33.3315C42.5252 33.419 42.543 33.4971 42.5581 33.5667C42.5619 33.5799 42.5666 33.6024 42.5741 33.6344C42.5816 33.6655 42.5901 33.7022 42.6004 33.7435C42.6108 33.7849 42.6211 33.8282 42.6324 33.8762C42.6437 33.9232 42.655 33.9693 42.6663 34.0145C42.6776 34.0596 42.6879 34.102 42.6983 34.1406C42.7086 34.1801 42.7171 34.2121 42.7256 34.2384C42.7481 34.3231 42.7811 34.3899 42.8253 34.4416C42.8695 34.4924 42.9165 34.5319 42.9683 34.5592C43.02 34.5865 43.0727 34.6043 43.1254 34.6128C43.179 34.6213 43.226 34.625 43.2674 34.625H43.3098V34.943H43.3116ZM42.242 33.5864C42.131 33.6194 42.0322 33.6579 41.9475 33.7031C41.8619 33.7483 41.7914 33.7981 41.7359 33.8517C41.6804 33.9063 41.6408 33.9646 41.6173 34.0277C41.6013 34.0691 41.5938 34.1123 41.5938 34.1556C41.5938 34.1782 41.5957 34.2008 41.6004 34.2243C41.6079 34.2713 41.6248 34.3108 41.6512 34.3428C41.6766 34.3748 41.7076 34.4002 41.7424 34.419C41.7669 34.4341 41.7942 34.4444 41.8233 34.4501C41.8525 34.4567 41.8817 34.4595 41.9108 34.4595H41.9278C41.9513 34.4595 41.9758 34.4576 42.0002 34.4538C42.0247 34.4501 42.0482 34.4435 42.0689 34.4341C42.21 34.3757 42.2928 34.2694 42.3163 34.1161C42.321 34.0803 42.3229 34.0465 42.3229 34.0154C42.3229 33.9985 42.321 33.975 42.3182 33.9449C42.3144 33.9148 42.3116 33.8912 42.3078 33.8762L42.242 33.5864ZM45.3983 34.943H45.3729C45.2732 34.943 45.1838 34.9336 45.1057 34.9148C45.0276 34.896 44.9561 34.8687 44.8921 34.833C44.8282 34.7972 44.7689 34.7549 44.7153 34.705C44.6617 34.6552 44.609 34.5987 44.5572 34.5376C44.5553 34.5432 44.5525 34.5479 44.5506 34.5526C44.5488 34.5573 44.5459 34.562 44.5441 34.5677C44.513 34.6298 44.4688 34.6853 44.4114 34.7342C44.355 34.784 44.2872 34.8245 44.2101 34.8574C44.1442 34.8866 44.0699 34.9082 43.989 34.9223C43.9081 34.9364 43.8244 34.943 43.7359 34.943H43.2401V34.625H43.7359C43.8008 34.625 43.862 34.6203 43.9184 34.6109C43.9749 34.6015 44.0266 34.5884 44.0718 34.5705C44.1169 34.5536 44.1565 34.5319 44.1884 34.5075C44.2204 34.483 44.2439 34.4548 44.2599 34.4247C44.2741 34.3946 44.2816 34.3598 44.2816 34.3221C44.2816 34.292 44.2741 34.2487 44.2581 34.1914C44.2421 34.1349 44.1988 34.0587 44.1282 33.9627C44.0285 33.8226 43.9438 33.7031 43.8742 33.6053C43.8046 33.5074 43.7482 33.4274 43.7039 33.3663C43.6522 33.2948 43.6099 33.2355 43.5779 33.1894L43.64 32.9533L45.1866 32.2393L45.3183 32.5309L43.9382 33.1631L44.6071 34.0916C44.6758 34.1838 44.7369 34.2629 44.7905 34.3296C44.8442 34.3964 44.8987 34.4519 44.9552 34.4952C45.0107 34.5394 45.0718 34.5714 45.1367 34.5931C45.2026 34.6147 45.2807 34.625 45.3719 34.625H45.3973V34.943H45.3983ZM46.7633 34.625V34.943H46.6316C46.5291 34.943 46.4397 34.928 46.3616 34.8988C46.2835 34.8696 46.2205 34.8254 46.1735 34.7671C46.0568 34.8838 45.8837 34.9421 45.6542 34.9421H45.3305V34.6241H45.6542C45.7351 34.6241 45.799 34.6156 45.8461 34.5996C45.8931 34.5837 45.9289 34.563 45.9533 34.5394C45.9778 34.515 45.9928 34.4886 46.0004 34.4585C46.0079 34.4284 46.0117 34.4002 46.0117 34.3739V33.8047H46.3287V34.3626C46.3287 34.404 46.3353 34.4397 46.3475 34.4689C46.3597 34.498 46.3757 34.5225 46.3955 34.5423C46.4152 34.562 46.4369 34.5771 46.4613 34.5884C46.4858 34.5996 46.5084 34.6081 46.531 34.6138C46.5535 34.6194 46.5733 34.6232 46.5912 34.6241C46.609 34.625 46.6222 34.626 46.6316 34.626H46.7633V34.625ZM45.7106 35.5733L45.9966 35.2836L46.2901 35.5771L46.0004 35.8669L45.7106 35.5733ZM48.0098 34.9402C47.9045 34.9402 47.8104 34.9252 47.7286 34.8941C47.6467 34.8631 47.5771 34.8188 47.5216 34.7605C47.4633 34.8235 47.3955 34.8696 47.3174 34.8998C47.2403 34.9299 47.1622 34.944 47.0832 34.944H46.6956V34.626H47.0832C47.1001 34.626 47.1246 34.6232 47.1556 34.6185C47.1867 34.6138 47.2177 34.6006 47.2478 34.5799C47.2779 34.5592 47.3052 34.5281 47.3278 34.4868C47.3504 34.4454 47.3626 34.3889 47.3626 34.3165V33.8056H47.6806V34.309C47.6806 34.4181 47.706 34.498 47.7568 34.5479C47.8076 34.5987 47.8923 34.6241 48.0089 34.6241C48.0258 34.6241 48.0494 34.6213 48.0804 34.6147C48.1115 34.6081 48.1425 34.5949 48.1735 34.5733C48.2046 34.5517 48.2309 34.5206 48.2544 34.4792C48.277 34.4378 48.2893 34.3814 48.2893 34.309V33.8056H48.6063V34.309C48.6063 34.4181 48.6326 34.498 48.6853 34.5498C48.738 34.6015 48.8227 34.6269 48.9393 34.6269C48.9572 34.6269 48.9817 34.6232 49.0118 34.6156C49.0419 34.6081 49.072 34.5931 49.1021 34.5714C49.1322 34.5488 49.1576 34.5169 49.1783 34.4755C49.1999 34.4341 49.2103 34.3786 49.2103 34.309C49.2103 34.2845 49.2084 34.2534 49.2046 34.2168C49.2009 34.1801 49.1952 34.1396 49.1896 34.0973C49.183 34.0549 49.1764 34.0107 49.1689 33.9665C49.1614 33.9223 49.1529 33.8809 49.1454 33.8414C49.1378 33.8028 49.1303 33.768 49.1237 33.737C49.1171 33.7059 49.1115 33.6833 49.1068 33.6683L49.4088 33.5723C49.4107 33.5789 49.4154 33.5968 49.4219 33.625C49.4285 33.6532 49.4361 33.689 49.4455 33.7313C49.4549 33.7737 49.4633 33.8207 49.4737 33.8724C49.4831 33.9242 49.4925 33.9759 49.501 34.0286C49.5094 34.0813 49.516 34.1311 49.5217 34.1801C49.5273 34.229 49.5301 34.2723 49.5301 34.309C49.5301 34.4153 49.5123 34.5084 49.4774 34.5874C49.4426 34.6664 49.3975 34.7323 49.342 34.785C49.2865 34.8377 49.2234 34.8762 49.1529 34.9026C49.0823 34.9289 49.0118 34.943 48.9403 34.944C48.8321 34.944 48.7371 34.928 48.6543 34.896C48.5715 34.864 48.5019 34.8179 48.4445 34.7568C48.3862 34.8188 48.3184 34.8649 48.2413 34.895C48.1641 34.9242 48.087 34.9402 48.0098 34.9402ZM48.1397 33.3409L47.8734 33.0709L48.1359 32.7981L48.4087 33.0709L48.1397 33.3409ZM48.7023 32.5826L48.4633 32.8169L48.2272 32.5826L48.4699 32.3418L48.7023 32.5826ZM48.785 33.3447L48.5188 33.0747L48.7813 32.8018L49.0541 33.0747L48.785 33.3447Z" fill="#636466"/>
<path d="M41.2922 10.9872H33.0548V11.8518V16.4785V21.9707H27.0828C27.3876 21.1109 27.5617 20.1889 27.5617 19.2237C27.5617 14.6732 23.8739 10.9854 19.3234 10.9854H18.2302L27.5617 0.00094097H20.4165L11.085 10.9854V16.4776H19.3234C20.8399 16.4776 22.0695 17.7072 22.0695 19.2237C22.0695 20.7402 20.8399 21.9698 19.3234 21.9698H11.657V21.9707H8.338C6.82148 21.9707 5.59189 20.7411 5.59189 19.2246H5.59283V0H0.101562V19.2246C0.101562 23.7732 3.78938 27.462 8.33894 27.462H11.658H12.1566H15.4737H19.3234H41.2922C45.8408 27.462 49.5296 23.7742 49.5296 19.2246C49.5296 14.6751 45.8418 10.9872 41.2922 10.9872ZM41.2922 21.9707H38.5461V16.4785H41.2922C42.8087 16.4785 44.0383 17.7072 44.0383 19.2246C44.0383 20.7411 42.8087 21.9707 41.2922 21.9707Z" fill="#636466"/>
</svg>
