<svg width="155" height="38" viewBox="0 0 155 38" fill="none" xmlns="http://www.w3.org/2000/svg">
<path d="M112.267 22.069V26.6395C112.267 30.5024 110.695 34.2988 107.987 37.4416H103.967C107.098 34.7515 109.426 31.0101 109.426 26.6395V22.069C109.426 19.7177 107.51 17.8007 105.158 17.8007C102.813 17.8007 100.897 19.7177 100.897 22.069V25.6047C100.897 28.2592 99.3002 30.8461 96.9189 32.043L86.6843 37.1935V34.0082L95.6428 29.5044C97.0878 28.7785 98.0559 27.2128 98.0559 25.6047V22.069C98.0559 18.1453 101.241 14.959 105.158 14.959C109.082 14.9599 112.267 18.1462 112.267 22.069Z" fill="#A066AA"/>
<path d="M106.579 22.069V26.0951C106.579 30.7196 103.84 34.8123 99.0704 37.321C98.9912 37.3634 98.913 37.4001 98.829 37.4416H92.5115C94.5366 36.4146 96.4352 35.459 97.7711 34.7939C101.555 32.7988 103.737 29.625 103.737 26.0951V22.069C103.737 21.2891 104.378 20.6482 105.157 20.6482C105.944 20.6482 106.579 21.2891 106.579 22.069Z" fill="#A066AA"/>
<path d="M117.975 37.4425H111.561L113.174 35.2118C113.447 34.8364 113.869 34.6008 114.329 34.5642C114.794 34.5284 115.248 34.6916 115.58 35.0236L117.975 37.4425Z" fill="#A066AA"/>
<path d="M89.5125 13.8604L104.602 3.50233C104.935 3.27453 105.382 3.27453 105.714 3.50233L120.791 13.8353V28.0458C120.791 28.3595 120.915 28.6597 121.135 28.8817L123.633 31.4058V13.8353C123.633 12.9087 123.177 12.0429 122.413 11.5187L107.321 1.1587C106.028 0.270668 104.289 0.270668 102.993 1.1587L87.9044 11.5187C87.1409 12.0429 86.6843 12.9087 86.6843 13.8353V30.8276L89.5251 29.3981L89.5125 13.8604Z" fill="#A066AA"/>
<path d="M123.633 35.0844V37.4415H121.971L117.243 32.6655C115.871 31.2745 115.116 29.4377 115.116 27.485V17.4869C115.116 17.0699 114.91 16.6771 114.56 16.4415L107.885 11.8527C106.26 10.7408 104.077 10.7408 102.451 11.8527L95.7713 16.4415C95.4267 16.6771 95.2211 17.0699 95.2211 17.4869V25.1288C95.2211 25.9937 94.7317 26.7794 93.9576 27.1722L92.3794 27.9647V17.4869C92.3794 16.1326 93.0454 14.8633 94.1632 14.096L100.843 9.51392C103.431 7.7369 106.906 7.7369 109.494 9.51392L116.168 14.096C117.286 14.8643 117.958 16.1326 117.958 17.4869V27.4859C117.958 28.6828 118.423 29.8132 119.263 30.6655L123.633 35.0844Z" fill="#A066AA"/>
<path d="M33.8081 36.0883C33.856 36.1822 33.8829 36.2703 33.8867 36.3547L33.8886 36.3786C33.8886 36.4534 33.8733 36.5233 33.8436 36.5895C33.8139 36.6556 33.7679 36.7169 33.7046 36.7735C33.6414 36.829 33.5676 36.877 33.4813 36.9153C33.3951 36.9536 33.3002 36.9833 33.1948 37.0044C33.0894 37.0255 32.9782 37.036 32.8622 37.036H32.3735C32.1924 37.036 32.0304 36.9968 31.8857 36.9172C31.7419 36.8386 31.6241 36.7294 31.5321 36.5895C31.4707 36.4908 31.4266 36.3815 31.3998 36.2617C31.3787 36.1688 31.3691 36.072 31.3691 35.9704C31.3691 35.9407 31.3711 35.8841 31.3758 35.8017C31.3806 35.7183 31.4046 35.6024 31.4468 35.4529C31.4899 35.3034 31.5503 35.1481 31.6279 34.9881L31.9164 35.129C31.7879 35.3992 31.7151 35.6436 31.6988 35.8621C31.6969 35.8985 31.695 35.934 31.695 35.9685C31.695 36.1419 31.7333 36.2914 31.81 36.416C31.8684 36.5109 31.9461 36.5837 32.0438 36.6335C32.1416 36.6843 32.2508 36.7093 32.3725 36.7093H32.8613C32.9255 36.7093 32.9887 36.7045 33.0501 36.6949C33.1114 36.6853 33.1699 36.6719 33.2235 36.6546C33.2772 36.6374 33.3261 36.6173 33.3692 36.5933C33.4123 36.5703 33.4487 36.5435 33.4784 36.5157C33.5072 36.4869 33.5283 36.4563 33.5398 36.4227C33.5465 36.4055 33.5503 36.3882 33.5503 36.371C33.5503 36.3547 33.5474 36.3393 33.5417 36.323C33.5283 36.278 33.4957 36.2406 33.4459 36.2109C33.3951 36.1803 33.3347 36.1563 33.2638 36.139C33.1929 36.1208 33.1162 36.1084 33.0338 36.1017C32.9514 36.094 32.8718 36.0902 32.7951 36.0902L32.8076 35.7662H34.2873V36.0902H33.8081V36.0883ZM34.7655 34.691C34.7674 34.6977 34.7722 34.7159 34.7789 34.7456C34.7856 34.7753 34.7933 34.8127 34.8019 34.8558C34.8105 34.8999 34.8201 34.9488 34.8307 35.0015C34.8412 35.0552 34.8498 35.1088 34.8585 35.1625C34.8661 35.2171 34.8728 35.2689 34.8786 35.3197C34.8843 35.3705 34.8872 35.4136 34.8872 35.4519C34.8872 35.5621 34.869 35.656 34.8335 35.7356C34.7971 35.8151 34.7502 35.8812 34.6927 35.933C34.6352 35.9848 34.57 36.024 34.4981 36.049C34.4262 36.0739 34.3534 36.0863 34.2806 36.0863H33.8426V35.7624H34.2806C34.2978 35.7624 34.3218 35.7595 34.3534 35.7547C34.385 35.75 34.4167 35.7365 34.4483 35.7164C34.4799 35.6953 34.5067 35.6647 34.5307 35.6235C34.5537 35.5822 34.5662 35.5247 34.5662 35.4519C34.5662 35.427 34.5642 35.3954 34.5604 35.357C34.5566 35.3187 34.5508 35.2775 34.5451 35.2334C34.5384 35.1893 34.5317 35.1443 34.524 35.0983C34.5163 35.0523 34.5077 35.0082 34.5 34.967C34.4924 34.9258 34.4847 34.8894 34.478 34.8568C34.4713 34.8252 34.4655 34.8012 34.4607 34.7849L34.7655 34.691ZM34.1991 33.9828L34.4905 33.6876L34.7895 33.9866L34.4943 34.2818L34.1991 33.9828ZM35.9605 36.0883C35.8408 36.0873 35.7411 36.0787 35.6625 36.0633C35.5839 36.048 35.5178 36.026 35.4632 35.9963C35.4085 35.9675 35.3654 35.9301 35.3328 35.886C35.3002 35.842 35.2744 35.7902 35.2562 35.7317C35.238 35.6733 35.2255 35.6072 35.2197 35.5334C35.214 35.4605 35.2111 35.3791 35.2111 35.29V33.6387H35.535V35.29C35.535 35.3896 35.5379 35.4701 35.5446 35.5324C35.5513 35.5937 35.5676 35.6417 35.5945 35.6762C35.6213 35.7097 35.6615 35.7327 35.7162 35.7452C35.7708 35.7576 35.8513 35.7634 35.9586 35.7653V36.0883H35.9605ZM37.9079 36.0883C37.8255 36.0883 37.7478 36.0758 37.676 36.0518C37.6041 36.0279 37.5389 35.9934 37.4805 35.9493C37.4498 35.9972 37.4153 36.0355 37.3779 36.0653C37.3406 36.094 37.3032 36.117 37.2668 36.1323C37.2294 36.1477 37.1939 36.1582 37.1594 36.163C37.1249 36.1678 37.0952 36.1707 37.0703 36.1707C37.0147 36.1707 36.9601 36.1649 36.9093 36.1534C36.8576 36.1419 36.8048 36.1256 36.7512 36.1045C36.6975 36.0835 36.641 36.0576 36.5825 36.0269C36.5231 35.9962 36.4589 35.9608 36.388 35.9225C36.294 36.0336 36.1733 36.0892 36.0257 36.0892H35.8915V35.7653H36.0257C36.0688 35.7653 36.1053 35.749 36.133 35.7174C36.1608 35.6857 36.1858 35.6436 36.2059 35.5918C36.227 35.5401 36.2452 35.4816 36.2624 35.4155C36.2797 35.3494 36.2988 35.2813 36.3218 35.2114C36.3439 35.1414 36.3707 35.0734 36.4014 35.0072C36.432 34.9411 36.4713 34.8817 36.5193 34.8309C36.5672 34.7792 36.6247 34.738 36.6927 34.7054C36.7608 34.6737 36.8432 34.6575 36.9409 34.6575C37.0531 34.6575 37.1508 34.6785 37.2332 34.7217C37.3166 34.7648 37.3846 34.8223 37.4402 34.8942C37.4948 34.966 37.5361 35.0494 37.5629 35.1433C37.5897 35.2372 37.6031 35.334 37.6031 35.4347C37.6031 35.5104 37.6166 35.5698 37.6434 35.6139C37.6702 35.658 37.7009 35.6915 37.7363 35.7135C37.7708 35.7356 37.8053 35.75 37.8389 35.7567C37.8724 35.7634 37.8954 35.7662 37.9088 35.7662H37.9692V36.0902H37.9079V36.0883ZM37.0703 35.8468C37.0799 35.8468 37.0914 35.8458 37.1048 35.8448C37.1182 35.8439 37.1336 35.8391 37.1498 35.8314C37.1661 35.8237 37.1834 35.8113 37.1997 35.794C37.216 35.7777 37.2313 35.7538 37.2447 35.7241C37.2581 35.6934 37.2687 35.6551 37.2773 35.6072C37.2859 35.5592 37.2898 35.5017 37.2898 35.4327C37.2898 35.4203 37.2888 35.4002 37.2859 35.3724C37.284 35.3446 37.2783 35.3139 37.2706 35.2804C37.2629 35.2468 37.2505 35.2123 37.2351 35.1769C37.2198 35.1414 37.1987 35.1088 37.1728 35.0791C37.147 35.0494 37.1144 35.0255 37.077 35.0063C37.0396 34.9871 36.9936 34.9775 36.94 34.9775C36.8892 34.9775 36.847 34.9862 36.8125 35.0044C36.778 35.0226 36.7483 35.0465 36.7243 35.0772C36.7004 35.1079 36.6803 35.1443 36.664 35.1865C36.6477 35.2286 36.6333 35.2737 36.6189 35.3216C36.6055 35.3705 36.5911 35.4212 36.5777 35.474C36.5643 35.5276 36.548 35.5803 36.5298 35.633C36.5892 35.6627 36.6438 35.6905 36.6946 35.7174C36.7454 35.7432 36.7914 35.7662 36.8355 35.7854C36.8786 35.8046 36.9198 35.819 36.9582 35.8305C36.9965 35.841 37.0339 35.8468 37.0703 35.8468ZM39.7747 35.7643V36.0883H39.4738C39.3694 36.0883 39.2783 36.0729 39.1988 36.0432C39.1192 36.0135 39.055 35.9685 39.0071 35.909C38.8883 36.0279 38.7119 36.0873 38.4781 36.0873H37.8945V35.7634H38.4781C38.5605 35.7634 38.6257 35.7547 38.6736 35.7385C38.7215 35.7222 38.7579 35.7011 38.7829 35.6771C38.8078 35.6522 38.8231 35.6254 38.8308 35.5947C38.8384 35.564 38.8423 35.5353 38.8423 35.5085V34.9287H39.1652V35.497C39.1652 35.5391 39.1719 35.5755 39.1854 35.6052C39.1988 35.635 39.2151 35.6599 39.2342 35.68C39.2534 35.7001 39.2754 35.7155 39.3004 35.727C39.3253 35.7385 39.3483 35.7471 39.3713 35.7528C39.3943 35.7586 39.4144 35.7624 39.4326 35.7634C39.4508 35.7643 39.4642 35.7653 39.4738 35.7653H39.7747V35.7643ZM38.5615 34.506L38.2903 34.231L38.5576 33.9531L38.8356 34.231L38.5615 34.506ZM39.2179 34.5099L38.9467 34.2348L39.2141 33.9569L39.492 34.2348L39.2179 34.5099ZM42.0153 35.4021C42.0086 35.4069 41.9789 35.427 41.9262 35.4625C41.8735 35.4979 41.8035 35.541 41.7163 35.5918C41.6291 35.6426 41.5266 35.6972 41.4097 35.7557C41.2927 35.8142 41.1672 35.8678 41.033 35.9167C40.8989 35.9656 40.758 36.0068 40.6114 36.0394C40.4647 36.072 40.3181 36.0883 40.1724 36.0883H39.7019V35.7643H40.1724C40.3009 35.7643 40.4302 35.749 40.5615 35.7193C40.6928 35.6886 40.8184 35.6512 40.9401 35.6062C41.0618 35.5612 41.1749 35.5123 41.2812 35.4586C41.3876 35.405 41.4806 35.3551 41.5611 35.3082C41.4499 35.2631 41.3397 35.22 41.2295 35.1778C41.1193 35.1357 41.0177 35.0983 40.9267 35.0657C40.8347 35.0331 40.7561 35.0063 40.6909 34.9862C40.6248 34.966 40.5817 34.9536 40.5596 34.9497C40.5404 34.9497 40.5194 34.9517 40.4983 34.9545C40.4772 34.9584 40.4561 34.968 40.436 34.9852C40.4159 35.0025 40.3957 35.0293 40.3756 35.0647C40.3564 35.1012 40.3382 35.151 40.321 35.2162L40.0067 35.1337C40.0948 34.7955 40.2798 34.6258 40.5625 34.6258C40.5692 34.6258 40.5788 34.6258 40.5903 34.6268C40.6018 34.6277 40.6181 34.6306 40.6401 34.6354C40.6622 34.6402 40.6909 34.6488 40.7273 34.6594C40.7637 34.6699 40.8107 34.6852 40.8672 34.7044C40.9238 34.7236 40.9928 34.7485 41.0742 34.7792C41.1557 34.8098 41.2525 34.8472 41.3656 34.8913L41.9732 35.1165L42.0153 35.4021ZM40.1926 33.9243L40.4839 33.6292L40.7829 33.9282L40.4877 34.2233L40.1926 33.9243ZM43.0753 36.0883C42.9555 36.0873 42.8558 36.0787 42.7772 36.0633C42.6986 36.048 42.6325 36.026 42.5779 35.9963C42.5233 35.9675 42.4801 35.9301 42.4475 35.886C42.415 35.842 42.3891 35.7902 42.3709 35.7317C42.3527 35.6733 42.3402 35.6072 42.3345 35.5334C42.3287 35.4605 42.3258 35.3791 42.3258 35.29V33.6387H42.6498V35.29C42.6498 35.3896 42.6526 35.4701 42.6593 35.5324C42.666 35.5937 42.6823 35.6417 42.7092 35.6762C42.736 35.7097 42.7763 35.7327 42.8309 35.7452C42.8855 35.7576 42.966 35.7634 43.0733 35.7653V36.0883H43.0753ZM44.346 36.0854C44.2387 36.0854 44.1428 36.07 44.0595 36.0384C43.9761 36.0068 43.9052 35.9617 43.8486 35.9023C43.7892 35.9665 43.7202 36.0135 43.6407 36.0442C43.5621 36.0748 43.4826 36.0892 43.4021 36.0892H43.0072V35.7653H43.4021C43.4193 35.7653 43.4442 35.7624 43.4758 35.7576C43.5075 35.7528 43.5391 35.7394 43.5698 35.7183C43.6004 35.6972 43.6282 35.6656 43.6512 35.6235C43.6742 35.5813 43.6867 35.5238 43.6867 35.45V34.9296H44.0106V35.4423C44.0106 35.5535 44.0365 35.635 44.0882 35.6857C44.14 35.7375 44.2262 35.7634 44.3451 35.7634C44.3623 35.7634 44.3863 35.7605 44.4179 35.7538C44.4495 35.7471 44.4811 35.7337 44.5128 35.7116C44.5444 35.6896 44.5712 35.658 44.5952 35.6158C44.6182 35.5736 44.6306 35.5161 44.6306 35.4423V34.9296H44.9536V35.4423C44.9536 35.5535 44.9804 35.635 45.0341 35.6877C45.0878 35.7404 45.174 35.7662 45.2929 35.7662C45.3111 35.7662 45.336 35.7624 45.3666 35.7547C45.3973 35.7471 45.428 35.7317 45.4586 35.7097C45.4893 35.6867 45.5152 35.6541 45.5363 35.612C45.5583 35.5698 45.5689 35.5132 45.5689 35.4423C45.5689 35.4174 45.5669 35.3858 45.5631 35.3484C45.5593 35.311 45.5535 35.2698 45.5478 35.2267C45.5411 35.1836 45.5344 35.1385 45.5267 35.0935C45.519 35.0485 45.5104 35.0063 45.5027 34.966C45.4951 34.9267 45.4874 34.8913 45.4807 34.8597C45.474 34.828 45.4682 34.805 45.4634 34.7897L45.7711 34.6919C45.773 34.6987 45.7778 34.7169 45.7845 34.7456C45.7912 34.7744 45.7989 34.8108 45.8084 34.8539C45.818 34.897 45.8266 34.945 45.8372 34.9977C45.8468 35.0504 45.8564 35.1031 45.865 35.1567C45.8736 35.2104 45.8803 35.2612 45.8861 35.311C45.8918 35.3609 45.8947 35.405 45.8947 35.4423C45.8947 35.5506 45.8765 35.6455 45.841 35.726C45.8056 35.8065 45.7596 35.8736 45.703 35.9273C45.6465 35.9809 45.5823 36.0202 45.5104 36.047C45.4385 36.0739 45.3666 36.0883 45.2938 36.0892C45.1836 36.0892 45.0868 36.0729 45.0025 36.0403C44.9181 36.0078 44.8472 35.9608 44.7888 35.8985C44.7294 35.9617 44.6603 36.0087 44.5818 36.0394C44.5032 36.0691 44.4246 36.0854 44.346 36.0854ZM48.096 36.7083C48.21 36.7083 48.3097 36.6987 48.394 36.6786C48.4784 36.6585 48.5474 36.6268 48.603 36.5837C48.6576 36.5406 48.6988 36.484 48.7247 36.4141C48.7505 36.3441 48.764 36.2598 48.764 36.1601C48.6538 36.1314 48.5464 36.1026 48.441 36.0739C48.396 36.0624 48.349 36.0499 48.3001 36.0365C48.2512 36.0231 48.2024 36.0106 48.1535 35.9972C48.1046 35.9838 48.0577 35.9713 48.0107 35.9598C47.9647 35.9483 47.9216 35.9378 47.8832 35.9273C47.8325 35.8046 47.8075 35.6838 47.8075 35.565C47.8075 35.5583 47.8085 35.5219 47.8104 35.4548C47.8123 35.3887 47.8363 35.3005 47.8832 35.1922C47.9302 35.0839 47.9963 34.9862 48.0826 34.8999C48.1688 34.8137 48.2675 34.7447 48.3797 34.6929C48.4918 34.6412 48.6145 34.6095 48.7467 34.599C48.7726 34.5971 48.8004 34.5952 48.8272 34.5952C48.9345 34.5952 49.0448 34.6115 49.1588 34.645L49.0783 34.9555C49.0007 34.9315 48.9211 34.92 48.8416 34.92C48.7611 34.921 48.6844 34.9325 48.6106 34.9545C48.5368 34.9766 48.4688 35.0092 48.4055 35.0513C48.3423 35.0935 48.2896 35.1443 48.2455 35.2037C48.2014 35.2622 48.1698 35.3283 48.1506 35.4021C48.1372 35.45 48.1305 35.4998 48.1305 35.5516C48.1305 35.5813 48.1324 35.611 48.1372 35.6407L48.7946 35.8036C48.8857 35.8285 48.9547 35.8698 49.0007 35.9273C49.0467 35.9848 49.0697 36.0547 49.0697 36.1362C49.0697 36.2857 49.0515 36.417 49.016 36.53C48.9805 36.6431 48.924 36.7361 48.8464 36.8108C48.7688 36.8856 48.6681 36.9412 48.5455 36.9795C48.4228 37.0169 48.2733 37.036 48.0979 37.036H47.7184C47.6312 37.036 47.5478 37.0255 47.4664 37.0035C47.3849 36.9814 47.3082 36.9517 47.2364 36.9124C47.1645 36.8731 47.0984 36.8262 47.037 36.7715C46.9767 36.7169 46.923 36.6556 46.877 36.5895C46.8233 36.5023 46.7831 36.4074 46.7553 36.3029C46.7275 36.1985 46.7141 36.0892 46.7141 35.9732C46.7141 35.8305 46.7371 35.6762 46.7821 35.5104C46.8272 35.3446 46.8933 35.1702 46.9805 34.9862C47.0322 35.0101 47.0802 35.0331 47.1242 35.0561C47.1693 35.0782 47.2153 35.1012 47.2651 35.1261C47.1137 35.449 47.0389 35.7289 47.0389 35.9656C47.0389 36.0499 47.0495 36.1304 47.0696 36.2071C47.0907 36.2838 47.1185 36.3528 47.1559 36.415C47.2143 36.507 47.2929 36.578 47.3926 36.6307C47.4922 36.6824 47.6005 36.7083 47.7184 36.7083H48.096ZM50.3031 36.0883C50.1833 36.0873 50.0836 36.0787 50.005 36.0633C49.9264 36.048 49.8603 36.026 49.8057 35.9963C49.751 35.9675 49.7079 35.9301 49.6753 35.886C49.6428 35.842 49.6169 35.7902 49.5987 35.7317C49.5805 35.6733 49.568 35.6072 49.5623 35.5334C49.5565 35.4605 49.5536 35.3791 49.5536 35.29V33.6387H49.8776V35.29C49.8776 35.3896 49.8804 35.4701 49.8871 35.5324C49.8938 35.5937 49.9101 35.6417 49.937 35.6762C49.9638 35.7097 50.004 35.7327 50.0587 35.7452C50.1133 35.7576 50.1938 35.7634 50.3011 35.7653V36.0883H50.3031ZM51.7856 34.2827C51.9111 34.414 52.0271 34.5377 52.1344 34.6517C52.1804 34.7006 52.2255 34.7504 52.2715 34.8002C52.3175 34.8501 52.3596 34.897 52.3989 34.943C52.4382 34.9881 52.4737 35.0293 52.5034 35.0667C52.5341 35.104 52.5561 35.1337 52.5714 35.1567C52.6021 35.2075 52.628 35.2555 52.6481 35.3024C52.6682 35.3494 52.6817 35.3963 52.6903 35.4452C52.6951 35.474 52.697 35.5027 52.697 35.5324C52.697 35.5516 52.6951 35.5794 52.6922 35.6148C52.6884 35.6503 52.6788 35.6972 52.6615 35.7557C52.6433 35.8218 52.6146 35.8822 52.5753 35.9368C52.536 35.9915 52.4881 36.0375 52.4315 36.0768C52.375 36.116 52.3117 36.1458 52.2408 36.1668C52.1699 36.1879 52.0932 36.1985 52.0108 36.1985C51.9332 36.1985 51.8527 36.1879 51.7693 36.1678C51.6859 36.1477 51.5997 36.1151 51.5106 36.072C51.4856 36.0614 51.4617 36.0509 51.4406 36.0413C51.4214 36.0317 51.4013 36.0231 51.3812 36.0135C51.3611 36.0039 51.3448 35.9963 51.3323 35.9895C51.225 36.0231 51.0985 36.048 50.9547 36.0643C50.811 36.0806 50.6548 36.0892 50.488 36.0892H50.236V35.7653H50.488C50.5628 35.7653 50.6394 35.7643 50.719 35.7615C50.7985 35.7595 50.8694 35.7538 50.9308 35.7461C50.8483 35.6742 50.788 35.5947 50.7506 35.5085C50.7132 35.4222 50.6941 35.3235 50.6941 35.2123C50.6941 35.1251 50.7103 35.0446 50.742 34.9708C50.7736 34.897 50.8186 34.8328 50.8752 34.7792C50.9317 34.7255 50.9988 34.6833 51.0764 34.6527C51.1541 34.622 51.2384 34.6076 51.3294 34.6076C51.3984 34.6076 51.4607 34.6172 51.5182 34.6364C51.5757 34.6555 51.6275 34.6814 51.6744 34.714C51.7214 34.7466 51.7626 34.784 51.7971 34.8271C51.8316 34.8702 51.8613 34.9143 51.8853 34.9612C51.9092 35.0072 51.9274 35.0542 51.9389 35.1021C51.9514 35.15 51.9571 35.1941 51.9571 35.2353C51.9571 35.3532 51.9351 35.4596 51.891 35.5535C51.8469 35.6474 51.7818 35.7308 51.6965 35.8036C51.7444 35.8228 51.7961 35.8391 51.8498 35.8515C51.9044 35.864 51.9581 35.8707 52.0118 35.8707C52.0463 35.8707 52.0798 35.8688 52.1143 35.864C52.1479 35.8592 52.1804 35.8506 52.2101 35.8362C52.2408 35.8228 52.2686 35.8036 52.2935 35.7806C52.3184 35.7576 52.3405 35.727 52.3587 35.6886C52.3731 35.658 52.3807 35.6244 52.3807 35.587C52.3807 35.5698 52.3769 35.542 52.3692 35.5046C52.3616 35.4672 52.3395 35.4155 52.3031 35.3522C52.2667 35.288 52.2197 35.2219 52.1641 35.152C52.1086 35.083 52.0463 35.012 51.9792 34.9402C51.9121 34.8683 51.8412 34.7964 51.7684 34.7236C51.6955 34.6517 51.6236 34.5798 51.5537 34.5089L51.7856 34.2827ZM51.3476 35.6455C51.3898 35.6273 51.4291 35.6043 51.4655 35.5765C51.5019 35.5487 51.5326 35.518 51.5594 35.4826C51.5863 35.4471 51.6074 35.4097 51.6217 35.3685C51.6361 35.3273 51.6438 35.2823 51.6438 35.2344C51.6438 35.1769 51.6313 35.129 51.6074 35.0897C51.5834 35.0504 51.5546 35.0178 51.5211 34.9938C51.4876 34.9689 51.4531 34.9517 51.4176 34.9402C51.3812 34.9296 51.3505 34.9239 51.3256 34.9239C51.2786 34.9239 51.2355 34.9306 51.1962 34.945C51.1569 34.9593 51.1224 34.9795 51.0937 35.0044C51.0649 35.0293 51.0419 35.06 51.0247 35.0954C51.0084 35.1309 50.9998 35.1692 50.9998 35.2104C50.9998 35.2593 51.0065 35.3043 51.0199 35.3436C51.0333 35.3829 51.0534 35.4193 51.0812 35.4538C51.109 35.4874 51.1454 35.52 51.1886 35.5506C51.2336 35.5822 51.2863 35.6139 51.3476 35.6455ZM53.6103 36.0883C53.5077 36.0883 53.4129 36.0729 53.3266 36.0413C53.2404 36.0097 53.1656 35.9665 53.1014 35.911C53.0382 35.8554 52.9883 35.7892 52.9529 35.7135C52.9174 35.6378 52.8992 35.5545 52.8992 35.4653C52.8992 35.3513 52.9145 35.2497 52.9442 35.1625C52.9749 35.0753 53.0132 34.9957 53.0602 34.9258C53.1072 34.8558 53.1589 34.7907 53.2145 34.7332C53.2701 34.6757 53.3247 34.6172 53.3755 34.5616L53.2691 34.4428L53.5097 34.2252C53.5691 34.2914 53.6304 34.3584 53.6946 34.4255C53.7579 34.4926 53.8202 34.5597 53.8805 34.6277C53.9409 34.6958 53.9984 34.7638 54.0511 34.8319C54.1048 34.8999 54.1508 34.968 54.191 35.036C54.2313 35.104 54.2629 35.1721 54.2869 35.2392C54.3089 35.3043 54.3195 35.3685 54.3195 35.4318V35.4423C54.3185 35.5353 54.2993 35.6215 54.2639 35.702C54.2275 35.7825 54.1757 35.8535 54.1067 35.9158C54.0425 35.9704 53.9677 36.0135 53.8825 36.0432C53.7981 36.0729 53.7071 36.0883 53.6103 36.0883ZM53.5873 34.7926C53.5442 34.8415 53.5001 34.8903 53.4569 34.9392C53.4138 34.9881 53.3745 35.0389 53.34 35.0925C53.3055 35.1462 53.2777 35.2037 53.2557 35.2641C53.2337 35.3245 53.2231 35.3915 53.2231 35.4653C53.2231 35.5171 53.2346 35.5612 53.2567 35.5985C53.2787 35.6359 53.3084 35.6666 53.3439 35.6915C53.3803 35.7164 53.4215 35.7346 53.4675 35.7461C53.5135 35.7586 53.5614 35.7643 53.6093 35.7643C53.6678 35.7643 53.7205 35.7567 53.7684 35.7413C53.8163 35.726 53.8566 35.704 53.8901 35.6752C53.9237 35.6465 53.9495 35.6129 53.9677 35.5727C53.986 35.5334 53.9955 35.4893 53.9955 35.4414C53.9955 35.3839 53.9831 35.3283 53.9591 35.2727C53.9352 35.2171 53.9035 35.1625 53.8652 35.1088C53.8269 35.0552 53.7828 35.0015 53.7339 34.9488C53.686 34.8961 53.6371 34.8443 53.5873 34.7926ZM54.0205 37.0408V36.7169H54.2572C54.375 36.7169 54.4766 36.7025 54.5638 36.6748C54.6501 36.647 54.722 36.6038 54.7785 36.5454C54.835 36.4869 54.8772 36.4122 54.904 36.3221C54.9309 36.232 54.9443 36.1237 54.9443 35.9991V34.9287H55.2682V35.9991C55.2682 36.163 55.2471 36.3087 55.204 36.438C55.1609 36.5665 55.0976 36.6757 55.0123 36.7648C54.927 36.854 54.8226 36.922 54.6961 36.9699C54.5696 37.0178 54.4239 37.0408 54.2572 37.0408H54.0205ZM54.7085 34.5252L54.4373 34.2502L54.7047 33.9722L54.9826 34.2502L54.7085 34.5252ZM55.2816 33.7528L55.0382 33.9914L54.7977 33.7528L55.0449 33.5074L55.2816 33.7528ZM55.366 34.5281L55.0948 34.254L55.3621 33.9761L55.64 34.254L55.366 34.5281ZM55.8288 36.7112C56.0013 36.7112 56.147 36.6978 56.2649 36.6719C56.3828 36.646 56.4757 36.6048 56.5447 36.5502C56.6041 36.5023 56.6482 36.4409 56.676 36.3662C56.7038 36.2914 56.7182 36.1994 56.7182 36.0883H56.4019C56.3214 36.0883 56.2409 36.0758 56.1585 36.0518C56.0761 36.0279 56.0013 35.9886 55.9343 35.933C55.8672 35.8784 55.8125 35.8065 55.7704 35.7174C55.7282 35.6292 55.7071 35.52 55.7071 35.3925C55.7071 35.3168 55.7138 35.2487 55.7273 35.1874C55.7407 35.1261 55.757 35.0715 55.7771 35.0235C55.7972 34.9756 55.8193 34.9335 55.8432 34.898C55.8672 34.8625 55.8911 34.8319 55.9132 34.807C55.9764 34.7437 56.0483 34.6958 56.1298 34.6613C56.2112 34.6268 56.2984 34.6095 56.3904 34.6095C56.4719 34.6095 56.5476 34.622 56.6185 34.6469C56.6894 34.6718 56.7527 34.7102 56.8092 34.76C56.9635 34.9037 57.0411 35.1299 57.0411 35.4375V36.0863C57.0411 36.2493 57.0172 36.3882 56.9702 36.5061C56.9223 36.623 56.8495 36.7217 56.7498 36.8003C56.6492 36.8789 56.5236 36.9383 56.3751 36.9766C56.2256 37.015 56.0445 37.0341 55.8298 37.0341V36.7112H55.8288ZM56.3904 34.9354C56.2773 34.9354 56.1892 34.9756 56.1259 35.0552C56.0627 35.1357 56.031 35.2478 56.031 35.3935C56.031 35.541 56.0761 35.6436 56.1652 35.7011C56.1873 35.7145 56.2093 35.726 56.2323 35.7346C56.2553 35.7432 56.2773 35.75 56.2994 35.7538C56.3214 35.7576 56.3406 35.7605 56.3588 35.7624C56.377 35.7643 56.3914 35.7653 56.4029 35.7653H56.7191V35.4414C56.7191 35.358 56.7124 35.2871 56.7 35.2296C56.6875 35.1721 56.6712 35.1242 56.6521 35.0858C56.6329 35.0485 56.6108 35.0187 56.5859 34.9996C56.561 34.9795 56.5371 34.9651 56.5131 34.9555C56.4891 34.9459 56.4661 34.9411 56.4441 34.9392C56.4211 34.9363 56.4038 34.9354 56.3904 34.9354ZM58.7297 36.0883H58.6559C58.5457 36.0883 58.4451 36.0662 58.3521 36.0231C58.3521 36.1831 58.3301 36.3259 58.2851 36.4524C58.24 36.578 58.1749 36.6853 58.0896 36.7725C58.0033 36.8597 57.8979 36.9268 57.7733 36.9728C57.6478 37.0188 57.504 37.0418 57.3421 37.0418H57.1053V36.7179H57.3421C57.4599 36.7179 57.5615 36.7035 57.6487 36.6757C57.735 36.6479 57.8069 36.6048 57.8634 36.5463C57.9199 36.4879 57.9621 36.4131 57.9889 36.323C58.0158 36.233 58.0292 36.1247 58.0292 36.0001V34.9296H58.3531V35.4979C58.3531 35.5621 58.3665 35.612 58.3934 35.6484C58.4202 35.6848 58.4518 35.7107 58.4873 35.7279C58.5227 35.7452 58.5572 35.7557 58.5898 35.7595C58.6224 35.7634 58.6454 35.7653 58.6579 35.7653H58.7316V36.0883H58.7297ZM59.8519 34.691C59.8539 34.6977 59.8587 34.7159 59.8654 34.7456C59.8721 34.7753 59.8797 34.8127 59.8884 34.8558C59.897 34.8999 59.9066 34.9488 59.9171 35.0015C59.9277 35.0552 59.9363 35.1088 59.9449 35.1625C59.9526 35.2171 59.9593 35.2689 59.965 35.3197C59.9708 35.3705 59.9737 35.4136 59.9737 35.4519C59.9737 35.5621 59.9554 35.656 59.92 35.7356C59.8836 35.8151 59.8366 35.8812 59.7791 35.933C59.7216 35.9848 59.6564 36.024 59.5846 36.049C59.5127 36.0739 59.4399 36.0863 59.367 36.0863H58.6569V35.7624H59.367C59.3843 35.7624 59.4082 35.7595 59.4399 35.7547C59.4715 35.75 59.5031 35.7365 59.5347 35.7164C59.5664 35.6953 59.5932 35.6647 59.6172 35.6235C59.6402 35.5822 59.6526 35.5247 59.6526 35.4519C59.6526 35.427 59.6507 35.3954 59.6469 35.357C59.643 35.3187 59.6373 35.2775 59.6315 35.2334C59.6248 35.1893 59.6181 35.1443 59.6104 35.0983C59.6028 35.0523 59.5942 35.0082 59.5865 34.967C59.5788 34.9258 59.5712 34.8894 59.5644 34.8568C59.5577 34.8252 59.552 34.8012 59.5472 34.7849L59.8519 34.691ZM59.4159 36.6997L59.138 36.9776L58.8706 36.6997L59.1418 36.4246L59.4159 36.6997ZM59.4782 37.4424L59.2309 37.1971L59.4715 36.9584L59.7149 37.1971L59.4782 37.4424ZM60.0733 36.6958L59.7954 36.9738L59.528 36.6958L59.7992 36.4208L60.0733 36.6958ZM64.4529 35.7643V36.0873H64.4012C64.3178 36.0873 64.2383 36.0748 64.1645 36.0499C64.0897 36.025 64.0236 35.9895 63.9651 35.9426C63.9584 35.9368 63.9517 35.9311 63.945 35.9244C63.9383 35.9177 63.9316 35.9119 63.9239 35.9042C63.8022 36.024 63.6268 36.0854 63.3968 36.0863H61.4485C61.3671 36.0863 61.2914 36.0729 61.2195 36.0451C61.1476 36.0173 61.0844 35.978 61.0297 35.9263C61.0067 35.9062 60.9837 35.8803 60.9607 35.8506C60.9377 35.8209 60.9167 35.7864 60.8985 35.7461C60.8793 35.7059 60.864 35.6608 60.8525 35.61C60.84 35.5592 60.8342 35.5017 60.8342 35.4375C60.8342 35.38 60.84 35.3177 60.8525 35.2487C60.8649 35.1797 60.8774 35.1146 60.8917 35.0532C60.9061 34.9919 60.9195 34.9382 60.933 34.8932C60.9464 34.8482 60.954 34.8213 60.9579 34.8108L61.2665 34.9085C61.2588 34.9325 61.2482 34.967 61.2367 35.0111C61.2243 35.0552 61.2128 35.1021 61.2003 35.1529C61.1879 35.2037 61.1783 35.2535 61.1697 35.3043C61.161 35.3551 61.1572 35.3992 61.1572 35.4375C61.1572 35.5132 61.1697 35.5727 61.1936 35.6158C61.2176 35.6589 61.2463 35.6915 61.2789 35.7135C61.3115 35.7356 61.3441 35.749 61.3776 35.7547C61.4112 35.7605 61.4361 35.7634 61.4533 35.7634H63.3863C63.4697 35.7634 63.5368 35.7547 63.5866 35.7375C63.6364 35.7202 63.6738 35.6982 63.6997 35.6723C63.7256 35.6465 63.7418 35.6167 63.7495 35.5861C63.7572 35.5545 63.761 35.5247 63.761 35.496V34.9009H64.0849V35.4874C64.0849 35.5525 64.0993 35.6033 64.1271 35.6407C64.1549 35.6781 64.1875 35.7059 64.2239 35.7241C64.2603 35.7423 64.2958 35.7538 64.3303 35.7576C64.3648 35.7615 64.3887 35.7634 64.4021 35.7634H64.4529V35.7643ZM62.1108 34.7705L61.8395 34.4955L62.1069 34.2176L62.3848 34.4955L62.1108 34.7705ZM62.7682 34.7734L62.497 34.4984L62.7643 34.2204L63.0423 34.4984L62.7682 34.7734ZM65.5617 34.691C65.5637 34.6977 65.5684 34.7159 65.5751 34.7456C65.5819 34.7753 65.5895 34.8127 65.5982 34.8558C65.6068 34.8999 65.6164 34.9488 65.6269 35.0015C65.6374 35.0552 65.6461 35.1088 65.6547 35.1625C65.6624 35.2171 65.6691 35.2689 65.6748 35.3197C65.6806 35.3705 65.6834 35.4136 65.6834 35.4519C65.6834 35.5621 65.6652 35.656 65.6298 35.7356C65.5934 35.8151 65.5464 35.8812 65.4889 35.933C65.4314 35.9848 65.3662 36.024 65.2944 36.049C65.2225 36.0739 65.1496 36.0863 65.0768 36.0863H64.3667V35.7624H65.0768C65.0941 35.7624 65.118 35.7595 65.1496 35.7547C65.1813 35.75 65.2129 35.7365 65.2445 35.7164C65.2761 35.6953 65.303 35.6647 65.3269 35.6235C65.3499 35.5822 65.3624 35.5247 65.3624 35.4519C65.3624 35.427 65.3605 35.3954 65.3566 35.357C65.3528 35.3187 65.3471 35.2775 65.3413 35.2334C65.3346 35.1893 65.3279 35.1443 65.3202 35.0983C65.3126 35.0523 65.3039 35.0082 65.2963 34.967C65.2886 34.9258 65.2809 34.8894 65.2742 34.8568C65.2675 34.8252 65.2618 34.8012 65.257 34.7849L65.5617 34.691ZM65.0481 36.7457L64.7701 37.0236L64.5028 36.7457L64.774 36.4706L65.0481 36.7457ZM65.7055 36.7418L65.4276 37.0198L65.1602 36.7418L65.4314 36.4668L65.7055 36.7418ZM67.419 36.0883H67.3452C67.235 36.0883 67.1344 36.0662 67.0414 36.0231C67.0414 36.1831 67.0194 36.3259 66.9743 36.4524C66.9293 36.578 66.8641 36.6853 66.7788 36.7725C66.6926 36.8597 66.5872 36.9268 66.4626 36.9728C66.337 37.0188 66.1933 37.0418 66.0313 37.0418H65.7946V36.7179H66.0313C66.1492 36.7179 66.2517 36.7035 66.338 36.6757C66.4242 36.6479 66.4961 36.6048 66.5527 36.5463C66.6092 36.4879 66.6514 36.4131 66.6782 36.323C66.705 36.233 66.7185 36.1247 66.7185 36.0001V34.9296H67.0424V35.4979C67.0424 35.5621 67.0558 35.612 67.0826 35.6484C67.1095 35.6848 67.1411 35.7107 67.1765 35.7279C67.212 35.7452 67.2465 35.7557 67.2791 35.7595C67.3117 35.7634 67.3347 35.7653 67.3471 35.7653H67.4209V36.0883H67.419ZM68.5412 34.691C68.5431 34.6977 68.5479 34.7159 68.5546 34.7456C68.5613 34.7753 68.569 34.8127 68.5776 34.8558C68.5863 34.8999 68.5958 34.9488 68.6064 35.0015C68.6169 35.0552 68.6255 35.1088 68.6342 35.1625C68.6418 35.2171 68.6485 35.2689 68.6543 35.3197C68.66 35.3705 68.6629 35.4136 68.6629 35.4519C68.6629 35.5621 68.6447 35.656 68.6093 35.7356C68.5728 35.8151 68.5259 35.8812 68.4684 35.933C68.4109 35.9848 68.3457 36.024 68.2738 36.049C68.202 36.0739 68.1291 36.0863 68.0563 36.0863H67.3462V35.7624H68.0563C68.0735 35.7624 68.0975 35.7595 68.1291 35.7547C68.1608 35.75 68.1924 35.7365 68.224 35.7164C68.2556 35.6953 68.2825 35.6647 68.3064 35.6235C68.3294 35.5822 68.3419 35.5247 68.3419 35.4519C68.3419 35.427 68.34 35.3954 68.3361 35.357C68.3323 35.3187 68.3265 35.2775 68.3208 35.2334C68.3141 35.1893 68.3074 35.1443 68.2997 35.0983C68.292 35.0523 68.2834 35.0082 68.2758 34.967C68.2681 34.9258 68.2604 34.8894 68.2537 34.8568C68.247 34.8252 68.2413 34.8012 68.2365 34.7849L68.5412 34.691ZM68.0285 36.7457L67.7506 37.0236L67.4832 36.7457L67.7544 36.4706L68.0285 36.7457ZM68.6859 36.7418L68.408 37.0198L68.1406 36.7418L68.4118 36.4668L68.6859 36.7418ZM70.9016 35.7643V36.0883H70.8384C70.6678 36.0883 70.5106 36.0173 70.3659 35.8755C70.2796 35.9915 70.1292 36.0643 69.9145 36.095C69.8743 36.1007 69.8321 36.1055 69.7871 36.1084C69.742 36.1122 69.696 36.1132 69.6481 36.1132C69.5896 36.1132 69.5312 36.1103 69.4718 36.1055C69.4123 36.1007 69.3539 36.0921 69.2973 36.0815C69.2408 36.071 69.1862 36.0566 69.1335 36.0384C69.0808 36.0212 69.0338 36.0001 68.9907 35.9761L68.8498 35.8937L69.0108 35.611L69.1536 35.6934C69.1938 35.7164 69.2427 35.7346 69.3002 35.749C69.3577 35.7634 69.4191 35.773 69.4852 35.7787C69.5341 35.7835 69.5839 35.7854 69.6328 35.7854C69.65 35.7854 69.6788 35.7854 69.72 35.7845C69.7612 35.7835 69.8101 35.7797 69.8676 35.772C69.9337 35.7615 69.9883 35.7471 70.0314 35.7279C70.0746 35.7087 70.1014 35.6877 70.1129 35.6637C70.1234 35.6522 70.1282 35.6378 70.1282 35.6206C70.1282 35.6091 70.1244 35.5909 70.1158 35.565C70.1081 35.5391 70.0899 35.5056 70.0621 35.4625L69.4181 34.4821L69.6912 34.3038L70.3573 35.3197C70.3918 35.3685 70.4263 35.4193 70.4608 35.4711C70.4953 35.5228 70.5326 35.5707 70.571 35.6139C70.6103 35.657 70.6505 35.6925 70.6936 35.7202C70.7368 35.748 70.7837 35.7624 70.8355 35.7624H70.9016V35.7643ZM71.9433 34.6555C72.0554 34.6555 72.1532 34.6766 72.2356 34.7197C72.319 34.7629 72.388 34.8204 72.4426 34.8922C72.4972 34.9641 72.5384 35.0475 72.5653 35.1414C72.5921 35.2353 72.6055 35.3321 72.6055 35.4327C72.6055 35.5439 72.5959 35.6397 72.5768 35.7193C72.5576 35.7998 72.5327 35.8669 72.502 35.9205C72.4714 35.9752 72.4369 36.0183 72.3985 36.0518C72.3602 36.0854 72.3209 36.1103 72.2816 36.1275C72.2423 36.1448 72.204 36.1563 72.1676 36.162C72.1311 36.1678 72.0995 36.1707 72.0727 36.1707C72.0171 36.1707 71.9625 36.1649 71.9117 36.1534C71.8599 36.1419 71.8072 36.1256 71.7536 36.1045C71.6999 36.0835 71.6434 36.0576 71.5849 36.0269C71.5264 35.9962 71.4613 35.9608 71.3904 35.9225C71.2964 36.0336 71.1757 36.0892 71.0281 36.0892H70.8307V35.7653H71.0281C71.0712 35.7653 71.1076 35.749 71.1354 35.7174C71.1632 35.6857 71.1881 35.6436 71.2083 35.5918C71.2294 35.5401 71.2476 35.4816 71.2648 35.4155C71.2821 35.3494 71.3022 35.2813 71.3242 35.2114C71.3463 35.1414 71.3731 35.0734 71.4038 35.0072C71.4344 34.9411 71.4737 34.8817 71.5216 34.8309C71.5696 34.7792 71.6271 34.738 71.6951 34.7054C71.7631 34.6709 71.8456 34.6555 71.9433 34.6555ZM72.0737 35.8468C72.0813 35.8468 72.0928 35.8458 72.1072 35.8448C72.1216 35.8439 72.1369 35.8391 72.1532 35.8314C72.1695 35.8237 72.1867 35.8113 72.203 35.794C72.2193 35.7777 72.2347 35.7538 72.2481 35.7241C72.2615 35.6934 72.272 35.6551 72.2807 35.6072C72.2893 35.5592 72.2931 35.5017 72.2931 35.4327C72.2931 35.4203 72.2922 35.4002 72.2893 35.3724C72.2874 35.3446 72.2816 35.3139 72.2739 35.2804C72.2663 35.2468 72.2538 35.2123 72.2385 35.1769C72.2232 35.1414 72.2021 35.1088 72.1762 35.0791C72.1503 35.0494 72.1177 35.0255 72.0804 35.0063C72.043 34.9871 71.997 34.9775 71.9433 34.9775C71.8925 34.9775 71.8504 34.9862 71.8159 35.0044C71.7814 35.0226 71.7516 35.0465 71.7277 35.0772C71.7037 35.1079 71.6836 35.1443 71.6673 35.1865C71.651 35.2286 71.6366 35.2737 71.6223 35.3216C71.6089 35.3705 71.5945 35.4212 71.5811 35.474C71.5676 35.5276 71.5514 35.5803 71.5331 35.633C71.5926 35.6627 71.6472 35.6905 71.698 35.7174C71.7488 35.7432 71.7948 35.7662 71.8389 35.7854C71.882 35.8046 71.9232 35.819 71.9615 35.8305C71.9989 35.841 72.0363 35.8468 72.0737 35.8468ZM75.423 36.0883H75.3799C75.1969 36.0883 75.0368 36.049 74.8998 35.9704C74.7628 35.8918 74.6583 35.7825 74.5845 35.6417C74.5481 35.6925 74.504 35.7356 74.4532 35.773C74.4024 35.8103 74.3449 35.8429 74.2807 35.8717C74.2443 35.887 74.2021 35.8985 74.1532 35.9081C74.1053 35.9177 74.0545 35.9215 74.0009 35.9215C73.9472 35.9215 73.8916 35.9148 73.8351 35.9023C73.7785 35.8899 73.723 35.8688 73.6693 35.8391C73.5869 35.796 73.5207 35.7385 73.4709 35.6666C73.4211 35.5947 73.3885 35.5104 73.3722 35.4136C73.3645 35.3685 73.3597 35.3254 73.3597 35.2813C73.3597 35.2085 73.3741 35.1261 73.4038 35.036C73.4326 34.9459 73.492 34.8539 73.5811 34.761C73.7383 34.6009 73.9597 34.4782 74.2452 34.3939L74.2127 34.2089L74.5289 34.1419C74.5567 34.2559 74.5807 34.3575 74.6008 34.4466C74.6219 34.5357 74.6401 34.6153 74.6554 34.6862C74.6592 34.6996 74.664 34.7226 74.6717 34.7552C74.6794 34.7868 74.688 34.8242 74.6985 34.8664C74.7091 34.9085 74.7196 34.9526 74.7311 35.0015C74.7426 35.0494 74.7541 35.0964 74.7656 35.1424C74.7771 35.1884 74.7877 35.2315 74.7982 35.2708C74.8088 35.311 74.8174 35.3436 74.826 35.3705C74.849 35.4567 74.8825 35.5247 74.9276 35.5775C74.9726 35.6292 75.0205 35.6695 75.0733 35.6972C75.126 35.725 75.1796 35.7432 75.2333 35.7519C75.2879 35.7605 75.3358 35.7643 75.378 35.7643H75.4211V36.0883H75.423ZM74.3334 34.7063C74.2203 34.7399 74.1197 34.7792 74.0335 34.8252C73.9462 34.8712 73.8744 34.922 73.8178 34.9766C73.7613 35.0322 73.721 35.0916 73.6971 35.1558C73.6808 35.198 73.6731 35.242 73.6731 35.2861C73.6731 35.3091 73.675 35.3321 73.6798 35.3561C73.6875 35.404 73.7047 35.4442 73.7316 35.4768C73.7575 35.5094 73.7891 35.5353 73.8245 35.5545C73.8495 35.5698 73.8772 35.5803 73.907 35.5861C73.9367 35.5928 73.9664 35.5957 73.9961 35.5957H74.0133C74.0373 35.5957 74.0622 35.5937 74.0871 35.5899C74.112 35.5861 74.136 35.5794 74.1571 35.5698C74.3008 35.5104 74.3852 35.4021 74.4091 35.2459C74.4139 35.2095 74.4158 35.175 74.4158 35.1433C74.4158 35.1261 74.4139 35.1021 74.411 35.0715C74.4072 35.0408 74.4043 35.0168 74.4005 35.0015L74.3334 34.7063ZM77.5486 36.0883H77.5228C77.4212 36.0883 77.3301 36.0787 77.2506 36.0595C77.1711 36.0403 77.0982 36.0125 77.0331 35.9761C76.9679 35.9397 76.9075 35.8966 76.8529 35.8458C76.7983 35.795 76.7446 35.7375 76.6919 35.6752C76.69 35.681 76.6871 35.6857 76.6852 35.6905C76.6833 35.6953 76.6804 35.7001 76.6785 35.7059C76.6468 35.7691 76.6018 35.8257 76.5433 35.8755C76.4858 35.9263 76.4168 35.9675 76.3383 36.001C76.2712 36.0308 76.1955 36.0528 76.1131 36.0672C76.0306 36.0815 75.9453 36.0883 75.8553 36.0883H75.3502V35.7643H75.8553C75.9214 35.7643 75.9837 35.7595 76.0412 35.75C76.0987 35.7404 76.1514 35.727 76.1974 35.7087C76.2434 35.6915 76.2836 35.6695 76.3162 35.6445C76.3488 35.6196 76.3728 35.5909 76.3891 35.5602C76.4034 35.5295 76.4111 35.4941 76.4111 35.4557C76.4111 35.4251 76.4034 35.381 76.3871 35.3225C76.3708 35.265 76.3268 35.1874 76.2549 35.0897C76.1533 34.9469 76.0671 34.8252 75.9961 34.7255C75.9252 34.6258 75.8677 34.5444 75.8227 34.4821C75.77 34.4092 75.7268 34.3489 75.6943 34.3019L75.7575 34.0614L77.333 33.334L77.4672 33.6311L76.0613 34.2751L76.7427 35.221C76.8126 35.3149 76.8749 35.3954 76.9296 35.4634C76.9842 35.5315 77.0398 35.588 77.0973 35.6321C77.1538 35.6771 77.2161 35.7097 77.2822 35.7317C77.3493 35.7538 77.4289 35.7643 77.5218 35.7643H77.5477V36.0883H77.5486ZM78.9392 35.7643V36.0883H78.805C78.7006 36.0883 78.6095 36.0729 78.53 36.0432C78.4504 36.0135 78.3862 35.9685 78.3383 35.909C78.2195 36.0279 78.0431 36.0873 77.8093 36.0873H77.4796V35.7634H77.8093C77.8917 35.7634 77.9569 35.7547 78.0048 35.7385C78.0527 35.7222 78.0891 35.7011 78.1141 35.6771C78.139 35.6522 78.1543 35.6254 78.162 35.5947C78.1696 35.564 78.1735 35.5353 78.1735 35.5085V34.9287H78.4964V35.497C78.4964 35.5391 78.5032 35.5755 78.5156 35.6052C78.5281 35.635 78.5444 35.6599 78.5645 35.68C78.5846 35.7001 78.6066 35.7155 78.6316 35.727C78.6565 35.7385 78.6795 35.7471 78.7025 35.7528C78.7255 35.7586 78.7456 35.7624 78.7638 35.7634C78.782 35.7643 78.7954 35.7653 78.805 35.7653H78.9392V35.7643ZM77.8668 36.7303L78.1581 36.4352L78.4572 36.7342L78.162 37.0293L77.8668 36.7303ZM80.209 36.0854C80.1017 36.0854 80.0058 36.07 79.9225 36.0384C79.8391 36.0068 79.7682 35.9617 79.7116 35.9023C79.6522 35.9665 79.5832 36.0135 79.5037 36.0442C79.4251 36.0748 79.3455 36.0892 79.265 36.0892H78.8702V35.7653H79.265C79.2823 35.7653 79.3072 35.7624 79.3388 35.7576C79.3704 35.7528 79.4021 35.7394 79.4327 35.7183C79.4634 35.6972 79.4912 35.6656 79.5142 35.6235C79.5372 35.5813 79.5497 35.5238 79.5497 35.45V34.9296H79.8736V35.4423C79.8736 35.5535 79.8994 35.635 79.9512 35.6857C80.0029 35.7375 80.0892 35.7634 80.208 35.7634C80.2253 35.7634 80.2492 35.7605 80.2809 35.7538C80.3125 35.7471 80.3441 35.7337 80.3757 35.7116C80.4074 35.6896 80.4342 35.658 80.4582 35.6158C80.4812 35.5736 80.4936 35.5161 80.4936 35.4423V34.9296H80.8166V35.4423C80.8166 35.5535 80.8434 35.635 80.8971 35.6877C80.9507 35.7404 81.037 35.7662 81.1558 35.7662C81.174 35.7662 81.199 35.7624 81.2296 35.7547C81.2603 35.7471 81.291 35.7317 81.3216 35.7097C81.3523 35.6867 81.3782 35.6541 81.3992 35.612C81.4213 35.5698 81.4318 35.5132 81.4318 35.4423C81.4318 35.4174 81.4299 35.3858 81.4261 35.3484C81.4223 35.311 81.4165 35.2698 81.4107 35.2267C81.404 35.1836 81.3973 35.1385 81.3897 35.0935C81.382 35.0485 81.3734 35.0063 81.3657 34.966C81.358 34.9267 81.3504 34.8913 81.3437 34.8597C81.337 34.828 81.3312 34.805 81.3264 34.7897L81.634 34.6919C81.636 34.6987 81.6408 34.7169 81.6475 34.7456C81.6542 34.7744 81.6618 34.8108 81.6714 34.8539C81.681 34.897 81.6896 34.945 81.7002 34.9977C81.7098 35.0504 81.7193 35.1031 81.728 35.1567C81.7366 35.2104 81.7433 35.2612 81.749 35.311C81.7548 35.3609 81.7577 35.405 81.7577 35.4423C81.7577 35.5506 81.7395 35.6455 81.704 35.726C81.6685 35.8065 81.6225 35.8736 81.566 35.9273C81.5095 35.9809 81.4453 36.0202 81.3734 36.047C81.3015 36.0739 81.2296 36.0883 81.1568 36.0892C81.0466 36.0892 80.9498 36.0729 80.8655 36.0403C80.7811 36.0078 80.7102 35.9608 80.6517 35.8985C80.5923 35.9617 80.5233 36.0087 80.4447 36.0394C80.3662 36.0691 80.2876 36.0854 80.209 36.0854ZM80.3412 34.4562L80.07 34.1812L80.3374 33.9032L80.6153 34.1812L80.3412 34.4562ZM80.9143 33.6838L80.6709 33.9224L80.4304 33.6838L80.6776 33.4384L80.9143 33.6838ZM80.9987 34.46L80.7275 34.185L80.9948 33.9071L81.2727 34.185L80.9987 34.46Z" fill="#A066AA"/>
<path d="M73.3662 11.6851H64.975V12.5658V17.2789V22.8737H58.8914C59.2019 21.9978 59.3792 21.0586 59.3792 20.0754C59.3792 15.4399 55.6225 11.6832 50.987 11.6832H49.8735L59.3792 0.493634H52.1006L42.5949 11.6832V17.278H50.987C52.5319 17.278 53.7844 18.5305 53.7844 20.0754C53.7844 21.6202 52.5319 22.8728 50.987 22.8728H43.1775V22.8737H39.7965C38.2517 22.8737 36.9991 21.6212 36.9991 20.0763H37.0001V0.492676H31.4062V20.0763C31.4062 24.7099 35.1629 28.4676 39.7975 28.4676H43.1785H43.6864H47.0655H50.987H73.3662C77.9998 28.4676 81.7574 24.7109 81.7574 20.0763C81.7574 15.4418 78.0007 11.6851 73.3662 11.6851ZM73.3662 22.8737H70.5688V17.2789H73.3662C74.911 17.2789 76.1636 18.5305 76.1636 20.0763C76.1636 21.6212 74.911 22.8737 73.3662 22.8737Z" fill="#636466"/>
</svg>
