<svg width="156" height="38" viewBox="0 0 156 38" fill="none" xmlns="http://www.w3.org/2000/svg">
<path d="M139.83 21.5763V26.1458C139.83 30.0073 138.257 33.8041 135.551 36.9478H131.533C134.663 34.2571 136.99 30.5172 136.99 26.1458V21.5763C136.99 19.2248 135.074 17.3088 132.723 17.3088C130.377 17.3088 128.461 19.2248 128.461 21.5763V25.1122C128.461 27.7657 126.865 30.3525 124.484 31.5507L114.251 36.7007V33.5138L123.209 29.011C124.655 28.2854 125.622 26.7204 125.622 25.1122V21.5763C125.622 17.652 128.806 14.467 132.725 14.467C136.643 14.467 139.83 17.652 139.83 21.5763Z" fill="#F47920"/>
<path d="M134.141 21.5761V25.6024C134.141 30.2268 131.403 34.3178 126.634 36.8281C126.555 36.8712 126.477 36.9065 126.392 36.9497H120.075C122.099 35.922 124 34.9669 125.335 34.3021C129.12 32.3076 131.301 29.1344 131.301 25.6044V21.5781C131.301 20.7975 131.942 20.1582 132.721 20.1582C133.507 20.1562 134.141 20.7956 134.141 21.5761Z" fill="#F47920"/>
<path d="M145.535 36.9477H139.122L140.736 34.7178C141.009 34.3433 141.431 34.1079 141.891 34.0707C142.358 34.0354 142.811 34.1981 143.143 34.5296L145.535 36.9477Z" fill="#F47920"/>
<path d="M117.075 13.3688L132.164 3.00989C132.497 2.7824 132.943 2.7824 133.276 3.00989L148.351 13.3433V27.5519C148.351 27.8657 148.475 28.1657 148.695 28.3873L151.193 30.9113V13.3413C151.193 12.4156 150.736 11.5488 149.973 11.0252L134.884 0.666305C133.59 -0.222102 131.852 -0.222102 130.558 0.666305L115.469 11.0252C114.706 11.5488 114.249 12.4156 114.249 13.3413V30.3308L117.091 28.9012L117.075 13.3688Z" fill="#F47920"/>
<path d="M151.193 34.5905V36.9478H149.53L144.804 32.1724C143.431 30.7819 142.676 28.9443 142.676 26.9929V16.9949C142.676 16.5772 142.47 16.185 142.119 15.9496L135.445 11.3605C133.819 10.2485 131.637 10.2485 130.011 11.3605L123.331 15.9496C122.986 16.185 122.782 16.5772 122.782 16.9949V24.6356C122.782 25.5005 122.292 26.2869 121.519 26.6791L119.94 27.4714V16.9949C119.94 15.6417 120.605 14.3709 121.723 13.6041L128.403 9.02279C130.989 7.24598 134.465 7.24598 137.051 9.02279L143.725 13.6041C144.843 14.3709 145.514 15.6417 145.514 16.9949V26.9929C145.514 28.1892 145.979 29.3208 146.82 30.172L151.193 34.5905Z" fill="#F47920"/>
<path d="M102.443 10.1575H95.5651V10.8781V14.7425V19.3275H90.9801V18.5247V17.035C90.9801 13.2359 87.9016 10.1575 84.1026 10.1575C80.3035 10.1575 77.225 13.2359 77.225 17.035V17.4627V18.3962V21.62C77.225 22.8863 76.1989 23.9125 74.9325 23.9125H69.0159V28.4975H74.9325C78.7316 28.4975 81.8101 25.419 81.8101 21.62V18.3962V17.4627V17.035C81.8101 15.7686 82.8362 14.7425 84.1026 14.7425C85.3689 14.7425 86.3951 15.7686 86.3951 17.035V18.5247V23.9146H90.9801H102.445C106.244 23.9146 109.322 20.8362 109.322 17.0371C109.32 13.2359 106.242 10.1575 102.443 10.1575ZM102.443 19.3275H100.15V14.7425H102.443C103.709 14.7425 104.735 15.7686 104.735 17.035C104.735 18.3013 103.709 19.3275 102.443 19.3275Z" fill="#636466"/>
<path d="M38.6424 28.4976H36.3477H27.1777V33.0826H36.3477V37.6676H40.9327V33.0826V30.7901C40.9349 29.5237 39.9087 28.4976 38.6424 28.4976Z" fill="#636466"/>
<path d="M84.1025 5.57255H88.6875V3.27794C88.6875 2.0137 87.6614 0.987549 86.395 0.987549H84.6567H79.5154V5.57255H84.1025Z" fill="#636466"/>
<path d="M27.1775 3.27785C27.1775 2.0115 26.1514 0.985352 24.885 0.985352H22.5925V5.57036H27.1775V3.27785Z" fill="#636466"/>
<path d="M69.2518 14.7425H75.1727V10.1575H69.2518C65.4527 10.1575 62.3743 13.2359 62.3743 17.035V21.6684C62.3469 22.9116 61.3355 23.9125 60.086 23.9125H56.504C55.2376 23.9125 54.2115 22.8863 54.2115 21.62V19.0051V18.4952V17.0329C54.2115 15.7665 55.2376 14.7404 56.504 14.7404H60.322V10.1575H56.504C52.7049 10.1575 49.6265 13.2359 49.6265 17.035V18.4973V19.0072V21.6221C49.6265 25.4212 52.7049 28.4996 56.504 28.4996H60.086C63.845 28.4996 66.8961 25.4823 66.9572 21.738H66.9593V21.7169C66.9593 21.6853 66.9635 21.6537 66.9635 21.62H66.9593L66.9635 19.3275C66.9635 19.3275 66.9593 18.5837 66.9593 17.901V17.035C66.9572 15.7686 67.9854 14.7425 69.2518 14.7425Z" fill="#636466"/>
<path d="M38.6423 10.1575H31.7648V14.7425H38.6423C39.9087 14.7425 40.9348 15.7686 40.9348 17.035C40.9348 18.3013 39.9087 19.3275 38.6423 19.3275H27.4643H26.7795C27.0344 18.6111 27.1798 17.8399 27.1798 17.035V15.402V13.5962V10.1575H22.5927V13.5962V15.402V17.035C22.5927 18.3013 21.5666 19.3275 20.3002 19.3275H17.6074C17.8623 18.609 18.0077 17.8399 18.0077 17.035C18.0077 13.2359 14.9293 10.1575 11.1302 10.1575H4.25269V14.7425H11.1302C12.3965 14.7425 13.4227 15.7686 13.4227 17.035C13.4227 18.3013 12.3965 19.3275 11.1302 19.3275H6.70322H4.25269V23.9125H6.70533H11.1302H22.5927H27.4643H38.6423C42.4414 23.9125 45.5198 20.834 45.5198 17.035C45.5198 13.2359 42.4414 10.1575 38.6423 10.1575Z" fill="#636466"/>
<path d="M51.2617 35.6047V36.1209H51.1795C51.0468 36.1209 50.9203 36.102 50.8002 36.0619C50.6822 36.0219 50.5748 35.965 50.4821 35.8913C50.4715 35.8828 50.461 35.8723 50.4484 35.8618C50.4378 35.8512 50.4273 35.8407 50.4146 35.8302C50.2208 36.0219 49.9406 36.1188 49.5718 36.1209H46.4554C46.3248 36.1209 46.2026 36.0999 46.0888 36.0556C45.975 36.0114 45.8739 35.9482 45.7854 35.866C45.7496 35.8323 45.7116 35.7922 45.6758 35.7459C45.64 35.6974 45.6063 35.6426 45.5747 35.5794C45.5452 35.5162 45.5199 35.4425 45.5009 35.3603C45.482 35.2781 45.4714 35.1875 45.4714 35.0843C45.4714 34.9936 45.482 34.8925 45.5009 34.7829C45.5199 34.6734 45.541 34.568 45.5641 34.469C45.5873 34.37 45.6084 34.2857 45.6295 34.214C45.6505 34.1424 45.6632 34.0981 45.6695 34.0813L46.1647 34.2372C46.152 34.2751 46.1352 34.3299 46.1162 34.4016C46.0972 34.4711 46.0783 34.5469 46.0593 34.627C46.0403 34.7071 46.0235 34.7893 46.0108 34.8693C45.9961 34.9515 45.9898 35.021 45.9898 35.0821C45.9898 35.2022 46.0087 35.2992 46.0467 35.3687C46.0846 35.4382 46.131 35.4909 46.1815 35.5246C46.2342 35.5605 46.2869 35.5815 46.3396 35.5899C46.3922 35.5984 46.4323 35.6047 46.4597 35.6047H49.5507C49.6835 35.6047 49.7909 35.59 49.871 35.5626C49.9511 35.5352 50.0101 35.4993 50.0522 35.4572C50.0944 35.4151 50.1197 35.3687 50.1323 35.3181C50.1449 35.2676 50.1492 35.2191 50.1492 35.1749V34.2225H50.6675V35.1622C50.6675 35.2676 50.6907 35.3476 50.7349 35.4087C50.7792 35.4677 50.8318 35.512 50.8908 35.5415C50.9498 35.571 51.0067 35.5878 51.0615 35.5942C51.1163 35.6005 51.1542 35.6047 51.1774 35.6047H51.2617ZM47.5153 34.016L47.0812 33.5777L47.509 33.1331L47.9536 33.5777L47.5153 34.016ZM48.5667 34.0202L48.1327 33.5819L48.5604 33.1373L49.005 33.5819L48.5667 34.0202ZM54.829 35.0253C54.8184 35.0316 54.77 35.0653 54.6857 35.1222C54.6014 35.1791 54.4897 35.2486 54.3486 35.3287C54.2095 35.4108 54.0451 35.4972 53.8576 35.5899C53.6701 35.6827 53.4699 35.7691 53.255 35.847C53.0401 35.925 52.8146 35.9903 52.5807 36.043C52.3468 36.0957 52.113 36.1209 51.877 36.1209H51.1247V35.6026H51.877C52.0813 35.6026 52.2899 35.5773 52.4985 35.5288C52.7071 35.4804 52.9094 35.4193 53.1033 35.3476C53.2971 35.276 53.4783 35.1959 53.649 35.1116C53.8197 35.0274 53.9693 34.9473 54.0957 34.8714C53.9187 34.7998 53.7417 34.7303 53.5647 34.6628C53.3877 34.5954 53.2276 34.5343 53.0801 34.4837C52.9347 34.4311 52.8083 34.3889 52.7029 34.3552C52.5976 34.3215 52.528 34.3025 52.4922 34.2983C52.4606 34.2983 52.429 34.3004 52.3953 34.3067C52.3616 34.3131 52.3279 34.3278 52.2942 34.3552C52.2604 34.3826 52.2288 34.4247 52.1972 34.4837C52.1656 34.5406 52.1361 34.6228 52.1087 34.726L51.6073 34.5933C51.7484 34.0518 52.0455 33.78 52.4964 33.78C52.507 33.78 52.5217 33.78 52.5407 33.7821C52.5597 33.7821 52.5849 33.7884 52.6208 33.7968C52.6545 33.8053 52.7029 33.8179 52.7598 33.8348C52.8188 33.8516 52.8926 33.8769 52.9832 33.9085C53.0738 33.9401 53.1834 33.9801 53.314 34.0286C53.4446 34.0771 53.6006 34.1361 53.7797 34.2077L54.751 34.568L54.829 35.0253ZM51.9128 32.6611L52.3784 32.1891L52.8568 32.6674L52.3848 33.1394L51.9128 32.6611ZM56.5231 36.123C56.3313 36.1209 56.1712 36.1083 56.0469 36.083C55.9204 36.0577 55.8151 36.0219 55.7287 35.9755C55.6423 35.9292 55.5728 35.8702 55.5201 35.8007C55.4674 35.7311 55.4274 35.6468 55.3979 35.5541C55.3684 35.4593 55.3494 35.354 55.341 35.2381C55.3326 35.1201 55.3262 34.9915 55.3262 34.8483V32.2081H55.8446V34.8483C55.8446 35.0084 55.8488 35.1369 55.8593 35.236C55.8699 35.335 55.8952 35.4108 55.9394 35.4656C55.9816 35.5204 56.0469 35.5562 56.1333 35.5752C56.2196 35.5942 56.3503 35.6047 56.521 35.6068V36.123H56.5231ZM58.5543 36.1188C58.3815 36.1188 58.2298 36.0935 58.095 36.043C57.9622 35.9924 57.8484 35.9208 57.7578 35.8238C57.663 35.9271 57.5513 36.0008 57.4249 36.0493C57.2985 36.0978 57.172 36.123 57.0435 36.123H56.4114V35.6047H57.0435C57.0709 35.6047 57.1109 35.6005 57.1615 35.5921C57.2121 35.5836 57.2627 35.5626 57.3132 35.5288C57.3617 35.4951 57.4059 35.4446 57.4439 35.3771C57.4818 35.3097 57.5008 35.217 57.5008 35.099V34.2667H58.0191V35.0885C58.0191 35.2655 58.0612 35.3961 58.1434 35.4783C58.2277 35.5605 58.3626 35.6026 58.5543 35.6026C58.5817 35.6026 58.6196 35.5984 58.6702 35.5878C58.7208 35.5773 58.7713 35.5562 58.8219 35.5204C58.8725 35.4867 58.9167 35.434 58.9546 35.3666C58.9926 35.2992 59.0115 35.2065 59.0115 35.0885V34.2667H59.5278V35.0885C59.5278 35.2655 59.5699 35.3961 59.6563 35.4804C59.7427 35.5647 59.8796 35.6068 60.0714 35.6068C60.1009 35.6068 60.1409 35.6005 60.1894 35.5899C60.2378 35.5773 60.2884 35.5541 60.3369 35.5162C60.3853 35.4804 60.4275 35.4277 60.4612 35.3603C60.4949 35.2929 60.5139 35.2022 60.5139 35.0885C60.5139 35.0484 60.5097 34.9979 60.5033 34.9368C60.497 34.8757 60.4886 34.8124 60.4781 34.7408C60.4675 34.6713 60.457 34.5996 60.4443 34.528C60.4317 34.4563 60.4191 34.3889 60.4064 34.3257C60.3938 34.2625 60.3811 34.2056 60.3706 34.155C60.3601 34.1045 60.3495 34.0686 60.3432 34.0434L60.8342 33.8874C60.8384 33.898 60.8447 33.9275 60.8552 33.9738C60.8658 34.0202 60.8784 34.0792 60.8932 34.1466C60.9079 34.2161 60.9227 34.292 60.9395 34.3763C60.9543 34.4606 60.969 34.5448 60.9838 34.6312C60.9985 34.7155 61.009 34.7977 61.0175 34.8778C61.0259 34.9578 61.0322 35.0274 61.0322 35.0885C61.0322 35.2634 61.0048 35.413 60.9479 35.5436C60.891 35.6721 60.8173 35.7796 60.7267 35.8639C60.6361 35.9482 60.5328 36.0135 60.417 36.0556C60.3011 36.0978 60.1873 36.1209 60.0714 36.123C59.8965 36.123 59.7406 36.0978 59.6057 36.0451C59.4709 35.9924 59.3571 35.9165 59.2644 35.8196C59.1696 35.9208 59.0579 35.9945 58.9336 36.0451C58.8071 36.0935 58.6807 36.1188 58.5543 36.1188ZM65.7921 36.123H65.7226C65.4297 36.123 65.1747 36.0598 64.9556 35.9355C64.7365 35.8112 64.5679 35.6342 64.452 35.4087C64.393 35.4888 64.3235 35.5583 64.2413 35.6194C64.1591 35.6784 64.0685 35.7311 63.9653 35.7775C63.9063 35.8007 63.8389 35.8196 63.763 35.8344C63.6871 35.8491 63.605 35.8554 63.5186 35.8554C63.4322 35.8554 63.3437 35.8449 63.2531 35.8259C63.1625 35.8049 63.074 35.7712 62.9876 35.7248C62.8548 35.6553 62.7495 35.5626 62.6715 35.4488C62.5915 35.335 62.5388 35.2001 62.5135 35.0442C62.5009 34.9726 62.4945 34.903 62.4945 34.8335C62.4945 34.7155 62.5177 34.5849 62.5641 34.4416C62.6104 34.2962 62.7052 34.1508 62.8485 34.0033C63.0993 33.7463 63.4533 33.5503 63.9105 33.4154L63.8578 33.1183L64.3635 33.0109C64.4078 33.1942 64.4457 33.3564 64.4794 33.4976C64.5131 33.6388 64.5426 33.7673 64.5679 33.8811C64.5742 33.9022 64.5827 33.9401 64.5932 33.9907C64.6058 34.0412 64.6185 34.1002 64.6353 34.1677C64.6522 34.2351 64.669 34.3067 64.688 34.3826C64.707 34.4584 64.7238 34.5343 64.7428 34.6081C64.7618 34.6818 64.7786 34.7492 64.7955 34.8145C64.8123 34.8778 64.8271 34.9325 64.8397 34.9747C64.8755 35.1116 64.9303 35.2212 65.002 35.3055C65.0736 35.3898 65.1516 35.453 65.2358 35.4972C65.3201 35.5415 65.4065 35.571 65.4929 35.5857C65.5793 35.6005 65.6573 35.6068 65.7247 35.6068H65.7942V36.123H65.7921ZM64.0496 33.9127C63.8683 33.9654 63.7082 34.0286 63.5691 34.1024C63.4301 34.1761 63.3142 34.2562 63.2236 34.3447C63.133 34.4332 63.0677 34.5301 63.0297 34.6312C63.0044 34.6987 62.9918 34.7682 62.9918 34.8398C62.9918 34.8757 62.996 34.9136 63.0023 34.9515C63.015 35.0274 63.0424 35.0927 63.0845 35.1454C63.1267 35.198 63.1751 35.2402 63.232 35.2697C63.272 35.2929 63.3163 35.3097 63.3648 35.3202C63.4132 35.3308 63.4596 35.335 63.508 35.335H63.5354C63.5734 35.335 63.6134 35.3308 63.6534 35.3245C63.6935 35.3181 63.7314 35.3076 63.7651 35.2929C63.9948 35.198 64.1296 35.0253 64.1697 34.7745C64.176 34.7155 64.1802 34.6607 64.1802 34.6102C64.1802 34.5828 64.1781 34.5448 64.1718 34.4943C64.1654 34.4458 64.1612 34.4079 64.1549 34.3826L64.0496 33.9127ZM68.0151 35.6047V36.123H67.8002C67.6337 36.123 67.4862 36.0999 67.3598 36.0514C67.2334 36.0029 67.1301 35.9334 67.0543 35.8365C66.8646 36.0261 66.5823 36.123 66.2093 36.123H65.6825V35.6047H66.2093C66.3421 35.6047 66.4453 35.5921 66.5233 35.5647C66.5991 35.5373 66.6581 35.5057 66.6982 35.4656C66.7382 35.4256 66.7635 35.3813 66.774 35.3329C66.7867 35.2844 66.7909 35.2381 66.7909 35.1938V34.2667H67.3071V35.1749C67.3071 35.2423 67.3176 35.3013 67.3366 35.3476C67.3577 35.3961 67.383 35.434 67.4146 35.4677C67.4462 35.4993 67.482 35.5246 67.522 35.5436C67.5621 35.5626 67.6 35.5752 67.6358 35.5857C67.6716 35.5942 67.7053 35.6005 67.7348 35.6026C67.7643 35.6047 67.7854 35.6047 67.8002 35.6047H68.0151ZM66.3821 33.0025L66.8499 32.5305L67.3282 33.0088L66.8562 33.4808L66.3821 33.0025ZM69.8145 33.8895C69.8187 33.9001 69.8251 33.9296 69.8356 33.978C69.8461 34.0265 69.8588 34.0855 69.8735 34.155C69.8883 34.2246 69.903 34.3025 69.9178 34.3889C69.9346 34.4732 69.9494 34.5596 69.962 34.646C69.9747 34.7324 69.9852 34.8167 69.9957 34.8967C70.0042 34.9768 70.0105 35.0484 70.0105 35.1074C70.0105 35.2823 69.981 35.434 69.9241 35.5626C69.8672 35.689 69.7913 35.7943 69.6986 35.8786C69.6059 35.9629 69.5027 36.024 69.3868 36.064C69.2709 36.1041 69.155 36.1251 69.0391 36.1251H67.9034V35.6068H69.0391C69.0665 35.6068 69.1044 35.6026 69.155 35.5942C69.2056 35.5857 69.2562 35.5647 69.3067 35.5331C69.3573 35.4993 69.4015 35.4509 69.4395 35.3856C69.4774 35.3202 69.4964 35.2275 69.4964 35.1116C69.4964 35.0716 69.4921 35.021 69.4858 34.9599C69.4795 34.8988 69.4711 34.8335 69.4605 34.7619C69.45 34.6923 69.4395 34.6186 69.4268 34.5448C69.4142 34.4711 69.4015 34.4016 69.3889 34.3341C69.3763 34.2688 69.3636 34.2098 69.3531 34.1592C69.3425 34.1087 69.332 34.0686 69.3257 34.0434L69.8145 33.8895ZM68.9928 37.1745L68.5482 37.6191L68.1204 37.1745L68.5545 36.7362L68.9928 37.1745ZM70.0442 37.1703L69.5996 37.6149L69.1719 37.1703L69.6059 36.732L70.0442 37.1703ZM72.7834 36.123H72.6654C72.4905 36.123 72.3283 36.0893 72.1787 36.0177C72.1787 36.2748 72.1429 36.5023 72.0712 36.7046C71.9996 36.9069 71.8963 37.0775 71.7573 37.2166C71.6203 37.3557 71.4517 37.4631 71.2516 37.5369C71.0514 37.6106 70.8217 37.6465 70.5604 37.6465H70.1812V37.1281H70.5604C70.748 37.1281 70.9123 37.1049 71.0514 37.0607C71.1905 37.0164 71.3042 36.9469 71.3948 36.8542C71.4854 36.7615 71.5529 36.6414 71.595 36.4981C71.6371 36.3527 71.6603 36.182 71.6603 35.9819V34.2688H72.1787V35.177C72.1787 35.2802 72.1997 35.3603 72.244 35.4172C72.2861 35.4741 72.3367 35.5183 72.3936 35.5457C72.4505 35.5731 72.5053 35.5899 72.5579 35.5963C72.6106 35.6026 72.6464 35.6068 72.6654 35.6068H72.7834V36.123ZM71.4243 33.1563L71.89 32.6843L72.3683 33.1626L71.8963 33.6346L71.4243 33.1563ZM75.156 33.2363C75.3583 33.4471 75.5437 33.643 75.7122 33.8263C75.786 33.9043 75.8576 33.9844 75.9314 34.0644C76.0051 34.1445 76.0726 34.2204 76.1358 34.292C76.199 34.3636 76.2538 34.4311 76.3022 34.4901C76.3507 34.5491 76.3865 34.5975 76.4097 34.6333C76.4581 34.7134 76.5003 34.7914 76.5319 34.8672C76.5635 34.9431 76.5867 35.0189 76.5993 35.0948C76.6056 35.1411 76.6099 35.1875 76.6099 35.2339C76.6099 35.2655 76.6078 35.3097 76.6014 35.3666C76.5951 35.4235 76.5804 35.4993 76.553 35.5921C76.5235 35.6974 76.4771 35.7943 76.4139 35.8807C76.3507 35.9671 76.2748 36.043 76.1842 36.1041C76.0936 36.1673 75.9925 36.2136 75.8787 36.2474C75.7649 36.2811 75.6427 36.2979 75.51 36.2979C75.3856 36.2979 75.2571 36.2811 75.1223 36.2495C74.9895 36.2158 74.8504 36.1652 74.7072 36.0957C74.6671 36.0788 74.6292 36.0619 74.5955 36.0472C74.5639 36.0324 74.5323 36.0177 74.5007 36.0029C74.4691 35.9882 74.4417 35.9755 74.4227 35.965C74.2499 36.0177 74.0498 36.0577 73.818 36.0851C73.5883 36.1125 73.3376 36.1251 73.0721 36.1251H72.6675V35.6068H73.0784C73.1964 35.6068 73.3207 35.6047 73.4471 35.6005C73.5736 35.5963 73.6873 35.5878 73.7864 35.5752C73.6536 35.4593 73.5588 35.3329 73.4977 35.1959C73.4366 35.0569 73.4071 34.9009 73.4071 34.7218C73.4071 34.5828 73.4324 34.4542 73.483 34.3362C73.5335 34.2182 73.6052 34.1171 73.6958 34.0307C73.7864 33.9443 73.8938 33.8769 74.016 33.8284C74.1404 33.78 74.2752 33.7547 74.4206 33.7547C74.5302 33.7547 74.6313 33.7694 74.7219 33.801C74.8125 33.8326 74.8968 33.8748 74.9727 33.9254C75.0485 33.978 75.1138 34.037 75.1686 34.1066C75.2234 34.1761 75.2719 34.2456 75.3098 34.3215C75.3477 34.3952 75.3772 34.4711 75.3962 34.5469C75.4151 34.6228 75.4257 34.6944 75.4257 34.7598C75.4257 34.9473 75.3899 35.118 75.3203 35.2697C75.2508 35.4214 75.1454 35.5541 75.0085 35.67C75.0843 35.7016 75.1665 35.7269 75.255 35.7459C75.3414 35.7669 75.4278 35.7754 75.5142 35.7754C75.569 35.7754 75.6237 35.7712 75.6785 35.7648C75.7333 35.7585 75.7839 35.7438 75.8323 35.7206C75.8808 35.6995 75.9251 35.6679 75.9651 35.6321C76.0051 35.5942 76.041 35.5457 76.0704 35.4846C76.0936 35.4361 76.1063 35.3814 76.1063 35.3224C76.1063 35.295 76.0999 35.2507 76.0894 35.1896C76.0768 35.1285 76.0431 35.0484 75.9841 34.9452C75.9251 34.8419 75.8513 34.7366 75.7607 34.6249C75.6701 34.5132 75.5732 34.4016 75.4636 34.2857C75.3561 34.1698 75.2424 34.056 75.1265 33.9401C75.0085 33.8242 74.8947 33.7104 74.783 33.5967L75.156 33.2363ZM74.4564 35.4151C74.5239 35.3856 74.5871 35.3497 74.644 35.3055C74.7008 35.2612 74.7514 35.2107 74.7957 35.1559C74.8378 35.1011 74.8715 35.04 74.8968 34.9726C74.9221 34.9052 74.9326 34.8356 74.9326 34.7577C74.9326 34.667 74.9137 34.5891 74.8757 34.5259C74.8378 34.4627 74.7915 34.4121 74.7388 34.3721C74.6861 34.332 74.6313 34.3046 74.5723 34.2878C74.5154 34.2709 74.4649 34.2625 74.4248 34.2625C74.349 34.2625 74.2815 34.273 74.2183 34.2962C74.1551 34.3194 74.1003 34.351 74.054 34.391C74.0076 34.4311 73.9697 34.4795 73.9444 34.5364C73.917 34.5933 73.9044 34.6544 73.9044 34.7197C73.9044 34.7977 73.9149 34.8693 73.936 34.9325C73.957 34.9958 73.9908 35.0548 74.035 35.1074C74.0793 35.1622 74.1361 35.2128 74.2057 35.2634C74.2731 35.3139 74.3574 35.3645 74.4564 35.4151ZM79.269 36.1652C79.1763 36.1652 79.0815 36.161 78.9866 36.1525C78.8918 36.1441 78.7991 36.1315 78.7085 36.1146C78.6179 36.0978 78.5315 36.0746 78.4472 36.0451C78.363 36.0177 78.2892 35.9819 78.2218 35.9418L77.9942 35.8133L78.2513 35.3603L78.4788 35.4888C78.5421 35.5246 78.6221 35.5541 78.7148 35.5773C78.8075 35.6005 78.9066 35.6152 79.0119 35.6258C79.1025 35.6342 79.191 35.6405 79.2816 35.6405C79.2985 35.6405 79.3364 35.6405 79.3975 35.6384C79.4586 35.6384 79.5324 35.63 79.623 35.6173C79.7283 35.6005 79.8168 35.5773 79.8843 35.5478C79.9538 35.5183 79.9959 35.4825 80.0149 35.4446C80.0212 35.4256 80.0254 35.4066 80.0254 35.3835C80.0254 35.3519 80.017 35.3097 79.998 35.2528C79.9791 35.198 79.9412 35.1243 79.8822 35.0379L78.8876 33.5355L79.3259 33.249C79.3491 33.2848 79.3743 33.3227 79.3996 33.3628C79.4249 33.4028 79.4544 33.4471 79.4902 33.4997C79.5239 33.5524 79.5661 33.6135 79.6103 33.683C79.6567 33.7526 79.7115 33.839 79.7768 33.938C79.8421 34.037 79.9201 34.1529 80.0065 34.2836C80.095 34.4163 80.1961 34.5701 80.3141 34.745C80.3605 34.8145 80.4005 34.8883 80.4384 34.9641C80.4742 35.04 80.5016 35.1159 80.5206 35.1938C80.5375 35.2634 80.5459 35.3329 80.5459 35.4024C80.5459 35.4087 80.5459 35.434 80.5438 35.4783C80.5417 35.5204 80.5227 35.5794 80.489 35.6553C80.3731 35.9123 80.1076 36.0725 79.6925 36.1336C79.6293 36.142 79.5598 36.1504 79.4902 36.1546C79.4207 36.161 79.3448 36.1652 79.269 36.1652ZM79.9791 37.6465V37.1281H80.3584C80.5459 37.1281 80.7102 37.1049 80.8493 37.0607C80.9884 37.0164 81.1022 36.9469 81.1928 36.8542C81.2834 36.7615 81.3508 36.6414 81.3929 36.4981C81.4351 36.3527 81.4582 36.182 81.4582 35.9819V34.2688H81.9766V35.9819C81.9766 36.2431 81.9429 36.477 81.8733 36.6835C81.8038 36.89 81.7027 37.0628 81.5678 37.2061C81.433 37.3494 81.2644 37.4589 81.0621 37.5348C80.8598 37.6106 80.626 37.6486 80.3605 37.6486H79.9791V37.6465ZM82.6698 37.1197C82.9458 37.1197 83.1776 37.0986 83.3673 37.0565C83.5548 37.0143 83.7044 36.949 83.814 36.8605C83.9088 36.7847 83.9783 36.6856 84.0247 36.5676C84.0689 36.4496 84.0921 36.3 84.0921 36.123H83.5864C83.4579 36.123 83.3293 36.1041 83.1966 36.0662C83.0638 36.0282 82.9458 35.965 82.8384 35.8765C82.7309 35.788 82.6445 35.6742 82.5771 35.531C82.5097 35.3898 82.476 35.2149 82.476 35.0105C82.476 34.8904 82.4865 34.7808 82.5076 34.6818C82.5286 34.5849 82.556 34.4964 82.5876 34.4205C82.6193 34.3447 82.6551 34.2772 82.693 34.2203C82.7309 34.1635 82.7689 34.115 82.8047 34.075C82.9058 33.9738 83.0196 33.8959 83.1502 33.8411C83.2809 33.7863 83.4199 33.7589 83.5674 33.7589C83.6981 33.7589 83.8182 33.78 83.932 33.82C84.0457 33.86 84.1469 33.9211 84.2375 34.0012C84.484 34.2309 84.6083 34.5933 84.6083 35.0864V36.1251C84.6083 36.3843 84.5704 36.6098 84.4945 36.7973C84.4187 36.9848 84.3007 37.1429 84.1427 37.2672C83.9825 37.3936 83.7824 37.4863 83.5422 37.5495C83.3041 37.6106 83.0133 37.6422 82.6698 37.6422V37.1197ZM83.5674 34.2793C83.3862 34.2793 83.2451 34.3426 83.1439 34.4711C83.0428 34.5996 82.9922 34.7787 82.9922 35.0126C82.9922 35.2486 83.0638 35.413 83.2071 35.5036C83.2408 35.5246 83.2767 35.5436 83.3146 35.5562C83.3504 35.571 83.3862 35.5794 83.422 35.5857C83.4558 35.5921 83.4874 35.5963 83.5169 35.6005C83.5443 35.6026 83.5695 35.6047 83.5864 35.6047H84.0921V35.0864C84.0921 34.9536 84.0816 34.8398 84.0626 34.7471C84.0415 34.6544 84.0162 34.5786 83.9867 34.5174C83.9551 34.4563 83.9214 34.41 83.8814 34.3784C83.8414 34.3468 83.8034 34.3236 83.7655 34.3088C83.7276 34.2941 83.6896 34.2857 83.6559 34.2836C83.618 34.2793 83.5906 34.2793 83.5674 34.2793ZM87.179 32.1765H85.8536C85.7377 32.1765 85.6408 32.1807 85.5628 32.1912C85.4849 32.1997 85.4175 32.2186 85.3648 32.246C85.31 32.2734 85.2678 32.3134 85.232 32.364C85.1983 32.4146 85.1688 32.482 85.1435 32.5663L84.7095 32.4378C84.7938 32.1428 84.9455 31.9405 85.1688 31.8309C85.2615 31.7825 85.3648 31.753 85.4786 31.7382C85.5923 31.7235 85.7167 31.7171 85.8536 31.7171H87.179V32.1765ZM86.2814 36.123H85.763V32.6169H86.2814V36.123ZM88.8499 36.123H88.7319C88.557 36.123 88.3948 36.0893 88.2452 36.0177C88.2452 36.2748 88.2093 36.5023 88.1377 36.7046C88.0661 36.9069 87.9628 37.0775 87.8237 37.2166C87.6868 37.3557 87.5182 37.4631 87.318 37.5369C87.1179 37.6106 86.8882 37.6465 86.6269 37.6465H86.2476V37.1281H86.6269C86.8144 37.1281 86.9788 37.1049 87.1179 37.0607C87.2569 37.0164 87.3707 36.9469 87.4613 36.8542C87.5519 36.7615 87.6193 36.6414 87.6615 36.4981C87.7036 36.3527 87.7268 36.182 87.7268 35.9819V34.2688H88.2452V35.177C88.2452 35.2802 88.2662 35.3603 88.3105 35.4172C88.3526 35.4741 88.4032 35.5183 88.4601 35.5457C88.517 35.5731 88.5717 35.5899 88.6244 35.5963C88.6771 35.6026 88.7129 35.6068 88.7319 35.6068H88.8499V36.123ZM90.2174 33.8895C90.2216 33.9001 90.2279 33.9296 90.2385 33.978C90.249 34.0265 90.2616 34.0855 90.2764 34.155C90.2911 34.2246 90.3059 34.3025 90.3206 34.3889C90.3375 34.4732 90.3522 34.5596 90.3649 34.646C90.3775 34.7324 90.3881 34.8167 90.3986 34.8967C90.407 34.9768 90.4133 35.0484 90.4133 35.1074C90.4133 35.2823 90.3838 35.434 90.3269 35.5626C90.2701 35.689 90.1942 35.7943 90.1015 35.8786C90.0088 35.9629 89.9055 36.024 89.7896 36.064C89.6738 36.1041 89.5579 36.1251 89.442 36.1251H88.7424V35.6068H89.442C89.4694 35.6068 89.5073 35.6026 89.5579 35.5942C89.6084 35.5857 89.659 35.5647 89.7096 35.5331C89.7601 35.4993 89.8044 35.4509 89.8423 35.3856C89.8802 35.3202 89.8992 35.2275 89.8992 35.1116C89.8992 35.0716 89.895 35.021 89.8887 34.9599C89.8824 34.8988 89.8739 34.8335 89.8634 34.7619C89.8529 34.6923 89.8423 34.6186 89.8297 34.5448C89.817 34.4711 89.8044 34.4016 89.7918 34.3341C89.7791 34.2688 89.7665 34.2098 89.7559 34.1592C89.7454 34.1087 89.7349 34.0686 89.7285 34.0434L90.2174 33.8895ZM89.2671 37.1197L89.7349 36.6477L90.2132 37.126L89.7412 37.598L89.2671 37.1197ZM91.5659 37.6465V37.1281H91.9452C92.1327 37.1281 92.2971 37.1049 92.4361 37.0607C92.5752 37.0164 92.689 36.9469 92.7796 36.8542C92.8702 36.7615 92.9376 36.6414 92.9798 36.4981C93.0219 36.3527 93.0451 36.182 93.0451 35.9819V34.2688H93.5634V35.9819C93.5634 36.2431 93.5297 36.477 93.4602 36.6835C93.3906 36.89 93.2895 37.0628 93.1546 37.2061C93.0198 37.3494 92.8512 37.4589 92.649 37.5348C92.4467 37.6106 92.2128 37.6486 91.9473 37.6486H91.5659V37.6465ZM94.657 36.1209H94.1387V32.206H94.657V36.1209ZM96.8779 36.123H96.7599C96.585 36.123 96.4227 36.0893 96.2731 36.0177C96.2731 36.2748 96.2373 36.5023 96.1657 36.7046C96.094 36.9069 95.9908 37.0775 95.8517 37.2166C95.7147 37.3557 95.5462 37.4631 95.346 37.5369C95.1458 37.6106 94.9162 37.6465 94.6549 37.6465H94.2756V37.1281H94.6549C94.8424 37.1281 95.0068 37.1049 95.1458 37.0607C95.2849 37.0164 95.3987 36.9469 95.4893 36.8542C95.5799 36.7615 95.6473 36.6414 95.6895 36.4981C95.7316 36.3527 95.7548 36.182 95.7548 35.9819V34.2688H96.2731V35.177C96.2731 35.2802 96.2942 35.3603 96.3384 35.4172C96.3806 35.4741 96.4312 35.5183 96.488 35.5457C96.5449 35.5731 96.5997 35.5899 96.6524 35.5963C96.7051 35.6026 96.7409 35.6068 96.7599 35.6068H96.8779V36.123ZM95.5188 33.1563L95.9845 32.6843L96.4628 33.1626L95.9908 33.6346L95.5188 33.1563ZM96.762 36.123V35.6047H97.982C98.1864 35.6047 98.3528 35.5899 98.4771 35.5605C98.6015 35.531 98.7005 35.4951 98.77 35.4509C98.8395 35.4066 98.8859 35.3582 98.9112 35.3076C98.9365 35.2549 98.9512 35.2065 98.9554 35.158H98.5382C98.4898 35.158 98.4371 35.1559 98.3781 35.1517C98.3191 35.1475 98.258 35.1411 98.1948 35.1306C98.1316 35.1201 98.0684 35.1053 98.003 35.0843C97.9398 35.0632 97.8766 35.0379 97.8155 35.0042C97.767 34.9747 97.7165 34.9389 97.6638 34.8946C97.6132 34.8504 97.5669 34.7956 97.5247 34.7303C97.4826 34.6649 97.4489 34.5891 97.4236 34.5006C97.3962 34.4121 97.3836 34.3088 97.3836 34.1887C97.3836 34.0412 97.4088 33.9001 97.4594 33.7673C97.51 33.6346 97.5837 33.5208 97.6785 33.426C97.7734 33.3312 97.8829 33.2595 98.0051 33.209C98.1274 33.1605 98.258 33.1352 98.3971 33.1352C98.5572 33.1352 98.7026 33.1689 98.8353 33.2363C98.9681 33.3038 99.0819 33.4007 99.1725 33.5271C99.2715 33.6599 99.3452 33.8221 99.3916 34.016C99.4401 34.2098 99.4632 34.4332 99.4632 34.6839V35.0632C99.4632 35.2444 99.4274 35.4045 99.3558 35.5457C99.2841 35.6869 99.1746 35.8007 99.0271 35.8892C98.7827 36.0451 98.4329 36.123 97.9735 36.123H96.762ZM98.7658 33.8305C98.6773 33.7125 98.5572 33.6557 98.4034 33.6557C98.3423 33.6557 98.2812 33.6662 98.218 33.6873C98.1547 33.7083 98.0979 33.7399 98.0473 33.7842C97.9967 33.8263 97.9567 33.8832 97.923 33.9506C97.8914 34.0181 97.8745 34.0981 97.8745 34.193C97.8745 34.2541 97.8808 34.3046 97.8935 34.3447C97.9061 34.3847 97.923 34.4205 97.9419 34.4458C97.963 34.4732 97.9841 34.4943 98.0051 34.5111C98.0262 34.528 98.0473 34.5406 98.0684 34.5533C98.121 34.5849 98.1864 34.6059 98.2643 34.6207C98.3402 34.6354 98.4308 34.6418 98.5361 34.6418H98.9596C98.9554 34.4606 98.9365 34.3025 98.9028 34.1677C98.8712 34.0286 98.8248 33.9169 98.7658 33.8305ZM97.9841 32.0374L98.4497 31.5654L98.928 32.0437L98.4561 32.5157L97.9841 32.0374ZM100.494 36.1209H99.9753V32.206H100.494V36.1209ZM102.83 37.9351H102.314V35.0906L102.814 34.7998C102.866 34.8293 102.921 34.8588 102.978 34.8904C103.026 34.9157 103.077 34.9452 103.134 34.9747C103.189 35.0063 103.243 35.0337 103.298 35.059C103.326 34.8946 103.357 34.745 103.393 34.6123C103.429 34.4795 103.473 34.3594 103.526 34.2541C103.703 33.898 103.983 33.7189 104.366 33.7189C104.533 33.7189 104.685 33.7526 104.824 33.8221C104.963 33.8916 105.079 33.9907 105.173 34.1234C105.254 34.233 105.315 34.3594 105.357 34.5027C105.399 34.646 105.418 34.7977 105.418 34.9578C105.418 35.1348 105.403 35.2886 105.374 35.4172C105.344 35.5457 105.304 35.6532 105.256 35.7417C105.207 35.8302 105.152 35.8997 105.091 35.9524C105.03 36.005 104.969 36.0451 104.906 36.0725C104.843 36.0999 104.784 36.1188 104.725 36.1294C104.666 36.1378 104.615 36.1441 104.573 36.1441C104.541 36.1441 104.501 36.1399 104.453 36.1294C104.404 36.1209 104.337 36.102 104.253 36.0725C104.168 36.043 104.063 36.0008 103.934 35.946C103.806 35.8913 103.648 35.8175 103.46 35.7227C103.334 35.6595 103.216 35.6005 103.104 35.5436C102.993 35.4867 102.904 35.4382 102.835 35.4003V37.9351H102.83ZM103.783 35.3055C103.939 35.3814 104.067 35.4425 104.166 35.4846C104.267 35.5267 104.347 35.5583 104.404 35.5794C104.463 35.6005 104.503 35.6131 104.529 35.6173C104.552 35.6216 104.567 35.6237 104.571 35.6237C104.592 35.6237 104.619 35.6194 104.657 35.6131C104.695 35.6068 104.731 35.5815 104.767 35.5394C104.803 35.4972 104.834 35.4319 104.859 35.3434C104.887 35.2528 104.9 35.1264 104.9 34.9599C104.9 34.9389 104.897 34.9073 104.895 34.863C104.893 34.8188 104.885 34.7703 104.874 34.7176C104.862 34.6649 104.845 34.6102 104.822 34.5533C104.798 34.4964 104.767 34.4458 104.729 34.3973C104.689 34.351 104.64 34.3131 104.581 34.2815C104.522 34.252 104.451 34.2351 104.366 34.2351C104.295 34.2351 104.232 34.2477 104.175 34.273C104.118 34.2983 104.067 34.3489 104.019 34.4268C103.972 34.5027 103.93 34.6123 103.892 34.7513C103.854 34.8946 103.819 35.0779 103.783 35.3055ZM107.533 36.123H107.415C107.24 36.123 107.078 36.0893 106.929 36.0177C106.929 36.2748 106.893 36.5023 106.821 36.7046C106.75 36.9069 106.646 37.0775 106.507 37.2166C106.37 37.3557 106.202 37.4631 106.002 37.5369C105.801 37.6106 105.572 37.6465 105.31 37.6465H104.931V37.1281H105.31C105.498 37.1281 105.662 37.1049 105.801 37.0607C105.94 37.0164 106.054 36.9469 106.145 36.8542C106.235 36.7615 106.303 36.6414 106.345 36.4981C106.387 36.3527 106.41 36.182 106.41 35.9819V34.2688H106.929V35.177C106.929 35.2802 106.95 35.3603 106.994 35.4172C107.036 35.4741 107.087 35.5183 107.144 35.5457C107.2 35.5731 107.255 35.5899 107.308 35.5963C107.361 35.6026 107.396 35.6068 107.415 35.6068H107.533V36.123ZM108.901 33.8895C108.905 33.9001 108.911 33.9296 108.922 33.978C108.932 34.0265 108.945 34.0855 108.96 34.155C108.975 34.2246 108.989 34.3025 109.004 34.3889C109.021 34.4732 109.036 34.5596 109.048 34.646C109.061 34.7324 109.072 34.8167 109.082 34.8967C109.09 34.9768 109.097 35.0484 109.097 35.1074C109.097 35.2823 109.067 35.434 109.01 35.5626C108.954 35.689 108.878 35.7943 108.785 35.8786C108.692 35.9629 108.589 36.024 108.473 36.064C108.357 36.1041 108.241 36.1251 108.125 36.1251H107.424V35.6068H108.123C108.151 35.6068 108.189 35.6026 108.239 35.5942C108.29 35.5857 108.34 35.5647 108.391 35.5331C108.442 35.4993 108.486 35.4509 108.524 35.3856C108.562 35.3202 108.581 35.2275 108.581 35.1116C108.581 35.0716 108.576 35.021 108.57 34.9599C108.564 34.8988 108.555 34.8335 108.545 34.7619C108.534 34.6923 108.524 34.6186 108.511 34.5448C108.498 34.4711 108.486 34.4016 108.473 34.3341C108.46 34.2688 108.448 34.2098 108.437 34.1592C108.427 34.1087 108.416 34.0686 108.41 34.0434L108.901 33.8895ZM107.995 32.7559L108.46 32.2839L108.939 32.7622L108.467 33.2342L107.995 32.7559Z" fill="#F47920"/>
</svg>
