<svg width="145" height="38" viewBox="0 0 145 38" fill="none" xmlns="http://www.w3.org/2000/svg">
<path d="M133.775 21.1805V25.6663C133.775 29.457 132.231 33.1842 129.574 36.2703H125.629C128.702 33.6289 130.987 29.9575 130.987 25.6663V21.1805C130.987 18.8722 129.106 16.9913 126.798 16.9913C124.495 16.9913 122.614 18.8722 122.614 21.1805V24.6517C122.614 27.2565 121.047 29.7958 118.71 30.9721L108.664 36.0277V32.8993L117.458 28.479C118.877 27.7667 119.826 26.2303 119.826 24.6517V21.1805C119.826 17.3282 122.953 14.2017 126.8 14.2017C130.646 14.2017 133.775 17.3282 133.775 21.1805Z" fill="#F47920"/>
<path d="M128.19 21.1807V25.1332C128.19 29.6728 125.503 33.6888 120.821 36.1531C120.744 36.1954 120.667 36.2301 120.584 36.2724H114.383C116.37 35.2636 118.235 34.3261 119.546 33.6734C123.262 31.7155 125.403 28.6005 125.403 25.1351V21.1827C125.403 20.4164 126.032 19.7888 126.797 19.7888C127.569 19.7869 128.19 20.4145 128.19 21.1807Z" fill="#F47920"/>
<path d="M139.376 36.2703H133.08L134.665 34.0814C134.932 33.7137 135.346 33.4826 135.798 33.4461C136.257 33.4114 136.701 33.5712 137.027 33.8966L139.376 36.2703Z" fill="#F47920"/>
<path d="M111.437 13.1236L126.249 2.95471C126.577 2.73139 127.014 2.73139 127.341 2.95471L142.14 13.0986V27.0467C142.14 27.3548 142.261 27.6493 142.477 27.8669L144.93 30.3446V13.0967C144.93 12.188 144.481 11.3371 143.732 10.823L128.92 0.654089C127.649 -0.21803 125.943 -0.21803 124.673 0.654089L109.86 10.823C109.111 11.3371 108.663 12.188 108.663 13.0967V29.7748L111.452 28.3713L111.437 13.1236Z" fill="#F47920"/>
<path d="M144.93 33.9564V36.2705H143.297L138.657 31.5826C137.31 30.2177 136.568 28.4137 136.568 26.4982V16.6835C136.568 16.2734 136.366 15.8883 136.022 15.6573L129.47 11.1523C127.874 10.0607 125.731 10.0607 124.135 11.1523L117.578 15.6573C117.239 15.8883 117.039 16.2734 117.039 16.6835V24.1841C117.039 25.0331 116.558 25.8051 115.799 26.1901L114.25 26.9679V16.6835C114.25 15.3551 114.902 14.1075 116 13.3548L122.557 8.85749C125.096 7.11326 128.508 7.11326 131.047 8.85749L137.598 13.3548C138.696 14.1075 139.354 15.3551 139.354 16.6835V26.4982C139.354 27.6725 139.81 28.7834 140.636 29.6189L144.93 33.9564Z" fill="#F47920"/>
<path d="M97.0727 9.97119H90.3212V10.6786V14.4721V18.9731H85.8203V18.185V16.7226C85.8203 12.9932 82.7983 9.97119 79.0689 9.97119C75.3395 9.97119 72.3175 12.9932 72.3175 16.7226V17.1425V18.0588V21.2236C72.3175 22.4667 71.3101 23.474 70.067 23.474H64.2588V27.975H70.067C73.7964 27.975 76.8184 24.953 76.8184 21.2236V18.0588V17.1425V16.7226C76.8184 15.4795 77.8257 14.4721 79.0689 14.4721C80.312 14.4721 81.3194 15.4795 81.3194 16.7226V18.185V23.4761H85.8203H97.0747C100.804 23.4761 103.826 20.4541 103.826 16.7247C103.824 12.9932 100.802 9.97119 97.0727 9.97119ZM97.0727 18.9731H94.8222V14.4721H97.0727C98.3158 14.4721 99.3231 15.4795 99.3231 16.7226C99.3231 17.9657 98.3158 18.9731 97.0727 18.9731Z" fill="#636466"/>
<path d="M34.4424 27.9751H32.1899H23.188V32.476H32.1899V36.977H36.6908V32.476V30.2256C36.6929 28.9824 35.6856 27.9751 34.4424 27.9751Z" fill="#636466"/>
<path d="M79.0689 5.47018H83.5699V3.21764C83.5699 1.97657 82.5625 0.969238 81.3194 0.969238H79.6129H74.5659V5.47018H79.0689Z" fill="#636466"/>
<path d="M23.188 3.21776C23.188 1.97462 22.1806 0.967285 20.9375 0.967285H18.687V5.46823H23.188V3.21776Z" fill="#636466"/>
<path d="M64.4906 14.4721H70.303V9.97119H64.4906C60.7612 9.97119 57.7392 12.9932 57.7392 16.7226V21.2711C57.7123 22.4915 56.7195 23.474 55.4929 23.474H51.9765C50.7334 23.474 49.726 22.4667 49.726 21.2236V18.6566V18.156V16.7205C49.726 15.4774 50.7334 14.4701 51.9765 14.4701H55.7245V9.97119H51.9765C48.2471 9.97119 45.2251 12.9932 45.2251 16.7226V18.1581V18.6587V21.2256C45.2251 24.955 48.2471 27.977 51.9765 27.977H55.4929C59.183 27.977 62.1781 25.015 62.2381 21.3394H62.2402V21.3187C62.2402 21.2877 62.2443 21.2566 62.2443 21.2236H62.2402L62.2443 18.9731C62.2443 18.9731 62.2402 18.2429 62.2402 17.5727V16.7226C62.2381 15.4795 63.2475 14.4721 64.4906 14.4721Z" fill="#636466"/>
<path d="M34.4423 9.97119H27.6908V14.4721H34.4423C35.6854 14.4721 36.6927 15.4795 36.6927 16.7226C36.6927 17.9657 35.6854 18.9731 34.4423 18.9731H23.4691H22.7969C23.0472 18.2698 23.1899 17.5128 23.1899 16.7226V15.1196V13.3469V9.97119H18.6869V13.3469V15.1196V16.7226C18.6869 17.9657 17.6795 18.9731 16.4364 18.9731H13.7929C14.0432 18.2677 14.1859 17.5128 14.1859 16.7226C14.1859 12.9932 11.1639 9.97119 7.43452 9.97119H0.683105V14.4721H7.43452C8.67766 14.4721 9.68499 15.4795 9.68499 16.7226C9.68499 17.9657 8.67766 18.9731 7.43452 18.9731H3.08871H0.683105V23.474H3.09078H7.43452H18.6869H23.4691H34.4423C38.1717 23.474 41.1937 20.452 41.1937 16.7226C41.1937 12.9932 38.1717 9.97119 34.4423 9.97119Z" fill="#636466"/>
<path d="M46.8301 34.952V35.4588H46.7494C46.6191 35.4588 46.495 35.4402 46.3771 35.4009C46.2613 35.3616 46.1558 35.3057 46.0648 35.2333C46.0544 35.2251 46.0441 35.2147 46.0317 35.2044C46.0213 35.194 46.011 35.1837 45.9986 35.1734C45.8083 35.3616 45.5332 35.4567 45.1712 35.4588H42.112C41.9837 35.4588 41.8637 35.4381 41.7521 35.3947C41.6404 35.3512 41.5411 35.2892 41.4542 35.2085C41.419 35.1754 41.3818 35.1361 41.3466 35.0906C41.3115 35.043 41.2784 34.9893 41.2474 34.9272C41.2184 34.8652 41.1936 34.7928 41.175 34.7121C41.1563 34.6314 41.146 34.5425 41.146 34.4411C41.146 34.3522 41.1563 34.2529 41.175 34.1453C41.1936 34.0378 41.2143 33.9344 41.237 33.8371C41.2598 33.7399 41.2804 33.6572 41.3011 33.5869C41.3218 33.5165 41.3342 33.4731 41.3404 33.4565L41.8265 33.6096C41.8141 33.6468 41.7976 33.7006 41.7789 33.7709C41.7603 33.8392 41.7417 33.9137 41.7231 33.9923C41.7045 34.0709 41.6879 34.1515 41.6755 34.2301C41.661 34.3108 41.6548 34.3791 41.6548 34.4391C41.6548 34.557 41.6735 34.6521 41.7107 34.7204C41.7479 34.7886 41.7934 34.8403 41.8431 34.8734C41.8948 34.9086 41.9465 34.9293 41.9982 34.9376C42.0499 34.9458 42.0892 34.952 42.1161 34.952H45.1505C45.2808 34.952 45.3863 34.9376 45.4649 34.9107C45.5435 34.8838 45.6014 34.8486 45.6428 34.8072C45.6842 34.7659 45.709 34.7204 45.7214 34.6707C45.7338 34.6211 45.738 34.5735 45.738 34.5301V33.5951H46.2468V34.5177C46.2468 34.6211 46.2695 34.6997 46.313 34.7597C46.3564 34.8176 46.4081 34.861 46.466 34.89C46.524 34.9189 46.5798 34.9355 46.6336 34.9417C46.6874 34.9479 46.7246 34.952 46.7474 34.952H46.8301ZM43.1524 33.3924L42.7263 32.9622L43.1462 32.5257L43.5826 32.9622L43.1524 33.3924ZM44.1845 33.3966L43.7584 32.9663L44.1783 32.5299L44.6148 32.9663L44.1845 33.3966ZM50.332 34.3832C50.3216 34.3894 50.2741 34.4225 50.1913 34.4784C50.1086 34.5342 49.999 34.6025 49.8604 34.6811C49.7238 34.7617 49.5625 34.8465 49.3784 34.9376C49.1943 35.0286 48.9978 35.1134 48.7868 35.1899C48.5759 35.2664 48.3545 35.3306 48.1249 35.3823C47.8953 35.434 47.6657 35.4588 47.4341 35.4588H46.6956V34.95H47.4341C47.6347 34.95 47.8395 34.9251 48.0443 34.8776C48.249 34.83 48.4476 34.77 48.6379 34.6997C48.8282 34.6294 49.0061 34.5508 49.1736 34.468C49.3412 34.3853 49.4881 34.3067 49.6122 34.2322C49.4384 34.1619 49.2647 34.0936 49.0909 34.0274C48.9172 33.9612 48.76 33.9013 48.6152 33.8516C48.4724 33.7999 48.3483 33.7585 48.2449 33.7254C48.1415 33.6923 48.0732 33.6737 48.0381 33.6696C48.007 33.6696 47.976 33.6717 47.9429 33.6779C47.9098 33.6841 47.8767 33.6986 47.8436 33.7254C47.8105 33.7523 47.7795 33.7937 47.7485 33.8516C47.7175 33.9075 47.6885 33.9881 47.6616 34.0895L47.1693 33.9592C47.3079 33.4276 47.5996 33.1608 48.0422 33.1608C48.0525 33.1608 48.067 33.1608 48.0856 33.1628C48.1043 33.1628 48.1291 33.169 48.1642 33.1773C48.1973 33.1856 48.2449 33.198 48.3008 33.2145C48.3587 33.2311 48.4311 33.2559 48.52 33.2869C48.609 33.318 48.7165 33.3573 48.8448 33.4048C48.973 33.4524 49.1261 33.5103 49.3019 33.5806L50.2554 33.9344L50.332 34.3832ZM47.4692 32.0624L47.9264 31.5991L48.3959 32.0686L47.9326 32.5319L47.4692 32.0624ZM51.995 35.4609C51.8068 35.4588 51.6496 35.4464 51.5275 35.4216C51.4034 35.3967 51.3 35.3616 51.2152 35.3161C51.1304 35.2706 51.0621 35.2127 51.0104 35.1444C50.9587 35.0761 50.9194 34.9934 50.8905 34.9024C50.8615 34.8093 50.8429 34.7059 50.8346 34.5921C50.8263 34.4763 50.8201 34.3501 50.8201 34.2095V31.6177H51.329V34.2095C51.329 34.3667 51.3331 34.4928 51.3434 34.5901C51.3538 34.6873 51.3786 34.7617 51.422 34.8155C51.4634 34.8693 51.5275 34.9045 51.6123 34.9231C51.6971 34.9417 51.8254 34.952 51.9929 34.9541V35.4609H51.995ZM53.989 35.4567C53.8194 35.4567 53.6705 35.4319 53.5381 35.3823C53.4078 35.3326 53.2961 35.2623 53.2071 35.1671C53.114 35.2685 53.0044 35.3409 52.8803 35.3885C52.7562 35.436 52.6321 35.4609 52.5059 35.4609H51.8854V34.952H52.5059C52.5328 34.952 52.5721 34.9479 52.6217 34.9396C52.6714 34.9313 52.721 34.9107 52.7707 34.8776C52.8182 34.8445 52.8617 34.7948 52.8989 34.7286C52.9362 34.6624 52.9548 34.5714 52.9548 34.4556V33.6386H53.4636V34.4453C53.4636 34.619 53.505 34.7473 53.5856 34.8279C53.6684 34.9086 53.8008 34.95 53.989 34.95C54.0159 34.95 54.0531 34.9458 54.1028 34.9355C54.1524 34.9251 54.202 34.9045 54.2517 34.8693C54.3013 34.8362 54.3448 34.7845 54.382 34.7183C54.4192 34.6521 54.4378 34.5611 54.4378 34.4453V33.6386H54.9446V34.4453C54.9446 34.619 54.986 34.7473 55.0708 34.83C55.1556 34.9127 55.29 34.9541 55.4783 34.9541C55.5072 34.9541 55.5465 34.9479 55.5941 34.9376C55.6417 34.9251 55.6913 34.9024 55.7389 34.8652C55.7865 34.83 55.8278 34.7783 55.8609 34.7121C55.894 34.6459 55.9126 34.557 55.9126 34.4453C55.9126 34.406 55.9085 34.3563 55.9023 34.2963C55.8961 34.2363 55.8878 34.1743 55.8775 34.104C55.8671 34.0357 55.8568 33.9654 55.8444 33.8951C55.832 33.8247 55.8196 33.7585 55.8072 33.6965C55.7947 33.6344 55.7823 33.5786 55.772 33.5289C55.7617 33.4793 55.7513 33.4441 55.7451 33.4193L56.2271 33.2662C56.2312 33.2766 56.2374 33.3055 56.2477 33.3511C56.2581 33.3966 56.2705 33.4545 56.285 33.5207C56.2995 33.5889 56.3139 33.6634 56.3305 33.7461C56.345 33.8289 56.3594 33.9116 56.3739 33.9964C56.3884 34.0791 56.3987 34.1598 56.407 34.2384C56.4153 34.317 56.4215 34.3853 56.4215 34.4453C56.4215 34.6169 56.3946 34.7638 56.3387 34.892C56.2829 35.0182 56.2105 35.1237 56.1216 35.2064C56.0326 35.2892 55.9313 35.3533 55.8175 35.3947C55.7037 35.436 55.592 35.4588 55.4783 35.4609C55.3066 35.4609 55.1535 35.436 55.0211 35.3843C54.8888 35.3326 54.7771 35.2582 54.6861 35.163C54.593 35.2623 54.4834 35.3347 54.3613 35.3843C54.2372 35.4319 54.1131 35.4567 53.989 35.4567ZM61.0941 35.4609H61.0259C60.7383 35.4609 60.4881 35.3988 60.2729 35.2768C60.0578 35.1547 59.8923 34.981 59.7786 34.7597C59.7207 34.8383 59.6524 34.9065 59.5717 34.9665C59.4911 35.0244 59.4021 35.0761 59.3008 35.1216C59.2429 35.1444 59.1767 35.163 59.1022 35.1775C59.0277 35.192 58.9471 35.1982 58.8623 35.1982C58.7775 35.1982 58.6906 35.1878 58.6016 35.1692C58.5127 35.1485 58.4258 35.1154 58.341 35.0699C58.2107 35.0017 58.1073 34.9107 58.0307 34.799C57.9521 34.6873 57.9004 34.5549 57.8756 34.4018C57.8632 34.3315 57.857 34.2632 57.857 34.195C57.857 34.0791 57.8797 33.9509 57.9253 33.8102C57.9708 33.6675 58.0638 33.5248 58.2045 33.38C58.4506 33.1277 58.7981 32.9353 59.247 32.8029L59.1953 32.5113L59.6917 32.4058C59.7351 32.5857 59.7724 32.745 59.8055 32.8836C59.8386 33.0222 59.8675 33.1483 59.8923 33.26C59.8985 33.2807 59.9068 33.318 59.9172 33.3676C59.9296 33.4172 59.942 33.4752 59.9585 33.5413C59.9751 33.6075 59.9916 33.6779 60.0102 33.7523C60.0289 33.8268 60.0454 33.9013 60.064 33.9737C60.0826 34.0461 60.0992 34.1122 60.1157 34.1764C60.1323 34.2384 60.1468 34.2922 60.1592 34.3336C60.1943 34.468 60.2481 34.5756 60.3184 34.6583C60.3888 34.7411 60.4653 34.8031 60.548 34.8465C60.6308 34.89 60.7156 34.9189 60.8004 34.9334C60.8852 34.9479 60.9617 34.9541 61.0279 34.9541H61.0962V35.4609H61.0941ZM59.3835 33.2911C59.2056 33.3428 59.0484 33.4048 58.9119 33.4772C58.7754 33.5496 58.6616 33.6282 58.5727 33.7151C58.4837 33.802 58.4196 33.8971 58.3824 33.9964C58.3576 34.0626 58.3451 34.1309 58.3451 34.2012C58.3451 34.2363 58.3493 34.2736 58.3555 34.3108C58.3679 34.3853 58.3948 34.4494 58.4362 34.5011C58.4775 34.5528 58.5251 34.5942 58.5809 34.6231C58.6202 34.6459 58.6637 34.6624 58.7113 34.6728C58.7588 34.6831 58.8043 34.6873 58.8519 34.6873H58.8788C58.916 34.6873 58.9553 34.6831 58.9946 34.6769C59.0339 34.6707 59.0712 34.6604 59.1043 34.6459C59.3297 34.5528 59.4621 34.3832 59.5014 34.1371C59.5076 34.0791 59.5117 34.0254 59.5117 33.9757C59.5117 33.9488 59.5097 33.9116 59.5035 33.862C59.4973 33.8144 59.4931 33.7772 59.4869 33.7523L59.3835 33.2911ZM63.2763 34.952V35.4609H63.0653C62.9019 35.4609 62.7571 35.4381 62.633 35.3905C62.5089 35.343 62.4076 35.2747 62.3331 35.1796C62.147 35.3657 61.8698 35.4609 61.5037 35.4609H60.9866V34.952H61.5037C61.634 34.952 61.7353 34.9396 61.8119 34.9127C61.8863 34.8858 61.9442 34.8548 61.9835 34.8155C62.0228 34.7762 62.0477 34.7328 62.058 34.6852C62.0704 34.6376 62.0746 34.5921 62.0746 34.5487V33.6386H62.5813V34.5301C62.5813 34.5963 62.5917 34.6542 62.6103 34.6997C62.631 34.7473 62.6558 34.7845 62.6868 34.8176C62.7178 34.8486 62.753 34.8734 62.7923 34.892C62.8316 34.9107 62.8688 34.9231 62.904 34.9334C62.9392 34.9417 62.9723 34.9479 63.0012 34.95C63.0302 34.952 63.0509 34.952 63.0653 34.952H63.2763ZM61.6733 32.3975L62.1325 31.9342L62.602 32.4037L62.1387 32.867L61.6733 32.3975ZM65.0428 33.2683C65.0469 33.2787 65.0531 33.3076 65.0635 33.3552C65.0738 33.4028 65.0862 33.4607 65.1007 33.5289C65.1152 33.5972 65.1297 33.6737 65.1441 33.7585C65.1607 33.8413 65.1752 33.9261 65.1876 34.0109C65.2 34.0957 65.2103 34.1784 65.2207 34.257C65.2289 34.3356 65.2351 34.406 65.2351 34.4639C65.2351 34.6356 65.2062 34.7845 65.1503 34.9107C65.0945 35.0348 65.02 35.1382 64.929 35.2209C64.838 35.3037 64.7367 35.3637 64.6229 35.403C64.5091 35.4423 64.3954 35.4629 64.2816 35.4629H63.1667V34.9541H64.2816C64.3085 34.9541 64.3457 34.95 64.3954 34.9417C64.445 34.9334 64.4946 34.9127 64.5443 34.8817C64.5939 34.8486 64.6374 34.801 64.6746 34.7369C64.7118 34.6728 64.7304 34.5818 64.7304 34.468C64.7304 34.4287 64.7263 34.3791 64.7201 34.3191C64.7139 34.2591 64.7056 34.195 64.6953 34.1247C64.6849 34.0564 64.6746 33.984 64.6622 33.9116C64.6498 33.8392 64.6374 33.7709 64.625 33.7048C64.6125 33.6406 64.6001 33.5827 64.5898 33.5331C64.5795 33.4834 64.5691 33.4441 64.5629 33.4193L65.0428 33.2683ZM64.2361 36.493L63.7996 36.9295L63.3797 36.493L63.8058 36.0628L64.2361 36.493ZM65.2682 36.4889L64.8318 36.9253L64.4119 36.4889L64.838 36.0586L65.2682 36.4889ZM67.9572 35.4609H67.8414C67.6697 35.4609 67.5104 35.4278 67.3636 35.3574C67.3636 35.6098 67.3284 35.8332 67.2581 36.0318C67.1878 36.2303 67.0864 36.3979 66.9499 36.5344C66.8154 36.6709 66.65 36.7764 66.4535 36.8488C66.257 36.9212 66.0315 36.9564 65.775 36.9564H65.4027V36.4475H65.775C65.9591 36.4475 66.1204 36.4248 66.257 36.3813C66.3935 36.3379 66.5052 36.2696 66.5941 36.1786C66.6831 36.0876 66.7492 35.9697 66.7906 35.8291C66.832 35.6863 66.8547 35.5188 66.8547 35.3223V33.6406H67.3636V34.5321C67.3636 34.6335 67.3843 34.7121 67.4277 34.7679C67.4691 34.8238 67.5187 34.8672 67.5746 34.8941C67.6304 34.921 67.6842 34.9376 67.7359 34.9438C67.7876 34.95 67.8228 34.9541 67.8414 34.9541H67.9572V35.4609ZM66.6231 32.5485L67.0802 32.0852L67.5497 32.5547L67.0864 33.018L66.6231 32.5485ZM70.2863 32.6271C70.4849 32.8339 70.6669 33.0263 70.8324 33.2063C70.9048 33.2828 70.9751 33.3614 71.0475 33.44C71.1199 33.5186 71.1861 33.5931 71.2481 33.6634C71.3102 33.7337 71.364 33.7999 71.4115 33.8578C71.4591 33.9157 71.4943 33.9633 71.517 33.9985C71.5646 34.0771 71.606 34.1536 71.637 34.2281C71.668 34.3025 71.6908 34.377 71.7032 34.4515C71.7094 34.497 71.7135 34.5425 71.7135 34.588C71.7135 34.619 71.7115 34.6624 71.7053 34.7183C71.699 34.7741 71.6846 34.8486 71.6577 34.9396C71.6287 35.043 71.5832 35.1382 71.5212 35.223C71.4591 35.3078 71.3846 35.3823 71.2957 35.4423C71.2068 35.5043 71.1075 35.5498 70.9958 35.5829C70.8841 35.616 70.7641 35.6325 70.6338 35.6325C70.5118 35.6325 70.3856 35.616 70.2532 35.585C70.1229 35.5519 69.9864 35.5022 69.8457 35.434C69.8064 35.4174 69.7692 35.4009 69.7361 35.3864C69.7051 35.3719 69.674 35.3574 69.643 35.343C69.612 35.3285 69.5851 35.3161 69.5665 35.3057C69.3969 35.3574 69.2004 35.3967 68.9728 35.4236C68.7474 35.4505 68.5012 35.4629 68.2406 35.4629H67.8435V34.9541H68.2468C68.3626 34.9541 68.4847 34.952 68.6088 34.9479C68.7329 34.9438 68.8446 34.9355 68.9418 34.9231C68.8115 34.8093 68.7184 34.6852 68.6584 34.5508C68.5984 34.4142 68.5695 34.2612 68.5695 34.0854C68.5695 33.9488 68.5943 33.8227 68.644 33.7068C68.6936 33.591 68.7639 33.4917 68.8529 33.4069C68.9418 33.3221 69.0473 33.2559 69.1673 33.2083C69.2893 33.1608 69.4217 33.1359 69.5644 33.1359C69.672 33.1359 69.7713 33.1504 69.8602 33.1814C69.9491 33.2125 70.0319 33.2538 70.1063 33.3035C70.1808 33.3552 70.2449 33.4131 70.2987 33.4814C70.3525 33.5496 70.4001 33.6179 70.4373 33.6923C70.4745 33.7647 70.5035 33.8392 70.5221 33.9137C70.5407 33.9881 70.5511 34.0585 70.5511 34.1226C70.5511 34.3067 70.5159 34.4742 70.4476 34.6231C70.3794 34.7721 70.276 34.9024 70.1415 35.0162C70.216 35.0472 70.2966 35.072 70.3835 35.0906C70.4683 35.1113 70.5531 35.1196 70.6379 35.1196C70.6917 35.1196 70.7455 35.1154 70.7993 35.1092C70.8531 35.103 70.9027 35.0885 70.9503 35.0658C70.9978 35.0451 71.0413 35.0141 71.0806 34.9789C71.1199 34.9417 71.155 34.8941 71.184 34.8341C71.2068 34.7866 71.2192 34.7328 71.2192 34.6749C71.2192 34.648 71.213 34.6045 71.2026 34.5445C71.1902 34.4846 71.1571 34.406 71.0992 34.3046C71.0413 34.2033 70.9689 34.0998 70.8799 33.9902C70.791 33.8806 70.6959 33.7709 70.5883 33.6572C70.4828 33.5434 70.3711 33.4317 70.2573 33.318C70.1415 33.2042 70.0298 33.0925 69.9202 32.9808L70.2863 32.6271ZM69.5996 34.7659C69.6658 34.7369 69.7278 34.7017 69.7837 34.6583C69.8395 34.6149 69.8892 34.5652 69.9326 34.5115C69.974 34.4577 70.0071 34.3977 70.0319 34.3315C70.0567 34.2653 70.067 34.197 70.067 34.1205C70.067 34.0316 70.0484 33.955 70.0112 33.893C69.974 33.8309 69.9285 33.7813 69.8767 33.742C69.825 33.7027 69.7713 33.6758 69.7133 33.6593C69.6575 33.6427 69.6078 33.6344 69.5685 33.6344C69.4941 33.6344 69.4279 33.6448 69.3658 33.6675C69.3038 33.6903 69.25 33.7213 69.2045 33.7606C69.159 33.7999 69.1218 33.8475 69.0969 33.9033C69.07 33.9592 69.0576 34.0192 69.0576 34.0833C69.0576 34.1598 69.068 34.2301 69.0887 34.2922C69.1094 34.3542 69.1424 34.4122 69.1859 34.4639C69.2293 34.5177 69.2852 34.5673 69.3534 34.6169C69.4196 34.6666 69.5024 34.7162 69.5996 34.7659ZM74.3239 35.5022C74.2329 35.5022 74.1398 35.4981 74.0467 35.4898C73.9537 35.4816 73.8626 35.4691 73.7737 35.4526C73.6848 35.436 73.6 35.4133 73.5172 35.3843C73.4345 35.3574 73.3621 35.3223 73.2959 35.283L73.0725 35.1568L73.3248 34.7121L73.5482 34.8383C73.6103 34.8734 73.6889 34.9024 73.7799 34.9251C73.8709 34.9479 73.9681 34.9624 74.0716 34.9727C74.1605 34.981 74.2474 34.9872 74.3363 34.9872C74.3529 34.9872 74.3901 34.9872 74.4501 34.9851C74.5101 34.9851 74.5825 34.9769 74.6714 34.9644C74.7748 34.9479 74.8617 34.9251 74.9279 34.8962C74.9962 34.8672 75.0375 34.8321 75.0561 34.7948C75.0623 34.7762 75.0665 34.7576 75.0665 34.7348C75.0665 34.7038 75.0582 34.6624 75.0396 34.6066C75.021 34.5528 74.9837 34.4804 74.9258 34.3956L73.9495 32.9208L74.3798 32.6395C74.4025 32.6747 74.4273 32.7119 74.4522 32.7512C74.477 32.7905 74.5059 32.8339 74.5411 32.8857C74.5742 32.9374 74.6156 32.9973 74.659 33.0656C74.7045 33.1339 74.7583 33.2187 74.8224 33.3159C74.8865 33.4131 74.9631 33.5269 75.0479 33.6551C75.1347 33.7854 75.234 33.9364 75.3499 34.1081C75.3954 34.1764 75.4347 34.2488 75.4719 34.3232C75.5071 34.3977 75.534 34.4722 75.5526 34.5487C75.5691 34.6169 75.5774 34.6852 75.5774 34.7535C75.5774 34.7597 75.5774 34.7845 75.5753 34.8279C75.5732 34.8693 75.5546 34.9272 75.5215 35.0017C75.4078 35.254 75.1472 35.4112 74.7397 35.4712C74.6776 35.4795 74.6094 35.4878 74.5411 35.4919C74.4728 35.4981 74.3984 35.5022 74.3239 35.5022ZM75.021 36.9564V36.4475H75.3933C75.5774 36.4475 75.7387 36.4248 75.8752 36.3813C76.0118 36.3379 76.1235 36.2696 76.2124 36.1786C76.3013 36.0876 76.3675 35.9697 76.4089 35.8291C76.4503 35.6863 76.473 35.5188 76.473 35.3223V33.6406H76.9819V35.3223C76.9819 35.5788 76.9488 35.8084 76.8805 36.0111C76.8122 36.2138 76.713 36.3834 76.5806 36.5241C76.4482 36.6647 76.2827 36.7723 76.0842 36.8467C75.8856 36.9212 75.656 36.9584 75.3954 36.9584H75.021V36.9564ZM77.6624 36.4392C77.9333 36.4392 78.1609 36.4186 78.347 36.3772C78.5311 36.3358 78.678 36.2717 78.7856 36.1848C78.8786 36.1104 78.9469 36.0131 78.9924 35.8973C79.0358 35.7815 79.0586 35.6346 79.0586 35.4609H78.5622C78.436 35.4609 78.3098 35.4423 78.1795 35.405C78.0492 35.3678 77.9334 35.3057 77.8279 35.2189C77.7224 35.132 77.6376 35.0203 77.5714 34.8796C77.5052 34.741 77.4721 34.5694 77.4721 34.3687C77.4721 34.2508 77.4824 34.1433 77.5031 34.0461C77.5238 33.9509 77.5507 33.864 77.5817 33.7896C77.6127 33.7151 77.6479 33.6489 77.6851 33.5931C77.7224 33.5372 77.7596 33.4896 77.7948 33.4503C77.8941 33.3511 78.0057 33.2745 78.134 33.2207C78.2622 33.167 78.3988 33.1401 78.5435 33.1401C78.6718 33.1401 78.7897 33.1608 78.9014 33.2001C79.0131 33.2394 79.1124 33.2993 79.2013 33.3779C79.4433 33.6034 79.5654 33.9592 79.5654 34.4432V35.4629C79.5654 35.7174 79.5281 35.9387 79.4537 36.1228C79.3792 36.3069 79.2634 36.462 79.1082 36.584C78.951 36.7081 78.7545 36.7992 78.5187 36.8612C78.285 36.9212 77.9995 36.9522 77.6624 36.9522V36.4392ZM78.5435 33.651C78.3657 33.651 78.2271 33.713 78.1278 33.8392C78.0285 33.9654 77.9789 34.1412 77.9789 34.3708C77.9789 34.6025 78.0492 34.7638 78.1898 34.8527C78.2229 34.8734 78.2581 34.892 78.2953 34.9045C78.3305 34.9189 78.3657 34.9272 78.4008 34.9334C78.4339 34.9396 78.4649 34.9438 78.4939 34.9479C78.5208 34.95 78.5456 34.952 78.5622 34.952H79.0586V34.4432C79.0586 34.3129 79.0482 34.2012 79.0296 34.1102C79.0089 34.0192 78.9841 33.9447 78.9552 33.8847C78.9241 33.8247 78.891 33.7792 78.8517 33.7482C78.8124 33.7172 78.7752 33.6944 78.738 33.6799C78.7007 33.6655 78.6635 33.6572 78.6304 33.6551C78.5932 33.651 78.5663 33.651 78.5435 33.651ZM82.0889 31.5867H80.7878C80.674 31.5867 80.5789 31.5908 80.5024 31.6011C80.4258 31.6094 80.3596 31.628 80.3079 31.6549C80.2542 31.6818 80.2128 31.7211 80.1776 31.7708C80.1445 31.8204 80.1156 31.8866 80.0907 31.9693L79.6646 31.8432C79.7474 31.5536 79.8963 31.355 80.1156 31.2474C80.2066 31.1999 80.3079 31.1709 80.4196 31.1564C80.5313 31.1419 80.6534 31.1357 80.7878 31.1357H82.0889V31.5867ZM81.2077 35.4609H80.6989V32.019H81.2077V35.4609ZM83.7291 35.4609H83.6133C83.4416 35.4609 83.2824 35.4278 83.1355 35.3574C83.1355 35.6098 83.1003 35.8332 83.03 36.0318C82.9597 36.2303 82.8583 36.3979 82.7218 36.5344C82.5874 36.6709 82.4219 36.7764 82.2254 36.8488C82.0289 36.9212 81.8034 36.9564 81.5469 36.9564H81.1746V36.4475H81.5469C81.731 36.4475 81.8924 36.4248 82.0289 36.3813C82.1654 36.3379 82.2771 36.2696 82.366 36.1786C82.455 36.0876 82.5212 35.9697 82.5625 35.8291C82.6039 35.6863 82.6267 35.5188 82.6267 35.3223V33.6406H83.1355V34.5321C83.1355 34.6335 83.1562 34.7121 83.1996 34.7679C83.241 34.8238 83.2906 34.8672 83.3465 34.8941C83.4023 34.921 83.4561 34.9376 83.5078 34.9438C83.5595 34.95 83.5947 34.9541 83.6133 34.9541H83.7291V35.4609ZM85.0716 33.2683C85.0757 33.2787 85.0819 33.3076 85.0923 33.3552C85.1026 33.4028 85.115 33.4607 85.1295 33.5289C85.144 33.5972 85.1584 33.6737 85.1729 33.7585C85.1895 33.8413 85.2039 33.9261 85.2164 34.0109C85.2288 34.0957 85.2391 34.1784 85.2495 34.257C85.2577 34.3356 85.2639 34.406 85.2639 34.4639C85.2639 34.6356 85.235 34.7845 85.1791 34.9107C85.1233 35.0348 85.0488 35.1382 84.9578 35.2209C84.8668 35.3037 84.7654 35.3637 84.6517 35.403C84.5379 35.4423 84.4241 35.4629 84.3104 35.4629H83.6237V34.9541H84.3104C84.3373 34.9541 84.3745 34.95 84.4241 34.9417C84.4738 34.9334 84.5234 34.9127 84.5731 34.8817C84.6227 34.8486 84.6661 34.801 84.7034 34.7369C84.7406 34.6728 84.7592 34.5818 84.7592 34.468C84.7592 34.4287 84.7551 34.3791 84.7489 34.3191C84.7427 34.2591 84.7344 34.195 84.7241 34.1247C84.7137 34.0564 84.7034 33.984 84.691 33.9116C84.6786 33.8392 84.6662 33.7709 84.6537 33.7048C84.6413 33.6406 84.6289 33.5827 84.6186 33.5331C84.6082 33.4834 84.5979 33.4441 84.5917 33.4193L85.0716 33.2683ZM84.1387 36.4392L84.5979 35.9759L85.0674 36.4455L84.6041 36.9088L84.1387 36.4392ZM86.3954 36.9564V36.4475H86.7677C86.9518 36.4475 87.1131 36.4248 87.2496 36.3813C87.3862 36.3379 87.4979 36.2696 87.5868 36.1786C87.6757 36.0876 87.7419 35.9697 87.7833 35.8291C87.8247 35.6863 87.8474 35.5188 87.8474 35.3223V33.6406H88.3563V35.3223C88.3563 35.5788 88.3232 35.8084 88.2549 36.0111C88.1867 36.2138 88.0874 36.3834 87.955 36.5241C87.8226 36.6647 87.6571 36.7723 87.4586 36.8467C87.26 36.9212 87.0304 36.9584 86.7698 36.9584H86.3954V36.9564ZM89.4298 35.4588H88.921V31.6156H89.4298V35.4588ZM91.6099 35.4609H91.4941C91.3224 35.4609 91.1631 35.4278 91.0163 35.3574C91.0163 35.6098 90.9811 35.8332 90.9108 36.0318C90.8405 36.2303 90.7391 36.3979 90.6026 36.5344C90.4681 36.6709 90.3027 36.7764 90.1062 36.8488C89.9097 36.9212 89.6842 36.9564 89.4277 36.9564H89.0554V36.4475H89.4277C89.6118 36.4475 89.7732 36.4248 89.9097 36.3813C90.0462 36.3379 90.1579 36.2696 90.2468 36.1786C90.3358 36.0876 90.402 35.9697 90.4433 35.8291C90.4847 35.6863 90.5074 35.5188 90.5074 35.3223V33.6406H91.0163V34.5321C91.0163 34.6335 91.037 34.7121 91.0804 34.7679C91.1218 34.8238 91.1714 34.8672 91.2273 34.8941C91.2831 34.921 91.3369 34.9376 91.3886 34.9438C91.4403 34.95 91.4755 34.9541 91.4941 34.9541H91.6099V35.4609ZM90.2758 32.5485L90.7329 32.0852L91.2024 32.5547L90.7391 33.018L90.2758 32.5485ZM91.4962 35.4609V34.952H92.6938C92.8944 34.952 93.0578 34.9376 93.1799 34.9086C93.3019 34.8796 93.3991 34.8445 93.4674 34.801C93.5357 34.7576 93.5812 34.71 93.606 34.6604C93.6308 34.6087 93.6453 34.5611 93.6494 34.5135H93.2399C93.1923 34.5135 93.1406 34.5115 93.0827 34.5073C93.0248 34.5032 92.9648 34.497 92.9027 34.4866C92.8407 34.4763 92.7786 34.4618 92.7145 34.4411C92.6524 34.4204 92.5904 34.3956 92.5304 34.3625C92.4828 34.3336 92.4332 34.2984 92.3815 34.255C92.3318 34.2115 92.2863 34.1577 92.2449 34.0936C92.2036 34.0295 92.1705 33.955 92.1457 33.8682C92.1188 33.7813 92.1064 33.6799 92.1064 33.562C92.1064 33.4172 92.1312 33.2787 92.1808 33.1483C92.2305 33.018 92.3029 32.9063 92.3959 32.8133C92.489 32.7202 92.5966 32.6498 92.7165 32.6002C92.8365 32.5526 92.9648 32.5278 93.1013 32.5278C93.2585 32.5278 93.4012 32.5609 93.5315 32.6271C93.6618 32.6933 93.7735 32.7884 93.8625 32.9125C93.9597 33.0429 94.0321 33.2021 94.0776 33.3924C94.1252 33.5827 94.1479 33.802 94.1479 34.0481V34.4204C94.1479 34.5983 94.1128 34.7555 94.0424 34.8941C93.9721 35.0327 93.8645 35.1444 93.7197 35.2313C93.4798 35.3843 93.1364 35.4609 92.6855 35.4609H91.4962ZM93.4633 33.2104C93.3764 33.0946 93.2585 33.0387 93.1075 33.0387C93.0475 33.0387 92.9875 33.0491 92.9255 33.0697C92.8634 33.0904 92.8076 33.1215 92.7579 33.1649C92.7083 33.2063 92.669 33.2621 92.6359 33.3283C92.6049 33.3945 92.5883 33.4731 92.5883 33.5662C92.5883 33.6262 92.5945 33.6758 92.6069 33.7151C92.6193 33.7544 92.6359 33.7896 92.6545 33.8144C92.6752 33.8413 92.6959 33.862 92.7165 33.8785C92.7372 33.8951 92.7579 33.9075 92.7786 33.9199C92.8303 33.9509 92.8944 33.9716 92.971 33.9861C93.0454 34.0005 93.1344 34.0067 93.2378 34.0067H93.6536C93.6494 33.8289 93.6308 33.6737 93.5977 33.5413C93.5667 33.4048 93.5212 33.2952 93.4633 33.2104ZM92.6959 31.4501L93.153 30.9868L93.6225 31.4564L93.1592 31.9197L92.6959 31.4501ZM95.1594 35.4588H94.6505V31.6156H95.1594V35.4588ZM97.4533 37.2397H96.9465V34.4473L97.4368 34.1619C97.4885 34.1908 97.5422 34.2198 97.5981 34.2508C97.6457 34.2756 97.6953 34.3046 97.7512 34.3336C97.8049 34.3646 97.8587 34.3915 97.9125 34.4163C97.9394 34.255 97.9704 34.1081 98.0056 33.9778C98.0407 33.8475 98.0842 33.7296 98.1359 33.6262C98.3096 33.2766 98.5847 33.1008 98.9612 33.1008C99.1246 33.1008 99.2735 33.1339 99.41 33.2021C99.5466 33.2704 99.6603 33.3676 99.7534 33.4979C99.832 33.6055 99.892 33.7296 99.9334 33.8702C99.9747 34.0109 99.9934 34.1598 99.9934 34.317C99.9934 34.4908 99.9789 34.6418 99.9499 34.7679C99.921 34.8941 99.8817 34.9996 99.8341 35.0865C99.7865 35.1734 99.7327 35.2416 99.6727 35.2933C99.6128 35.345 99.5528 35.3843 99.4907 35.4112C99.4287 35.4381 99.3708 35.4567 99.3128 35.4671C99.2549 35.4753 99.2053 35.4816 99.1639 35.4816C99.1329 35.4816 99.0936 35.4774 99.046 35.4671C98.9984 35.4588 98.9322 35.4402 98.8495 35.4112C98.7668 35.3823 98.6633 35.3409 98.5372 35.2871C98.411 35.2333 98.2559 35.1609 98.0718 35.0679C97.9477 35.0058 97.8318 34.9479 97.7222 34.892C97.6126 34.8362 97.5257 34.7886 97.4574 34.7514V37.2397H97.4533ZM98.3882 34.6583C98.5413 34.7328 98.6675 34.7928 98.7647 34.8341C98.864 34.8755 98.9426 34.9065 98.9984 34.9272C99.0563 34.9479 99.0956 34.9603 99.1205 34.9644C99.1432 34.9686 99.1577 34.9706 99.1618 34.9706C99.1825 34.9706 99.2094 34.9665 99.2466 34.9603C99.2839 34.9541 99.319 34.9293 99.3542 34.8879C99.3894 34.8465 99.4204 34.7824 99.4452 34.6955C99.4721 34.6066 99.4845 34.4825 99.4845 34.3191C99.4845 34.2984 99.4824 34.2674 99.4804 34.2239C99.4783 34.1805 99.47 34.1329 99.4597 34.0812C99.4473 34.0295 99.4307 33.9757 99.408 33.9199C99.3852 33.864 99.3542 33.8144 99.317 33.7668C99.2777 33.7213 99.2301 33.6841 99.1722 33.653C99.1143 33.6241 99.0439 33.6075 98.9612 33.6075C98.8909 33.6075 98.8288 33.6199 98.773 33.6448C98.7171 33.6696 98.6675 33.7192 98.6199 33.7958C98.5744 33.8702 98.533 33.9778 98.4958 34.1143C98.4586 34.255 98.4234 34.4349 98.3882 34.6583ZM102.07 35.4609H101.954C101.783 35.4609 101.623 35.4278 101.476 35.3574C101.476 35.6098 101.441 35.8332 101.371 36.0318C101.301 36.2303 101.199 36.3979 101.063 36.5344C100.928 36.6709 100.763 36.7764 100.566 36.8488C100.37 36.9212 100.144 36.9564 99.8879 36.9564H99.5155V36.4475H99.8879C100.072 36.4475 100.233 36.4248 100.37 36.3813C100.506 36.3379 100.618 36.2696 100.707 36.1786C100.796 36.0876 100.862 35.9697 100.903 35.8291C100.945 35.6863 100.968 35.5188 100.968 35.3223V33.6406H101.476V34.5321C101.476 34.6335 101.497 34.7121 101.541 34.7679C101.582 34.8238 101.632 34.8672 101.687 34.8941C101.743 34.921 101.797 34.9376 101.849 34.9438C101.9 34.95 101.936 34.9541 101.954 34.9541H102.07V35.4609ZM103.413 33.2683C103.417 33.2787 103.423 33.3076 103.433 33.3552C103.444 33.4028 103.456 33.4607 103.47 33.5289C103.485 33.5972 103.499 33.6737 103.514 33.7585C103.53 33.8413 103.545 33.9261 103.557 34.0109C103.57 34.0957 103.58 34.1784 103.59 34.257C103.599 34.3356 103.605 34.406 103.605 34.4639C103.605 34.6356 103.576 34.7845 103.52 34.9107C103.464 35.0348 103.39 35.1382 103.299 35.2209C103.208 35.3037 103.106 35.3637 102.993 35.403C102.879 35.4423 102.765 35.4629 102.651 35.4629H101.963V34.9541H102.649C102.676 34.9541 102.713 34.95 102.763 34.9417C102.813 34.9334 102.862 34.9127 102.912 34.8817C102.962 34.8486 103.005 34.801 103.042 34.7369C103.079 34.6728 103.098 34.5818 103.098 34.468C103.098 34.4287 103.094 34.3791 103.088 34.3191C103.082 34.2591 103.073 34.195 103.063 34.1247C103.053 34.0564 103.042 33.984 103.03 33.9116C103.017 33.8392 103.005 33.7709 102.993 33.7048C102.98 33.6406 102.968 33.5827 102.957 33.5331C102.947 33.4834 102.937 33.4441 102.931 33.4193L103.413 33.2683ZM102.523 32.1555L102.98 31.6922L103.45 32.1617L102.986 32.625L102.523 32.1555Z" fill="#F47920"/>
</svg>
