<svg width="156" height="38" viewBox="0 0 156 38" fill="none" xmlns="http://www.w3.org/2000/svg">
<path d="M134.735 22.0696V26.6394C134.735 30.5028 133.163 34.2989 130.454 37.4425H126.434C129.565 34.7532 131.892 31.011 131.892 26.6394V22.0696C131.892 19.7186 129.975 17.8004 127.623 17.8004C125.277 17.8004 123.36 19.7173 123.36 22.0696V25.6054C123.36 28.2597 121.764 30.8466 119.382 32.045L109.147 37.1958V34.0104L118.106 29.5066C119.551 28.7814 120.519 27.215 120.519 25.6068V22.0709C120.519 18.1468 123.704 14.9614 127.621 14.9614C131.548 14.9601 134.735 18.1455 134.735 22.0696Z" fill="#FFC20E"/>
<path d="M129.046 22.0696V26.0962C129.046 30.7213 126.307 34.8139 121.538 37.3226C121.46 37.3643 121.381 37.4007 121.296 37.4425H114.978C117.004 36.4153 118.902 35.4596 120.238 34.795C124.022 32.7999 126.205 29.6267 126.205 26.0948V22.0683C126.205 21.2878 126.845 20.6475 127.625 20.6475C128.411 20.6488 129.046 21.2891 129.046 22.0696Z" fill="#FFC20E"/>
<path d="M140.441 37.4424H134.027L135.641 35.2114C135.913 34.8366 136.336 34.6007 136.796 34.5643C137.261 34.5279 137.715 34.691 138.048 35.024L140.441 37.4424Z" fill="#FFC20E"/>
<path d="M111.977 13.86L127.069 3.50181C127.4 3.27399 127.848 3.27399 128.181 3.50181L143.258 13.8358V28.0453C143.258 28.3594 143.382 28.6587 143.602 28.8811L146.1 31.4046V13.8344C146.1 12.9083 145.644 12.0416 144.88 11.5172L129.789 1.15894C128.495 0.270588 126.756 0.270588 125.46 1.15894L110.371 11.5185C109.606 12.0429 109.151 12.9083 109.151 13.8344V30.8277L111.991 29.3988L111.977 13.86Z" fill="#FFC20E"/>
<path d="M146.1 35.0847V37.4424H144.438L139.71 32.6663C138.338 31.2752 137.582 29.4378 137.582 27.4859V17.4862C137.582 17.0696 137.377 16.676 137.027 16.4401L130.352 11.8514C128.727 10.7393 126.544 10.7393 124.919 11.8514L118.238 16.4401C117.894 16.676 117.688 17.0683 117.688 17.4862V25.1282C117.688 25.9922 117.198 26.7781 116.423 27.1718L114.845 27.9644V17.4875C114.845 16.1328 115.511 14.8643 116.63 14.0959L123.309 9.51396C125.897 7.73591 129.372 7.73591 131.961 9.51396L138.635 14.0959C139.752 14.8643 140.425 16.1328 140.425 17.4875V27.4872C140.425 28.6843 140.89 29.8139 141.73 30.6672L146.1 35.0847Z" fill="#FFC20E"/>
<path d="M16.7718 9.20898H10.2339V13.5672H16.7718C17.9743 13.5672 18.9502 14.5431 18.9502 15.7469C18.9502 16.9507 17.9743 17.9253 16.7718 17.9253H10.2339V22.2835H16.7718C20.3818 22.2835 23.3084 19.3569 23.3084 15.7469C23.3084 12.1369 20.3818 9.20898 16.7718 9.20898Z" fill="#636466"/>
<path d="M36.383 15.747C36.383 16.9507 35.407 17.9254 34.2032 17.9254C33.0008 17.9254 32.0248 16.9494 32.0248 15.747V9.20902V0.492676H27.6653V10.1675V15.747C27.6653 19.3583 30.5918 22.2835 34.2019 22.2835C37.8132 22.2835 40.7398 19.357 40.7398 15.747V9.20902H36.3816V15.747H36.383Z" fill="#636466"/>
<path d="M101.757 15.747V9.21045H97.3987V15.747C97.3987 16.9508 96.4227 17.9268 95.2189 17.9268H92.6603C92.9016 17.2447 93.0405 16.5127 93.0405 15.747V14.1955V12.4794V9.21045H88.6823V12.4794V14.1955V15.747C88.6823 16.9508 87.7063 17.9268 86.5026 17.9268H83.944C84.1853 17.2447 84.3241 16.5127 84.3241 15.747V14.1955V12.4794V9.21045H79.966V12.4794V14.1955V15.747C79.966 16.9508 78.99 17.9268 77.7862 17.9268H75.2277C75.469 17.2447 75.6078 16.5127 75.6078 15.747V14.1955V13.0321V12.4794V9.21045H71.2496V12.4794V13.0321V14.1955V15.747C71.2496 16.9508 70.2737 17.9268 69.0699 17.9268H68.1249H66.51C66.7513 17.2447 66.8901 16.5127 66.8901 15.747V14.1955V12.4794V9.21045H62.5319V12.4794V14.1955V15.747C62.5319 16.9508 61.556 17.9268 60.3522 17.9268H57.7936C58.0349 17.2447 58.1738 16.5127 58.1738 15.747C58.1738 12.1357 55.2472 9.21045 51.6358 9.21045H45.0992V13.5686H51.6358C52.8396 13.5686 53.8156 14.5446 53.8156 15.747C53.8156 16.9508 52.8396 17.9268 51.6358 17.9268H47.4286H45.0979V22.285H47.4286H51.6358H67.1611H68.1236H69.0685H95.2189C98.8303 22.2836 101.757 19.3584 101.757 15.747Z" fill="#636466"/>
<path d="M66.8914 2.67109C66.8914 1.46865 65.9154 0.492676 64.713 0.492676H62.5332V4.85085H66.8914V2.67109Z" fill="#636466"/>
<path d="M71.2497 24.4631H69.07H64.7131V28.8213H69.0713H73.4308V26.6415C73.4295 25.4391 72.4535 24.4631 71.2497 24.4631Z" fill="#636466"/>
<path d="M32.0598 26.6429C32.0598 27.8467 33.0358 28.8213 34.2382 28.8213H36.418V24.4631H32.0598V26.6429Z" fill="#636466"/>
<path d="M44.5101 37.4247C44.2122 37.4247 43.9426 37.36 43.6999 37.2306C43.4573 37.1011 43.2618 36.9151 43.1122 36.6752C43.0084 36.5121 42.9342 36.3301 42.8897 36.1306C42.8533 35.9769 42.8345 35.8151 42.8345 35.6466C42.8345 35.5967 42.8385 35.5024 42.848 35.3622C42.856 35.2233 42.8965 35.0292 42.9679 34.7798C43.0394 34.5305 43.1378 34.2743 43.2645 34.0088L43.7552 34.242C43.6473 34.4644 43.5624 34.6787 43.5004 34.8836C43.4384 35.0885 43.3993 35.2827 43.3831 35.4646C43.3777 35.5266 43.375 35.586 43.375 35.6439C43.375 35.7599 43.3885 35.8812 43.4141 36.0119C43.4397 36.1414 43.4923 36.2681 43.5718 36.3907C43.6716 36.5458 43.8024 36.6671 43.9641 36.752C44.1259 36.8369 44.3079 36.8801 44.5114 36.8801H45.1895C45.4106 36.8801 45.5912 36.8572 45.73 36.81C45.8689 36.7628 45.9781 36.6967 46.0563 36.6118C46.1344 36.5269 46.187 36.4244 46.2153 36.3045C46.2436 36.1845 46.2571 36.051 46.2571 35.9054V33.878H46.8017V35.9054C46.8017 36.4123 46.6669 36.7924 46.3987 37.0459C46.1291 37.298 45.7273 37.4247 45.1908 37.4247H44.5101ZM44.5343 33.6502L45.025 33.1541L45.5265 33.6556L45.0304 34.1517L44.5343 33.6502ZM48.8642 35.8273C48.662 35.8259 48.4962 35.8111 48.3641 35.7855C48.232 35.7599 48.1214 35.7221 48.0298 35.6736C47.9381 35.6251 47.8653 35.563 47.81 35.4889C47.7548 35.4148 47.713 35.3285 47.682 35.2287C47.651 35.1303 47.6308 35.0184 47.6213 34.8958C47.6119 34.7731 47.6065 34.637 47.6065 34.486V31.7117H48.1511V34.486C48.1511 34.6531 48.1565 34.7893 48.1673 34.8931C48.1781 34.9969 48.2064 35.0778 48.2508 35.1344C48.2953 35.191 48.3641 35.2301 48.4557 35.2503C48.5474 35.2705 48.6836 35.2813 48.8642 35.284V35.8273ZM52.1372 35.8273C51.9984 35.8273 51.869 35.807 51.7476 35.7666C51.6263 35.7262 51.5171 35.6682 51.4187 35.5941C51.3661 35.6749 51.3095 35.7396 51.2475 35.7882C51.1855 35.8367 51.1221 35.8744 51.0601 35.9001C50.9981 35.9257 50.9375 35.9432 50.8795 35.9513C50.8215 35.9594 50.7717 35.9648 50.7299 35.9648C50.6355 35.9648 50.5452 35.9553 50.4589 35.9364C50.3726 35.9176 50.2837 35.8893 50.1934 35.8542C50.103 35.8192 50.0087 35.7747 49.9089 35.7235C49.8105 35.6722 49.7013 35.6129 49.5814 35.5482C49.4236 35.7342 49.2214 35.8273 48.9734 35.8273H48.7483V35.2827H48.9734C49.0462 35.2827 49.1068 35.2557 49.154 35.2018C49.2012 35.1479 49.2416 35.0778 49.2767 34.9915C49.3117 34.9052 49.3427 34.8055 49.3724 34.6949C49.4007 34.583 49.4344 34.4685 49.4722 34.3512C49.5099 34.2339 49.5544 34.1193 49.6056 34.0074C49.6568 33.8955 49.7229 33.7971 49.8024 33.7109C49.882 33.6246 49.979 33.5545 50.0936 33.5006C50.2082 33.4466 50.347 33.4197 50.5101 33.4197C50.6989 33.4197 50.862 33.4561 51.0022 33.5275C51.141 33.599 51.2569 33.696 51.35 33.8174C51.4416 33.9387 51.5104 34.0775 51.5562 34.2352C51.6007 34.393 51.6236 34.5561 51.6236 34.7259C51.6236 34.8526 51.6465 34.9537 51.691 35.0279C51.7355 35.102 51.7881 35.1573 51.8474 35.195C51.9053 35.2328 51.9633 35.257 52.0199 35.2665C52.0765 35.2773 52.1156 35.2827 52.1372 35.2827H52.2383V35.8273H52.1372ZM50.7299 35.4215C50.7447 35.4215 50.7649 35.4202 50.7878 35.4188C50.8107 35.4175 50.8364 35.4094 50.8647 35.3959C50.893 35.3824 50.9199 35.3622 50.9482 35.3339C50.9766 35.3056 51.0008 35.2665 51.0237 35.2153C51.0453 35.164 51.0642 35.0993 51.079 35.0198C51.0938 34.9403 51.1006 34.8419 51.1006 34.7273C51.1006 34.7057 51.0992 34.672 51.0952 34.6262C51.0911 34.5803 51.0831 34.5291 51.0696 34.4725C51.0561 34.4159 51.0359 34.3579 51.0103 34.2986C50.9846 34.2393 50.9496 34.184 50.9051 34.1341C50.8606 34.0843 50.8067 34.0438 50.7433 34.0115C50.68 33.9791 50.6032 33.9643 50.5128 33.9643C50.4279 33.9643 50.3565 33.9791 50.2985 34.0088C50.2392 34.0384 50.1907 34.0789 50.1502 34.1314C50.1098 34.1827 50.0761 34.2447 50.0491 34.3148C50.0222 34.3849 49.9979 34.4604 49.9736 34.5426C49.9507 34.6248 49.9278 34.7097 49.9049 34.7987C49.882 34.8877 49.855 34.9767 49.824 35.0656C49.9237 35.1155 50.0168 35.1627 50.1003 35.2072C50.1853 35.2517 50.2635 35.2894 50.3362 35.3204C50.409 35.3528 50.4778 35.377 50.5425 35.3959C50.6059 35.4121 50.6679 35.4215 50.7299 35.4215ZM55.2727 35.2827V35.8273H54.7686C54.5933 35.8273 54.4396 35.8016 54.3062 35.7518C54.1727 35.7019 54.0649 35.6264 53.9854 35.5267C53.7858 35.7262 53.4893 35.8259 53.097 35.8259H52.117V35.2813H53.097C53.2359 35.2813 53.345 35.2678 53.4259 35.2395C53.5068 35.2112 53.5675 35.1775 53.6093 35.1357C53.651 35.0939 53.678 35.0481 53.6901 34.9969C53.7023 34.9457 53.709 34.8971 53.709 34.8513V33.8767H54.2509V34.8311C54.2509 34.9025 54.2617 34.9632 54.2846 35.0131C54.3062 35.0629 54.3345 35.1047 54.3668 35.1384C54.3992 35.1721 54.4369 35.1991 54.4774 35.218C54.5192 35.2368 54.5583 35.2517 54.5974 35.2611C54.6365 35.2705 54.6702 35.2759 54.7012 35.2786C54.7322 35.28 54.7551 35.2813 54.7699 35.2813H55.2727V35.2827ZM53.2332 33.1689L52.7775 32.7079L53.2278 32.2415L53.6942 32.7079L53.2332 33.1689ZM54.3385 33.1743L53.8829 32.7133L54.3331 32.2469L54.7996 32.7133L54.3385 33.1743ZM59.0364 34.6747C59.0243 34.6828 58.9744 34.7165 58.8868 34.7758C58.7978 34.8351 58.6805 34.9079 58.5336 34.9928C58.3867 35.0778 58.2155 35.1708 58.0187 35.2678C57.8232 35.3662 57.6115 35.4566 57.3864 35.5388C57.16 35.621 56.9241 35.6898 56.6787 35.745C56.432 35.8003 56.1867 35.8273 55.94 35.8273H55.1501V35.2827H55.94C56.1557 35.2827 56.3727 35.257 56.5924 35.2058C56.8122 35.1546 57.0238 35.0912 57.2287 35.0157C57.4323 34.9403 57.6237 34.8567 57.803 34.7677C57.9823 34.6787 58.1386 34.5938 58.2734 34.5156C58.0874 34.4401 57.9014 34.3673 57.7153 34.2959C57.5293 34.2245 57.3608 34.1624 57.2058 34.1072C57.0521 34.0519 56.92 34.0074 56.8095 33.9737C56.6989 33.9387 56.6248 33.9185 56.5884 33.9131C56.556 33.9131 56.521 33.9158 56.4859 33.9212C56.4509 33.9265 56.4158 33.9441 56.3808 33.9724C56.3458 34.0007 56.3121 34.0465 56.2797 34.1058C56.2473 34.1665 56.2163 34.2514 56.188 34.3606L55.661 34.2218C55.8092 33.6529 56.1206 33.3685 56.5951 33.3685C56.6073 33.3685 56.6221 33.3685 56.641 33.3698C56.6598 33.3712 56.6881 33.3752 56.7245 33.3846C56.7609 33.3927 56.8095 33.4062 56.8715 33.4251C56.9335 33.444 57.0117 33.4682 57.106 33.5019C57.2017 33.5343 57.3163 33.5761 57.4538 33.6273C57.59 33.6785 57.7531 33.7405 57.9445 33.816L58.965 34.1935L59.0364 34.6747ZM55.9737 32.1916L56.4644 31.6956L56.9658 32.197L56.4698 32.6931L55.9737 32.1916ZM60.9452 35.8273C60.743 35.8259 60.5772 35.8111 60.4451 35.7855C60.313 35.7599 60.2025 35.7221 60.1108 35.6736C60.0191 35.6251 59.9463 35.563 59.8911 35.4889C59.8358 35.4148 59.794 35.3285 59.763 35.2287C59.732 35.1303 59.7118 35.0184 59.7023 34.8958C59.6929 34.7731 59.6875 34.637 59.6875 34.486V31.7117H60.2321V34.486C60.2321 34.6531 60.2375 34.7893 60.2483 34.8931C60.2591 34.9969 60.2874 35.0778 60.3319 35.1344C60.3764 35.191 60.4451 35.2301 60.5368 35.2503C60.6284 35.2705 60.7646 35.2813 60.9452 35.284V35.8273ZM63.0778 35.8219C62.8972 35.8219 62.7367 35.7949 62.5966 35.7423C62.4564 35.6898 62.3377 35.6129 62.242 35.5132C62.1423 35.621 62.0263 35.7005 61.8929 35.7504C61.7608 35.8016 61.626 35.8273 61.4925 35.8273H60.8293V35.2827H61.4925C61.5208 35.2827 61.5626 35.2786 61.6165 35.2692C61.6705 35.2611 61.723 35.2382 61.7756 35.2031C61.8282 35.1681 61.8727 35.1142 61.9131 35.0427C61.9522 34.9713 61.9724 34.8742 61.9724 34.7515V33.878H62.517V34.7407C62.517 34.9268 62.5602 35.0643 62.6478 35.1506C62.7354 35.2368 62.8783 35.28 63.0791 35.28C63.1075 35.28 63.1492 35.2746 63.2018 35.2638C63.2544 35.253 63.307 35.2301 63.3609 35.1937C63.4135 35.1573 63.4593 35.1034 63.4997 35.0319C63.5388 34.9605 63.559 34.8634 63.559 34.7407V33.878H64.101V34.7407C64.101 34.9268 64.1454 35.0643 64.2371 35.1532C64.3274 35.2422 64.473 35.2854 64.6725 35.2854C64.7035 35.2854 64.744 35.2786 64.7965 35.2665C64.8478 35.2544 64.9003 35.2287 64.9502 35.1896C65.0014 35.1506 65.0446 35.0966 65.081 35.0252C65.1174 34.9537 65.1362 34.8594 65.1362 34.7394C65.1362 34.6976 65.1335 34.6437 65.1268 34.5803C65.1201 34.517 65.112 34.4482 65.1012 34.3754C65.0904 34.3026 65.0783 34.2285 65.0648 34.1517C65.0513 34.0762 65.0378 34.0047 65.0243 33.9387C65.0109 33.8726 64.9987 33.8133 64.9866 33.7594C64.9745 33.7068 64.965 33.6677 64.9583 33.6421L65.4746 33.4776C65.4786 33.4898 65.4867 33.5194 65.4975 33.568C65.5096 33.6165 65.5231 33.6772 65.5379 33.75C65.5528 33.8214 65.569 33.9023 65.5851 33.9912C65.6013 34.0802 65.6175 34.1692 65.631 34.2582C65.6458 34.3471 65.6579 34.4334 65.6674 34.517C65.6768 34.6006 65.6822 34.6747 65.6822 34.7381C65.6822 34.92 65.6525 35.0791 65.5932 35.2153C65.5339 35.3514 65.4557 35.4633 65.3614 35.5523C65.2656 35.6412 65.1578 35.7086 65.0365 35.7545C64.9152 35.8003 64.7938 35.8232 64.6739 35.8246C64.4892 35.8246 64.3261 35.7976 64.1845 35.7423C64.043 35.6871 63.923 35.6089 63.826 35.5051C63.7262 35.6102 63.6103 35.6898 63.4782 35.741C63.3434 35.7963 63.2113 35.8219 63.0778 35.8219ZM73.68 35.2827V35.8246H73.5938C73.4536 35.8246 73.3215 35.8043 73.1961 35.7626C73.0707 35.7208 72.9602 35.6615 72.8618 35.5819C72.8496 35.5725 72.8389 35.5617 72.8267 35.5523C72.8146 35.5415 72.8038 35.5307 72.7917 35.5186C72.5881 35.7208 72.2929 35.8219 71.906 35.8246H68.633C68.4969 35.8246 68.3688 35.8016 68.2475 35.7558C68.1275 35.71 68.021 35.6439 67.9293 35.5563C67.8903 35.5213 67.8525 35.4795 67.8134 35.4296C67.7743 35.3797 67.7393 35.3204 67.7083 35.2543C67.6759 35.1869 67.6503 35.1101 67.6301 35.0252C67.6099 34.9403 67.6004 34.8432 67.6004 34.7354C67.6004 34.6397 67.6099 34.5332 67.6301 34.4186C67.6503 34.3026 67.6719 34.1935 67.6961 34.0897C67.7204 33.9859 67.7433 33.8969 67.7649 33.8214C67.7865 33.7459 67.8013 33.7001 67.8067 33.6826L68.3257 33.847C68.3122 33.8874 68.296 33.9441 68.2758 34.0182C68.2556 34.0924 68.2353 34.1719 68.2151 34.2555C68.1949 34.3404 68.1774 34.4253 68.1639 34.5102C68.1491 34.5952 68.1423 34.6707 68.1423 34.734C68.1423 34.8607 68.1626 34.9605 68.203 35.0333C68.2434 35.1061 68.2906 35.1613 68.3459 35.1977C68.4012 35.2341 68.4564 35.257 68.5117 35.2665C68.567 35.2759 68.6101 35.2813 68.6384 35.2813H71.8845C72.0247 35.2813 72.1365 35.2665 72.2201 35.2382C72.3037 35.2099 72.3671 35.1735 72.4102 35.129C72.4533 35.0845 72.4816 35.036 72.4938 34.9834C72.5059 34.9308 72.5126 34.8796 72.5126 34.8324V33.8322H73.0572V34.8176C73.0572 34.9268 73.0802 35.0131 73.1273 35.0751C73.1745 35.1371 73.2284 35.1843 73.2905 35.2153C73.3525 35.2463 73.4118 35.2651 73.4697 35.2719C73.5277 35.2786 73.5681 35.2813 73.5911 35.2813H73.68V35.2827ZM69.7451 33.6138L69.2895 33.1528L69.7397 32.6864L70.2062 33.1528L69.7451 33.6138ZM70.8492 33.6192L70.3935 33.1582L70.8438 32.6918L71.3102 33.1582L70.8492 33.6192ZM76.2076 35.8273C76.1752 35.8273 76.1375 35.8232 76.0957 35.8138C76.0539 35.8057 76.004 35.7882 75.9461 35.7639C75.8881 35.7383 75.822 35.7032 75.7466 35.6574C75.6711 35.6116 75.5834 35.5509 75.4837 35.4754C75.2613 35.5967 74.9998 35.6857 74.7018 35.7423C74.4039 35.799 74.071 35.8273 73.7043 35.8273H73.5371V35.2827H73.7043C73.9806 35.2827 74.2287 35.2665 74.4484 35.2355C74.6681 35.2031 74.8528 35.1586 75.0051 35.098C74.9054 35.0131 74.8056 34.9254 74.7072 34.8351C74.6088 34.7448 74.5172 34.6599 74.4349 34.5803C74.3527 34.5008 74.2813 34.4321 74.2206 34.3727C74.1599 34.3148 74.1195 34.273 74.0979 34.2501V34.1341C74.0979 34.0977 74.0993 34.0573 74.1033 34.0142C74.1074 33.971 74.1154 33.9265 74.1262 33.8807C74.1384 33.8349 74.1545 33.7877 74.1788 33.7405C74.2017 33.6933 74.2327 33.6475 74.2705 33.603C74.4161 33.4399 74.6493 33.3577 74.9687 33.3577H75.9231C76.0822 33.3577 76.2265 33.3968 76.3559 33.475C76.4839 33.5531 76.5783 33.6596 76.639 33.7958C76.6834 33.8848 76.705 33.971 76.7037 34.0573C76.7023 34.1422 76.6861 34.2258 76.6551 34.308C76.6228 34.3903 76.5796 34.4684 76.5257 34.5439C76.4704 34.6194 76.4111 34.6936 76.3451 34.7637C76.2804 34.8338 76.213 34.9012 76.1442 34.9645C76.0755 35.0279 76.0135 35.0872 75.9555 35.1438C75.9973 35.1721 76.0337 35.1964 76.0647 35.2139C76.0957 35.2328 76.1213 35.2463 76.1415 35.2557C76.1617 35.2651 76.1766 35.2719 76.1874 35.2746C76.1981 35.2773 76.2049 35.28 76.2089 35.2813H77.2644V35.8259H76.2076V35.8273ZM74.6479 34.0317C74.6857 34.0681 74.7396 34.1193 74.8097 34.1827C74.8784 34.2474 74.9539 34.3161 75.0361 34.3916C75.1184 34.4671 75.2006 34.5412 75.2842 34.6167C75.3678 34.6922 75.4433 34.7569 75.5107 34.8122C75.6145 34.73 75.7142 34.6423 75.8086 34.5493C75.9043 34.4577 75.9986 34.3498 76.0957 34.2299C76.1173 34.2029 76.1348 34.1719 76.151 34.1341C76.1564 34.1207 76.1591 34.1058 76.1591 34.091C76.1591 34.0681 76.1537 34.0452 76.1415 34.0223C76.1267 33.9939 76.1011 33.967 76.066 33.9414C76.031 33.9158 75.9838 33.9036 75.9218 33.9036H74.9674C74.9121 33.9036 74.8663 33.9063 74.8299 33.9104C74.7948 33.9158 74.7652 33.9212 74.7436 33.9292C74.7221 33.9373 74.7045 33.9441 74.6951 33.9508C74.6843 33.9575 74.6776 33.9643 74.6735 33.9697C74.6681 33.9737 74.6627 33.9805 74.6587 33.9912C74.656 34.0034 74.652 34.0155 74.6479 34.0317ZM79.1665 35.2827V35.8273H78.9414C78.7661 35.8273 78.6125 35.8016 78.479 35.7518C78.3455 35.7019 78.2377 35.6264 78.1582 35.5267C77.9587 35.7262 77.6621 35.8259 77.2698 35.8259H76.7158V35.2813H77.2698C77.4087 35.2813 77.5179 35.2678 77.5987 35.2395C77.6796 35.2112 77.7403 35.1775 77.7821 35.1357C77.8239 35.0939 77.8508 35.0481 77.863 34.9969C77.8751 34.9457 77.8818 34.8971 77.8818 34.8513V33.8767H78.4237V34.8311C78.4237 34.9025 78.4345 34.9632 78.4561 35.0131C78.4777 35.0629 78.5046 35.1047 78.5383 35.1384C78.572 35.1721 78.6098 35.1991 78.6502 35.218C78.692 35.2368 78.7311 35.2517 78.7702 35.2611C78.8093 35.2705 78.843 35.2759 78.874 35.2786C78.905 35.28 78.9279 35.2813 78.9427 35.2813H79.1665V35.2827ZM77.4518 32.5489L77.9425 32.0528L78.444 32.5542L77.9479 33.0503L77.4518 32.5489ZM79.0506 35.8273V35.2827H79.5493C79.6841 35.2827 79.792 35.2692 79.8729 35.2422C79.9537 35.2153 80.0144 35.1816 80.0575 35.1398C80.0993 35.098 80.1276 35.0535 80.1411 35.0023C80.1546 34.9524 80.1613 34.9039 80.1613 34.8553V33.8807H80.7032V34.8324C80.7032 34.9403 80.7262 35.0238 80.7707 35.0831C80.8151 35.1425 80.8677 35.1869 80.9243 35.2153C80.9472 35.1789 80.9702 35.1411 80.9917 35.1047C81.0133 35.067 81.0362 35.0292 81.0591 34.9915C81.1346 34.8688 81.2128 34.7434 81.2937 34.6154C81.3759 34.4873 81.4608 34.3633 81.5512 34.2406C81.6415 34.118 81.7358 34.0034 81.8356 33.8955C81.934 33.7877 82.0392 33.6947 82.151 33.6138C82.2629 33.5343 82.3802 33.4709 82.5056 33.4237C82.6309 33.3765 82.763 33.3536 82.9032 33.3536C83.0434 33.3536 83.1809 33.3792 83.3171 33.4305C83.4532 33.4817 83.5732 33.5599 83.6783 33.6664C83.7835 33.7729 83.8684 33.909 83.9331 34.0748C83.9978 34.2406 84.0302 34.4374 84.0302 34.6653C84.0302 34.8782 83.9951 35.0589 83.925 35.2072C83.8549 35.3555 83.7646 35.4754 83.6527 35.5671C83.5408 35.6588 83.4168 35.7262 83.278 35.7666C83.1391 35.807 83.003 35.8273 82.8682 35.8273H81.2195C81.0807 35.8273 80.9499 35.807 80.8273 35.7653C80.7046 35.7235 80.5954 35.6655 80.501 35.5873C80.4781 35.5698 80.4552 35.5509 80.435 35.5293C80.3352 35.6278 80.2139 35.7005 80.0697 35.7491C79.9268 35.7976 79.7583 35.8232 79.5669 35.8273H79.0506ZM82.8709 35.2827C82.9652 35.2827 83.0502 35.2692 83.127 35.2436C83.2038 35.218 83.2699 35.1789 83.3238 35.1263C83.3777 35.0737 83.4209 35.0104 83.4505 34.9335C83.4802 34.8567 83.495 34.7677 83.495 34.6653C83.495 34.4199 83.4424 34.2298 83.3359 34.0964C83.2308 33.9629 83.0866 33.8955 82.9032 33.8955C82.7684 33.8955 82.639 33.9387 82.5123 34.0249C82.3869 34.1112 82.2656 34.2218 82.1497 34.3566C82.0338 34.4914 81.9219 34.6396 81.8167 34.8041C81.7116 34.9672 81.6105 35.1276 81.5175 35.2827H82.8709ZM90.312 35.2934C90.3834 35.2934 90.4495 35.2813 90.5115 35.2557C90.5735 35.2301 90.6261 35.1964 90.6706 35.1519C90.7528 35.0629 90.7946 34.943 90.7946 34.792V34.7596C90.7932 34.7327 90.7892 34.7003 90.7865 34.6612C90.7825 34.6221 90.7784 34.579 90.7717 34.5291C90.7663 34.4806 90.7595 34.4321 90.7528 34.3808C90.7461 34.3296 90.738 34.2757 90.7285 34.2177C90.7191 34.1597 90.7083 34.0977 90.6962 34.0303C90.684 33.9629 90.6706 33.8874 90.6557 33.8025L91.1828 33.7136C91.2003 33.7958 91.2152 33.8726 91.2286 33.9427C91.2421 34.0128 91.2543 34.0775 91.2637 34.1368C91.2826 34.2582 91.2987 34.3714 91.3109 34.4779C91.323 34.5844 91.3311 34.6693 91.3351 34.7327V34.7906C91.3351 34.8675 91.3284 34.943 91.3149 35.0171C91.3014 35.0912 91.2812 35.1613 91.2543 35.2274C91.2273 35.2934 91.1976 35.3514 91.1639 35.3999C91.1302 35.4485 91.0965 35.4903 91.0615 35.5253C90.9671 35.6251 90.8552 35.7019 90.7245 35.7558C90.5937 35.8097 90.4562 35.8367 90.312 35.8367H86.6966C86.5618 35.8353 86.4337 35.8111 86.3137 35.7666C86.1924 35.7221 86.0859 35.6561 85.9943 35.5684C85.9552 35.5334 85.9174 35.4916 85.8783 35.4417C85.8392 35.3918 85.8042 35.3325 85.7732 35.2665C85.7408 35.1991 85.7166 35.1222 85.6963 35.036C85.6775 34.9497 85.668 34.8526 85.668 34.7448C85.668 34.6491 85.6775 34.5426 85.6963 34.428C85.7152 34.3121 85.7368 34.2042 85.761 34.1004C85.7853 33.998 85.8082 33.9077 85.8298 33.8322C85.8514 33.7567 85.8662 33.7095 85.8716 33.692L86.3906 33.8564C86.3784 33.8969 86.3636 33.9535 86.3434 34.0276C86.3232 34.1018 86.303 34.1813 86.2827 34.2649C86.2625 34.3498 86.245 34.4347 86.2302 34.5197C86.2153 34.6046 86.2086 34.6801 86.2086 34.7434C86.2086 34.8702 86.2288 34.9699 86.2693 35.0427C86.3097 35.1155 86.3569 35.1708 86.4121 35.2072C86.4674 35.2436 86.5213 35.2665 86.5766 35.2759C86.6319 35.2854 86.6737 35.2907 86.702 35.2907H90.312V35.2934ZM87.9543 33.6138L87.4987 33.1528L87.9489 32.6864L88.4153 33.1528L87.9543 33.6138ZM89.0583 33.6192L88.6027 33.1582L89.0529 32.6918L89.5193 33.1582L89.0583 33.6192ZM90.8054 37.4274V36.8828H91.203C91.4012 36.8828 91.5724 36.8598 91.718 36.8127C91.8636 36.7655 91.9835 36.6927 92.0779 36.5956C92.1736 36.4972 92.2437 36.3732 92.2882 36.2209C92.3327 36.0686 92.3556 35.8879 92.3556 35.679V33.8794H92.9002V35.679C92.9002 35.954 92.8638 36.1993 92.7924 36.415C92.7209 36.6307 92.6131 36.814 92.4715 36.9636C92.3286 37.1133 92.152 37.2279 91.9391 37.3087C91.7261 37.3883 91.4807 37.4287 91.203 37.4287H90.8054V37.4274ZM94.8899 35.8273C94.6877 35.8259 94.5219 35.8111 94.3898 35.7855C94.2577 35.7599 94.1471 35.7221 94.0555 35.6736C93.9638 35.6251 93.891 35.563 93.8357 35.4889C93.7805 35.4148 93.7387 35.3285 93.7077 35.2287C93.6767 35.1303 93.6564 35.0184 93.647 34.8958C93.6376 34.7731 93.6322 34.637 93.6322 34.486V31.7117H94.1768V34.486C94.1768 34.6531 94.1822 34.7893 94.193 34.8931C94.2037 34.9969 94.232 35.0778 94.2765 35.1344C94.321 35.191 94.3898 35.2301 94.4814 35.2503C94.5731 35.2705 94.7093 35.2813 94.8899 35.284V35.8273ZM98.6819 34.6747C98.6698 34.6828 98.6226 34.7151 98.5377 34.7731C98.4527 34.8311 98.3408 34.9012 98.2006 34.9834C98.2222 35.0548 98.2559 35.1101 98.3031 35.1492C98.3503 35.1883 98.4002 35.218 98.4514 35.2382C98.5026 35.2584 98.5525 35.2705 98.5983 35.2759C98.6441 35.2813 98.6765 35.2827 98.6967 35.2827H99.302V35.8273H98.6967C98.5565 35.8273 98.4258 35.807 98.3031 35.7653C98.1804 35.7235 98.0712 35.6628 97.9728 35.5819C97.8609 35.4876 97.7774 35.3743 97.7194 35.2422C97.5711 35.315 97.4134 35.3865 97.2435 35.4566C97.0737 35.5266 96.8985 35.5887 96.7178 35.6439C96.5372 35.6992 96.3498 35.7423 96.1584 35.776C95.967 35.8097 95.7769 35.8259 95.5855 35.8259H94.7753V35.2813H95.5855C95.8012 35.2813 96.0182 35.2557 96.2379 35.2045C96.4576 35.1532 96.6693 35.0899 96.8742 35.0144C97.0777 34.9389 97.2692 34.8553 97.4484 34.7664C97.6277 34.6774 97.7841 34.5925 97.9189 34.5143C97.7329 34.4388 97.5468 34.366 97.3608 34.2946C97.1748 34.2231 97.0063 34.1611 96.8526 34.1058C96.6989 34.0506 96.5668 34.0061 96.4563 33.9724C96.3458 33.9373 96.2716 33.9171 96.2352 33.9117C96.2029 33.9117 96.1678 33.9144 96.1328 33.9198C96.0977 33.9252 96.0627 33.9427 96.0276 33.971C95.9926 33.9993 95.9589 34.0452 95.9265 34.1045C95.8942 34.1651 95.8632 34.2501 95.8349 34.3593L95.3078 34.2204C95.4561 33.6515 95.7675 33.3671 96.242 33.3671C96.2554 33.3671 96.2716 33.3671 96.2891 33.3685C96.308 33.3698 96.335 33.3739 96.3727 33.3833C96.4105 33.3914 96.459 33.4049 96.5183 33.4237C96.5776 33.4426 96.6558 33.4669 96.7515 33.5006C96.8472 33.5329 96.9645 33.5747 97.1007 33.6259C97.2368 33.6772 97.3999 33.7392 97.5913 33.8147L98.6118 34.1921L98.6819 34.6747ZM96.3323 36.8598L96.823 36.3638L97.3244 36.8652L96.8284 37.3613L96.3323 36.8598ZM101.188 33.4803C101.192 33.4925 101.2 33.5221 101.211 33.572C101.223 33.6219 101.235 33.6839 101.25 33.758C101.265 33.8322 101.28 33.9131 101.297 34.0034C101.315 34.0923 101.329 34.1827 101.343 34.2743C101.356 34.366 101.369 34.4536 101.378 34.5385C101.387 34.6235 101.393 34.6976 101.393 34.761C101.393 34.9457 101.363 35.1047 101.302 35.2382C101.242 35.3716 101.164 35.4822 101.067 35.5698C100.969 35.6574 100.86 35.7221 100.739 35.7639C100.618 35.8057 100.496 35.8273 100.372 35.8273H99.1793V35.2827H100.372C100.401 35.2827 100.442 35.2786 100.495 35.2692C100.548 35.2611 100.6 35.2395 100.654 35.2045C100.707 35.1694 100.752 35.1182 100.793 35.0494C100.832 34.9807 100.852 34.8836 100.852 34.761C100.852 34.7192 100.85 34.6653 100.843 34.6006C100.836 34.5359 100.828 34.4671 100.817 34.393C100.806 34.3188 100.794 34.2433 100.781 34.1651C100.767 34.087 100.754 34.0142 100.74 33.9441C100.727 33.8753 100.715 33.8133 100.703 33.7594C100.69 33.7055 100.681 33.665 100.674 33.6381L101.188 33.4803ZM100.031 32.8629L99.5756 32.4019L100.026 31.9355L100.492 32.4019L100.031 32.8629ZM101.135 32.8697L100.68 32.4087L101.13 31.9422L101.596 32.4087L101.135 32.8697Z" fill="#FFC20E"/>
</svg>
