<svg width="134" height="37" viewBox="0 0 134 37" fill="none" xmlns="http://www.w3.org/2000/svg">
<path d="M122.762 21.1812V25.6672C122.762 29.4598 121.219 33.1863 118.559 36.2723H114.613C117.687 33.6322 119.971 29.9587 119.971 25.6672V21.1812C119.971 18.8733 118.09 16.9903 115.78 16.9903C113.478 16.9903 111.596 18.872 111.596 21.1812V24.6522C111.596 27.2578 110.029 29.7973 107.691 30.9737L97.6431 36.0301V32.9031L106.438 28.4819C107.856 27.77 108.807 26.2323 108.807 24.6536V21.1825C108.807 17.3304 111.934 14.2034 115.779 14.2034C119.634 14.202 122.762 17.329 122.762 21.1812Z" fill="#FDBF2D"/>
<path d="M117.177 21.1813V25.134C117.177 29.6743 114.488 33.6918 109.806 36.1545C109.73 36.1956 109.653 36.2313 109.57 36.2723H103.367C105.356 35.2639 107.219 34.3257 108.531 33.6733C112.245 31.7148 114.388 28.5997 114.388 25.1327V21.1799C114.388 20.4137 115.016 19.7852 115.783 19.7852C116.554 19.7865 117.177 20.4151 117.177 21.1813Z" fill="#FDBF2D"/>
<path d="M128.363 36.2723H122.067L123.651 34.0822C123.918 33.7144 124.334 33.4828 124.785 33.447C125.242 33.4113 125.687 33.5714 126.014 33.8983L128.363 36.2723Z" fill="#FDBF2D"/>
<path d="M100.421 13.1223L115.236 2.95396C115.561 2.73032 116.001 2.73032 116.328 2.95396L131.129 13.0985V27.0475C131.129 27.3558 131.251 27.6496 131.466 27.868L133.918 30.3452V13.0972C133.918 12.188 133.471 11.3371 132.721 10.8224L117.906 0.654047C116.636 -0.218016 114.929 -0.218016 113.657 0.654047L98.8441 10.8237C98.0938 11.3385 97.6465 12.188 97.6465 13.0972V29.7788L100.435 28.3761L100.421 13.1223Z" fill="#FDBF2D"/>
<path d="M133.919 33.9579V36.2723H132.287L127.646 31.5839C126.299 30.2182 125.557 28.4145 125.557 26.4984V16.682C125.557 16.2731 125.355 15.8867 125.011 15.6551L118.46 11.1506C116.864 10.0589 114.721 10.0589 113.125 11.1506L106.567 15.6551C106.23 15.8867 106.027 16.2718 106.027 16.682V24.1839C106.027 25.0321 105.547 25.8036 104.786 26.19L103.236 26.9681V16.6834C103.236 15.3534 103.89 14.1082 104.988 13.3539L111.545 8.85596C114.086 7.11051 117.498 7.11051 120.038 8.85596L126.59 13.3539C127.687 14.1082 128.348 15.3534 128.348 16.6834V26.4997C128.348 27.6748 128.804 28.7837 129.628 29.6214L133.919 33.9579Z" fill="#FDBF2D"/>
<path d="M6.96103 8.55664H0.542969V12.8349H6.96103C8.14143 12.8349 9.09951 13.793 9.09951 14.9747C9.09951 16.1564 8.14143 17.1132 6.96103 17.1132H0.542969V21.3914H6.96103C10.5049 21.3914 13.3778 18.5185 13.3778 14.9747C13.3778 11.4309 10.5049 8.55664 6.96103 8.55664Z" fill="#636466"/>
<path d="M26.2126 14.9746C26.2126 16.1563 25.2546 17.1131 24.0729 17.1131C22.8925 17.1131 21.9344 16.155 21.9344 14.9746V8.55654V0H17.6548V9.49741V14.9746C17.6548 18.5198 20.5277 21.3913 24.0715 21.3913C27.6167 21.3913 30.4896 18.5184 30.4896 14.9746V8.55654H26.2113V14.9746H26.2126Z" fill="#636466"/>
<path d="M90.3877 14.9746V8.55786H86.1095V14.9746C86.1095 16.1563 85.1514 17.1144 83.9697 17.1144H81.458C81.6949 16.4448 81.8312 15.7262 81.8312 14.9746V13.4515V11.7669V8.55786H77.5529V11.7669V13.4515V14.9746C77.5529 16.1563 76.5948 17.1144 75.4131 17.1144H72.9015C73.1383 16.4448 73.2746 15.7262 73.2746 14.9746V13.4515V11.7669V8.55786H68.9964V11.7669V13.4515V14.9746C68.9964 16.1563 68.0383 17.1144 66.8566 17.1144H64.3449C64.5818 16.4448 64.7181 15.7262 64.7181 14.9746V13.4515V12.3095V11.7669V8.55786H60.4398V11.7669V12.3095V13.4515V14.9746C60.4398 16.1563 59.4818 17.1144 58.3 17.1144H57.3724H55.7871C56.0239 16.4448 56.1602 15.7262 56.1602 14.9746V13.4515V11.7669V8.55786H51.882V11.7669V13.4515V14.9746C51.882 16.1563 50.9239 17.1144 49.7422 17.1144H47.2305C47.4674 16.4448 47.6037 15.7262 47.6037 14.9746C47.6037 11.4294 44.7308 8.55786 41.1856 8.55786H34.7689V12.8361H41.1856C42.3674 12.8361 43.3254 13.7942 43.3254 14.9746C43.3254 16.1563 42.3674 17.1144 41.1856 17.1144H37.0556H34.7676V21.3927H37.0556H41.1856H56.4262H57.3711H58.2987H83.9697C87.5148 21.3913 90.3877 18.5198 90.3877 14.9746Z" fill="#636466"/>
<path d="M56.1621 2.13847C56.1621 0.958078 55.204 0 54.0236 0H51.8838V4.27827H56.1621V2.13847Z" fill="#636466"/>
<path d="M60.4402 23.531H58.3004H54.0234V27.8093H58.3017H62.5813V25.6695C62.58 24.4891 61.6219 23.531 60.4402 23.531Z" fill="#636466"/>
<path d="M21.9692 25.6708C21.9692 26.8525 22.9273 27.8093 24.1077 27.8093H26.2475V23.531H21.9692V25.6708Z" fill="#636466"/>
<path d="M34.1913 36.2547C33.8988 36.2547 33.6342 36.1912 33.396 36.0641C33.1578 35.9371 32.9659 35.7545 32.819 35.5189C32.7171 35.3588 32.6443 35.1802 32.6006 34.9843C32.5649 34.8335 32.5464 34.6747 32.5464 34.5092C32.5464 34.4603 32.5504 34.3677 32.5596 34.23C32.5676 34.0937 32.6073 33.9032 32.6774 33.6584C32.7475 33.4135 32.8441 33.1621 32.9685 32.9014L33.4502 33.1304C33.3443 33.3487 33.261 33.5591 33.2001 33.7602C33.1392 33.9614 33.1009 34.1519 33.085 34.3306C33.0797 34.3915 33.077 34.4497 33.077 34.5066C33.077 34.6204 33.0903 34.7395 33.1154 34.8679C33.1406 34.9949 33.1922 35.1193 33.2702 35.2397C33.3682 35.3919 33.4965 35.511 33.6553 35.5944C33.8141 35.6777 33.9928 35.7201 34.1926 35.7201H34.8582C35.0752 35.7201 35.2526 35.6976 35.3889 35.6513C35.5252 35.6049 35.6324 35.5401 35.7091 35.4567C35.7859 35.3734 35.8375 35.2728 35.8653 35.155C35.893 35.0372 35.9063 34.9062 35.9063 34.7633V32.7731H36.4409V34.7633C36.4409 35.2609 36.3086 35.6341 36.0452 35.8828C35.7806 36.1303 35.3862 36.2547 34.8595 36.2547H34.1913ZM34.2151 32.5494L34.6968 32.0624L35.189 32.5547L34.7021 33.0417L34.2151 32.5494ZM38.4656 34.6866C38.2671 34.6852 38.1043 34.6707 37.9746 34.6455C37.8449 34.6204 37.7364 34.5834 37.6464 34.5357C37.5564 34.4881 37.485 34.4272 37.4307 34.3544C37.3765 34.2816 37.3355 34.1969 37.305 34.099C37.2746 34.0024 37.2547 33.8926 37.2455 33.7722C37.2362 33.6517 37.2309 33.5181 37.2309 33.3699V30.6465H37.7655V33.3699C37.7655 33.534 37.7708 33.6676 37.7814 33.7695C37.792 33.8714 37.8198 33.9508 37.8635 34.0064C37.9071 34.062 37.9746 34.1003 38.0646 34.1202C38.1546 34.14 38.2882 34.1506 38.4656 34.1533V34.6866ZM41.6786 34.6866C41.5423 34.6866 41.4152 34.6667 41.2961 34.627C41.177 34.5873 41.0698 34.5304 40.9732 34.4576C40.9216 34.537 40.8661 34.6006 40.8052 34.6482C40.7443 34.6958 40.6821 34.7329 40.6212 34.758C40.5604 34.7832 40.5008 34.8004 40.4439 34.8083C40.387 34.8163 40.3381 34.8215 40.297 34.8215C40.2044 34.8215 40.1157 34.8123 40.031 34.7938C39.9463 34.7752 39.859 34.7474 39.7704 34.713C39.6817 34.6786 39.5891 34.635 39.4911 34.5847C39.3945 34.5344 39.2873 34.4762 39.1696 34.4126C39.0147 34.5953 38.8162 34.6866 38.5728 34.6866H38.3518V34.152H38.5728C38.6442 34.152 38.7038 34.1255 38.7501 34.0726C38.7964 34.0196 38.8361 33.9508 38.8705 33.8661C38.9049 33.7814 38.9353 33.6835 38.9645 33.575C38.9922 33.4652 39.0253 33.3527 39.0624 33.2375C39.0994 33.1224 39.1431 33.0099 39.1934 32.9001C39.2437 32.7903 39.3085 32.6937 39.3866 32.609C39.4647 32.5243 39.5599 32.4555 39.6724 32.4025C39.7849 32.3496 39.9212 32.3231 40.0813 32.3231C40.2666 32.3231 40.4267 32.3589 40.5643 32.429C40.7006 32.4991 40.8144 32.5944 40.9058 32.7135C40.9957 32.8326 41.0632 32.9689 41.1082 33.1237C41.1519 33.2786 41.1744 33.4387 41.1744 33.6054C41.1744 33.7298 41.1969 33.8291 41.2406 33.9018C41.2842 33.9746 41.3358 34.0289 41.3941 34.0659C41.451 34.103 41.5079 34.1268 41.5634 34.1361C41.619 34.1467 41.6574 34.152 41.6786 34.152H41.7778V34.6866H41.6786ZM40.297 34.2883C40.3116 34.2883 40.3314 34.2869 40.3539 34.2856C40.3764 34.2843 40.4016 34.2763 40.4294 34.2631C40.4571 34.2499 40.4836 34.23 40.5114 34.2022C40.5392 34.1744 40.563 34.1361 40.5855 34.0858C40.6067 34.0355 40.6252 33.972 40.6398 33.8939C40.6543 33.8158 40.6609 33.7192 40.6609 33.6067C40.6609 33.5856 40.6596 33.5525 40.6556 33.5075C40.6517 33.4625 40.6437 33.4122 40.6305 33.3566C40.6173 33.3011 40.5974 33.2442 40.5723 33.1859C40.5471 33.1277 40.5127 33.0734 40.4691 33.0245C40.4254 32.9755 40.3725 32.9358 40.3103 32.9041C40.2481 32.8723 40.1726 32.8578 40.084 32.8578C40.0006 32.8578 39.9305 32.8723 39.8736 32.9014C39.8153 32.9305 39.7677 32.9702 39.728 33.0218C39.6883 33.0721 39.6552 33.133 39.6288 33.2018C39.6023 33.2706 39.5785 33.3447 39.5547 33.4255C39.5322 33.5062 39.5097 33.5895 39.4872 33.6769C39.4647 33.7642 39.4382 33.8516 39.4078 33.9389C39.5057 33.9879 39.597 34.0342 39.679 34.0778C39.7624 34.1215 39.8392 34.1586 39.9106 34.189C39.9821 34.2208 40.0496 34.2446 40.1131 34.2631C40.1753 34.279 40.2362 34.2883 40.297 34.2883ZM44.7566 34.152V34.6866H44.2617C44.0896 34.6866 43.9388 34.6614 43.8078 34.6125C43.6768 34.5635 43.5709 34.4894 43.4928 34.3915C43.297 34.5873 43.0058 34.6852 42.6208 34.6852H41.6587V34.1506H42.6208C42.7571 34.1506 42.8643 34.1374 42.9437 34.1096C43.0231 34.0818 43.0826 34.0487 43.1236 34.0077C43.1646 33.9667 43.1911 33.9217 43.203 33.8714C43.2149 33.8211 43.2215 33.7735 43.2215 33.7285V32.7717H43.7535V33.7086C43.7535 33.7788 43.7641 33.8383 43.7866 33.8873C43.8078 33.9363 43.8356 33.9773 43.8673 34.0104C43.8991 34.0434 43.9361 34.0699 43.9758 34.0884C44.0169 34.107 44.0552 34.1215 44.0936 34.1308C44.132 34.14 44.1651 34.1453 44.1955 34.148C44.2259 34.1493 44.2484 34.1506 44.263 34.1506H44.7566V34.152ZM42.7544 32.077L42.3071 31.6244L42.7491 31.1666L43.207 31.6244L42.7544 32.077ZM43.8395 32.0823L43.3923 31.6297L43.8342 31.1718L44.2921 31.6297L43.8395 32.0823ZM48.4513 33.5551C48.4394 33.5631 48.3904 33.5962 48.3044 33.6544C48.2171 33.7126 48.1019 33.7841 47.9577 33.8674C47.8134 33.9508 47.6454 34.0421 47.4522 34.1374C47.2603 34.234 47.0525 34.3227 46.8315 34.4034C46.6092 34.4841 46.3776 34.5516 46.1368 34.6058C45.8946 34.6601 45.6538 34.6866 45.4116 34.6866H44.6362V34.152H45.4116C45.6234 34.152 45.8364 34.1268 46.0521 34.0765C46.2678 34.0262 46.4756 33.964 46.6767 33.8899C46.8765 33.8158 47.0644 33.7338 47.2404 33.6464C47.4164 33.5591 47.57 33.4757 47.7023 33.399C47.5197 33.3249 47.3371 33.2534 47.1544 33.1833C46.9718 33.1132 46.8064 33.0523 46.6542 32.998C46.5034 32.9438 46.3737 32.9001 46.2652 32.867C46.1567 32.8326 46.0839 32.8128 46.0481 32.8075C46.0164 32.8075 45.982 32.8101 45.9476 32.8154C45.9132 32.8207 45.8788 32.8379 45.8444 32.8657C45.8099 32.8935 45.7769 32.9385 45.7451 32.9967C45.7133 33.0562 45.6829 33.1396 45.6551 33.2468L45.1377 33.1105C45.2833 32.5521 45.589 32.2728 46.0548 32.2728C46.0667 32.2728 46.0812 32.2728 46.0998 32.2742C46.1183 32.2755 46.1461 32.2795 46.1818 32.2887C46.2175 32.2967 46.2652 32.3099 46.326 32.3284C46.3869 32.347 46.4637 32.3708 46.5563 32.4039C46.6503 32.4356 46.7627 32.4766 46.8977 32.5269C47.0314 32.5772 47.1915 32.6381 47.3794 32.7122L48.3811 33.0827L48.4513 33.5551ZM45.4447 31.1176L45.9264 30.6306L46.4187 31.1229L45.9317 31.6099L45.4447 31.1176ZM50.3251 34.6866C50.1266 34.6852 49.9638 34.6707 49.8341 34.6455C49.7045 34.6204 49.5959 34.5834 49.506 34.5357C49.416 34.4881 49.3445 34.4272 49.2903 34.3544C49.236 34.2816 49.195 34.1969 49.1645 34.099C49.1341 34.0024 49.1143 33.8926 49.105 33.7722C49.0957 33.6517 49.0904 33.5181 49.0904 33.3699V30.6465H49.6251V33.3699C49.6251 33.534 49.6304 33.6676 49.6409 33.7695C49.6515 33.8714 49.6793 33.9508 49.723 34.0064C49.7667 34.062 49.8341 34.1003 49.9241 34.1202C50.0141 34.14 50.1478 34.1506 50.3251 34.1533V34.6866ZM52.4186 34.6813C52.2412 34.6813 52.0838 34.6548 51.9461 34.6032C51.8085 34.5516 51.6921 34.4762 51.5981 34.3782C51.5002 34.4841 51.3864 34.5622 51.2554 34.6111C51.1257 34.6614 50.9934 34.6866 50.8624 34.6866H50.2113V34.152H50.8624C50.8901 34.152 50.9312 34.148 50.9841 34.1387C51.037 34.1308 51.0886 34.1083 51.1402 34.0739C51.1919 34.0395 51.2355 33.9865 51.2752 33.9164C51.3136 33.8463 51.3335 33.751 51.3335 33.6306V32.7731H51.8681V33.62C51.8681 33.8026 51.9104 33.9376 51.9964 34.0223C52.0824 34.107 52.2227 34.1493 52.4199 34.1493C52.4477 34.1493 52.4887 34.144 52.5403 34.1334C52.5919 34.1228 52.6435 34.1003 52.6965 34.0646C52.7481 34.0289 52.7931 33.9759 52.8328 33.9058C52.8711 33.8357 52.891 33.7404 52.891 33.62V32.7731H53.423V33.62C53.423 33.8026 53.4666 33.9376 53.5566 34.0249C53.6453 34.1122 53.7882 34.1546 53.984 34.1546C54.0145 34.1546 54.0542 34.148 54.1058 34.1361C54.1561 34.1242 54.2077 34.099 54.2566 34.0606C54.3069 34.0223 54.3493 33.9693 54.385 33.8992C54.4207 33.8291 54.4393 33.7364 54.4393 33.6187C54.4393 33.5776 54.4366 33.5247 54.43 33.4625C54.4234 33.4003 54.4154 33.3328 54.4049 33.2614C54.3943 33.1899 54.3824 33.1171 54.3691 33.0417C54.3559 32.9676 54.3427 32.8975 54.3294 32.8326C54.3162 32.7678 54.3043 32.7095 54.2924 32.6566C54.2805 32.605 54.2712 32.5666 54.2646 32.5415L54.7714 32.38C54.7754 32.3919 54.7833 32.4211 54.7939 32.4687C54.8058 32.5163 54.8191 32.5759 54.8336 32.6473C54.8482 32.7175 54.8641 32.7969 54.8799 32.8842C54.8958 32.9716 54.9117 33.0589 54.9249 33.1462C54.9395 33.2336 54.9514 33.3183 54.9607 33.4003C54.9699 33.4824 54.9752 33.5551 54.9752 33.6173C54.9752 33.796 54.9461 33.9521 54.8879 34.0858C54.8296 34.2194 54.7529 34.3293 54.6603 34.4166C54.5663 34.504 54.4604 34.5701 54.3413 34.6151C54.2222 34.6601 54.1031 34.6826 53.9854 34.6839C53.8041 34.6839 53.644 34.6575 53.505 34.6032C53.3661 34.5489 53.2483 34.4722 53.153 34.3703C53.0551 34.4735 52.9413 34.5516 52.8116 34.6019C52.6793 34.6561 52.5496 34.6813 52.4186 34.6813ZM62.8264 34.152V34.6839H62.7417C62.6041 34.6839 62.4744 34.6641 62.3514 34.6231C62.2283 34.582 62.1198 34.5238 62.0232 34.4457C62.0113 34.4365 62.0007 34.4259 61.9888 34.4166C61.9769 34.406 61.9663 34.3954 61.9544 34.3835C61.7545 34.582 61.4647 34.6813 61.0849 34.6839H57.8719C57.7383 34.6839 57.6126 34.6614 57.4935 34.6164C57.3757 34.5714 57.2712 34.5066 57.1812 34.4206C57.1428 34.3862 57.1057 34.3452 57.0674 34.2962C57.029 34.2472 56.9946 34.189 56.9641 34.1242C56.9324 34.058 56.9072 33.9826 56.8874 33.8992C56.8675 33.8158 56.8583 33.7206 56.8583 33.6147C56.8583 33.5207 56.8675 33.4162 56.8874 33.3037C56.9072 33.1899 56.9284 33.0827 56.9522 32.9808C56.9761 32.8789 56.9986 32.7916 57.0197 32.7175C57.0409 32.6434 57.0555 32.5984 57.0607 32.5812L57.5702 32.7426C57.557 32.7823 57.5411 32.8379 57.5213 32.9107C57.5014 32.9835 57.4816 33.0615 57.4617 33.1436C57.4419 33.227 57.4247 33.3103 57.4114 33.3937C57.3969 33.4771 57.3903 33.5512 57.3903 33.6134C57.3903 33.7378 57.4101 33.8357 57.4498 33.9071C57.4895 33.9786 57.5358 34.0329 57.5901 34.0686C57.6443 34.1043 57.6986 34.1268 57.7528 34.1361C57.8071 34.1453 57.8494 34.1506 57.8772 34.1506H61.0638C61.2014 34.1506 61.3112 34.1361 61.3933 34.1083C61.4753 34.0805 61.5375 34.0448 61.5799 34.0011C61.6222 33.9574 61.65 33.9098 61.6619 33.8582C61.6738 33.8066 61.6804 33.7563 61.6804 33.71V32.7281H62.2151V33.6954C62.2151 33.8026 62.2375 33.8873 62.2839 33.9482C62.3302 34.009 62.3831 34.0553 62.444 34.0858C62.5049 34.1162 62.5631 34.1347 62.62 34.1414C62.6769 34.148 62.7166 34.1506 62.7391 34.1506H62.8264V34.152ZM58.9637 32.5137L58.5164 32.0611L58.9584 31.6033L59.4162 32.0611L58.9637 32.5137ZM60.0475 32.519L59.6002 32.0664L60.0422 31.6085L60.5 32.0664L60.0475 32.519ZM65.3076 34.6866C65.2759 34.6866 65.2388 34.6826 65.1978 34.6733C65.1568 34.6654 65.1078 34.6482 65.0509 34.6244C64.994 34.5992 64.9292 34.5648 64.8551 34.5198C64.781 34.4748 64.6949 34.4153 64.597 34.3412C64.3787 34.4603 64.1219 34.5476 63.8295 34.6032C63.537 34.6588 63.2102 34.6866 62.8502 34.6866H62.6862V34.152H62.8502C63.1215 34.152 63.365 34.1361 63.5807 34.1056C63.7964 34.0739 63.9777 34.0302 64.1272 33.9707C64.0293 33.8873 63.9314 33.8013 63.8348 33.7126C63.7382 33.6239 63.6482 33.5406 63.5675 33.4625C63.4868 33.3844 63.4166 33.3169 63.3571 33.2587C63.2975 33.2018 63.2578 33.1608 63.2366 33.1383V33.0245C63.2366 32.9888 63.238 32.9491 63.2419 32.9067C63.2459 32.8644 63.2539 32.8207 63.2644 32.7757C63.2763 32.7307 63.2922 32.6844 63.316 32.6381C63.3385 32.5918 63.369 32.5468 63.406 32.5031C63.549 32.343 63.7779 32.2623 64.0915 32.2623H65.0284C65.1846 32.2623 65.3262 32.3006 65.4532 32.3774C65.5789 32.4541 65.6715 32.5587 65.7311 32.6923C65.7748 32.7797 65.7959 32.8644 65.7946 32.9491C65.7933 33.0324 65.7774 33.1145 65.747 33.1952C65.7152 33.2759 65.6729 33.3527 65.6199 33.4268C65.5657 33.5009 65.5075 33.5737 65.4426 33.6425C65.3791 33.7113 65.3129 33.7775 65.2454 33.8396C65.178 33.9018 65.1171 33.9601 65.0602 34.0157C65.1012 34.0434 65.1369 34.0673 65.1674 34.0845C65.1978 34.103 65.2229 34.1162 65.2428 34.1255C65.2626 34.1347 65.2772 34.1414 65.2878 34.144C65.2984 34.1467 65.305 34.1493 65.309 34.1506H66.3451V34.6852H65.3076V34.6866ZM63.7766 32.9239C63.8136 32.9596 63.8665 33.0099 63.9354 33.0721C64.0028 33.1356 64.077 33.2031 64.1577 33.2772C64.2384 33.3513 64.3191 33.4241 64.4012 33.4982C64.4832 33.5723 64.5573 33.6359 64.6235 33.6901C64.7254 33.6094 64.8233 33.5234 64.9159 33.4321C65.0099 33.3421 65.1025 33.2362 65.1978 33.1184C65.219 33.092 65.2362 33.0615 65.2521 33.0245C65.2573 33.0113 65.26 32.9967 65.26 32.9821C65.26 32.9596 65.2547 32.9372 65.2428 32.9147C65.2282 32.8869 65.2031 32.8604 65.1687 32.8353C65.1343 32.8101 65.088 32.7982 65.0271 32.7982H64.0902C64.0359 32.7982 63.9909 32.8008 63.9552 32.8048C63.9208 32.8101 63.8917 32.8154 63.8705 32.8233C63.8493 32.8313 63.8321 32.8379 63.8229 32.8445C63.8123 32.8511 63.8057 32.8577 63.8017 32.863C63.7964 32.867 63.7911 32.8736 63.7871 32.8842C63.7845 32.8961 63.7805 32.908 63.7766 32.9239ZM68.2123 34.152V34.6866H67.9913C67.8193 34.6866 67.6684 34.6614 67.5374 34.6125C67.4064 34.5635 67.3005 34.4894 67.2225 34.3915C67.0266 34.5873 66.7355 34.6852 66.3504 34.6852H65.8065V34.1506H66.3504C66.4867 34.1506 66.5939 34.1374 66.6733 34.1096C66.7527 34.0818 66.8122 34.0487 66.8533 34.0077C66.8943 33.9667 66.9208 33.9217 66.9327 33.8714C66.9446 33.8211 66.9512 33.7735 66.9512 33.7285V32.7717H67.4832V33.7086C67.4832 33.7788 67.4937 33.8383 67.5149 33.8873C67.5361 33.9363 67.5626 33.9773 67.5956 34.0104C67.6287 34.0434 67.6658 34.0699 67.7055 34.0884C67.7465 34.107 67.7849 34.1215 67.8232 34.1308C67.8616 34.14 67.8947 34.1453 67.9251 34.148C67.9556 34.1493 67.9781 34.1506 67.9926 34.1506H68.2123V34.152ZM66.529 31.4683L67.0107 30.9813L67.503 31.4736L67.016 31.9605L66.529 31.4683ZM68.0985 34.6866V34.152H68.5881C68.7205 34.152 68.8263 34.1387 68.9057 34.1122C68.9851 34.0858 69.0447 34.0527 69.087 34.0117C69.128 33.9707 69.1558 33.927 69.1691 33.8767C69.1823 33.8277 69.1889 33.7801 69.1889 33.7325V32.7757H69.7209V33.71C69.7209 33.8158 69.7434 33.8979 69.787 33.9561C69.8307 34.0143 69.8823 34.058 69.9379 34.0858C69.9604 34.0501 69.9829 34.013 70.0041 33.9773C70.0252 33.9402 70.0477 33.9032 70.0702 33.8661C70.1443 33.7457 70.2211 33.6226 70.3005 33.4969C70.3812 33.3712 70.4646 33.2495 70.5532 33.129C70.6419 33.0086 70.7345 32.8961 70.8325 32.7903C70.9291 32.6844 71.0323 32.5931 71.1421 32.5137C71.252 32.4356 71.3671 32.3734 71.4902 32.3271C71.6132 32.2808 71.7429 32.2583 71.8805 32.2583C72.0181 32.2583 72.1531 32.2834 72.2868 32.3337C72.4204 32.384 72.5382 32.4608 72.6414 32.5653C72.7446 32.6698 72.828 32.8035 72.8915 32.9663C72.9551 33.129 72.9868 33.3222 72.9868 33.5459C72.9868 33.755 72.9524 33.9323 72.8836 34.0778C72.8148 34.2234 72.7261 34.3412 72.6163 34.4312C72.5065 34.5212 72.3847 34.5873 72.2484 34.627C72.1121 34.6667 71.9785 34.6866 71.8461 34.6866H70.2277C70.0914 34.6866 69.963 34.6667 69.8426 34.6257C69.7222 34.5847 69.615 34.5278 69.5224 34.451C69.4999 34.4338 69.4774 34.4153 69.4575 34.3941C69.3596 34.4907 69.2405 34.5622 69.0989 34.6098C68.9587 34.6575 68.7932 34.6826 68.6053 34.6866H68.0985ZM71.8488 34.152C71.9414 34.152 72.0248 34.1387 72.1002 34.1136C72.1756 34.0884 72.2405 34.0501 72.2934 33.9984C72.3463 33.9468 72.3887 33.8846 72.4178 33.8092C72.4469 33.7338 72.4615 33.6464 72.4615 33.5459C72.4615 33.305 72.4099 33.1184 72.3053 32.9874C72.2021 32.8564 72.0605 32.7903 71.8805 32.7903C71.7482 32.7903 71.6212 32.8326 71.4968 32.9173C71.3737 33.002 71.2546 33.1105 71.1408 33.2428C71.027 33.3752 70.9172 33.5207 70.8139 33.6822C70.7107 33.8423 70.6115 33.9998 70.5202 34.152H71.8488ZM79.1535 34.1625C79.2236 34.1625 79.2884 34.1506 79.3493 34.1255C79.4102 34.1003 79.4618 34.0673 79.5054 34.0236C79.5862 33.9363 79.6272 33.8185 79.6272 33.6703V33.6385C79.6259 33.612 79.6219 33.5803 79.6193 33.5419C79.6153 33.5035 79.6113 33.4612 79.6047 33.4122C79.5994 33.3646 79.5928 33.3169 79.5862 33.2667C79.5796 33.2164 79.5716 33.1634 79.5624 33.1065C79.5531 33.0496 79.5425 32.9888 79.5306 32.9226C79.5187 32.8564 79.5055 32.7823 79.4909 32.699L80.0083 32.6116C80.0255 32.6923 80.0401 32.7678 80.0533 32.8366C80.0665 32.9054 80.0784 32.9689 80.0877 33.0271C80.1062 33.1462 80.1221 33.2574 80.134 33.3619C80.1459 33.4665 80.1539 33.5498 80.1578 33.612V33.6689C80.1578 33.7444 80.1512 33.8185 80.138 33.8913C80.1248 33.964 80.1049 34.0329 80.0784 34.0977C80.052 34.1625 80.0229 34.2194 79.9898 34.2671C79.9567 34.3147 79.9236 34.3557 79.8892 34.3901C79.7966 34.4881 79.6867 34.5635 79.5584 34.6164C79.43 34.6694 79.295 34.6958 79.1535 34.6958H75.6043C75.472 34.6945 75.3463 34.6707 75.2285 34.627C75.1094 34.5834 75.0049 34.5185 74.9149 34.4325C74.8765 34.3981 74.8395 34.3571 74.8011 34.3081C74.7627 34.2591 74.7283 34.2009 74.6979 34.1361C74.6661 34.0699 74.6423 33.9945 74.6224 33.9098C74.6039 33.8251 74.5946 33.7298 74.5946 33.6239C74.5946 33.53 74.6039 33.4255 74.6224 33.313C74.641 33.1992 74.6621 33.0933 74.6859 32.9914C74.7098 32.8908 74.7323 32.8022 74.7534 32.7281C74.7746 32.654 74.7892 32.6076 74.7945 32.5904L75.3039 32.7519C75.292 32.7916 75.2775 32.8472 75.2576 32.9199C75.2378 32.9927 75.2179 33.0708 75.1981 33.1528C75.1782 33.2362 75.161 33.3196 75.1465 33.403C75.1319 33.4863 75.1253 33.5604 75.1253 33.6226C75.1253 33.747 75.1451 33.8449 75.1848 33.9164C75.2245 33.9879 75.2709 34.0421 75.3251 34.0778C75.3794 34.1136 75.4323 34.1361 75.4865 34.1453C75.5408 34.1546 75.5818 34.1599 75.6096 34.1599H79.1535V34.1625ZM76.839 32.5137L76.3917 32.0611L76.8337 31.6033L77.2915 32.0611L76.839 32.5137ZM77.9228 32.519L77.4755 32.0664L77.9175 31.6085L78.3753 32.0664L77.9228 32.519ZM79.6378 36.2573V35.7227H80.0282C80.2227 35.7227 80.3907 35.7002 80.5337 35.6539C80.6766 35.6076 80.7944 35.5361 80.887 35.4409C80.9809 35.3443 81.0498 35.2225 81.0934 35.073C81.1371 34.9234 81.1596 34.7461 81.1596 34.541V32.7744H81.6942V34.541C81.6942 34.811 81.6585 35.0518 81.5883 35.2635C81.5182 35.4753 81.4123 35.6552 81.2734 35.8021C81.1331 35.949 80.9598 36.0615 80.7507 36.1409C80.5416 36.219 80.3008 36.2587 80.0282 36.2587H79.6378V36.2573ZM83.6474 34.6866C83.4489 34.6852 83.2862 34.6707 83.1565 34.6455C83.0268 34.6204 82.9183 34.5834 82.8283 34.5357C82.7383 34.4881 82.6668 34.4272 82.6126 34.3544C82.5583 34.2816 82.5173 34.1969 82.4869 34.099C82.4564 34.0024 82.4366 33.8926 82.4273 33.7722C82.4181 33.6517 82.4128 33.5181 82.4128 33.3699V30.6465H82.9474V33.3699C82.9474 33.534 82.9527 33.6676 82.9633 33.7695C82.9739 33.8714 83.0016 33.9508 83.0453 34.0064C83.089 34.062 83.1565 34.1003 83.2465 34.1202C83.3364 34.14 83.4701 34.1506 83.6474 34.1533V34.6866ZM87.3699 33.5551C87.358 33.5631 87.3117 33.5948 87.2283 33.6517C87.1449 33.7086 87.0351 33.7775 86.8975 33.8582C86.9186 33.9283 86.9517 33.9826 86.9981 34.0209C87.0444 34.0593 87.0933 34.0884 87.1436 34.1083C87.1939 34.1281 87.2429 34.14 87.2878 34.1453C87.3328 34.1506 87.3646 34.152 87.3845 34.152H87.9786V34.6866H87.3845C87.2468 34.6866 87.1185 34.6667 86.9981 34.6257C86.8776 34.5847 86.7704 34.5251 86.6738 34.4457C86.564 34.3531 86.482 34.2419 86.4251 34.1122C86.2795 34.1837 86.1247 34.2538 85.9579 34.3227C85.7912 34.3915 85.6192 34.4523 85.4418 34.5066C85.2645 34.5609 85.0806 34.6032 84.8927 34.6363C84.7047 34.6694 84.5182 34.6852 84.3302 34.6852H83.5349V34.1506H84.3302C84.542 34.1506 84.755 34.1255 84.9707 34.0752C85.1864 34.0249 85.3942 33.9627 85.5953 33.8886C85.7952 33.8145 85.9831 33.7325 86.1591 33.6451C86.3351 33.5578 86.4886 33.4744 86.6209 33.3977C86.4383 33.3236 86.2557 33.2521 86.073 33.182C85.8904 33.1118 85.725 33.051 85.5742 32.9967C85.4233 32.9424 85.2936 32.8988 85.1851 32.8657C85.0766 32.8313 85.0038 32.8114 84.9681 32.8061C84.9363 32.8061 84.9019 32.8088 84.8675 32.8141C84.8331 32.8194 84.7987 32.8366 84.7643 32.8644C84.7299 32.8922 84.6968 32.9371 84.6651 32.9954C84.6333 33.0549 84.6028 33.1383 84.5751 33.2455L84.0576 33.1092C84.2032 32.5507 84.5089 32.2715 84.9747 32.2715C84.9879 32.2715 85.0038 32.2715 85.021 32.2728C85.0395 32.2742 85.066 32.2781 85.1031 32.2874C85.1401 32.2953 85.1878 32.3086 85.246 32.3271C85.3042 32.3456 85.381 32.3694 85.4749 32.4025C85.5689 32.4343 85.684 32.4753 85.8176 32.5256C85.9513 32.5759 86.1114 32.6368 86.2993 32.7109L87.3011 33.0814L87.3699 33.5551ZM85.0634 35.7002L85.545 35.2132L86.0373 35.7055L85.5503 36.1925L85.0634 35.7002ZM89.8299 32.3827C89.8339 32.3946 89.8418 32.4237 89.8524 32.4727C89.8643 32.5216 89.8763 32.5825 89.8908 32.6553C89.9054 32.7281 89.9199 32.8075 89.9371 32.8961C89.9543 32.9835 89.9689 33.0721 89.9821 33.1621C89.9953 33.2521 90.0073 33.3381 90.0165 33.4215C90.0258 33.5048 90.0311 33.5776 90.0311 33.6398C90.0311 33.8211 90.002 33.9773 89.9424 34.1083C89.8829 34.2393 89.8061 34.3478 89.7108 34.4338C89.6156 34.5198 89.5084 34.5833 89.3893 34.6244C89.2702 34.6654 89.1511 34.6866 89.0293 34.6866H87.8582V34.152H89.0293C89.0571 34.152 89.0981 34.148 89.1497 34.1387C89.2014 34.1308 89.253 34.1096 89.3059 34.0752C89.3575 34.0408 89.4025 33.9905 89.4422 33.923C89.4806 33.8555 89.5004 33.7603 89.5004 33.6398C89.5004 33.5988 89.4978 33.5459 89.4912 33.4824C89.4846 33.4188 89.4766 33.3513 89.466 33.2786C89.4554 33.2058 89.4435 33.1317 89.4303 33.0549C89.4171 32.9782 89.4038 32.9067 89.3906 32.8379C89.3774 32.7704 89.3655 32.7095 89.3535 32.6566C89.3416 32.6037 89.3324 32.564 89.3258 32.5375L89.8299 32.3827ZM88.6945 31.7766L88.2472 31.324L88.6892 30.8662L89.1471 31.324L88.6945 31.7766ZM89.7783 31.7832L89.331 31.3306L89.773 30.8728L90.2309 31.3306L89.7783 31.7832Z" fill="#FDBF2D"/>
</svg>
